<?xml version="1.0" encoding="utf-8"?>
<!-- Generator: Adobe Illustrator 27.9.0, SVG Export Plug-In . SVG Version: 6.00 Build 0)  -->
<svg version="1.1" id="Calque_1" xmlns="http://www.w3.org/2000/svg" xmlns:xlink="http://www.w3.org/1999/xlink" x="0px" y="0px"
	 viewBox="0 0 514.4 197.6" style="enable-background:new 0 0 514.4 197.6;" xml:space="preserve">
<style type="text/css">
	.st0{display:none;fill:#17ADA9;}
	.st1{fill:#ACDCF0;}
	.st2{fill:#D39163;}
	.st3{fill:#F6D4CF;}
	.st4{fill:#FFFFFF;}
	.st5{fill:#A7EAFC;}
	.st6{fill:#FD5737;}
	.st7{fill:#2C28DB;}
</style>
<g>
	<path class="st0" d="M514.4,197.6V0H0v197.6H514.4z"/>
	<path class="st1" d="M245.9,170.8l-2-13.9c4.4-1.8,8.2-3.3,8.9-3.4c0.5-0.1,0.9-0.8,1.3-1.8l30.3,10.1l-18.9,8.4
		c0,0-9.1-1.6-13.3-0.3c-0.4,0.2-1.4,0.9-2.6,1.9L245.9,170.8z M332,177.7l-5.2-1.7l-24.9-8.3c-2,0.7-5.3,1.6-9.2,2.5
		c-11.3,2.7-27.1,5.7-27.1,5.7s0,0,0,0l16,4.1v2.3l-32,14.3l-50.8-15.1v-2.6l0.1,0c-0.1-0.5-0.8-4.9-2.6-17.5l-26,5.9
		c0.2,7-2,14.1-4.4,16.3c-3.2,3-10.5,3.8-15.2,3.4c-4.6-0.4-14.4-1.4-17.9-0.8c-3.5,0.7-7.1,1.6-8.6,4.7c-1.5,3.1-4.9,1.7-4.4-1.3
		c0.5-3.1,2-5.5,7.8-6.6c5.8-1.1,12.7-1.2,12.7-1.2c-1.8-2.6-2-5.2-1.5-7.3L37.5,197.6H312h79.5L332,177.7z M249,178.7l8.7,1.6
		l-9.9,3.6l0.2,1.7l13.2-4.7c0.4-0.1,0.6-0.5,0.6-0.9s-0.3-0.7-0.7-0.8l-5.4-1C253.7,178.1,251.3,178.2,249,178.7z"/>
	<path class="st2" d="M308.9,135.2L308.9,135.2c0,0-2.4,29.3-5.3,31.7c-0.3,0.2-0.9,0.5-1.7,0.8c-2,0.7-5.3,1.6-9.2,2.5
		c-11.3,2.7-27.1,5.7-27.1,5.7s0,0,0,0c0,0-3.6,2.6-7.1,2.4c-0.7,0-1.7-0.1-2.8-0.1c-2,0-4.4,0.1-6.7,0.5c-0.6,0.1-1.3,0.2-1.9,0.4
		l-0.1-0.8l-0.3-1.8l-0.2-1.7c0.8-0.8,2.1-1.9,3.4-2.9c1.1-0.9,2.1-1.7,2.6-1.9c4.2-1.3,13.3,0.3,13.3,0.3l18.9-8.4l0.2-0.1l5.3-2.3
		l1.2-0.5c0,0-0.5-13.7,0.7-21.9c0-0.1,0-0.2,0-0.2c0,0,0-0.1,0-0.1C295.2,137.6,303.6,136.6,308.9,135.2z M254.2,151.8
		c0-0.1,0.1-0.1,0.1-0.2l0.1,0l0.1-0.4c0,0,0,0,0,0l0,0l2.1-14.2l0.2-1.4l0.2-1.7c-0.1,0-0.2,0-0.3,0c-0.2,0-0.4,0-0.7,0.1
		c-1,0.1-2.1,0.2-2.7,0.2c-0.3,0-0.5,0-0.5,0l0,0c-2,0.1-3.8,0.1-5.3,0c-2.3-0.1-4-0.5-5.1-0.8c0,4.5,0.5,7.6-0.1,8.2
		c-0.7,0.8-2.6,2.5-4.6,4.2l4.7,0.8l0.6,4.1l0.9,6.4c4.4-1.8,8.2-3.3,8.9-3.4C253.4,153.4,253.8,152.8,254.2,151.8z M258.8,79.1
		c-0.1-2.2,0.7-6.1,0.7-6.1s3.6-1.2,6.4-3.3c2.8-2.1,6.9-6.5,6.9-6.5s0.5,3.5,2.7,6.7c2.1,3.2,7.7,5.7,7.7,5.7s0.1,2.7,0.2,5.5
		c0,0.1,0,0.2,0,0.2c0.2,4.4-2.5,9.5-2.9,10.4c0,0.1-0.1,0.1-0.1,0.1s0,0,0.1,0c0,0,0,0,0,0c0.7,2,1.8,4.3,3.8,5.2
		c1.2,0.6,2.1,1,2.8,1.3c-0.4-0.1-0.7-0.1-0.7-0.1c-1.5,4.8-4,9.3-8.9,10.8c-1,0.3-2.1,0.5-3.3,0.5c-7.3,0.1-4.3-8.6-4.9-11.1
		c0.6-1,0.6-2.3,0.5-3.4c-2.5-0.3-4.6-1.2-6.2-2.4c0,0,0,0,0,0s-0.1-0.1-0.3-0.2c-1.3-1.1-2.4-2.3-3.2-3.6c-0.1-0.3-0.3-0.6-0.4-1
		C258.3,83.7,258.8,81.4,258.8,79.1z M280.9,80.6c-0.5-0.5-1.3-0.9-2.1-0.8c-1.5,0.2-2.6,1.5-2.5,2.9c0.1,1.5,1.4,2.6,2.9,2.5
		c0.2,0,0.3,0,0.4-0.1c1.3-0.3,2.1-1.5,2.1-2.8C281.6,81.6,281.3,81,280.9,80.6z M273.9,78c0.9,1.2,1.9,1.7,2.9,1.7
		c2,0,3.5-1.8,3.5-1.8v-0.6l-0.7,0.1l-0.2,0.2c-0.5,0.5-1.5,1.3-2.6,1.3c-0.7,0-1.4-0.3-2.2-1.4l-0.6-0.1L273.9,78z M270.2,87.9
		h-0.3l-0.4,0.4l0.4,0.4h0.4c2.6,0,3.5-1.6,3.5-1.7l-0.2-0.6l-0.7,0.3C272.8,86.9,272.1,87.9,270.2,87.9z M268.5,81.8
		c0,0.7,0.5,1.5,1.6,1.7l0.5-0.3l-0.3-0.5c-0.8-0.2-0.9-0.5-0.9-0.9s0.2-1,0.5-1.4s0.5-0.7,0.5-0.7v-0.6h-0.6
		C269.8,79.1,268.6,80.4,268.5,81.8z M259.9,78.4c0.9,1.2,1.9,1.7,2.9,1.7c2,0,3.5-1.8,3.5-1.8v-0.6l-0.7,0.1l-0.2,0.2
		c-0.5,0.5-1.6,1.3-2.6,1.3c-0.7,0-1.4-0.3-2.2-1.4l-0.6-0.1L259.9,78.4z M259.5,84c0.1,1.5,1.4,2.6,2.9,2.5s2.6-1.4,2.5-2.9
		s-1.4-2.6-2.9-2.5C260.4,81.3,259.3,82.5,259.5,84z"/>
	<path class="st3" d="M332,177.7l-0.1-9.2l36.4-53l0.1,0c0,0,0,0,0,0c0,1.6,18.4,2.8,41.6,2.9v79.2h-18.6L332,177.7z M431.4,132.7
		c1.6,0.2,2.8,1.5,2.8,3c0,1.7-1.5,3-3.4,3s-3.4-1.4-3.4-3c0-1.5,1.2-2.8,2.9-3v-14.6c-5.2,0.2-10.9,0.2-17,0.3v79.2h96.5l-54-81.8
		c-1.6,1-11.2,1.9-24.4,2.3V132.7z M279.6,85.1c-0.1,0-0.3,0.1-0.4,0.1c-1.5,0.1-2.8-1-2.9-2.5c-0.1-1.4,1-2.7,2.5-2.9
		c0.8-0.1,1.6,0.3,2.1,0.8c0.4,0.4,0.7,1,0.8,1.7C281.8,83.6,280.9,84.8,279.6,85.1z M170.3,167.2c0.2,7-2,14.1-4.4,16.3
		c-3.2,3-10.5,3.8-15.2,3.4c-4.6-0.4-14.4-1.4-17.9-0.8c-3.5,0.7-7.1,1.6-8.6,4.7c-1.5,3.1-4.9,1.7-4.4-1.3c0.5-3.1,2-5.5,7.8-6.6
		c5.8-1.1,12.7-1.2,12.7-1.2v0.3c1.9,0.1,3.4,0.3,4.6,0.3c3,0,4.3-0.6,5.4-1.1l-0.1-0.3c-1.5,0.7-3.4,1.6-9.9,0.8
		c-1.8-2.6-2-5.2-1.5-7.3c0.4-1.7,1.3-3.1,2.3-4.1c1.8-1.8,3.3-2.5,3.7-2.7l0.1,0.2c1.9-0.7,3.3-1.2,4.3-1.5
		c0.9-0.3,1.4-0.4,1.5-0.5l-0.2-0.3c-0.1,0.1-0.7,0.3-1.5,0.5c-1,0.3-2.3,0.8-4.1,1.4c0.1-0.7,0.5-3.7-1-9.1
		c-1.7-5.9-4-12.1-3.1-17.5c-2.7-2.4-3.5-5.8-2.2-8.4c0.4-0.8,1-1.4,1.8-1.8c0.2-1.8,0.8-4.5,1.3-5.4c0.7-1.2,2.1-1.9,2.5-0.6
		c0.2,1,1.5,3.9,2.1,5.3c1.2,0.2,2.4,0.6,3.5,1.2c1.5,0.8,2.7,1.8,3.7,2.9c0.5-0.2,3.5-1.5,4.1-2c0.7-0.4,1.3,0.1,1.2,0.5
		c-0.1,2.3-1.7,6.8-3.9,7.9c0,0,0,0,0,0.1c-0.3,0.5-0.6,0.9-1.1,1.3c1.3,2.1,2.3,3,3.9,3.8c1.8,1,8.7,6.5,11.5,15
		C169.8,162.7,170.2,165,170.3,167.2z M143.1,137.7c-0.2,0.3,0,0.8,0.5,1c0.4,0.3,1,0.2,1.1-0.1c0.2-0.3,0-0.8-0.5-1
		C143.8,137.3,143.3,137.4,143.1,137.7z M141.3,133.9c0.4,1,1.3,1.4,2.1,1.4c0.2,0,0.4,0,0.5-0.1c0.1,0,0.1-0.1,0.1-0.2
		s-0.1-0.1-0.2-0.1c-0.8,0.2-1.9-0.2-2.2-1.1c0-0.1-0.1-0.1-0.2-0.1C141.3,133.7,141.3,133.8,141.3,133.9z M141.4,139.4
		c0.2,0.2,0.4,0.3,0.6,0.4c0.3,0.1,0.5,0.1,0.8,0.1c0.1,0.2,0.2,0.4,0.5,0.6c0.3,0.3,0.6,0.3,0.9,0.3c0.3,0,0.5,0,0.7-0.1
		c0.1,0,0.1-0.1,0.1-0.2s-0.1-0.1-0.2-0.1c-0.3,0.1-0.9,0.2-1.3-0.1c-0.2-0.1-0.3-0.3-0.4-0.4c0,0,0,0,0,0l0.6-1l-0.3-0.1l-0.5,0.9
		h0c-0.4,0.1-0.9,0-1.3-0.4c-0.3-0.2-0.4-0.5-0.4-0.8c0-0.1,0-0.2-0.1-0.2c-0.1,0-0.2,0-0.2,0.1C140.8,138.7,141,139.1,141.4,139.4z
		 M146.7,143.4c-3.1-0.5-3.9-1.2-5.4-2.2l-0.2-0.2L141,141l-0.1,0.2l0.2,0.2c1.4,0.9,2.4,1.6,5.5,2.2L146.7,143.4L146.7,143.4z
		 M150.8,138.8c0-0.1-0.1-0.1-0.2-0.1c-0.4,0.2-1,0.1-1.5-0.2c-0.4-0.2-0.7-0.5-0.7-0.9c0-0.1-0.1-0.1-0.2-0.1
		c-0.1,0-0.1,0.1-0.1,0.2c0.1,0.4,0.4,0.8,0.9,1.1c0.3,0.2,0.7,0.3,1.1,0.3c0.2,0,0.4,0,0.6-0.1C150.8,139,150.8,138.9,150.8,138.8z
		 M302.7,68c-3.8-1.6-7.2-11.5-12.4-15.8c-5.2-4.3-16.7-0.4-16.7-0.4c-9.2-3.1-15.3,2.2-20.9,5.8c-5.7,3.6-4.9,7-4.3,11.9
		c0.6,5-1.4,6.6-1.7,12.1s1.8,8.8,7,11.3c4.8,2.4,9.4,0,9.9-0.3c0,0,0,0,0,0s-0.1-0.1-0.3-0.2c-0.7-0.4-2.2-1.6-3.2-3.6
		c-0.1-0.3-0.3-0.6-0.4-1c-1.4-4.1-0.9-6.4-0.9-8.7c-0.1-2.2,0.7-6.1,0.7-6.1s3.6-1.2,6.4-3.3c2.8-2.1,6.9-6.5,6.9-6.5
		s0.5,3.5,2.7,6.7c2.1,3.2,7.7,5.7,7.7,5.7s0.1,2.7,0.2,5.5c0,0.1,0,0.2,0,0.2c0.2,4.4-2.5,9.5-2.9,10.4c0,0.1-0.1,0.1-0.1,0.1
		s0,0,0.1,0c0,0,0,0,0,0c0.7,0.3,3.9,1.4,6.6-0.7c4.4-3.5,5.4,0.2,11.4-5.1c0.3-0.3,0.7-0.6,1.1-1C306.4,78.7,306.5,69.5,302.7,68z
		 M262,81.1c-1.6,0.2-2.7,1.4-2.5,2.9c0.1,1.5,1.4,2.6,2.9,2.5s2.6-1.4,2.5-2.9S263.5,81,262,81.1z"/>
	<path class="st4" d="M390.5,59.7c0.3,0,0.7,0.1,1.1,0.1c-0.3,3.1-1.5,6.4-2.4,8.8c-1.3,3.5-4.1,19.3-6.3,32.1
		c-0.8,4.8-1.6,9.3-2.2,12.8c-0.1,0.7-0.2,1.4-0.4,2c0,0.2-0.1,0.5-0.1,0.7c0,0.1,0,0.2-0.1,0.3c-0.4,0-0.8,0-1.1,0
		c0-0.1,0-0.2,0.1-0.3c0-0.2,0.1-0.5,0.1-0.7c0.1-0.6,0.2-1.2,0.4-1.9c0.7-3.6,1.5-8.2,2.4-13c2.4-13.4,5-28.7,6.3-32.2
		C389.1,65.9,390.3,62.6,390.5,59.7z M395.9,94.7c-0.2,2.5-0.5,4.9-0.7,7.3c-0.2,2.2-0.2,4.4-0.3,6.6c-0.1,1.4-0.1,2.8-0.2,4.2
		c-0.1,0.9-0.1,1.7-0.2,2.6c0,0.3,0,0.5-0.1,0.8c0,0.1,0,0.2,0,0.3c0.4,0,0.7,0,1.1,0c0-0.1,0-0.2,0-0.3c0-0.3,0-0.5,0.1-0.8
		c0.1-0.9,0.2-1.7,0.2-2.6c0.1-1.4,0.1-2.8,0.2-4.2c0-2.2,0.1-4.4,0.3-6.6c0.2-2.5,0.5-4.9,0.7-7.3c1.1-11.3,2.3-22.9,2.8-34.5
		c-0.4,0-0.7,0-1.1,0C398.2,71.7,397,83.3,395.9,94.7z M413.5,115.3c0-0.4-0.1-0.8-0.1-1.2c0-0.5-0.1-1.1-0.1-1.6
		c-0.4-4.4-0.7-8.9-0.9-13.3c-0.4-8.1-0.7-16.4-1.6-25c-0.2-2-0.5-4.2-0.8-6.2c-0.3-2.6-0.7-5.2-0.9-7.8c-0.4,0-0.7,0-1.1,0
		c0.2,2.6,0.5,5.3,0.9,7.9c0.3,2.1,0.6,4.2,0.8,6.2c0.9,8.6,1.3,16.9,1.6,25c0.2,4.3,0.5,8.7,0.9,13c0,0.1,0,0.1,0,0.2
		c0,0.5,0.1,0.9,0.1,1.4c0,0.2,0,0.3,0,0.4c0,0.3,0,0.7,0.1,1c0,0.3,0,0.5,0,0.8c0,0,0,0.1,0,0.1c0.1,0,0.1,0,0.2,0s0.3,0,0.5,0
		c0,0,0.1,0,0.1,0c0.1,0,0.2,0,0.3,0c0,0,0-0.1,0-0.1C413.6,115.9,413.5,115.6,413.5,115.3z M445.5,115.3c-0.1-0.5-0.2-1-0.4-1.7
		c-2.2-9.9-9.4-41.7-13.9-53.9c-0.3,0-0.7,0.1-1.1,0.1c3.5,9.8,9.7,34.9,13.9,53.7c0.1,0.6,0.3,1.2,0.4,1.8c0,0.1,0,0.1,0,0.2
		c0,0,0.1,0,0.1,0c0.4,0,0.7,0,1,0C445.6,115.4,445.5,115.3,445.5,115.3z M430.1,115.3c-0.1-0.8-0.2-1.6-0.3-2.5
		c-0.3-2.2-0.7-4.8-1.2-7.9c-0.2-1.6-0.4-2.9-0.5-3.5c-0.6-4.1-1.1-8.3-1.7-12.4c-0.6-4.1-1.2-8.3-1.7-12.4
		c-0.5-3.8-1.3-7.6-2.1-11.2c-0.4-1.7-0.8-3.5-1.1-5.2c-0.4,0-0.7,0-1.1,0c0.3,1.8,0.7,3.7,1.1,5.4c0.8,3.6,1.6,7.4,2.1,11.1
		c0.6,4.1,1.1,8.3,1.7,12.4c0.6,4.1,1.2,8.3,1.7,12.4c0.1,0.6,0.3,1.9,0.5,3.5c0.3,1.9,0.8,4.9,1.2,7.8c0.1,0.9,0.2,1.7,0.4,2.6
		c0,0.1,0,0.3,0.1,0.4c0,0,0,0.1,0,0.1c0.4,0,0.7,0,1.1,0c0,0,0-0.1,0-0.1C430.1,115.6,430.1,115.5,430.1,115.3z M59.8,68.7
		l-34.3,0.7c0,0-21.9-21-16.8-52.9l30,9.6C39.4,48.2,50.4,63.3,59.8,68.7z M218.4,100.8l-36.1,2.8c10.1,5,17.9,13.7,20.2,35.8
		l32.7,5.8C236.6,114.2,218.4,100.8,218.4,100.8z M133.1,113.9l8.9-28.7c-23.8-5-34-28.2-34-28.2l-8.9,28.1
		C98.3,107.3,133.1,113.9,133.1,113.9z"/>
	<path class="st5" d="M51,113.7c2.8-1.4,5.8-2.1,8.7-2.1c6.9,0,13.6,3.8,17,10.4l-0.8,0.4l-0.8,0.4c-3.1-5.9-9.1-9.3-15.3-9.3
		c-2.7,0-5.4,0.6-7.9,1.9c-5.9,3.1-9.3,9.1-9.3,15.3c0,2.7,0.6,5.4,1.9,7.9c3.1,5.9,9.1,9.3,15.3,9.3c2.7,0,5.4-0.6,7.9-1.9
		c5.9-3.1,9.3-9.1,9.3-15.3c0-2.7-0.6-5.4-1.9-7.9l0.8-0.4l0.8-0.4c1.4,2.8,2.1,5.8,2.1,8.7c0,6.9-3.8,13.6-10.4,17
		c-2.8,1.4-5.8,2.1-8.7,2.1c-6.9,0-13.6-3.8-17-10.4c-1.4-2.8-2.1-5.8-2.1-8.7C40.6,123.8,44.4,117.1,51,113.7z M47.3,111.6l3.2,1.5
		l0.7-3.5l0,0c-0.6,0.2-1.2,0.5-1.8,0.8C48.6,110.7,48,111.1,47.3,111.6z M68.8,148.4l-0.7,3.5c0.7-0.3,1.5-0.6,2.2-1
		c0.6-0.3,1.2-0.6,1.7-1l0,0L68.8,148.4z M38.7,139.1c0.3,0.7,0.6,1.3,0.9,2c0.3,0.6,0.6,1.1,1,1.7l1.4-3.1L38.7,139.1z M77.3,121.5
		l3.5,0.6l0.1-0.1c-0.3-0.6-0.5-1.2-0.8-1.8c-0.3-0.7-0.7-1.3-1.1-1.9l-0.1,0L77.3,121.5z M38.8,121.8c-0.5,1.3-0.9,2.6-1.2,3.9
		l3.2-1.1L38.8,121.8z M78.6,136.7l2,2.9l0.2,0.1c0.6-1.3,1-2.7,1.3-4.1l-0.2-0.1L78.6,136.7z M53.6,149.5l-2.9,2
		c1.3,0.6,2.7,1,4.1,1.3l0,0L53.6,149.5z M68.5,109.6c-1.3-0.5-2.7-1-4-1.2l1.2,3.3L68.5,109.6z M50.6,108.4l0.5,1.1
		c4.4-1.8,9-2.1,13.3-1.2l0-0.1l0.3-1.1l4.1,1.3l-0.3,1.1l0,0c4.2,1.7,7.8,4.6,10.4,8.6l0.9-0.5l2,3.8l-1,0.4
		c1.8,4.4,2.1,9.1,1.2,13.5l1,0.3l-1.3,4.1l-1-0.3c-1.8,4.1-4.7,7.8-8.8,10.3l0.5,1l-3.8,2l-0.6-1l0,0c-4.4,1.7-9,1.9-13.3,1
		l-0.4,1.3l-4.1-1.3l0.4-1.3l0,0c-4.1-1.8-7.6-4.7-10.1-8.7l-0.1,0.1l-1.2,0.6l-1.9-3.8l1.1-0.6l0.2,0c-1.8-4.4-2.1-9-1.1-13.4
		l-0.2,0.1l-1.2-0.4l1.3-4.1l1.2,0.4l0.1,0.2c1.7-4.1,4.6-7.7,8.5-10.3l0,0l-0.6-1.2l0,0c-0.5,0-0.9,0-1.4-0.1
		c-10,7.2-13.5,20.7-7.7,31.8c6.3,12.3,21.4,17.1,33.7,10.8c12.3-6.4,17.1-21.5,10.8-33.7c-5.9-11.3-19-16.2-30.6-12.2
		C51.3,107.5,51,108,50.6,108.4z M49,109.8c-0.7,0.4-1.5,0.6-2.3,0.6l0,0l0.6,1.2l0,0c0.7-0.4,1.4-0.8,2.1-1.2
		c0.6-0.3,1.2-0.6,1.8-0.8l-0.5-1.1C50.2,109,49.6,109.4,49,109.8z M70.3,150.9c0.6-0.3,1.2-0.6,1.7-1l0.5,1l-3.8,2l-0.6-1l0,0
		C68.8,151.5,69.5,151.2,70.3,150.9z M39.6,141.1c0.3,0.6,0.6,1.1,1,1.7l-0.1,0.1l-1.2,0.6l-1.9-3.8l1.1-0.6l0.2,0
		C38.9,139.7,39.2,140.4,39.6,141.1z M80.1,120.2c-0.3-0.7-0.7-1.3-1.1-1.9l0.9-0.5l2,3.8l-1,0.4C80.7,121.4,80.4,120.8,80.1,120.2z
		 M38.8,121.8c-0.5,1.3-0.9,2.6-1.2,3.9l-0.2,0.1l-1.2-0.4l1.3-4.1l1.2,0.4L38.8,121.8z M80.7,139.6c0.6-1.3,1-2.7,1.3-4.1l1,0.3
		l-1.3,4.1L80.7,139.6z M50.7,151.4c1.3,0.6,2.7,1,4.1,1.3l-0.4,1.3l-4.1-1.3L50.7,151.4L50.7,151.4z M68.5,109.6
		c-1.3-0.5-2.7-1-4-1.2l0-0.1l0.3-1.1l4.1,1.3L68.5,109.6L68.5,109.6z M51.5,107c0.6-1.5,0.6-3.2-0.1-4.7c-1.4-2.7-4.8-3.8-7.5-2.4
		c-2.7,1.4-3.8,4.8-2.4,7.5c0.8,1.5,2.2,2.6,3.8,2.9c1-0.7,2-1.3,3.1-1.9C49.4,107.8,50.5,107.4,51.5,107z M43.1,106.6
		c-0.9-1.8-0.2-4.1,1.6-5c1.8-0.9,4.1-0.2,5,1.6c0.9,1.8,0.2,4.1-1.6,5C46.3,109.1,44.1,108.4,43.1,106.6z M45.3,110.2
		c1-0.7,2-1.3,3.1-1.9c1-0.5,2.1-1,3.1-1.4c-0.2,0.5-0.5,1-0.9,1.4l0-0.1l-3.9,2C46.2,110.4,45.8,110.3,45.3,110.2z M50.6,108.4
		L50.6,108.4c-0.4,0.6-1,1.1-1.6,1.4c-0.7,0.4-1.5,0.6-2.3,0.6L50.6,108.4z M48.3,104c0.5,1,0.1,2.2-0.9,2.7s-2.2,0.1-2.7-0.9
		c-0.5-1-0.1-2.2,0.9-2.7S47.8,103,48.3,104z"/>
	<path class="st4" d="M57.6,128.3l-1.7,0.4l-4.1-5.6l6,4.4L57.6,128.3z M62.3,134.9l5.2,3.8l-4-5.5l-0.8,0.2L62.3,134.9z
		 M63.5,128.4l4-5.4l-5.2,3.7l0.4,1.5L63.5,128.4z M55.9,133l-4.1,5.7l6-4.5l-0.2-0.8L55.9,133z"/>
	<path class="st6" d="M62.7,128.3l-0.4-1.5l-2.2-9.1l-2.3,9.8l-0.2,0.8l-1.7,0.4l-8.9,2.2l8.9,2.2l1.7,0.4l0.2,0.8l2.3,9.8l2.2-9.1
		l0.4-1.5l0.8-0.2l9.8-2.4l-9.8-2.4L62.7,128.3z M60.1,132.5C60.1,132.5,60.1,132.6,60.1,132.5c-0.9,0-1.7-0.8-1.7-1.7
		s0.8-1.7,1.7-1.7c0,0,0,0,0,0c0.8,0,1.6,0.7,1.7,1.6c0,0,0,0.1,0,0.1c0,0,0,0.1,0,0.1C61.7,131.8,60.9,132.5,60.1,132.5z
		 M291.9,136.8C291.9,136.8,291.9,136.8,291.9,136.8c0.1,0.1,0.1,0.2,0,0.3L291.9,136.8z M332,168.5l0.1,9.2l-5.2-1.7l-24.9-8.3
		c0.8-0.3,1.4-0.6,1.7-0.8c2.9-2.4,5.3-31.7,5.3-31.7c2.7-0.9,4.4-1.8,4.4-1.8c-1.7-29.8-22.2-34.4-26.2-35
		c-0.7-0.3-1.6-0.7-2.8-1.3c-1.9-1-3.1-3.3-3.8-5.2c0.7,0.3,3.9,1.4,6.6-0.7c4.4-3.5,5.4,0.2,11.4-5.1c12.5,1.6,31.5,6.7,33,23
		L332,168.5z M455.4,114.9l-19-56.2c0-0.8-11.5-1.5-25.6-1.5c-12.9,0-23.6,0.6-25.4,1.3c-0.1,0-0.2,0-0.2,0l-16.7,56.7
		c0,0,0,0,0.1,0c-0.1,0.1-0.1,0.1-0.1,0.2c0,0,0,0,0,0c0,1.6,18.4,2.8,41.6,2.9c0.7,0,1.5,0,2.2,0c0.3,0,0.7,0,1,0
		c6.1,0,11.8-0.1,17-0.3c0.4,0,0.7,0,1.1,0c13.3-0.4,22.8-1.3,24.4-2.3c0.2-0.1,0.3-0.2,0.3-0.3
		C456.1,115.3,455.8,115.1,455.4,114.9z M380.1,116.5c-0.4,0-0.8,0-1.1,0c0-0.1,0-0.2,0.1-0.3c0-0.2,0.1-0.5,0.1-0.7
		c0.1-0.6,0.2-1.2,0.4-1.9c0.7-3.6,1.5-8.2,2.4-13c2.4-13.4,5-28.7,6.3-32.2c0.9-2.4,2.1-5.8,2.3-8.7c0.3,0,0.7,0.1,1.1,0.1
		c-0.3,3.1-1.5,6.4-2.4,8.8c-1.3,3.5-4.1,19.3-6.3,32.1c-0.8,4.8-1.6,9.3-2.2,12.8c-0.1,0.7-0.2,1.4-0.4,2c0,0.2-0.1,0.5-0.1,0.7
		C380.1,116.2,380.1,116.4,380.1,116.5z M395.5,116.5c-0.4,0-0.7,0-1.1,0c0-0.1,0-0.2,0-0.3c0-0.3,0-0.5,0.1-0.8
		c0.1-0.9,0.2-1.7,0.2-2.6c0.1-1.4,0.1-2.8,0.2-4.2c0.1-2.2,0.1-4.4,0.3-6.6c0.2-2.4,0.5-4.8,0.7-7.3c1.2-11.3,2.3-23,2.8-34.6
		c0.4,0,0.7,0,1.1,0c-0.5,11.6-1.8,23.3-2.8,34.5c-0.2,2.4-0.5,4.8-0.7,7.3c-0.2,2.2-0.3,4.4-0.3,6.6c-0.1,1.4-0.1,2.8-0.2,4.2
		c-0.1,0.9-0.1,1.8-0.2,2.6c0,0.3,0,0.5-0.1,0.8C395.5,116.2,395.5,116.4,395.5,116.5z M413.3,116.3c0,0-0.1,0-0.1,0
		c-0.2,0-0.4,0-0.5,0s-0.1,0-0.2,0c0,0,0-0.1,0-0.1c0-0.3,0-0.5,0-0.8c0-0.3-0.1-0.7-0.1-1c0-0.1,0-0.2,0-0.4c0-0.5-0.1-0.9-0.1-1.4
		c0-0.1,0-0.1,0-0.2c-0.4-4.3-0.7-8.7-0.9-13c-0.3-8.1-0.7-16.4-1.6-25c-0.2-2-0.5-4.1-0.8-6.2c-0.3-2.6-0.7-5.3-0.9-7.9
		c0.4,0,0.7,0,1.1,0c0.2,2.6,0.5,5.2,0.9,7.8c0.3,2,0.6,4.2,0.8,6.2c0.9,8.6,1.2,16.9,1.6,25c0.2,4.4,0.5,8.9,0.9,13.3
		c0,0.5,0.1,1.1,0.1,1.6c0,0.4,0,0.8,0.1,1.2c0,0.3,0,0.6,0,0.8c0,0,0,0.1,0,0.1C413.5,116.3,413.4,116.3,413.3,116.3z M429.1,115.9
		C429.1,115.8,429.1,115.8,429.1,115.9c0-0.2-0.1-0.4-0.1-0.5c-0.1-0.8-0.2-1.7-0.4-2.6c-0.4-2.9-0.9-5.9-1.2-7.8
		c-0.2-1.6-0.4-2.9-0.5-3.5c-0.5-4.1-1.1-8.3-1.7-12.4c-0.6-4.1-1.1-8.3-1.7-12.4c-0.5-3.7-1.3-7.5-2.1-11.1
		c-0.4-1.8-0.8-3.6-1.1-5.4c0.4,0,0.7,0,1.1,0c0.3,1.7,0.7,3.5,1.1,5.2c0.8,3.6,1.6,7.4,2.1,11.2c0.5,4.1,1.1,8.3,1.7,12.4
		c0.6,4.1,1.1,8.3,1.7,12.4c0.1,0.6,0.3,1.9,0.5,3.5c0.5,3.1,0.9,5.8,1.2,7.9c0.1,0.9,0.2,1.8,0.3,2.5c0,0.1,0,0.3,0.1,0.4
		c0,0,0,0.1,0,0.1C429.8,115.9,429.5,115.9,429.1,115.9z M444.6,115.5c0,0-0.1,0-0.1,0c0-0.1,0-0.1,0-0.2c-0.1-0.6-0.3-1.2-0.4-1.8
		c-4.2-18.8-10.3-44-13.9-53.7c0.4,0,0.7-0.1,1.1-0.1c4.5,12.2,11.7,44,13.9,53.9c0.2,0.7,0.3,1.3,0.4,1.7c0,0.1,0,0.1,0,0.2
		C445.2,115.5,444.9,115.5,444.6,115.5z"/>
	<path class="st7" d="M144.2,137.6c0.5,0.2,0.7,0.7,0.5,1c-0.1,0.3-0.7,0.4-1.1,0.1c-0.5-0.2-0.7-0.7-0.5-1
		C143.3,137.4,143.8,137.3,144.2,137.6z M141.4,139.4c0.2,0.2,0.4,0.3,0.6,0.4c0.3,0.1,0.5,0.1,0.8,0.1c0.1,0.2,0.2,0.4,0.5,0.6
		c0.3,0.3,0.6,0.3,0.9,0.3c0.3,0,0.5,0,0.7-0.1c0.1,0,0.1-0.1,0.1-0.2s-0.1-0.1-0.2-0.1c-0.3,0.1-0.9,0.2-1.3-0.1
		c-0.2-0.1-0.3-0.3-0.4-0.4c0,0,0,0,0,0l0.6-1l-0.3-0.1l-0.5,0.9h0c-0.4,0.1-0.9,0-1.3-0.4c-0.3-0.2-0.4-0.5-0.4-0.8
		c0-0.1,0-0.2-0.1-0.2c-0.1,0-0.2,0-0.2,0.1C140.8,138.7,141,139.1,141.4,139.4z M143.4,135.3c0.2,0,0.4,0,0.5-0.1
		c0.1,0,0.1-0.1,0.1-0.2s-0.1-0.1-0.2-0.1c-0.8,0.2-1.9-0.2-2.2-1.1c0-0.1-0.1-0.1-0.2-0.1c-0.1,0-0.1,0.1-0.1,0.2
		C141.7,134.9,142.6,135.3,143.4,135.3z M262.8,80.1c2,0,3.5-1.8,3.5-1.8v-0.6l-0.7,0.1l-0.2,0.2c-0.5,0.5-1.6,1.3-2.6,1.3
		c-0.7,0-1.4-0.3-2.2-1.4l-0.6-0.1l-0.1,0.6C260.8,79.6,261.8,80.1,262.8,80.1z M270.1,83.5l0.5-0.3l-0.3-0.5
		c-0.8-0.2-0.9-0.5-0.9-0.9s0.2-1,0.5-1.4s0.5-0.7,0.5-0.7v-0.6h-0.6c0,0-1.2,1.3-1.3,2.7C268.5,82.5,269,83.3,270.1,83.5z
		 M276.8,79.7c2,0,3.5-1.8,3.5-1.8v-0.6l-0.7,0.1l-0.2,0.2c-0.5,0.5-1.5,1.3-2.6,1.3c-0.7,0-1.4-0.3-2.2-1.4l-0.6-0.1l-0.1,0.6
		C274.8,79.2,275.8,79.7,276.8,79.7z M269.9,87.9l-0.4,0.4l0.4,0.4h0.4c2.6,0,3.5-1.6,3.5-1.7l-0.2-0.6l-0.7,0.3
		c-0.1,0.2-0.8,1.2-2.7,1.2H269.9z M140.3,181.8v0.3c1.9,0.1,3.4,0.3,4.6,0.3c3,0,4.3-0.6,5.4-1.1l-0.1-0.3
		C148.7,181.7,146.8,182.6,140.3,181.8z M410.1,118.3v79.2h3.2v-79.2c-0.3,0-0.7,0-1,0C411.5,118.4,410.8,118.3,410.1,118.3z
		 M287.1,98.3c-0.4-0.1-0.7-0.1-0.7-0.1c-1.5,4.8-4,9.3-8.9,10.8c-1,0.3-2.1,0.5-3.3,0.5c-7.3,0.1-4.3-8.6-4.9-11.1
		c0-0.1,0-0.1-0.1-0.2c0,0-5,0.2-7.8,1c-3.6,1.1-12.8,3.2-16.9,11.3c-3.2,6.3-4.5,21.5-4.5,21.5s0,0,0,0c0.1,0.1,0.3,0.3,0.8,0.5
		c0.4,0.2,0.9,0.4,1.7,0.7c1.2,0.4,2.8,0.7,5.1,0.8c1.5,0.1,3.2,0.1,5.3,0l0,0c0,0,0.2,0,0.5,0c0.6,0,1.7-0.1,2.7-0.2
		c0.2,0,0.5,0,0.7-0.1c0.1,0,0.2,0,0.3,0l-0.2,1.7l-0.2,1.4l-2.1,14.2l0,0l0,0.4l30.2,10.3l5.3-2.3l1.2-0.5c0,0-0.5-13.7,0.7-21.9
		l0-0.3c0,0,0.1,0,0.1,0c0,0,0-0.1,0-0.1c3.2,0.9,11.6-0.1,16.9-1.5l0,0c2.7-0.9,4.4-1.8,4.4-1.8C311.6,103.5,291.1,98.9,287.1,98.3
		z M431.4,132.7v-14.6c-0.4,0-0.7,0-1.1,0v14.6c-1.7,0.2-2.9,1.4-2.9,3c0,1.6,1.5,3,3.4,3s3.4-1.3,3.4-3
		C434.2,134.1,433,132.9,431.4,132.7z M150.6,138.7c-0.4,0.2-1,0.1-1.5-0.2c-0.4-0.2-0.7-0.5-0.7-0.9c0-0.1-0.1-0.1-0.2-0.1
		c-0.1,0-0.1,0.1-0.1,0.2c0.1,0.4,0.4,0.8,0.9,1.1c0.3,0.2,0.7,0.3,1.1,0.3c0.2,0,0.4,0,0.6-0.1c0.1,0,0.1-0.1,0.1-0.2
		S150.7,138.7,150.6,138.7z M149,166.1c-1,0.3-2.3,0.8-4.1,1.4c-0.1,0-0.2,0.1-0.2,0.1l0.1,0.1l0.1,0.2c1.9-0.7,3.3-1.2,4.3-1.5
		c0.9-0.3,1.4-0.4,1.5-0.5l-0.2-0.3C150.4,165.7,149.8,165.9,149,166.1z M258.5,178.2c-0.7,0-1.7-0.1-2.8-0.1l5.4,1
		c0.4,0.1,0.7,0.4,0.7,0.8s-0.2,0.8-0.6,0.9l-13.2,4.7l-0.2-1.7l9.9-3.6l-8.7-1.6c-0.6,0.1-1.3,0.2-1.9,0.4l-0.1-0.8l-0.3-1.8
		l-0.2-1.7c0.8-0.8,2.1-1.9,3.4-2.9l-3.9-1l-2-13.9l-0.9-6.4l-0.6-4.1l-4.7-0.8l-2.6-0.5l-32.7-5.8l-9.6-1.7
		c1.4,10,2.6,17.7,3.4,23.6c1.8,12.6,2.5,17.1,2.6,17.5l-0.1,0v2.6l50.8,15.1l32-14.3V180l-16-4.1
		C265.5,175.9,261.9,178.4,258.5,178.2z M141.1,141L141.1,141l-0.2,0.3l0.2,0.2c1.4,0.9,2.4,1.6,5.5,2.2l0.1-0.2l0-0.1
		c-3.1-0.5-3.9-1.2-5.4-2.2L141.1,141z M61.7,130.9l0.1-0.1c0,0,0,0.1,0,0.1c0,0,0,0.1,0,0.1L61.7,130.9z M60.8,132.1l-0.7,0.5
		c0.8,0,1.6-0.7,1.7-1.6l-0.1-0.1L60.8,132.1z M60.1,129.2l0.7,0.5l0.9,1.2l0.1-0.1C61.7,129.9,60.9,129.2,60.1,129.2z M61.7,130.9
		l-0.9-1.2l-0.7-0.5c0,0,0,0,0,0c-0.9,0-1.7,0.8-1.7,1.7s0.8,1.7,1.7,1.7c0,0,0,0,0,0l0.7-0.5L61.7,130.9z"/>
</g>
</svg>
