<?xml version="1.0" encoding="utf-8"?>
<!-- Generator: Adobe Illustrator 27.9.0, SVG Export Plug-In . SVG Version: 6.00 Build 0)  -->
<svg version="1.1" id="Calque_1" xmlns="http://www.w3.org/2000/svg" xmlns:xlink="http://www.w3.org/1999/xlink" x="0px" y="0px"
	 viewBox="0 0 250.3 128" style="enable-background:new 0 0 250.3 128;" xml:space="preserve">
<style type="text/css">
	.st0{fill:#FFFFFF;}
	.st1{fill:#FF5738;}
	.st2{fill:#1C096B;}
	.st3{fill:#2C28DB;}
</style>
<g>
	<path class="st0" d="M165.1,50c0,0,4.3-7,12.2-6.8c7.9,0.2,15.4-1.2,22.2,7.6c6.9,8.8,3.8,11,3.8,11s8.9-7.4,21.4,2.2
		c12.4,9.7,5.2,17.3,5.2,17.3s14.6-4.8,17.1,13.6c2.5,18.4-23.6,15.7-27.3,15.5c-3.7-0.1-13.2,0.1-26.4,3.1
		c-13.1,3.1-46.6,4-56.8,3.9s-35,2.2-49.7,1.4s-23.6-5.2-32-6.7c-8.4-1.5-24.8-3.3-32.7-2.3S0.4,101.1,4.8,86.6s14.1-14.2,16.7-14
		s10.2,3.5,10.2,3.5s1.3-20.2,24-26.4s56.9,2.3,71.8,2.1 M230.5,46.2c-0.7-0.4-1.7,0.2-2.7,1.7c-1,1.5-2.1,5-2,6.1
		c0.1,1.1,1.1,1.8,1.8,1.3c0.6-0.4,0.6-0.4,2.1-3.4c1.5-3,1.2-2.4,1.8-3.8C232.1,46.9,231.1,46.6,230.5,46.2z M244.8,63.8
		c-0.1-1-0.5-1-2.3-1.3c-1.8-0.2-5.7,0.5-6.6,1.1c-1,0.6-1.3,1.8-0.5,1.9c0.8,0.1,1-0.5,4.3-0.5c3.3-0.1,2.4,0.7,3.8,0.7
		C245,65.6,244.9,64.5,244.8,63.8z M240.6,52.4c0,0-1.7-2.3-3.1-1c-2.1,1.9-5.4,5.3-5.4,5.3s-1.7,1.6-0.7,2.5
		c0.7,0.6,0.5,1.2,2.2-0.4c1.7-1.6,4.9-2.6,6.4-3.3C241.3,55.1,241.3,53.6,240.6,52.4z M64.5,26.9c0.8,1.2,0.4,0.7,2.2,3.5
		c1.8,2.8,1.8,2.8,2.5,3.1c0.8,0.4,1.7-0.4,1.7-1.5c0-1.2-1.5-4.5-2.7-5.8c-1.2-1.3-2.2-1.8-2.9-1.4C64.6,25.2,63.7,25.7,64.5,26.9z
		 M56.8,35.3c1.6,0.5,4.8,1.1,6.7,2.5c1.9,1.4,1.6,0.8,2.2,0.1c0.9-0.9-1-2.4-1-2.4s-3.7-3-6-4.6c-1.6-1.1-2.9,1.3-2.9,1.3
		C55.3,33.4,55.5,34.9,56.8,35.3z"/>
	<path class="st1" d="M184.4,30.7c-10.7-1.5-21.5-3-32.2-4.5c-10.5-1.5-21.2-3.2-31.9-2.8c-8.9,0.4-17.5,2.1-25.6,5.7
		c-1.7,0.7-3.3,1.6-4.9,2.4c-5.6-0.2-11.7,0.3-15.9,3.7c-6.1,5-6.3,14.1-1,19.8c4.8,5.3,12.3,6.5,19.2,7.1
		c7.2,0.6,14.5-0.2,21.6-1.2c6.9-0.9,13.8-1.6,20.7-2.1c7.6,1.4,15.3,2.5,23,3.2c9,0.8,22.6,2.7,28.2-6.5c2.1-3.6,2.3-6.6,1.3-9.3
		c1.6-1,2.9-2.6,3.5-4.8C191.7,37.4,189.1,31.4,184.4,30.7z"/>
	<path class="st0" d="M99.2,46.6c0.1,0.2,0.1,0.3,0.1,0.5c0,0.2,0,0.3-0.1,0.4l-2.7,1.9c-0.5,0.4-1,0.7-1.5,1
		c-0.5,0.3-0.9,0.5-1.3,0.7c-0.1,0-0.2,0.1-0.3,0.1c-0.2,0-0.4-0.1-0.6-0.4l-0.4-0.6v-0.5c0-0.7,0-1.4,0.1-2.3
		c0-0.9,0.1-1.8,0.2-2.9c0.2-2.6,0.4-4.5,0.4-5.6c0-0.4,0-0.8,0-1.2s0-0.7-0.1-1.1c0.2-0.2,0.5-0.3,0.8-0.3c0.6,0,0.9,0.2,1,0.7
		c0,0.2,0,0.3,0,0.5s0,0.4,0,0.6c0,0.6,0,1.3,0,2.1c0,0.8-0.1,1.6-0.1,2.6c-0.1,1.1-0.1,2-0.2,2.9c0,0.8,0,1.6,0,2.2v0.7
		c0.4-0.2,1-0.5,1.7-1c0.4-0.3,0.7-0.5,1-0.7s0.5-0.3,0.7-0.4c0.1,0,0.2,0,0.4,0s0.3,0,0.4,0C98.8,46.2,99,46.3,99.2,46.6z
		 M108.4,50.1c0,0.1,0.1,0.3,0.1,0.4s0,0.2-0.1,0.3c-0.1,0.1-0.2,0.1-0.3,0.2c-0.1,0-0.2,0.1-0.3,0.1c-0.1,0-0.2,0-0.3,0
		c-0.3,0-0.6-0.2-0.8-0.5s-0.4-0.8-0.5-1.3c-0.1-0.5-0.2-1.1-0.3-1.7c-0.1-0.6-0.2-1.1-0.2-1.6c0,0.3-0.2,0.7-0.5,1.2
		c-0.3,0.5-0.6,1-1,1.4c-0.4,0.5-0.8,0.9-1.3,1.2c-0.5,0.3-0.9,0.5-1.4,0.5c-0.4,0-0.7-0.1-0.9-0.2s-0.4-0.3-0.5-0.5
		c-0.1-0.2-0.2-0.5-0.3-0.7c0-0.3-0.1-0.5-0.1-0.8c0-0.5,0.1-1.1,0.4-1.9c0.3-0.8,0.6-1.5,1.1-2.2c0.4-0.7,1-1.3,1.5-1.8
		c0.6-0.5,1.2-0.8,1.9-0.8c0.1,0,0.3,0,0.5,0.1c0.2,0,0.4,0.1,0.5,0.2s0.4,0.2,0.5,0.3c0.2,0.1,0.3,0.2,0.4,0.3
		c0.3,0.2,0.4,0.5,0.5,0.9c0.1,0.4,0.2,0.8,0.2,1.2c0.1,0.8,0.2,1.5,0.3,2.1c0.1,0.6,0.2,1.3,0.4,2l0.1,0.9l0.2,0.5
		C108.3,49.8,108.4,50,108.4,50.1z M105.2,43.1c-0.1,0-0.1-0.1-0.2-0.1c-0.1,0-0.1,0-0.2,0c-0.3,0-0.6,0.1-0.9,0.4s-0.5,0.6-0.7,0.9
		c-0.2,0.3-0.4,0.6-0.5,0.9c-0.1,0.3-0.2,0.5-0.3,0.6c-0.2,0.4-0.4,0.8-0.5,1.3c-0.1,0.5-0.2,0.9-0.2,1.3v0.1c0,0,0,0,0,0
		c0,0,0,0,0,0c0.2,0,0.4-0.2,0.7-0.4c0.3-0.3,0.5-0.6,0.8-0.9c0.3-0.4,0.5-0.7,0.7-1.1c0.2-0.4,0.4-0.8,0.5-1.1
		c0.1-0.1,0.1-0.3,0.2-0.5c0.1-0.2,0.2-0.3,0.3-0.5c0.1-0.2,0.2-0.3,0.2-0.5C105.2,43.4,105.2,43.2,105.2,43.1z M128.5,47.5
		c-0.1-0.6-0.2-1.2-0.3-1.8c-0.1-0.6-0.2-1.1-0.2-1.8v-0.4c0-0.4,0-0.8-0.1-1c-0.1-0.2-0.1-0.4-0.3-0.5c-0.1-0.1-0.2-0.2-0.4-0.3
		c-0.2-0.1-0.3-0.1-0.5-0.2c-0.4,0-0.8,0.2-1.1,0.4c-0.3,0.2-0.6,0.5-0.8,0.8c-0.2,0.3-0.5,0.6-0.6,1c-0.2,0.4-0.3,0.7-0.5,1
		c0,0.1-0.1,0.2-0.2,0.4s-0.2,0.3-0.2,0.5s-0.2,0.4-0.2,0.6c-0.1,0.2-0.1,0.3-0.2,0.4c-0.1-0.5-0.2-1-0.3-1.5
		c-0.1-0.6-0.2-1.1-0.4-1.5c-0.1-0.2-0.1-0.5-0.2-0.8s-0.1-0.5-0.2-0.8c-0.1-0.2-0.2-0.4-0.4-0.6s-0.5-0.2-0.8-0.2
		c-0.3,0-0.6,0.1-0.8,0.4c-0.2,0.3-0.5,0.5-0.7,0.7c-0.1,0.2-0.3,0.4-0.4,0.6c-0.1,0.2-0.3,0.5-0.4,0.7s-0.3,0.5-0.4,0.8
		c-0.1,0.2-0.2,0.5-0.3,0.7c0-0.2,0-0.3,0-0.4c0-0.2,0-0.4,0-0.6c0-0.2,0-0.4,0-0.6c0-0.2,0-0.4,0-0.6c0-0.2-0.1-0.5-0.1-0.7
		s-0.2-0.4-0.3-0.5c-0.2-0.1-0.4-0.2-0.7-0.2c-0.2,0-0.4,0.1-0.6,0.2c-0.2,0.2-0.3,0.3-0.3,0.6c0,0.2,0,0.3,0.1,0.5s0.1,0.3,0.1,0.5
		c0,0.1,0,0.2,0,0.2c0,0,0,0.1,0,0.2c0,0.1,0,0.4,0,0.8c0,0.4,0,1,0,1.9c0,0,0,0.2,0,0.4s0,0.4,0,0.6c0,0.2,0,0.4,0,0.6
		c0,0.2,0,0.3,0,0.4c0,0.2,0,0.3,0,0.5s0,0.3-0.1,0.5c0,0.1,0,0.3,0.1,0.4c0,0.1,0.1,0.3,0.2,0.4c0.1,0.1,0.2,0.2,0.3,0.3
		c0.1,0.1,0.2,0.1,0.4,0.1c0.4,0,0.7-0.1,0.9-0.3s0.3-0.4,0.4-0.7c0.1-0.3,0.2-0.6,0.2-1c0.1-0.4,0.2-0.7,0.4-1.1
		c0.1-0.2,0.2-0.4,0.3-0.8s0.2-0.6,0.3-1c0.1-0.3,0.3-0.7,0.4-1c0.2-0.3,0.4-0.6,0.6-0.7c0.1,0.2,0.2,0.4,0.3,0.7
		c0.1,0.3,0.2,0.6,0.3,0.9c0.1,0.3,0.2,0.7,0.2,1c0.1,0.3,0.1,0.7,0.1,1c0,0.3,0.1,0.6,0.1,1c0,0.4,0.1,0.7,0.2,1
		c0.1,0.3,0.2,0.6,0.4,0.8c0.2,0.2,0.4,0.3,0.7,0.3c0.2,0,0.4,0,0.6-0.1c0.1-0.3,0.2-0.5,0.3-0.7c0.1-0.2,0.1-0.5,0.2-0.7
		c0.1-0.2,0.1-0.5,0.2-0.7c0.1-0.2,0.2-0.5,0.3-0.8c0.1-0.2,0.2-0.5,0.4-0.8c0.2-0.3,0.3-0.6,0.5-0.9c0.2-0.3,0.3-0.6,0.5-0.9
		c0.2-0.3,0.3-0.6,0.5-0.9c0.1,0.3,0.1,0.5,0.2,0.8c0,0.2,0,0.5,0.1,0.7c0,0.2,0.1,0.5,0.1,0.8c0,0.3,0.1,0.5,0.2,0.8
		c0,0.2,0.1,0.4,0.1,0.8c0,0.4,0.1,0.8,0.2,1.2c0.1,0.4,0.2,0.7,0.4,1.1c0.2,0.3,0.4,0.5,0.8,0.5c0.3,0,0.5-0.1,0.8-0.3
		c0.2-0.2,0.3-0.5,0.3-0.8c0-0.3-0.1-0.7-0.2-1C128.6,48.1,128.5,47.8,128.5,47.5z M138.6,50.1c0,0.1,0.1,0.3,0.1,0.4s0,0.2-0.1,0.3
		c-0.1,0.1-0.2,0.1-0.3,0.2c-0.1,0-0.2,0.1-0.3,0.1c-0.1,0-0.2,0-0.3,0c-0.3,0-0.6-0.2-0.8-0.5s-0.4-0.8-0.5-1.3
		c-0.1-0.5-0.2-1.1-0.3-1.7c-0.1-0.6-0.2-1.1-0.2-1.6c0,0.3-0.2,0.7-0.5,1.2c-0.3,0.5-0.6,1-1,1.4c-0.4,0.5-0.8,0.9-1.3,1.2
		c-0.5,0.3-0.9,0.5-1.4,0.5c-0.4,0-0.7-0.1-0.9-0.2s-0.4-0.3-0.5-0.5c-0.1-0.2-0.2-0.5-0.3-0.7c0-0.3-0.1-0.5-0.1-0.8
		c0-0.5,0.1-1.1,0.4-1.9c0.3-0.8,0.6-1.5,1.1-2.2c0.4-0.7,1-1.3,1.5-1.8c0.6-0.5,1.2-0.8,1.9-0.8c0.1,0,0.3,0,0.5,0.1
		c0.2,0,0.4,0.1,0.5,0.2s0.4,0.2,0.5,0.3c0.2,0.1,0.3,0.2,0.4,0.3c0.3,0.2,0.4,0.5,0.5,0.9c0.1,0.4,0.2,0.8,0.2,1.2
		c0.1,0.8,0.2,1.5,0.3,2.1c0.1,0.6,0.2,1.3,0.4,2l0.1,0.9l0.2,0.5C138.6,49.8,138.6,50,138.6,50.1z M135.4,43.1
		c-0.1,0-0.1-0.1-0.2-0.1c-0.1,0-0.1,0-0.2,0c-0.3,0-0.6,0.1-0.9,0.4s-0.5,0.6-0.7,0.9c-0.2,0.3-0.4,0.6-0.5,0.9
		c-0.1,0.3-0.2,0.5-0.3,0.6c-0.2,0.4-0.4,0.8-0.5,1.3c-0.1,0.5-0.2,0.9-0.2,1.3v0.1c0,0,0,0,0,0c0,0,0,0,0,0c0.2,0,0.4-0.2,0.7-0.4
		c0.3-0.3,0.5-0.6,0.8-0.9c0.3-0.4,0.5-0.7,0.7-1.1c0.2-0.4,0.4-0.8,0.5-1.1c0.1-0.1,0.1-0.3,0.2-0.5c0.1-0.2,0.2-0.3,0.3-0.5
		c0.1-0.2,0.2-0.3,0.2-0.5C135.4,43.4,135.4,43.2,135.4,43.1z M142.4,46.7c-0.1-0.6-0.1-1.2-0.2-1.9c-0.1-0.7-0.1-1.3-0.1-1.9
		c0-0.2,0-0.3,0-0.5s0-0.3,0-0.5c-0.1-0.1-0.2-0.2-0.3-0.3c-0.1-0.1-0.3-0.2-0.5-0.3c-0.2,0-0.3,0.1-0.5,0.1s-0.3,0.1-0.4,0.1
		c-0.3,0.2-0.4,0.4-0.4,0.7c0,0.8,0,1.6,0.1,2.3c0.1,0.7,0.1,1.5,0.1,2.3c0,0.3,0,0.5,0.1,0.8s0.1,0.5,0.1,0.8c0,0.5,0,0.8,0.1,1.1
		c0.1,0.3,0.2,0.5,0.4,0.6c0.2,0.1,0.4,0.2,0.6,0.3c0.2,0,0.5,0.1,0.7,0.1c0.2-0.2,0.3-0.3,0.4-0.4c0.1-0.1,0.1-0.2,0.1-0.4v-0.1
		c0-0.3-0.1-0.6-0.2-1.1C142.5,47.8,142.4,47.3,142.4,46.7z M140.7,37.8c0.1,0.1,0.3,0.1,0.5,0.2c0.2,0.1,0.4,0.1,0.5,0.1
		c0.3,0,0.5-0.1,0.6-0.2c0.1-0.1,0.2-0.3,0.2-0.6c0-0.1,0-0.3-0.1-0.4c-0.1-0.1-0.2-0.2-0.3-0.3c-0.1-0.1-0.3-0.2-0.5-0.2
		c-0.2-0.1-0.3-0.1-0.5-0.1c-0.2,0-0.3,0-0.4,0.1c-0.2,0.1-0.4,0.3-0.4,0.4c0,0.1-0.1,0.3-0.1,0.5c0,0.1,0,0.2,0.1,0.2
		C140.4,37.6,140.5,37.7,140.7,37.8z M147.4,45.5l-0.1-0.2c-0.1-0.1-0.1-0.2-0.2-0.4c-0.1-0.2-0.2-0.4-0.3-0.6
		c-0.1-0.2-0.2-0.4-0.3-0.6s-0.1-0.4-0.1-0.5v-0.6c0-0.3,0-0.6,0.1-0.9c0.1-0.3,0.2-0.6,0.4-0.8c0.1-0.1,0.2-0.2,0.2-0.2
		c0.1-0.1,0.1-0.2,0.1-0.3c0-0.1-0.1-0.3-0.2-0.4c-0.1-0.2-0.2-0.2-0.4-0.2c0,0-0.1,0-0.1,0c0,0-0.1,0-0.1,0c-0.4,0-0.7,0.1-1,0.3
		c-0.3,0.2-0.5,0.5-0.6,0.8s-0.3,0.7-0.3,1.1c-0.1,0.4-0.1,0.8-0.1,1.2c0,0.5,0.1,0.9,0.3,1.3s0.4,0.9,0.7,1.4s0.5,1,0.8,1.6
		c0.3,0.6,0.5,1.2,0.7,1.9c0,0,0,0.1,0,0.2c0,0.4-0.1,0.7-0.3,0.9s-0.4,0.4-0.7,0.4c-0.2,0-0.4-0.1-0.6-0.3c-0.2,0-0.3,0.1-0.4,0.2
		c-0.1,0.1-0.1,0.1-0.2,0.3c0,0.3,0.2,0.6,0.5,0.9c0.3,0.3,0.6,0.4,0.9,0.4c0.4,0,0.7-0.1,1.1-0.2c0.3-0.2,0.6-0.4,0.8-0.6
		s0.4-0.6,0.5-0.9c0.1-0.3,0.2-0.7,0.2-1.1c0-0.7-0.1-1.4-0.4-2S147.7,46.1,147.4,45.5z M157,44.5c0,0.2,0,0.3,0,0.5v0.4
		c0,0.5-0.1,0.9-0.3,1.3c-0.2,0.4-0.4,0.8-0.6,1.2c-0.1,0.2-0.3,0.4-0.5,0.7c-0.2,0.3-0.4,0.5-0.7,0.7c-0.2,0.2-0.5,0.4-0.8,0.6
		c-0.3,0.2-0.5,0.2-0.8,0.2c-0.1,0-0.2,0-0.2,0c-0.1,0-0.2,0-0.3,0h-0.1c-0.3,0-0.5-0.1-0.7-0.2s-0.4-0.3-0.7-0.4
		c-0.5-0.3-0.9-0.7-1.2-1.2s-0.4-1.1-0.4-1.8c0-0.3,0.1-0.8,0.2-1.2c0.1-0.5,0.2-0.9,0.3-1.3c0-0.2,0.2-0.4,0.3-0.7
		c0.2-0.3,0.4-0.6,0.6-0.9c0.3-0.3,0.5-0.5,0.9-0.8c0.3-0.2,0.7-0.3,1-0.3c0.1,0,0.3,0,0.4,0.1c0.2,0.1,0.4,0.3,0.7,0.4
		c0.2,0.1,0.5,0.2,0.7,0.3c0.2,0.1,0.5,0.2,0.7,0.3c0.2,0.1,0.5,0.2,0.7,0.4c0.2,0.1,0.3,0.3,0.4,0.5c0.1,0.2,0.2,0.4,0.3,0.6
		C157,44.2,157,44.3,157,44.5z M155,44.7c0-0.5-0.2-0.8-0.5-1c-0.3-0.2-0.7-0.3-1.1-0.3c-0.3,0-0.6,0.1-0.8,0.4
		c-0.2,0.2-0.4,0.5-0.6,0.9c-0.2,0.4-0.3,0.7-0.3,1.1s-0.1,0.7-0.1,1c0,0.1,0,0.2,0,0.4c0,0.2,0.1,0.4,0.1,0.6
		c0.1,0.2,0.2,0.4,0.3,0.5c0.1,0.2,0.3,0.2,0.5,0.2c0.2,0,0.3,0,0.5-0.1s0.3-0.1,0.5-0.2c0.2-0.2,0.5-0.4,0.7-0.6
		c0.2-0.3,0.3-0.6,0.5-0.9c0.1-0.3,0.2-0.6,0.3-1c0.1-0.3,0.1-0.7,0.2-1V44.7z M166.6,48.5c-0.1-0.5-0.2-1-0.2-1.6s-0.2-1.1-0.3-1.6
		c-0.1-0.5-0.3-1-0.5-1.5c-0.1-0.2-0.2-0.4-0.2-0.6c-0.1-0.2-0.1-0.4-0.2-0.7c-0.1-0.2-0.2-0.4-0.3-0.6c-0.1-0.2-0.3-0.3-0.6-0.4
		c-0.3,0-0.6,0.1-0.9,0.4c-0.3,0.2-0.6,0.5-0.8,0.9c-0.2,0.3-0.5,0.7-0.7,1.1c-0.2,0.4-0.3,0.7-0.4,0.9l0,0.1
		c-0.1,0.3-0.3,0.6-0.4,1c-0.1,0.3-0.3,0.6-0.5,0.8v-0.1c0-0.4,0-0.8,0-1.2c0-0.4,0-0.9,0-1.5c0-0.2,0-0.3-0.1-0.5
		c0-0.2-0.1-0.3-0.1-0.5c0-0.1,0-0.3,0-0.5c0-0.2-0.1-0.4-0.1-0.5c-0.1-0.2-0.1-0.3-0.3-0.4c-0.1-0.1-0.3-0.2-0.5-0.2
		c-0.1,0-0.2,0-0.3,0c-0.1,0-0.2,0-0.3,0c-0.2,0.1-0.3,0.2-0.4,0.4s-0.1,0.4-0.1,0.5c0,0.3,0,0.5,0,0.8s0,0.5,0,0.8
		c0,0.9,0,1.8,0,2.7s0,1.8,0,2.7c0,0.2,0.1,0.4,0.3,0.6c0.2,0.2,0.4,0.2,0.6,0.2c0.1,0,0.3,0,0.4,0s0.3-0.1,0.5-0.2
		c0.2-0.1,0.4-0.3,0.6-0.5c0.2-0.2,0.4-0.6,0.7-1.1c0.2-0.3,0.3-0.7,0.5-1c0.1-0.3,0.3-0.6,0.4-1c0.1-0.3,0.3-0.7,0.4-1.1
		c0.2-0.4,0.4-0.8,0.6-1.2c0.2,0.2,0.3,0.4,0.4,0.7c0.1,0.3,0.2,0.6,0.2,1c0.1,0.3,0.1,0.7,0.2,1c0,0.3,0.1,0.6,0.2,0.9
		c0.1,0.2,0.1,0.5,0.2,0.8c0,0.3,0.1,0.6,0.2,0.9c0.1,0.3,0.2,0.6,0.4,0.8c0.2,0.2,0.4,0.3,0.7,0.3c0.2,0,0.4-0.1,0.6-0.2
		c0.2-0.1,0.4-0.3,0.4-0.5C166.8,49.5,166.7,49,166.6,48.5z"/>
	<path class="st2" d="M54.6,100.1c0,0.4-0.1,0.8-0.3,1.1c-0.1,0.1-0.2,0.2-0.2,0.3l-0.2,0.1l0,0l-0.1,0l0,0h-0.1
		c-1-0.3-2-0.7-2.9-1.5c-1-0.7-1.9-1.6-2.7-2.5c-0.8-0.9-1.5-1.9-2.1-2.9c-0.6-1-1-1.8-1.2-2.5l0,0c-0.4-1.4-0.6-2.8-0.7-4.2
		c-0.1-1.4-0.1-2.6-0.1-3.5c0-2.5,0.3-4.5,0.9-6.3c0.6-1.8,1.3-3.1,2.1-4.1l0,0c1.2-1.6,2.3-2.7,3.3-3.4c0.5-0.4,1-0.6,1.4-0.8
		c0.1,0,0.1,0,0.2-0.1c0.1,0,0.3-0.1,0.4-0.1c0.2,0,0.4-0.1,0.5-0.1c0.6,0,1.2,0.2,1.7,0.7l0,0l0,0l0,0c0,0,0.1,0.3,0.1,0.7
		c0,0.4-0.1,0.7-0.2,1c-0.1,0.2-0.3,0.4-0.7,0.5l0,0c-0.6,0.1-1.2,0.3-1.8,0.5c-0.7,0.2-1.4,0.8-2.2,1.6l0,0l0,0
		c-0.1,0.1-0.2,0.3-0.3,0.4c-0.3,0.3-0.6,0.7-0.8,1.1c0,0.1-0.1,0.1-0.1,0.2c0,0,0,0,0,0.1c-0.4,0.7-0.8,1.4-1.1,2.3
		c-0.3,0.9-0.6,1.9-0.8,3.1c-0.2,1.2-0.3,2.4-0.3,3.8c0,2.6,0.7,5.3,2.1,8l0,0l0,0c0.4,0.6,0.8,1.2,1.2,1.7c0.4,0.5,0.7,0.9,1,1.2
		c0.3,0.3,0.5,0.6,0.8,1c0.3,0.3,0.7,0.7,1.3,1.1l0,0l0,0c0.2,0.1,0.5,0.3,0.8,0.4c0.3,0.1,0.5,0.2,0.7,0.3
		C54.5,99.5,54.6,99.7,54.6,100.1z M68.8,95c0.1,0.1,0.1,0.2,0.1,0.3c0,0.5-0.5,0.9-1.5,1.1c0,0,0,0,0,0c0,0,0,0,0,0
		c-0.9-0.6-1.9-1.6-3-2.8c-0.4-0.4-0.8-0.8-1.2-1.3c-1-1-1.8-1.9-2.5-2.6c-0.7-0.7-1.3-1.2-1.7-1.7c0,0.3-0.1,0.8-0.1,1.5
		c-0.1,0.7-0.1,1.7-0.2,2.9c0,0.4-0.1,0.9-0.1,1.3c-0.1,1.2-0.3,2.2-0.5,3c0,0,0,0-0.1,0c-0.1,0-0.1,0.1-0.3,0.1
		C57.5,97,57.3,97,57.1,97l-0.1,0L57,97c-0.9-0.2-1.4-0.9-1.4-2c0-0.2,0-0.4,0-0.6c0-0.2,0.1-0.5,0.1-0.7l0.2-1.2
		c0-0.6,0.1-1.3,0.2-2c0.1-0.7,0.1-1.5,0.1-2.4v-3.5c0-1.5,0-2.8,0-4c0-1.2,0.1-2.3,0.3-3.3c0.2-1.2,1.3-1.8,3.3-1.8h0.4
		c1.2,0,2.2,0.6,3,1.7c0.8,1,1.2,2.1,1.2,3.3c0,1-0.4,2-1.1,3c-0.7,0.9-1.4,1.6-2.3,2.2c-0.2,0.1-0.3,0.2-0.4,0.3
		c-0.1,0.1-0.2,0.2-0.2,0.3c0,0.1,0,0.3,0.1,0.4c0.1,0.1,0.3,0.2,0.5,0.4l1,0.9l3.6,3.3c0.7,0.7,1.4,1.3,1.9,1.9
		C68.1,93.9,68.5,94.4,68.8,95z M60,77.8c-0.5,0-0.8,0.2-1,0.5c0,0.3-0.1,0.6-0.1,0.9c0,0.3,0,0.6,0,0.9c0,0.3,0,1,0.1,2.2
		c0,0.2,0,0.4,0,0.6c0,0.2,0,0.4,0,0.5c0,0.2,0,0.3,0,0.5c0,0.2,0,0.3,0,0.4c0.2-0.2,0.4-0.3,0.6-0.5c1.4-1.1,2.2-2.2,2.4-3.3
		c0-0.1,0-0.3,0-0.4c0-0.1,0-0.2,0-0.4v-0.3c-0.1-0.4-0.3-0.9-0.6-1.2C61.2,77.9,60.7,77.8,60,77.8z M80,95.4
		c0.2-0.2,0.3-0.5,0.3-0.8l0-0.1l0-0.1c-0.1-0.9-0.5-1.4-1-1.4l-0.1,0l-0.1,0c-0.1,0-0.3,0.1-0.5,0.2c-0.2,0.2-0.4,0.2-0.5,0.2
		c-0.2,0-0.3,0-0.5,0c-0.1,0-0.3,0-0.4,0c-2,0-3.5-0.3-4.3-0.9c-0.2-0.4-0.3-0.9-0.3-1.5c0-1,0.2-2.3,0.6-3.8c0.3-0.1,0.6-0.2,1-0.3
		c0.4-0.1,0.9-0.1,1.4-0.1c0.6,0,1.1,0,1.5-0.1c0.4,0,0.8-0.1,1-0.1c0.3,0,0.5-0.1,0.6-0.3c0.1-0.1,0.2-0.3,0.3-0.3l0.1-0.1
		c0.1-0.1,0.2-0.2,0.2-0.4c0-0.1-0.2-0.4-0.4-0.8c-0.4-0.3-0.9-0.4-1.5-0.4c-0.2,0-0.4,0-0.6,0c0,0-0.1,0-0.1,0
		c-0.2,0-0.5,0.1-0.8,0.1c-0.3,0-0.6,0.1-0.9,0.1c-0.2,0-0.5,0-0.6,0c-0.4,0-0.8-0.1-1.2-0.2c0-0.7,0.1-1.4,0.1-1.9
		c0-0.2,0-0.3,0.1-0.5c0.1-0.6,0.2-1.1,0.2-1.3c0.4-0.2,0.9-0.3,1.5-0.5c0.6-0.2,1.3-0.4,2-0.6c0.8-0.2,1.4-0.4,2-0.6
		c0.6-0.2,1.1-0.4,1.5-0.5c0.1-0.1,0.2-0.2,0.2-0.4c0-0.1,0-0.3-0.1-0.5c-0.1-0.2-0.1-0.4-0.2-0.5c-0.8-0.4-1.4-0.7-2-0.7
		c-0.2,0-0.3,0-0.4,0c-0.5,0.1-1.1,0.3-1.6,0.4s-1,0.3-1.6,0.4c-0.6,0.2-1.1,0.3-1.6,0.5c-0.5,0.2-0.9,0.4-1.3,0.6l-2.1,0.8
		c-0.7,0.4-1.1,0.9-1.1,1.5c0,0.2,0,0.3,0.1,0.5c0.2,0.4,0.8,0.7,1.7,0.9c-0.1,1-0.1,1.7-0.2,2.2c0,0.5-0.1,0.8-0.1,0.9
		c0,0.2-0.2,0.3-0.5,0.5c-0.3,0.1-0.4,0.3-0.5,0.5v0.1c0,0.3,0.3,0.7,0.8,1.1c0,0.4-0.1,0.7-0.1,1.1c0,0.4,0,0.8,0,1.2
		c0,0.4,0,0.9,0,1.3c0,0.4,0.1,0.9,0.1,1.3c0.1,0.6,0.3,1.2,0.8,1.7c0.5,0.5,1,0.8,1.6,1c1.7,0.4,3.5,0.6,5.6,0.6c0,0,0,0,0,0
		s0,0,0,0c0.2,0,0.4,0,0.6,0c0.2,0,0.4,0,0.6,0c0.1,0,0.3,0,0.4-0.1C79.8,95.6,79.9,95.6,80,95.4z M118.3,85
		c0.1,0.5,0.1,0.9,0.1,1.3c0,0.6-0.1,1.1-0.3,1.6c-0.3,0.8-0.7,1.4-1.2,2.1c-0.4,0.6-0.9,1.2-1.5,1.6c-0.5,0.5-1.1,0.8-1.7,1.1
		c-0.6,0.3-1.2,0.4-1.9,0.4c0,0,0,0,0,0s0,0,0,0c-0.5,0-1-0.1-1.5-0.4c-0.6-0.2-1.1-0.6-1.6-1.1c-0.5-0.5-0.9-1-1.3-1.7
		c-0.2-0.3-0.3-0.7-0.4-1.1c-0.1-0.4-0.1-0.8-0.1-1.3c0-0.7,0.1-1.5,0.4-2.5c0.3-0.9,0.6-1.8,1.1-2.7c0.2-0.4,0.5-0.8,0.7-1.2
		c0.3-0.4,0.5-0.7,0.8-1c0.4-0.4,0.9-0.7,1.3-0.8c0.2,0,0.3-0.1,0.5-0.1c0.1,0,0.3,0,0.4,0.1c0.1,0,0.2,0.1,0.3,0.2
		c0.1,0.1,0.3,0.1,0.4,0.3c0.2,0.1,0.4,0.2,0.7,0.4c0.2,0.1,0.4,0.2,0.7,0.3c0.2,0.1,0.5,0.2,0.9,0.3c0.6,0.2,1.2,0.6,1.6,1
		c0.4,0.5,0.8,1,1,1.5C118,83.9,118.2,84.4,118.3,85z M111.3,84.2c-0.2-0.2-0.4-0.3-0.5-0.3c-0.2,0-0.4,0.1-0.6,0.3
		c-0.2,0.2-0.3,0.5-0.4,0.8c-0.1,0.3-0.2,0.6-0.2,1c-0.1,0.4-0.1,0.7-0.1,0.9c0,0.6,0.1,1.1,0.3,1.5c0.2,0.4,0.4,0.8,0.6,1.2
		c0.2,0.3,0.5,0.6,0.7,0.7c0.2,0.2,0.4,0.3,0.6,0.3c0.4,0,0.8-0.1,1.3-0.4c0.4-0.3,0.9-0.7,1.2-1.1c0.2-0.2,0.4-0.5,0.6-0.8
		c0.1-0.2,0.3-0.4,0.4-0.7c0-0.1,0-0.1,0.1-0.2c0.2-0.5,0.3-0.9,0.3-1.3v-0.3c-0.1-0.9-0.3-1.5-0.5-2.1c-0.2-0.5-0.6-0.8-1-0.8
		c-0.1,0-0.3,0.1-0.5,0.2c-0.2,0.2-0.4,0.3-0.6,0.5c-0.2,0.2-0.4,0.4-0.6,0.5c-0.2,0.2-0.3,0.2-0.4,0.2
		C111.8,84.5,111.5,84.4,111.3,84.2z M133.6,74.8l-0.6-0.2c-0.3-0.1-0.5-0.1-0.7-0.1c0,0,0,0,0,0c0,0,0,0,0,0
		c-0.6,0-0.9,0.2-0.9,0.6l-1.3,13.9c-0.4-1-0.8-2.1-1.3-3.4c-0.5-1.3-0.9-2.6-1.4-4c-0.5-1.5-1-2.7-1.4-3.8c-0.4-1-0.8-1.9-1.2-2.6
		c-0.3-0.3-0.7-0.5-1-0.6c-0.3-0.1-0.5-0.2-0.7-0.2c0,0,0,0,0,0c0,0,0,0,0,0c-0.1,0-0.2,0-0.2,0c-0.1,0-0.2,0-0.3,0c0,0,0,0,0,0
		c-0.3,0.1-0.5,0.2-0.6,0.4c-0.1,0.1-0.1,0.2-0.1,0.3l-0.7,8.6c-0.3,3.4-0.4,6.2-0.4,8.5c0,0.7,0,1.3,0,1.9c0,0.6,0,1.2,0.1,1.8
		l0.1,1.1c0.1,0.4,0.2,0.7,0.5,0.8l0.6,0.3c0.2,0.1,0.4,0.2,0.6,0.2c0.2,0,0.3-0.1,0.5-0.2c0.4-0.2,0.5-0.6,0.5-1.2V97
		c0-0.9-0.1-1.7-0.1-2.5c0-0.8,0-1.6,0-2.5c0-0.8,0-1.7,0-2.7c0-0.9,0-1.9,0-2.8c0-0.9,0-1.9,0.1-2.7c0-0.9,0.1-1.7,0.2-2.5
		c0-0.3,0.1-0.5,0.3-0.5c0.1,0,0.1,0.1,0.2,0.2c0.5,1.4,1,2.8,1.5,4.2c0.5,1.3,1,2.6,1.4,3.8c0.5,1.2,0.9,2.3,1.3,3.2
		c0.4,1,0.8,1.8,1.1,2.5c0.5,0.9,1,1.3,1.7,1.3c0.3,0,0.6-0.1,0.9-0.4c0.3-0.2,0.4-0.5,0.4-0.9c0-0.4-0.1-0.8-0.1-1.2s0-0.7,0-1.1
		c0-1.2,0-2.4,0.1-3.9c0-0.4,0.1-0.8,0.1-1.2c0.1-1.1,0.2-2.3,0.3-3.5l0.9-8.6C133.9,75.1,133.8,74.9,133.6,74.8z M149.1,74.8
		l-0.6-0.2c-0.3-0.1-0.5-0.1-0.7-0.1c-0.6,0-0.9,0.2-0.9,0.6l-1.3,13.9c-0.4-1-0.8-2.1-1.3-3.4c-0.5-1.3-0.9-2.6-1.4-4
		c-0.5-1.5-1-2.7-1.4-3.8c-0.4-1-0.8-1.9-1.2-2.6c-0.3-0.3-0.7-0.5-1-0.6c-0.3-0.1-0.5-0.2-0.7-0.2c0,0,0,0,0,0c0,0,0,0,0,0
		c-0.1,0-0.2,0-0.3,0c-0.1,0-0.2,0-0.2,0c-0.1,0-0.2,0.1-0.2,0.1c-0.1,0-0.1,0-0.2,0.1c-0.2,0.1-0.3,0.3-0.3,0.5l-0.7,8.6
		c-0.3,3.4-0.4,6.2-0.4,8.5c0,1.3,0,2.6,0.1,3.8l0.1,1.1c0.1,0.4,0.2,0.7,0.5,0.8l0.6,0.3c0.2,0.1,0.4,0.2,0.6,0.2c0,0,0,0,0,0
		s0,0,0,0c0.2,0,0.3-0.1,0.5-0.2c0.4-0.2,0.5-0.6,0.5-1.2V97c0-0.9-0.1-1.7-0.1-2.5c0-0.8,0-1.6,0-2.5c0-0.8,0-1.7,0-2.7
		c0-0.9,0-1.9,0-2.8c0-0.9,0-1.9,0.1-2.7c0-0.9,0.1-1.7,0.2-2.5c0-0.3,0.1-0.5,0.3-0.5c0.1,0,0.1,0.1,0.2,0.2c0.5,1.4,1,2.8,1.5,4.2
		c0.5,1.3,1,2.6,1.4,3.8c0.5,1.2,0.9,2.3,1.3,3.2c0.3,0.7,0.6,1.4,0.9,1.9c0.1,0.2,0.2,0.4,0.3,0.5c0.4,0.9,1,1.3,1.7,1.3
		c0,0,0,0,0,0s0,0,0,0c0.3,0,0.6-0.1,0.9-0.4c0.3-0.2,0.4-0.5,0.4-0.9c0-0.4-0.1-0.8-0.1-1.2s0-0.7,0-1.1c0-1.2,0-2.4,0.1-3.9
		c0.1-1.4,0.2-3,0.4-4.7l0.9-8.6C149.5,75.1,149.3,74.9,149.1,74.8z M162.8,77.3c-0.2-0.1-0.4-0.2-0.6-0.3c-0.5-0.3-1-0.4-1.5-0.4
		c0,0,0,0,0,0c0,0,0,0,0,0c-0.2,0-0.3,0-0.4,0c-0.5,0.1-1.1,0.3-1.6,0.4c-0.5,0.1-1,0.3-1.6,0.4c-0.6,0.2-1.1,0.3-1.6,0.5
		c-0.5,0.2-0.9,0.4-1.3,0.6l-2.1,0.8c-0.7,0.4-1.1,0.9-1.1,1.5c0,0.7,0.6,1.1,1.8,1.3c-0.1,1-0.1,1.7-0.2,2.2c0,0.3-0.1,0.5-0.1,0.7
		c0,0.1,0,0.1,0,0.2c0,0.1-0.1,0.1-0.1,0.2c-0.1,0.1-0.2,0.2-0.4,0.3c-0.3,0.1-0.4,0.3-0.5,0.5v0.1c0,0.3,0.3,0.7,0.8,1.1
		c0,0.4-0.1,0.7-0.1,1.1c0,0.4,0,0.8,0,1.2c0,0.4,0,0.9,0,1.3c0,0.4,0.1,0.9,0.1,1.3c0.1,0.6,0.3,1.2,0.8,1.7c0.5,0.5,1,0.8,1.6,1
		c1.7,0.4,3.5,0.6,5.6,0.6c0,0,0,0,0,0s0,0,0,0c0.2,0,0.4,0,0.6,0c0.2,0,0.4,0,0.6,0c0.3,0,0.5-0.1,0.7-0.4c0.2-0.2,0.3-0.5,0.3-0.8
		l0-0.1l0-0.1c-0.2-0.9-0.5-1.4-1-1.4l-0.1,0l-0.1,0c-0.1,0-0.3,0.1-0.5,0.2c-0.2,0.2-0.4,0.2-0.5,0.2c-0.2,0-0.3,0-0.5,0
		c-0.1,0-0.3,0-0.4,0c-2,0-3.5-0.3-4.3-0.9c-0.2-0.4-0.3-0.9-0.3-1.5c0-1,0.2-2.3,0.6-3.8c0.2-0.1,0.4-0.1,0.7-0.2
		c0.5-0.1,1.1-0.2,1.7-0.2c0.6,0,1.1,0,1.5-0.1c0.4,0,0.8-0.1,1-0.1c0.3,0,0.5-0.1,0.6-0.3c0.1-0.1,0.2-0.3,0.3-0.3l0.1-0.1
		c0.1-0.1,0.2-0.2,0.2-0.4c0-0.1-0.2-0.4-0.4-0.8c-0.4-0.3-0.9-0.4-1.5-0.4c0,0,0,0,0,0c0,0,0,0,0,0c-0.2,0-0.4,0-0.6,0
		c-0.2,0-0.5,0.1-0.9,0.1c-0.3,0-0.6,0.1-0.9,0.1c-0.2,0-0.5,0-0.6,0c-0.4,0-0.8-0.1-1.2-0.2c0-1,0.1-1.8,0.2-2.4
		c0.1-0.6,0.2-1.1,0.2-1.3c0.4-0.2,0.9-0.3,1.5-0.5c0.6-0.2,1.3-0.4,2-0.6c0.8-0.2,1.4-0.4,2-0.6c0.6-0.2,1.1-0.4,1.5-0.5
		c0.1-0.1,0.2-0.2,0.2-0.4c0-0.1,0-0.3-0.1-0.5C162.9,77.5,162.8,77.4,162.8,77.3z M89.1,78.8L89.1,78.8L89.1,78.8
		c-0.2-0.7-0.6-1.5-1.2-2.5c-0.6-1-1.3-1.9-2.1-2.9c-0.8-0.9-1.7-1.8-2.7-2.5c-1-0.7-2-1.2-2.9-1.5h-0.1l0,0l-0.1,0l-0.2,0.1
		c0,0,0,0,0,0c0,0-0.1,0.1-0.1,0.2c0,0,0,0.1-0.1,0.1c-0.1,0.1-0.2,0.3-0.2,0.5c-0.1,0.2-0.1,0.4-0.1,0.6c0,0.4,0.1,0.6,0.4,0.8
		c0.2,0.1,0.4,0.2,0.7,0.3c0.3,0.1,0.6,0.3,0.8,0.4l0,0l0,0c0.6,0.4,1,0.7,1.3,1.1c0.3,0.3,0.5,0.6,0.8,1c0.3,0.3,0.6,0.7,1,1.2
		c0.4,0.5,0.8,1.1,1.2,1.7l0,0l0,0c1.4,2.8,2.1,5.4,2.1,8c0,1.4-0.1,2.7-0.3,3.8c-0.2,1.2-0.5,2.2-0.8,3.1c-0.3,0.9-0.7,1.7-1.1,2.4
		c-0.4,0.7-0.8,1.2-1.3,1.7c0,0-0.1,0.1-0.1,0.1c-0.8,0.8-1.5,1.3-2.1,1.6c-0.6,0.2-1.2,0.4-1.8,0.5c-0.4,0.1-0.6,0.3-0.7,0.5
		c-0.1,0.3-0.2,0.6-0.2,1c0,0.4,0.1,0.7,0.1,0.7l0,0l0,0l0,0c0.5,0.5,1.1,0.7,1.7,0.7c0,0,0,0,0,0s0,0,0,0c0.7,0,1.5-0.3,2.6-1
		c1-0.7,2.1-1.9,3.3-3.4c0.8-1,1.5-2.4,2.1-4.1c0.6-1.7,0.9-3.8,0.9-6.3c0-1,0-2.1-0.1-3.5C89.8,81.7,89.5,80.3,89.1,78.8z
		 M193.2,76.1c0.5-0.1,0.9-0.6,1.1-1.3c0-0.4-0.3-0.6-0.9-0.6v-0.1c0-0.2-0.2-0.4-0.5-0.4l-0.2,0l-0.2,0c0,0,0,0,0,0h0
		c-0.5,0-1,0.1-1.5,0.2c-0.3,0.1-0.6,0.2-0.9,0.2c-0.3,0.1-0.5,0.1-0.6,0.1c-0.9,0.2-1.9,0.4-2.8,0.4c-0.9,0-1.8-0.1-2.6-0.4
		c0,0,0,0,0,0c0,0,0,0,0,0c-0.2,0.1-0.5,0.2-0.7,0.3c-0.7,0.3-1.6,0.5-2.6,0.6c-0.3,0-0.6,0.1-0.9,0.1c-0.7,0.1-1.2,0.1-1.7,0.2
		c-0.4,0.1-0.8,0.2-1.2,0.3c-0.1,0.2-0.2,0.3-0.2,0.5c0,0,0.1,0.3,0.4,0.9c0.7,0.6,1.5,0.8,2.6,0.8c0,0,0,0,0,0c0,0,0,0,0,0
		c0.2,0,0.4,0,0.5,0c0.1,0,0.3-0.1,0.4-0.1c0,0,0.1,0,0.1,0c0.4-0.1,0.8-0.1,1.1-0.1c0.3,0,0.6,0,0.9,0h0.4v0.6c0,0.8,0,1.6-0.1,2.7
		c0,1-0.1,2.2-0.2,3.5c0,0.4,0,0.8-0.1,1.1c-0.1,2.5-0.2,4.4-0.2,5.6c0,0.9,0,1.7,0.1,2.5c0,0.6,0.3,1.2,0.7,1.7
		c0.3,0.4,0.7,0.6,1.1,0.7c0.1,0,0.3,0.1,0.4,0.1c0.3,0,0.5-0.2,0.6-0.5c0-0.1,0-0.2,0-0.3c0-0.1,0-0.2,0-0.3v-0.3c0-0.7,0-1.3,0-2
		c0-0.7,0-1.3,0-2c0-1.8,0.1-3.8,0.2-6c0.1-2.2,0.3-4.6,0.5-7.3c1.7-0.3,3.1-0.5,4.2-0.7C191.7,76.5,192.6,76.3,193.2,76.1z
		 M202,77.3c-0.8-0.4-1.4-0.7-2-0.7c0,0,0,0,0,0c0,0,0,0,0,0c-0.2,0-0.3,0-0.4,0c-0.5,0.1-1.1,0.3-1.6,0.4c-0.5,0.1-1,0.3-1.6,0.4
		c-0.6,0.2-1.1,0.3-1.6,0.5c-0.5,0.2-0.9,0.4-1.3,0.6l-2.1,0.8c-0.7,0.4-1.1,0.9-1.1,1.5c0,0.3,0.1,0.6,0.4,0.9
		c0.3,0.2,0.7,0.4,1.3,0.5c-0.1,1-0.1,1.7-0.2,2.2c0,0.5-0.1,0.8-0.1,0.9c0,0.2-0.2,0.3-0.5,0.5c-0.3,0.1-0.4,0.3-0.5,0.5v0.1
		c0,0.3,0.3,0.7,0.8,1.1c0,0.4-0.1,0.7-0.1,1.1c0,0.4,0,0.8,0,1.2c0,0.4,0,0.9,0,1.3c0,0.4,0.1,0.9,0.1,1.3c0.1,0.6,0.3,1.2,0.8,1.7
		c0.5,0.5,1,0.8,1.6,1c1.7,0.4,3.5,0.6,5.6,0.6c0,0,0,0,0,0s0,0,0,0c0.2,0,0.4,0,0.6,0c0.2,0,0.4,0,0.6,0c0.3,0,0.5-0.1,0.7-0.4
		c0.2-0.2,0.3-0.5,0.3-0.8l0-0.1l0-0.1c-0.2-0.9-0.5-1.4-1-1.4l0,0c0,0,0,0,0,0l-0.1,0l-0.1,0c-0.1,0-0.3,0.1-0.5,0.2
		c-0.2,0.2-0.4,0.2-0.5,0.2c-0.2,0-0.3,0-0.5,0c-0.1,0-0.3,0-0.4,0c-2,0-3.5-0.3-4.3-0.9c-0.2-0.4-0.3-0.9-0.3-1.5
		c0-1,0.2-2.3,0.6-3.8c0.3-0.1,0.6-0.2,1.1-0.3c0.4-0.1,0.9-0.1,1.4-0.1c0.6,0,1.1,0,1.5-0.1c0.4,0,0.7-0.1,1-0.1
		c0.2,0,0.3,0,0.4-0.1c0.1,0,0.2-0.1,0.3-0.2c0.1-0.1,0.2-0.3,0.3-0.3l0.1-0.1c0.1-0.1,0.2-0.2,0.2-0.4c0-0.1-0.2-0.4-0.4-0.8
		c-0.4-0.3-0.9-0.4-1.5-0.4c-0.2,0-0.4,0-0.6,0c-0.2,0-0.5,0.1-0.7,0.1c0,0-0.1,0-0.1,0c-0.3,0-0.6,0.1-0.9,0.1c0,0,0,0,0,0
		c-0.2,0-0.5,0-0.6,0c0,0,0,0,0,0c-0.4,0-0.8-0.1-1.2-0.2c0-1,0.1-1.8,0.2-2.4c0.1-0.6,0.2-1.1,0.2-1.3c0.4-0.2,0.9-0.3,1.5-0.5
		c0.6-0.2,1.3-0.4,2-0.6c0.8-0.2,1.4-0.4,2-0.6c0.6-0.2,1.1-0.4,1.5-0.5c0.1-0.1,0.2-0.2,0.2-0.4c0-0.1,0-0.3-0.1-0.5
		C202,77.5,202,77.4,202,77.3z M215.2,77.8c-0.1-0.2-0.1-0.4-0.2-0.5c-0.8-0.4-1.4-0.7-2-0.7c0,0,0,0,0,0c0,0,0,0,0,0
		c-0.2,0-0.3,0-0.4,0c-0.5,0.1-1.1,0.3-1.6,0.4s-1,0.3-1.6,0.4c-0.6,0.2-1.1,0.3-1.6,0.5c-0.5,0.2-0.9,0.4-1.3,0.6l-2.1,0.8
		c-0.7,0.4-1.1,0.9-1.1,1.5c0,0.7,0.6,1.1,1.8,1.3c-0.1,1-0.1,1.7-0.2,2.2c0,0.5-0.1,0.8-0.1,0.9c0,0.2-0.2,0.3-0.5,0.5
		c-0.3,0.1-0.4,0.3-0.5,0.5v0.1c0,0.3,0.3,0.7,0.8,1.1c0,0.4-0.1,0.7-0.1,1.1c0,0.4,0,0.8,0,1.2c0,0.4,0,0.9,0,1.3
		c0,0.4,0.1,0.9,0.1,1.3c0.1,0.6,0.3,1.2,0.8,1.7c0.5,0.5,1,0.8,1.6,1c1.7,0.4,3.5,0.6,5.6,0.6c0.2,0,0.4,0,0.6,0c0.2,0,0.4,0,0.6,0
		c0.3,0,0.5-0.1,0.7-0.4c0.2-0.2,0.3-0.5,0.3-0.8l0-0.1l0-0.1c-0.2-0.9-0.5-1.4-1-1.4l-0.1,0l-0.1,0c-0.1,0-0.3,0.1-0.5,0.2
		c-0.2,0.2-0.4,0.2-0.5,0.2c-0.2,0-0.3,0-0.5,0c-0.1,0-0.3,0-0.4,0c-2,0-3.5-0.3-4.3-0.9c-0.2-0.4-0.3-0.9-0.3-1.5
		c0-1,0.2-2.3,0.6-3.8c0.2-0.1,0.4-0.1,0.7-0.2c0.5-0.1,1.1-0.2,1.7-0.2c0.6,0,1,0,1.4-0.1c0.4,0,0.8-0.1,1-0.1
		c0.3,0,0.5-0.1,0.6-0.3c0.1-0.1,0.2-0.3,0.3-0.3l0.1-0.1c0.1-0.1,0.2-0.2,0.2-0.4c0-0.1-0.2-0.4-0.4-0.8c-0.4-0.3-0.9-0.4-1.5-0.4
		c0,0,0,0,0,0c0,0,0,0,0,0c-0.2,0-0.4,0-0.6,0c0,0-0.1,0-0.1,0c-0.2,0-0.5,0.1-0.8,0.1c-0.3,0-0.6,0.1-0.9,0.1c-0.2,0-0.5,0-0.6,0
		c-0.4,0-0.8-0.1-1.2-0.2c0-1,0.1-1.8,0.2-2.4c0.1-0.6,0.2-1.1,0.2-1.3c0.4-0.2,0.9-0.3,1.5-0.5c0.6-0.2,1.3-0.4,2-0.6
		c0.8-0.2,1.4-0.4,2-0.6c0.6-0.2,1.1-0.4,1.5-0.5c0.1-0.1,0.2-0.2,0.2-0.4C215.3,78.2,215.3,78,215.2,77.8z M105.8,93.8
		c-3.8-0.3-8-2-8.2-6.4c-0.2-4.1,3.1-6.7,6.4-8.2c1.7-0.8,0.6-3.1-1-3c-0.2,0-0.5,0.1-0.7,0.2c-1.2,0.5-2.4,1.2-3.4,2.1
		c-3.2,2.5-5.3,6.2-4.4,10.5c1.1,5.6,6.2,7.8,11.3,8.2C107.9,97.3,107.9,94,105.8,93.8z M176.5,93.9c-3.4-0.3-8-1.5-8.3-5.7
		c-0.2-3.6,3.1-6,6.1-7.2c1-0.4,1.2-1.6,0.9-2.4c-0.3-0.6-0.9-1-1.7-0.7c-4.6,1.9-9.1,5.7-8.3,11.2c0.4,2.4,1.6,4.2,3.4,5.4
		c2.2,1.6,5.2,2.3,8,2.5c0,0,0,0,0,0h0C178.5,97.2,178.5,94,176.5,93.9z"/>
	<path class="st3" d="M198.7,74.4c1.3-0.8,2.7-1.7,4-2.5c1.2-0.8,0.1-2.7-1.1-1.9c-1.3,0.8-2.7,1.7-4,2.5
		C196.4,73.2,197.5,75.1,198.7,74.4z"/>
</g>
</svg>
