<?xml version="1.0" encoding="UTF-8" standalone="no"?>
<!-- Created with Inkscape (http://www.inkscape.org/) -->

<svg
   width="158.75mm"
   height="62.694324mm"
   viewBox="0 0 158.75 62.694323"
   version="1.1"
   id="svg2854"
   inkscape:version="1.3 (0e150ed6c4, 2023-07-21)"
   sodipodi:docname="logo_mrc.svg"
   inkscape:export-filename="../../../../mrc-backend/core/static/logo_mrc.png"
   inkscape:export-xdpi="96"
   inkscape:export-ydpi="96"
   xmlns:inkscape="http://www.inkscape.org/namespaces/inkscape"
   xmlns:sodipodi="http://sodipodi.sourceforge.net/DTD/sodipodi-0.dtd"
   xmlns="http://www.w3.org/2000/svg"
   xmlns:svg="http://www.w3.org/2000/svg">
  <sodipodi:namedview
     id="namedview2856"
     pagecolor="#ffffff"
     bordercolor="#000000"
     borderopacity="0.25"
     inkscape:showpageshadow="2"
     inkscape:pageopacity="0.0"
     inkscape:pagecheckerboard="0"
     inkscape:deskcolor="#d1d1d1"
     inkscape:document-units="mm"
     showgrid="false"
     inkscape:zoom="1.3033355"
     inkscape:cx="101.2786"
     inkscape:cy="148.0816"
     inkscape:window-width="1920"
     inkscape:window-height="1011"
     inkscape:window-x="1920"
     inkscape:window-y="32"
     inkscape:window-maximized="1"
     inkscape:current-layer="layer1" />
  <defs
     id="defs2851" />
  <g
     inkscape:label="Calque 1"
     inkscape:groupmode="layer"
     id="layer1"
     transform="translate(-7.0190778,-91.424223)">
    <polygon
       class="cls-70"
       points="91.98,10.53 91.97,10.53 "
       id="polygon1495"
       style="isolation:isolate;fill:#2b4294"
       transform="matrix(0.26458333,0,0,0.26458333,16.655198,92.903311)" />
    <g
       id="g416"
       transform="matrix(5.2617735,0,0,5.2617735,-124.15009,-420.51274)">
      <path
         class="cls-69"
         d="m 45.029114,100.6556 v 0 c 0,0 0.132292,-0.20373 0.351896,-0.38629 0.22225,-0.18256 0.534458,-0.351895 0.933979,-0.351895 h 0.0291 c 0.07144,0 0.14023,0 0.211667,0 0.119063,0 0.232833,0 0.346604,0 0.378354,0 0.724959,0.01587 1.053042,0.127005 0.325437,0.11112 0.640292,0.31485 0.963083,0.7276 0.428625,0.54769 0.508,0.8599 0.505354,0.98425 0,0.0582 -0.01323,0.0794 -0.01588,0.0873 v 0 c 0,0 0.05821,0.0476 0.05821,0.0476 l -0.03969,-0.0582 -0.01852,0.0132 0.05821,0.045 -0.03969,-0.0582 0.113771,0.16404 0.127,0.15346 -0.05027,-0.0609 0.05027,0.0609 v 0 c 0,0 -0.05027,-0.0609 -0.05027,-0.0609 l 0.05027,0.0609 c 0,0 0.362479,-0.29104 0.931333,-0.2884 0.381,0 0.865188,0.12436 1.436688,0.56621 0.336021,0.26194 0.53975,0.50271 0.658812,0.71438 0.119063,0.21166 0.156105,0.39158 0.156105,0.54504 0,0.17727 -0.05292,0.32279 -0.105834,0.42333 -0.02646,0.0503 -0.05292,0.09 -0.07144,0.11377 l -0.02117,0.0265 -0.0053,0.005 v 0 c 0,0 0.08467,0.0794 0.08467,0.0794 l -0.08467,-0.0794 v 0 c 0,0 0.08467,0.0794 0.08467,0.0794 l -0.08467,-0.0794 c -0.0635,0.0662 -0.07144,0.16669 -0.02381,0.24342 0.04763,0.0767 0.142875,0.11112 0.230187,0.082 v 0 c 0,0 0,0 0,0 v 0 c 0,0 0,-0.003 0,-0.003 v 0 c 0,0 0.195792,-0.0556 0.436563,-0.0556 0.248708,0 0.545042,0.0556 0.804333,0.26723 0.256646,0.21167 0.494771,0.59002 0.592667,1.29646 0.01323,0.0926 0.01852,0.17991 0.01852,0.26194 0,0.32279 -0.08731,0.55827 -0.230188,0.74612 -0.211666,0.28046 -0.568854,0.46038 -0.978958,0.56621 -0.407458,0.10583 -0.859896,0.13229 -1.227667,0.13229 -0.341312,0 -0.605896,-0.0238 -0.727604,-0.0265 -0.06615,0 -0.148167,-0.005 -0.240771,-0.005 -0.574146,0 -1.643062,0.0662 -3.042708,0.39158 -0.738188,0.17198 -2.06375,0.29369 -3.376083,0.36777 -1.312334,0.0741 -2.616729,0.10584 -3.33375,0.10584 -0.07408,0 -0.140229,0 -0.201084,0 -0.0291,0 -0.05821,0 -0.08731,0 -1.108604,0 -3.349625,0.1905 -5.072063,0.1905 -0.330729,0 -0.642937,-0.008 -0.92075,-0.0238 -1.76477,-0.10319 -2.828395,-0.61913 -3.894666,-0.81757 -0.841375,-0.15346 -2.304521,-0.32279 -3.370792,-0.32279 -0.259291,0 -0.492125,0.0106 -0.693208,0.0344 -0.0344,0.005 -0.07144,0.005 -0.108479,0.005 -0.354542,0 -0.838729,-0.1905 -1.217084,-0.53975 -0.378354,-0.34925 -0.65352,-0.83873 -0.65352,-1.43404 0,-0.19315 0.0291,-0.39952 0.09525,-0.61913 0.230187,-0.75141 0.568854,-1.13506 0.886354,-1.34143 0.320146,-0.20638 0.635,-0.23813 0.830791,-0.23813 0.04763,0 0.08996,0 0.124355,0.005 0.04498,0 0.156104,0.0265 0.280458,0.0661 0.187854,0.0582 0.41275,0.14816 0.590021,0.2196 0.08731,0.037 0.164041,0.0688 0.219604,0.0926 0.05292,0.0238 0.08467,0.037 0.08467,0.037 0.05821,0.0265 0.127,0.0212 0.182562,-0.0106 0.05556,-0.0344 0.0926,-0.0926 0.09525,-0.15875 v 0 c 0.0053,-0.0582 0.06085,-0.65352 0.436563,-1.31497 0.375708,-0.66146 1.058333,-1.38642 2.352145,-1.74361 0.719667,-0.19844 1.550459,-0.27252 2.413,-0.27252 1.156229,0 2.373313,0.13229 3.471334,0.26458 1.09802,0.1323 2.076979,0.26723 2.778125,0.26723 0.02646,0 0.05292,0 0.07937,0 0.108479,0 0.195791,-0.0926 0.195791,-0.20108 0,-0.10848 -0.0926,-0.19579 -0.201083,-0.19579 -0.02381,0 -0.04762,0 -0.07408,0 -0.653521,0 -1.629834,-0.13229 -2.7305,-0.26459 -1.103313,-0.13493 -2.333625,-0.26722 -3.518959,-0.26722 -0.886354,0 -1.748896,0.0741 -2.518833,0.28575 -1.444625,0.39422 -2.227792,1.24883 -2.632604,2.00025 -0.404813,0.75141 -0.447146,1.397 -0.447146,1.41552 l 0.198438,0.0132 0.08202,-0.17992 c 0,0 -0.235479,-0.10583 -0.510645,-0.21431 -0.137584,-0.0529 -0.28575,-0.10848 -0.42598,-0.15346 -0.140229,-0.0423 -0.261937,-0.0767 -0.375708,-0.0847 -0.03704,0 -0.08731,-0.005 -0.148167,-0.005 -0.24077,0 -0.640291,0.0397 -1.045104,0.30162 -0.404812,0.2593 -0.804333,0.73819 -1.053041,1.5584 -0.07673,0.254 -0.113771,0.50006 -0.113771,0.73554 0,0.72231 0.338666,1.31763 0.783166,1.72508 0.447146,0.40746 0.99748,0.64294 1.484313,0.64559 0.05292,0 0.105833,-0.003 0.156104,-0.008 0.177271,-0.0212 0.399521,-0.0317 0.648229,-0.0317 1.023938,0 2.487083,0.16669 3.299354,0.31485 0.986896,0.17992 2.108729,0.71438 3.942292,0.82286 0.288396,0.0159 0.608542,0.0238 0.944562,0.0238 1.74625,0 3.997855,-0.1905 5.072063,-0.1905 0.0291,0 0.05556,0 0.08202,0 0.06085,0 0.129646,0 0.203729,0 0.727604,0 2.034646,-0.0291 3.357562,-0.10583 1.322917,-0.0767 2.651125,-0.19315 3.444875,-0.37836 1.36525,-0.32014 2.405063,-0.381 2.950104,-0.381 0.08996,0 0.164042,0 0.224896,0.005 0.103188,0.003 0.388938,0.0291 0.743479,0.0291 0.518584,0 1.198563,-0.0476 1.775355,-0.29633 0.288395,-0.12436 0.552979,-0.30163 0.74877,-0.55827 0.195792,-0.25665 0.309563,-0.58738 0.309563,-0.98425 0,-0.10055 -0.0079,-0.20373 -0.02117,-0.31486 -0.103187,-0.77523 -0.383646,-1.26471 -0.732896,-1.5531 -0.34925,-0.28575 -0.74877,-0.35719 -1.055687,-0.35719 -0.320146,0 -0.547688,0.0741 -0.560917,0.0794 l 0.06085,0.18785 0.145521,0.13758 c 0,0 0.08467,-0.09 0.15875,-0.23283 0.07408,-0.14288 0.150813,-0.3519 0.150813,-0.60854 0,-0.21961 -0.05821,-0.47361 -0.209021,-0.74084 -0.150813,-0.26722 -0.391583,-0.54504 -0.759354,-0.83343 -0.629709,-0.49213 -1.211792,-0.65088 -1.68275,-0.65088 -0.724959,0 -1.164167,0.36513 -1.182688,0.381 -0.08202,0.0688 -0.09525,0.18786 -0.03175,0.27252 0.0635,0.0847 0.182563,0.10319 0.269875,0.0423 0.01852,-0.0132 0.0635,-0.0476 0.103188,-0.11642 0.03969,-0.0661 0.07144,-0.16404 0.07144,-0.28575 0,-0.26988 -0.134937,-0.64294 -0.590021,-1.22767 -0.359833,-0.46302 -0.74877,-0.724956 -1.145645,-0.857247 -0.396875,-0.134938 -0.79375,-0.148167 -1.180042,-0.148167 -0.116417,0 -0.232833,0 -0.346604,0 -0.06879,0 -0.134938,0 -0.201084,0 h -0.03704 c -0.534459,0 -0.944563,0.235479 -1.211792,0.463021 -0.269875,0.227543 -0.407458,0.452433 -0.41275,0.463023 -0.05821,0.0926 -0.02646,0.21431 0.06615,0.27252 0.0926,0.0582 0.216958,0.0265 0.272521,-0.0661 v 0 z"
         id="path1491"
         style="isolation:isolate;fill:#1c096b;stroke-width:0.264583" />
      <line
         class="cls-53"
         x1="33.453594"
         y1="100.84346"
         x2="35.781929"
         y2="100.77467"
         id="line1493"
         style="isolation:isolate;fill:#89a3d4;stroke-width:0.264583" />
      <path
         class="cls-70"
         d="M 41.671552,97.922457 Z"
         id="path1497"
         style="isolation:isolate;fill:#2b4294;stroke-width:0.264583" />
      <path
         class="cls-39"
         d="m 44.439093,99.48879 c 0.304271,0.02117 2.069042,-0.05556 1.899709,0.433917 -0.134938,0.272523 -0.759354,0.137583 -1.026584,0.174623 -0.449791,-0.005 -0.79375,0.34131 -1.222375,0.41804 -0.314854,0.0847 -0.714375,0.0423 -0.899583,-0.25929 -0.169333,-0.24077 -0.359833,-0.465665 -0.579437,-0.664102 -0.100542,-0.05292 -0.0053,-0.216959 0.08996,-0.145521 0.08202,0.08467 0.171979,0.164041 0.251354,0.251354 0.02381,-0.129646 0.177271,-0.04233 0.264583,-0.05821 0.06615,-0.0053 0.121709,-0.01587 0.177271,-0.02646 0.346604,-0.0635 0.695854,-0.119062 1.04775,-0.124354 z"
         id="path1499"
         style="isolation:isolate;fill:#80c5ab;stroke-width:0.264583" />
      <path
         class="cls-70"
         d="m 42.499698,99.512603 c -0.01588,0.03175 -0.05027,0.05292 -0.08731,0.05292 l -0.05292,-0.02381 -0.05027,-0.02117 c -0.283104,-0.153458 -0.576792,-0.312208 -0.844021,-0.478896 -0.478896,-0.243416 -0.978958,-0.478896 -1.518708,-0.53975 -0.169334,-0.02117 -0.341313,-0.05027 -0.513292,-0.05821 -0.09525,0 -0.187854,0.0291 -0.283104,0.03704 -0.05292,0.0053 -0.105834,0.0026 -0.156104,-0.0053 -0.05821,-0.01323 -0.07937,-0.0635 -0.07144,-0.108479 v 0 c 0,0 0,0 0,0 v 0 c 0,0 0,0 0,0 0.0635,-0.01852 0.129646,-0.0344 0.193146,-0.05556 v 0 0 0 c 0,0 0,0 0,0 v 0 0 c 0.02381,-0.0079 0.05027,-0.01588 0.07408,-0.02381 l 0.0291,-0.0053 0.03704,-0.0053 0.06615,-0.0053 c 0.0344,-0.0026 0.07144,-0.0079 0.105833,-0.01058 0.145521,0 0.291042,0.02911 0.436563,0.04498 l 0.04233,0.0053 v 0 c 0,0 0,0 0,0 v 0 c 0.0344,0.0053 0.06879,0.01323 0.100542,0.02117 0.03704,0.01058 0.07144,0.01852 0.108479,0.02646 0.07408,0.01852 0.148167,0.03704 0.22225,0.05821 l 0.01588,0.0053 0.05556,0.01852 v 0 c 0,0 0.04762,0.01587 0.04762,0.01587 h -0.0053 c 0,0 0,0 0,0 v 0 c 0,0 0,0 0,0 v 0 c 0,0 0,0 0,0 v 0 c 0.121708,0.03969 0.243416,0.07937 0.365125,0.121708 l 0.03175,0.01058 0.04763,0.02381 0.06879,0.0344 0.01852,0.01058 h -0.0026 c 0.03969,0.01852 0.07673,0.03704 0.116417,0.05821 0.04498,0.02381 0.08996,0.05027 0.137583,0.07408 v 0 c 0,0 0,0 0,0 v 0 c 0,0 0,0 0,0 v 0 c 0,0 0,0 0,0 v 0 c 0.0344,0.01852 0.06615,0.03704 0.100542,0.05556 l 0.06615,0.03704 c 0.0344,0.01852 0.07144,0.0344 0.105833,0.05292 l 0.05821,0.0291 0.02381,0.01058 c 0.0344,0.01587 0.06879,0.02911 0.103188,0.04498 l 0.06615,0.0291 0.0291,0.01323 0.0344,0.01323 0.06615,0.02381 h -0.0026 c 0,0 0.02117,0.0053 0.02117,0.0053 h 0.0053 c 0,0 0,0 0,0 v 0 c 0,0 0,0 0,0 v 0 c 0,0 0,0 0,0 v 0 c 0,0 0,0 0,0 v 0 c 0,0 0,0 0,0 v 0 c 0,0 0,0 0,0 v 0 c 0,0 0,0 0,0 l 0.01058,0.0053 v 0 c 0,0 0,0 0,0 v 0 c 0,0 0,0 0,0 v 0 c 0,0 0,0 0,0 h 0.01058 c 0,0 0,0.0053 0,0.0053 v 0 c 0,0 0,0 0,0 v 0 c 0,0 0,0 0,0 v 0 c 0,0 0,0 0,0 v 0 c 0,0 0,0 0,0 h 0.0079 c 0.0635,0.03969 0.129646,0.07408 0.195792,0.105833 0.0979,0.05027 0.193145,0.105833 0.288395,0.15875 0.0344,0.01852 0.05556,0.05556 0.05027,0.0926 l -0.01058,0.03175 z"
         id="path1501"
         style="isolation:isolate;fill:#2b4294;stroke-width:0.264583" />
      <path
         class="cls-70"
         d="m 42.579073,99.55229 c -0.02117,0.03704 -0.04763,0.05027 -0.07937,0.05027 v 0 c 0,0 0,0 0,0 v 0 c 0,0 0,0 0,0 v 0 c 0,0 0,0 0,0 v 0 c 0,0 0,0 0,0 -0.02646,-0.01323 -0.05292,-0.02381 -0.08202,-0.0344 v 0 c 0,0 0,0 0,0 v 0 c 0,0 -0.05292,-0.02381 -0.05292,-0.02381 l -0.01323,-0.0053 -0.01852,-0.01323 c -0.224896,-0.119063 -0.431271,-0.230188 -0.650875,-0.34925 -0.513291,-0.259292 -1.042458,-0.489479 -1.600729,-0.624417 -0.129646,-0.03175 -0.261937,-0.05821 -0.394229,-0.07408 -0.137583,-0.02117 -0.269875,-0.03969 -0.404813,-0.01587 -0.195791,0.04233 -0.24077,-0.07673 -0.193145,-0.140229 l 0.03175,-0.01058 v 0 c 0,0 0,0 0,0 0.03175,-0.01058 0.0635,-0.01852 0.0979,-0.0291 0.07937,-0.0026 0.156105,-0.02117 0.23548,-0.01852 0.206375,0.02117 0.402166,0.04498 0.60325,0.0926 0.645583,0.153459 1.262062,0.415396 1.846791,0.73025 0.161396,0.0926 0.328084,0.174625 0.489479,0.261938 0.03175,0.01587 0.05821,0.03704 0.08731,0.05556 0.05821,0.02381 0.113771,0.05556 0.108479,0.116417 l -0.0079,0.0344 z"
         id="path1503"
         style="isolation:isolate;fill:#2b4294;stroke-width:0.264583" />
      <polygon
         class="cls-70"
         points="97.37,25.19 97.36,25.18 97.37,25.18 "
         id="polygon1505"
         style="isolation:isolate;fill:#2b4294"
         transform="matrix(0.26458333,0,0,0.26458333,16.655198,92.903311)" />
      <path
         class="cls-40"
         d="m 44.534343,99.459686 c -1.307041,-0.07144 -2.616729,-0.06085 -3.92377,0.05027 -1.293813,0.111125 -2.579688,0.386291 -3.881438,0.410104 -0.306916,0.0053 -0.621771,0.0053 -0.926041,-0.0344 -0.201084,-0.02646 -0.41275,-0.129646 -0.608542,-0.142875 -0.269875,-0.01852 -0.529167,0.727595 -0.264583,0.764655 0.05821,0.008 0.351895,-0.0291 0.418041,-0.0318 0.304271,-0.008 0.611188,0.005 0.912813,0.0423 1.27,0.1561 2.497666,0.62442 3.743854,0.91281 1.288521,0.29898 2.6035,0.50271 3.918479,0.62442 1.098021,0.10319 2.772833,0.33337 3.452812,-0.80169 0.881063,-1.46314 -0.90752,-2.259536 -1.989666,-2.614077 -1.198563,-0.39423 -2.473854,-0.58473 -3.733271,-0.632355 -2.606146,-0.0979 -5.162021,0.439209 -7.561792,1.426105 0.277813,0.658817 0.555625,1.320277 0.833438,1.979087 0.685271,-0.51064 1.373187,-1.04775 2.148417,-1.418171 0.767291,-0.367771 1.653645,-0.510646 2.502958,-0.529166 1.119187,-0.02646 2.230437,0.142875 3.336396,0.296333 1.243541,0.171979 2.484437,0.346614 3.727979,0.518584 0.579437,0.0794 1.164166,-0.14022 1.330854,-0.756709 0.140229,-0.505354 -0.174625,-1.251479 -0.756708,-1.3335 -1.31498,-0.182563 -2.627313,-0.365125 -3.942292,-0.547688 -1.291167,-0.179916 -2.598208,-0.396875 -3.90525,-0.338666 -1.084792,0.04762 -2.140479,0.261937 -3.135312,0.701146 -0.875771,0.386291 -1.637771,0.968375 -2.399771,1.534583 -0.431271,0.322792 -0.677334,0.822864 -0.441854,1.352024 0.195791,0.4445 0.772583,0.83609 1.277937,0.62706 1.725083,-0.70908 3.455458,-1.18004 5.320771,-1.31762 1.005417,-0.0741 2.034646,-0.0661 3.032125,0.0926 0.510646,0.082 1.018646,0.1958 1.513416,0.34661 0.351896,0.10583 0.923396,0.19579 1.158875,0.48948 -0.0926,-0.15875 -0.185208,-0.3175 -0.277812,-0.4789 v -0.0476 c 0.04763,-0.18257 0.09525,-0.36513 0.145521,-0.54769 0.108479,-0.209027 0.216958,-0.08203 -0.05556,-0.07939 -0.129646,0 -0.259291,0 -0.388937,-0.0053 -0.465667,-0.01323 -0.931334,-0.05821 -1.397,-0.103188 -0.820208,-0.08202 -1.635125,-0.211666 -2.442104,-0.375708 -1.717146,-0.34925 -3.376084,-0.981604 -5.127625,-1.150938 -0.785813,-0.07673 -1.807104,-0.11377 -2.452688,0.415396 -0.746125,0.611188 -0.767291,1.725078 -0.127,2.428868 0.592667,0.65352 1.510771,0.80169 2.346854,0.87577 0.883709,0.0767 1.770063,-0.0265 2.64848,-0.14287 1.989666,-0.26194 3.960812,-0.40482 5.968999,-0.29369 1.394355,0.0767 1.389063,-2.090203 0,-2.166932 z"
         id="path1507"
         style="isolation:isolate;fill:#ff5738;stroke-width:0.264583" />
      <path
         class="cls-69"
         d="m 31.276073,106.58227 c -0.02381,-0.0106 -0.05292,-0.0238 -0.08996,-0.0397 -0.03969,-0.0159 -0.07408,-0.0318 -0.100541,-0.0476 v 0 c 0,0 0,0 0,0 -0.07144,-0.045 -0.127,-0.0873 -0.164042,-0.12965 -0.0344,-0.037 -0.06615,-0.0767 -0.100542,-0.11642 -0.03439,-0.0397 -0.07408,-0.09 -0.119062,-0.15081 -0.04498,-0.0609 -0.09525,-0.12964 -0.145521,-0.20637 v 0 c 0,0 0,-0.005 0,-0.005 -0.171979,-0.33867 -0.259292,-0.66675 -0.259292,-0.98425 0,-0.17198 0.01323,-0.32809 0.03704,-0.47096 0.02381,-0.14023 0.05556,-0.26723 0.0979,-0.37836 0.03969,-0.11112 0.08731,-0.20637 0.137583,-0.29104 0.05027,-0.082 0.103188,-0.15081 0.156104,-0.20637 v 0 c 0.100542,-0.10319 0.185209,-0.17198 0.26723,-0.20109 0.07144,-0.0265 0.142875,-0.045 0.214312,-0.0609 0.04763,-0.0132 0.07144,-0.0317 0.08731,-0.0635 0.01852,-0.0344 0.02646,-0.0741 0.02646,-0.11906 0,-0.0529 -0.01058,-0.0847 -0.01323,-0.0847 v 0 c 0,0 0,0 0,0 v 0 c -0.0635,-0.0582 -0.129646,-0.0847 -0.203729,-0.0847 -0.08467,0 -0.187855,0.0397 -0.312209,0.127 -0.121708,0.0873 -0.256646,0.22754 -0.404812,0.42069 -0.0926,0.12171 -0.179917,0.29104 -0.254,0.50535 -0.07408,0.21167 -0.113771,0.46832 -0.113771,0.7673 0,0.11906 0.0053,0.26193 0.01852,0.43391 0.01058,0.16934 0.04233,0.34132 0.08996,0.51594 v 0 c 0.02381,0.0847 0.06879,0.18785 0.140229,0.30692 0.07144,0.11906 0.15875,0.23548 0.259292,0.34925 0.100542,0.11377 0.211667,0.21695 0.333375,0.30691 0.119062,0.09 0.238125,0.14817 0.359833,0.17992 h 0.01852 c 0,0 0.0079,0.003 0.0079,0.003 l 0.01852,-0.008 0.02911,-0.0318 c 0.02646,-0.0397 0.03969,-0.0847 0.03969,-0.13494 0,-0.045 -0.01588,-0.0741 -0.05292,-0.10054 z"
         id="path1509"
         style="isolation:isolate;fill:#1c096b;stroke-width:0.264583" />
      <path
         class="cls-11"
         d="m 44.298864,100.1476 c 0,-0.045 0,-0.0926 0.0026,-0.14287 0,-0.05027 0.0026,-0.108482 0.0026,-0.179919 l -0.0079,-0.06085 -0.0079,-0.06085 v -0.05821 c 0,0 -0.01588,-0.06615 -0.01588,-0.06615 l -0.03175,-0.05292 c -0.01323,-0.01323 -0.0344,-0.02117 -0.05821,-0.02117 h -0.03175 c 0,0 -0.0344,0.0026 -0.0344,0.0026 l -0.04498,0.04762 -0.01323,0.06615 c 0,0.03175 0,0.06615 0.0026,0.0979 0,0.03439 0.0026,0.06614 0.0026,0.09789 0,0.113771 0,0.222249 0,0.325439 0,0.10319 0,0.21431 0,0.33602 0,0.0265 0.01323,0.0503 0.04233,0.0688 0.0291,0.0185 0.05027,0.0291 0.07144,0.0291 l 0.05556,-0.005 0.06086,-0.0265 c 0.02117,-0.0132 0.04498,-0.037 0.06879,-0.0661 0.02381,-0.0291 0.05292,-0.0741 0.08202,-0.12964 0.02381,-0.0397 0.04233,-0.0794 0.05821,-0.11907 0.01588,-0.0397 0.03175,-0.0794 0.04763,-0.11906 0.01588,-0.0423 0.0344,-0.0847 0.05556,-0.129647 0.02117,-0.04498 0.04498,-0.0926 0.07937,-0.145521 0.01852,0.02381 0.0344,0.05292 0.04498,0.08996 0.01058,0.03704 0.01852,0.07673 0.02646,0.116418 0.0079,0.0397 0.01323,0.0847 0.02117,0.12435 0.0053,0.0423 0.01323,0.0767 0.02381,0.11113 0.0079,0.0265 0.01323,0.0609 0.01852,0.10054 0.0053,0.0397 0.01323,0.0794 0.02381,0.11642 0.01058,0.037 0.02646,0.0688 0.04498,0.0953 0.01852,0.0265 0.04498,0.0397 0.07937,0.0397 0.02381,0 0.05027,-0.008 0.07937,-0.0212 0.0291,-0.0132 0.04498,-0.037 0.05027,-0.0661 -0.02381,-0.0529 -0.03969,-0.11112 -0.05027,-0.17462 -0.01058,-0.0635 -0.02117,-0.127 -0.0291,-0.19315 -0.0079,-0.0661 -0.01852,-0.12964 -0.03175,-0.193146 -0.01323,-0.0635 -0.03175,-0.121708 -0.05556,-0.177271 -0.01058,-0.02381 -0.02117,-0.05027 -0.02646,-0.07937 -0.0053,-0.0291 -0.01323,-0.05556 -0.02381,-0.07938 -0.0079,-0.02646 -0.02117,-0.05027 -0.03704,-0.07144 -0.01587,-0.02117 -0.03969,-0.03704 -0.07408,-0.04498 -0.03704,0 -0.07673,0.01323 -0.111125,0.04233 -0.03704,0.0291 -0.06879,0.0635 -0.100542,0.103187 -0.03175,0.04233 -0.05821,0.08467 -0.07937,0.129646 -0.02117,0.04498 -0.03969,0.08202 -0.05027,0.113771 l -0.0053,0.01587 c -0.01588,0.03704 -0.03175,0.07938 -0.04762,0.121713 -0.01588,0.0423 -0.03704,0.0767 -0.0635,0.10319 v -0.0132 z m -0.682625,-0.232831 c -0.0026,0.03704 -0.01058,0.07937 -0.01852,0.119061 -0.0079,0.0423 -0.02117,0.082 -0.0344,0.11906 -0.01323,0.0371 -0.03175,0.0741 -0.05556,0.10584 -0.02381,0.0318 -0.05027,0.0582 -0.07937,0.0767 l -0.05821,0.0238 -0.05821,0.0106 -0.05556,-0.0291 c -0.01323,-0.0185 -0.02646,-0.0423 -0.03175,-0.0661 -0.0053,-0.0238 -0.01323,-0.0476 -0.01588,-0.0714 l -0.0053,-0.045 c 0,-0.0371 0.0053,-0.0794 0.01323,-0.127 0.0079,-0.04763 0.02117,-0.09525 0.04233,-0.137587 0.01852,-0.04233 0.04233,-0.07937 0.06879,-0.10848 0.02646,-0.0291 0.05821,-0.04498 0.0979,-0.04498 0.04762,0 0.0926,0.01323 0.132292,0.03704 0.03969,0.02381 0.06085,0.06615 0.06085,0.119062 v 0.01323 z m -0.264583,0.669401 h 0.03175 c 0,0 0.0291,0.003 0.0291,0.003 0.0344,0 0.06879,-0.0106 0.100542,-0.0291 0.0344,-0.0212 0.06615,-0.045 0.09525,-0.0741 0.03175,-0.0291 0.05821,-0.0582 0.08202,-0.0926 0.02381,-0.0318 0.04498,-0.0609 0.06085,-0.0873 0.03175,-0.0476 0.05556,-0.0979 0.07937,-0.14817 0.02117,-0.0503 0.0344,-0.10583 0.03704,-0.164042 v -0.116416 c 0,0 -0.02117,-0.05821 -0.02117,-0.05821 -0.01058,-0.02381 -0.02381,-0.04762 -0.0344,-0.07144 -0.01058,-0.02381 -0.02646,-0.04498 -0.04762,-0.0635 -0.02381,-0.02117 -0.05027,-0.03704 -0.07937,-0.05027 -0.0291,-0.01323 -0.05821,-0.02646 -0.08731,-0.03704 -0.0291,-0.01058 -0.05821,-0.02381 -0.08731,-0.0344 -0.0291,-0.01058 -0.05556,-0.02646 -0.08202,-0.04233 l -0.05027,-0.01587 c -0.04233,0 -0.08202,0.01323 -0.124354,0.03969 -0.03969,0.02646 -0.07673,0.05821 -0.108479,0.0926 -0.03175,0.0344 -0.05821,0.07144 -0.07937,0.108479 -0.02117,0.03704 -0.0344,0.06615 -0.03969,0.08731 -0.01058,0.05027 -0.02381,0.103187 -0.03969,0.161395 -0.01588,0.05821 -0.02117,0.108484 -0.02117,0.150814 0,0.0847 0.01588,0.15875 0.05027,0.21696 0.0344,0.0582 0.08202,0.10583 0.145521,0.14287 0.0291,0.0159 0.05556,0.0344 0.08202,0.0529 0.02646,0.0185 0.05556,0.0265 0.08731,0.0265 h 0.01852 z m -0.674687,-0.600609 c 0,0 -0.01852,-0.0291 -0.02911,-0.05292 -0.01058,-0.02381 -0.02381,-0.05027 -0.03704,-0.07673 -0.01323,-0.02646 -0.02381,-0.05292 -0.03175,-0.07937 -0.0079,-0.02646 -0.01323,-0.04498 -0.01323,-0.05821 v -0.06879 c 0,-0.03704 0.0053,-0.07673 0.01588,-0.113771 0.01058,-0.03704 0.02646,-0.07144 0.05027,-0.100541 l 0.02911,-0.02646 0.01588,-0.03704 -0.02911,-0.05292 -0.04762,-0.0291 h -0.01588 c 0,0 -0.01588,-0.0026 -0.01588,-0.0026 -0.05027,0 -0.08996,0.01323 -0.121708,0.03969 -0.03175,0.02646 -0.05556,0.06086 -0.07673,0.103188 -0.02117,0.04233 -0.03175,0.08731 -0.03969,0.134937 -0.0079,0.04763 -0.01058,0.09525 -0.01058,0.142875 0,0.05556 0.01058,0.111125 0.0344,0.164042 0.02381,0.05556 0.05027,0.111125 0.08202,0.174629 0.03175,0.0635 0.0635,0.127 0.09525,0.19579 0.03175,0.0688 0.05821,0.14816 0.07938,0.23283 v 0.0291 c 0.0026,0.045 -0.01058,0.0794 -0.0344,0.10848 -0.02381,0.0291 -0.05292,0.0423 -0.08467,0.0423 l -0.06879,-0.0344 -0.04498,0.0185 -0.02117,0.0318 c 0.0026,0.0397 0.02117,0.0767 0.05556,0.10848 0.0344,0.0318 0.07144,0.0476 0.111125,0.0476 0.04498,0 0.08996,-0.0106 0.129646,-0.0291 0.03969,-0.0185 0.07408,-0.045 0.103188,-0.0767 0.0291,-0.0318 0.05027,-0.0688 0.06614,-0.11112 0.01588,-0.0423 0.02381,-0.0873 0.02381,-0.13494 0,-0.0926 -0.01588,-0.17462 -0.04763,-0.24871 -0.03175,-0.0741 -0.06879,-0.14552 -0.105833,-0.2196 l -0.01058,-0.02381 z m -0.558271,0.505359 c -0.0026,-0.0317 -0.01058,-0.0794 -0.01852,-0.14023 -0.0079,-0.0609 -0.01852,-0.12965 -0.02646,-0.20373 -0.01058,-0.0741 -0.01852,-0.153462 -0.02646,-0.235482 -0.0079,-0.08202 -0.01058,-0.15875 -0.01058,-0.232834 v -0.06085 c 0,0 0.0053,-0.05821 0.0053,-0.05821 l -0.03704,-0.04233 c -0.01323,-0.01323 -0.0344,-0.02646 -0.06085,-0.03175 l -0.05821,0.01058 -0.05556,0.01323 c -0.03175,0.02117 -0.04763,0.05027 -0.04763,0.0926 0,0.0979 0.0053,0.1905 0.01852,0.277813 0.01058,0.08731 0.01588,0.179913 0.01588,0.277813 0,0.0318 0.0026,0.0661 0.01058,0.0979 0.0079,0.0318 0.01058,0.0661 0.01058,0.0979 0,0.0556 0.0053,0.10054 0.01588,0.13229 0.01058,0.0318 0.02646,0.0582 0.04762,0.0741 0.02117,0.0159 0.04498,0.0291 0.07144,0.0344 0.02646,0.005 0.05821,0.008 0.08996,0.008 l 0.04233,-0.0556 0.01058,-0.045 v -0.0106 z m -0.304271,-1.550463 -0.0079,0.06085 0.01588,0.0291 0.04233,0.0291 0.05821,0.02381 0.0635,0.01058 c 0.03175,0 0.05821,-0.0053 0.07673,-0.01852 0.01852,-0.01323 0.02646,-0.03704 0.02646,-0.07408 l -0.01588,-0.04763 -0.04233,-0.04233 -0.05556,-0.02911 -0.05821,-0.01058 c -0.02381,0 -0.04233,0.0053 -0.05292,0.01323 -0.03175,0.01588 -0.04762,0.0344 -0.05292,0.05027 z m -1.021292,1.415523 c 0,-0.0503 0.0079,-0.10584 0.02646,-0.1614 0.01852,-0.0556 0.03969,-0.10583 0.06614,-0.15346 0.0053,-0.0106 0.01588,-0.0318 0.03175,-0.07143 0.01587,-0.03704 0.0344,-0.07673 0.05821,-0.116417 0.02381,-0.03969 0.05292,-0.07673 0.08467,-0.108479 0.03175,-0.03175 0.06879,-0.04762 0.111125,-0.04762 l 0.02646,0.0053 0.02646,0.01058 -0.01058,0.04762 -0.02646,0.06085 -0.03175,0.0635 -0.02646,0.05821 c -0.01323,0.03704 -0.0344,0.08202 -0.06085,0.129646 -0.02646,0.0476 -0.05821,0.0953 -0.08996,0.13759 -0.03175,0.045 -0.06615,0.082 -0.0979,0.11377 -0.03175,0.0318 -0.06085,0.0476 -0.08731,0.0503 v -0.005 c 0,0 -0.0026,-0.005 -0.0026,-0.005 v -0.0132 z m 0.788459,0.10583 -0.01588,-0.10583 c -0.02117,-0.0847 -0.0344,-0.16669 -0.04233,-0.24606 -0.0079,-0.0767 -0.01852,-0.164047 -0.03175,-0.259297 -0.0053,-0.05027 -0.01323,-0.0979 -0.02646,-0.142875 -0.01058,-0.04498 -0.0344,-0.08202 -0.06615,-0.108479 l -0.05556,-0.03704 -0.06615,-0.03175 -0.06615,-0.02117 -0.05821,-0.0079 c -0.07937,0 -0.156105,0.03175 -0.227542,0.0926 -0.07144,0.06085 -0.134938,0.137583 -0.187854,0.224895 -0.05556,0.08731 -0.0979,0.177271 -0.129646,0.269876 -0.03175,0.0926 -0.04762,0.16933 -0.04762,0.23283 0,0.0291 0.0026,0.0609 0.0079,0.0926 0.0053,0.0344 0.01588,0.0635 0.03175,0.09 0.01588,0.0265 0.03704,0.0503 0.06615,0.0662 0.0291,0.0185 0.06615,0.0265 0.113771,0.0265 0.05821,0 0.113771,-0.0212 0.171979,-0.0609 0.05821,-0.0397 0.108479,-0.0873 0.15875,-0.14552 0.04762,-0.0556 0.08731,-0.11641 0.119063,-0.17727 0.03175,-0.0609 0.05027,-0.11112 0.05556,-0.15081 0.01058,0.0582 0.01852,0.12171 0.0291,0.19315 0.01058,0.0714 0.02381,0.14023 0.03969,0.20373 0.01587,0.0635 0.0344,0.11641 0.06085,0.16139 0.02381,0.0423 0.05556,0.0635 0.09525,0.0635 l 0.03704,-0.005 0.03969,-0.0132 0.03175,-0.0238 0.01323,-0.037 -0.0079,-0.0476 -0.01588,-0.0476 -0.02117,-0.0582 z m -1.262063,-0.690562 c 0,-0.05292 -0.0026,-0.09525 -0.01058,-0.124354 -0.0079,-0.0291 -0.01852,-0.05027 -0.03175,-0.0635 l -0.04762,-0.03175 -0.0635,-0.02646 c -0.05027,0.0026 -0.0979,0.01852 -0.134938,0.04498 -0.03969,0.02646 -0.07408,0.05821 -0.103187,0.09525 -0.0291,0.03704 -0.05556,0.07673 -0.07673,0.119063 -0.02117,0.04233 -0.04233,0.08202 -0.05821,0.119062 l -0.02381,0.04762 c -0.01058,0.02117 -0.01852,0.04233 -0.0291,0.06615 -0.01058,0.0238 -0.01852,0.0476 -0.02646,0.0688 l -0.01852,0.0529 c -0.01323,-0.0556 -0.02646,-0.11642 -0.04233,-0.185222 -0.01587,-0.06879 -0.0291,-0.129646 -0.04762,-0.185208 -0.0079,-0.03175 -0.01323,-0.0635 -0.01852,-0.0979 -0.0053,-0.0344 -0.01323,-0.06615 -0.02381,-0.09525 -0.01058,-0.0291 -0.0291,-0.05292 -0.05027,-0.07144 -0.02381,-0.01852 -0.05556,-0.0291 -0.0979,-0.0291 -0.03704,0 -0.07144,0.01587 -0.103187,0.04762 -0.03175,0.03175 -0.05821,0.06085 -0.07938,0.08996 -0.01587,0.02117 -0.0344,0.04498 -0.05027,0.07408 -0.01588,0.0291 -0.0344,0.05821 -0.05027,0.08996 -0.01588,0.03175 -0.03175,0.0635 -0.04498,0.0926 -0.01323,0.03175 -0.02646,0.05821 -0.03969,0.08202 l -0.0053,-0.04498 c 0,-0.02381 0,-0.04762 0.0053,-0.07408 0.0026,-0.02646 0.0053,-0.05027 0.0053,-0.07144 0,-0.02381 0,-0.05027 -0.0026,-0.07937 0,-0.0291 -0.0079,-0.05821 -0.01588,-0.08202 -0.0079,-0.02646 -0.02117,-0.04762 -0.04233,-0.0635 -0.02117,-0.01588 -0.04498,-0.02646 -0.07937,-0.02646 -0.02646,0 -0.05027,0.01058 -0.07408,0.0291 -0.02381,0.01852 -0.0344,0.04233 -0.0344,0.06879 l 0.01058,0.06085 0.01058,0.06085 v 0.02381 c 0,0 0.0079,0.02646 0.0079,0.02646 0,0.01587 0.0026,0.05027 0.0053,0.09525 0,0.04763 0.0026,0.124354 0.0026,0.2302 v 0.0423 c -0.0053,0.0238 -0.0079,0.0476 -0.0079,0.0741 0,0.0265 -0.0026,0.0503 -0.0053,0.0741 v 0.0423 c 0,0 -0.0053,0.0609 -0.0053,0.0609 l -0.0079,0.0582 0.0079,0.0476 0.02381,0.0476 0.03704,0.0397 0.04498,0.0159 c 0.05027,0 0.08731,-0.0106 0.111125,-0.037 0.02381,-0.0265 0.03704,-0.0556 0.04763,-0.0926 0.01058,-0.037 0.02117,-0.0794 0.0291,-0.12436 0.0079,-0.045 0.02646,-0.09 0.05027,-0.13229 0.01058,-0.0238 0.02117,-0.0529 0.03175,-0.0926 0.01058,-0.0397 0.02646,-0.0794 0.04233,-0.12171 0.01588,-0.03969 0.0344,-0.07938 0.05556,-0.119081 0.02117,-0.03704 0.04233,-0.06879 0.07144,-0.08996 0.01588,0.02381 0.0291,0.05292 0.04233,0.08996 0.01323,0.03704 0.02381,0.07408 0.0344,0.116431 0.01058,0.0423 0.01852,0.082 0.02646,0.12436 0.0079,0.0423 0.01058,0.082 0.01588,0.11641 0.0053,0.0344 0.01058,0.0741 0.01588,0.11642 0.0053,0.0423 0.01323,0.0847 0.02381,0.127 0.01058,0.0397 0.02646,0.0741 0.04498,0.10054 0.01852,0.0265 0.04763,0.0397 0.08467,0.0397 0.02646,0 0.05027,-0.005 0.07408,-0.0159 0.01588,-0.0318 0.03175,-0.0635 0.03969,-0.0926 0.0079,-0.0291 0.01852,-0.0582 0.02646,-0.0847 0.0079,-0.0291 0.01588,-0.0582 0.02381,-0.0873 0.0079,-0.0291 0.02117,-0.0609 0.03704,-0.0926 0.01323,-0.0318 0.0291,-0.0635 0.04762,-0.10055 0.01852,-0.037 0.03969,-0.0767 0.05821,-0.11377 0.02117,-0.03968 0.03969,-0.07673 0.06085,-0.113783 0.02117,-0.03704 0.03969,-0.07144 0.05556,-0.103188 0.01058,0.03175 0.01587,0.0635 0.01852,0.09525 0.0026,0.03175 0.0053,0.06085 0.0079,0.09259 0.0026,0.0318 0.0053,0.0609 0.01058,0.0926 0.0026,0.0318 0.01058,0.0635 0.02381,0.0926 0.0053,0.0185 0.01058,0.0529 0.01323,0.0979 0.0026,0.0476 0.01058,0.0952 0.02117,0.14288 0.01058,0.0476 0.02646,0.0926 0.04762,0.12964 0.02117,0.037 0.05292,0.0556 0.0926,0.0556 0.03704,0 0.06615,-0.0106 0.0926,-0.0344 0.02646,-0.0238 0.03969,-0.0556 0.03969,-0.10054 0,-0.0397 -0.0079,-0.0794 -0.02646,-0.11906 -0.01852,-0.0397 -0.0291,-0.0794 -0.03175,-0.11642 -0.01058,-0.0767 -0.02117,-0.14817 -0.0344,-0.21696 -0.01323,-0.06879 -0.02117,-0.140222 -0.02117,-0.216952 v -0.04233 z m -3.225271,0.584732 c 0,-0.0503 0.0079,-0.10584 0.02646,-0.1614 0.01852,-0.0556 0.03969,-0.10583 0.06614,-0.15346 0.0053,-0.0106 0.01588,-0.0318 0.03175,-0.07143 0.01588,-0.03704 0.0344,-0.07673 0.05821,-0.116417 0.02381,-0.03969 0.05292,-0.07673 0.08467,-0.108479 0.03175,-0.03175 0.06879,-0.04762 0.111125,-0.04762 l 0.02646,0.0053 0.02646,0.01058 -0.01058,0.04762 -0.02646,0.06085 -0.03175,0.0635 -0.02646,0.05821 c -0.01323,0.03704 -0.0344,0.08202 -0.06085,0.129646 -0.02646,0.0476 -0.05821,0.0953 -0.08996,0.13759 -0.03175,0.045 -0.06615,0.082 -0.0979,0.11377 -0.03175,0.0318 -0.06085,0.0476 -0.08731,0.0503 v -0.005 c 0,0 -0.0026,-0.005 -0.0026,-0.005 v -0.0132 z m 0.788459,0.10583 -0.01588,-0.10583 c -0.02117,-0.0847 -0.0344,-0.16669 -0.04233,-0.24606 -0.0079,-0.0767 -0.01852,-0.164047 -0.03175,-0.259297 -0.0053,-0.05027 -0.01323,-0.0979 -0.02646,-0.142875 -0.01058,-0.04498 -0.0344,-0.08202 -0.06615,-0.108479 l -0.05556,-0.03704 -0.06615,-0.03175 -0.06615,-0.02117 -0.05821,-0.0079 c -0.07937,0 -0.156105,0.03175 -0.227542,0.0926 -0.07144,0.06085 -0.134938,0.137583 -0.187854,0.224895 -0.05556,0.08731 -0.0979,0.177271 -0.129646,0.269876 -0.03175,0.0926 -0.04763,0.16933 -0.04763,0.23283 0,0.0291 0.0026,0.0609 0.0079,0.0926 0.0053,0.0344 0.01588,0.0635 0.03175,0.09 0.01588,0.0265 0.03704,0.0503 0.06615,0.0662 0.0291,0.0185 0.06615,0.0265 0.113771,0.0265 0.05821,0 0.113771,-0.0212 0.171979,-0.0609 0.05821,-0.0397 0.108479,-0.0873 0.15875,-0.14552 0.04762,-0.0556 0.08731,-0.11641 0.119063,-0.17727 0.03175,-0.0609 0.05027,-0.11112 0.05556,-0.15081 0.01058,0.0582 0.01852,0.12171 0.0291,0.19315 0.01058,0.0714 0.02381,0.14023 0.03969,0.20373 0.01588,0.0635 0.0344,0.11641 0.06085,0.16139 0.02381,0.0423 0.05556,0.0635 0.09525,0.0635 l 0.03704,-0.005 0.03969,-0.0132 0.03175,-0.0238 0.01323,-0.037 -0.0079,-0.0476 -0.01588,-0.0476 -0.02117,-0.0582 z m -1.881188,0.17463 c 0.02381,0.0344 0.04763,0.0503 0.07408,0.0503 l 0.0344,-0.008 c 0.05027,-0.0212 0.103188,-0.0476 0.15875,-0.082 0.05556,-0.0344 0.116417,-0.0741 0.182563,-0.12171 l 0.336021,-0.23812 0.01588,-0.0476 -0.01588,-0.0582 c -0.01587,-0.0318 -0.04498,-0.045 -0.08202,-0.045 l -0.05292,0.005 c -0.02381,0.003 -0.03969,0.005 -0.05027,0.005 -0.02117,0.0106 -0.04762,0.0264 -0.08202,0.0476 -0.03439,0.0212 -0.07408,0.0503 -0.121708,0.082 -0.08996,0.0609 -0.15875,0.10054 -0.209021,0.12171 v -0.0794 c 0,-0.0767 0,-0.16669 0.0053,-0.26988 0.0026,-0.103187 0.0079,-0.219604 0.01852,-0.351896 0.0079,-0.119062 0.01323,-0.227541 0.01588,-0.322791 0.0026,-0.09525 0.0053,-0.179917 0.0053,-0.254 0,-0.02381 0,-0.04762 0,-0.06879 v -0.06085 c -0.01323,-0.05292 -0.05556,-0.07937 -0.127,-0.07937 -0.03704,0 -0.06879,0.01323 -0.09525,0.03704 0.0026,0.04498 0.0053,0.08731 0.0079,0.132292 0,0.04498 0.0026,0.0926 0.0026,0.142875 0,0.142875 -0.01323,0.373063 -0.04233,0.690563 -0.01058,0.132291 -0.01852,0.251357 -0.02381,0.357187 -0.0053,0.10583 -0.0079,0.20108 -0.0079,0.2831 v 0.0635 l 0.05556,0.0714 z"
         id="path1511"
         style="isolation:isolate;fill:#ffffff;stroke-width:0.264583" />
      <path
         class="cls-69"
         d="m 31.479802,105.76735 c 0.0053,-0.0767 0.01323,-0.15875 0.02117,-0.24871 0.0079,-0.09 0.01323,-0.18785 0.01323,-0.29368 v -0.42863 c 0,-0.17991 0,-0.34396 0.0053,-0.49212 0.0026,-0.14817 0.01588,-0.28311 0.03704,-0.41011 0.02646,-0.14816 0.161396,-0.22489 0.404813,-0.22489 h 0.05556 c 0.142875,0.005 0.264583,0.0767 0.370417,0.21166 0.0979,0.12171 0.145521,0.25665 0.145521,0.41011 0,0.12435 -0.04498,0.24606 -0.137584,0.37041 -0.08202,0.11113 -0.177271,0.19844 -0.288396,0.26723 l -0.05556,0.0371 -0.01852,0.0423 0.01852,0.045 c 0,0 0.03175,0.0291 0.06085,0.0529 l 0.127,0.10584 0.436563,0.4101 c 0.08996,0.0847 0.166687,0.1614 0.232833,0.23548 0.06615,0.0714 0.116417,0.14023 0.153458,0.20638 l 0.01058,0.0344 c 0,0.0609 -0.0635,0.10583 -0.187855,0.13758 -0.140229,-0.10583 -0.312208,-0.26987 -0.518583,-0.49477 -0.119062,-0.127 -0.219604,-0.23283 -0.304271,-0.3175 -0.08467,-0.0847 -0.156104,-0.15345 -0.211666,-0.20372 -0.0053,0.0344 -0.01058,0.0953 -0.01852,0.1852 -0.0079,0.09 -0.01587,0.20638 -0.02646,0.34925 -0.01323,0.21696 -0.03704,0.39159 -0.07144,0.51859 l -0.03969,0.0185 -0.0635,0.0185 h -0.0079 c 0,0 -0.0079,-0.003 -0.0079,-0.003 -0.116416,-0.0291 -0.171979,-0.10848 -0.171979,-0.24077 0,-0.0212 0,-0.045 0.0026,-0.0741 0.0026,-0.0291 0.0053,-0.0556 0.01058,-0.0847 l 0.01852,-0.14287 z m 0.759354,-1.59808 c -0.0079,-0.0556 -0.03175,-0.10583 -0.06879,-0.15081 -0.03704,-0.045 -0.0979,-0.0662 -0.182562,-0.0662 -0.0635,0 -0.103188,0.0185 -0.119063,0.0582 -0.0053,0.037 -0.01058,0.0741 -0.01323,0.11112 -0.0026,0.0371 -0.0053,0.0767 -0.0053,0.11113 0,0.0344 0.0026,0.12171 0.01058,0.26458 0,0.0291 0,0.0556 0,0.0794 v 0.0661 c 0,0 0,0.0635 0,0.0635 v 0.0556 c 0.216958,-0.15875 0.338667,-0.3175 0.367771,-0.46832 l 0.0053,-0.0503 v -0.0423 c 0,0 0,-0.0318 0,-0.0318 z"
         id="path1513"
         style="isolation:isolate;fill:#1c096b;stroke-width:0.264583" />
      <path
         class="cls-69"
         d="m 33.120219,104.99477 c 0.0053,-0.0238 0.02381,-0.045 0.05821,-0.0635 0.03969,-0.0212 0.06085,-0.0423 0.06615,-0.0635 0,-0.0106 0.0053,-0.045 0.01058,-0.10583 0.0053,-0.0609 0.01058,-0.15082 0.01852,-0.26723 -0.145521,-0.0265 -0.216958,-0.082 -0.216958,-0.16404 0,-0.0767 0.04762,-0.13759 0.137583,-0.17992 l 0.251354,-0.10319 c 0.05027,-0.0265 0.105833,-0.0503 0.164042,-0.0714 0.06085,-0.0212 0.127,-0.0423 0.201083,-0.0635 0.06615,-0.0185 0.129646,-0.0344 0.193146,-0.0503 0.0635,-0.0159 0.127,-0.0318 0.193146,-0.0476 0.0053,0 0.02117,-0.005 0.04762,-0.005 0.07144,0 0.153458,0.0265 0.248708,0.082 0,0.0106 0.0079,0.0291 0.01852,0.0582 0.01058,0.0291 0.01588,0.0503 0.01588,0.0635 l -0.02646,0.0503 c -0.05027,0.0212 -0.111125,0.0423 -0.179917,0.0661 -0.07144,0.0212 -0.153458,0.0476 -0.248708,0.0741 -0.09525,0.0264 -0.177271,0.0503 -0.248709,0.0741 -0.07144,0.0212 -0.132291,0.045 -0.179916,0.0661 -0.01058,0.0318 -0.02117,0.0847 -0.02911,0.1614 -0.01058,0.0767 -0.01588,0.17463 -0.02117,0.29633 0.04233,0.0159 0.08996,0.0238 0.145521,0.0238 0.02117,0 0.04762,0 0.07673,-0.005 0.0291,-0.003 0.06615,-0.008 0.108479,-0.0132 0.04233,-0.005 0.07673,-0.0106 0.108479,-0.0132 0.0291,-0.005 0.05556,-0.005 0.07673,-0.005 0.07408,0 0.137584,0.0159 0.187854,0.0476 0.03704,0.0529 0.05556,0.0873 0.05556,0.10319 l -0.02646,0.0423 -0.01852,0.0159 -0.03704,0.0397 c -0.01588,0.0212 -0.04233,0.0318 -0.07937,0.0318 -0.05556,0.0106 -0.156104,0.0185 -0.304271,0.0238 -0.124354,0.005 -0.22225,0.0212 -0.296333,0.0476 -0.05027,0.18256 -0.07408,0.33602 -0.07408,0.46038 0,0.0714 0.01058,0.13229 0.03175,0.17991 0.108479,0.0767 0.28575,0.11377 0.531812,0.11377 h 0.05292 c 0,0 0.05821,-0.005 0.05821,-0.005 l 0.06615,-0.0291 0.05821,-0.0291 h 0.01058 c 0,0 0.01058,-0.003 0.01058,-0.003 0.0635,0 0.103187,0.0556 0.121708,0.16933 v 0.0159 c 0,0 0.0026,0.0159 0.0026,0.0159 0,0.037 -0.01058,0.0688 -0.0344,0.0952 -0.02117,0.0265 -0.05292,0.0423 -0.08731,0.045 h -0.07144 c 0,0 -0.07144,0.005 -0.07144,0.005 -0.251354,0 -0.478896,-0.0265 -0.685271,-0.0794 -0.07408,-0.0185 -0.140229,-0.0582 -0.201083,-0.12171 -0.06085,-0.0635 -0.09525,-0.13494 -0.103188,-0.21167 -0.0053,-0.0582 -0.01058,-0.11377 -0.01323,-0.16404 -0.0026,-0.0529 -0.0053,-0.10583 -0.0053,-0.15875 0,-0.0529 0,-0.10319 0.0053,-0.15081 0.0026,-0.0476 0.0079,-0.0953 0.01323,-0.14023 -0.06615,-0.0476 -0.0979,-0.09 -0.0979,-0.12965 v -0.0159 z"
         id="path1515"
         style="isolation:isolate;fill:#1c096b;stroke-width:0.264583" />
      <path
         class="cls-69"
         d="m 39.102448,105.18527 c -0.03969,0.0926 -0.08731,0.17727 -0.142875,0.254 -0.05556,0.0767 -0.113771,0.14552 -0.179917,0.20108 -0.06615,0.0556 -0.134937,0.10054 -0.209021,0.13229 -0.07408,0.0318 -0.150812,0.0476 -0.230187,0.0476 -0.05556,0 -0.116417,-0.0132 -0.187854,-0.0423 -0.06879,-0.0291 -0.134938,-0.0714 -0.195792,-0.12965 -0.06085,-0.0582 -0.113771,-0.127 -0.15875,-0.21167 -0.04233,-0.082 -0.06615,-0.17991 -0.06615,-0.28839 0,-0.0873 0.01588,-0.18786 0.05027,-0.30163 0.03175,-0.11377 0.07673,-0.22225 0.129646,-0.32543 0.05292,-0.10319 0.116416,-0.18786 0.187854,-0.2593 0.07144,-0.0714 0.142875,-0.10583 0.219604,-0.10583 l 0.04498,0.008 0.03969,0.0185 0.05292,0.0318 c 0.02117,0.0132 0.05027,0.0265 0.08731,0.0423 0.02381,0.0106 0.05027,0.0212 0.08202,0.0344 0.0291,0.0106 0.06615,0.0238 0.108479,0.037 0.07937,0.0265 0.142875,0.0688 0.195792,0.127 0.05292,0.0582 0.09525,0.11906 0.127,0.18785 0.03175,0.0688 0.05292,0.1323 0.06615,0.1958 0.01058,0.0635 0.01852,0.11641 0.01852,0.1561 0,0.0767 -0.01323,0.14023 -0.03969,0.19315 z m -0.314854,-0.24342 c -0.01323,-0.10583 -0.0344,-0.1905 -0.06615,-0.254 -0.0291,-0.0635 -0.07144,-0.0952 -0.124354,-0.0952 -0.01588,0 -0.03704,0.0106 -0.06085,0.0291 -0.02381,0.0185 -0.05027,0.0423 -0.07408,0.0661 -0.02381,0.0238 -0.04763,0.045 -0.07144,0.0662 l -0.04498,0.0291 c -0.02117,0 -0.04498,-0.0106 -0.07408,-0.0318 -0.0291,-0.0212 -0.04763,-0.0318 -0.05821,-0.0318 -0.02646,0 -0.05027,0.0132 -0.06879,0.0423 -0.01852,0.0291 -0.03704,0.0609 -0.05027,0.0979 -0.01323,0.037 -0.02381,0.0794 -0.0291,0.12171 -0.0053,0.0423 -0.01058,0.082 -0.01058,0.11113 0,0.0688 0.01058,0.12964 0.03175,0.1852 0.02117,0.0556 0.04498,0.10319 0.07408,0.14288 0.0291,0.0397 0.05821,0.0688 0.08731,0.09 0.0291,0.0212 0.05292,0.0318 0.06879,0.0318 0.05027,0 0.103188,-0.0185 0.156104,-0.0529 0.05556,-0.0344 0.105834,-0.082 0.150813,-0.13494 0.04498,-0.0556 0.08467,-0.11641 0.113771,-0.17991 0.0291,-0.0661 0.04498,-0.12965 0.04498,-0.18786 v -0.0397 z"
         id="path1517"
         style="isolation:isolate;fill:#1c096b;stroke-width:0.264583" />
      <path
         class="cls-69"
         d="m 39.449052,106.20656 c -0.0079,-0.14552 -0.01058,-0.29898 -0.01058,-0.46037 0,-0.27782 0.01588,-0.62707 0.04763,-1.04246 l 0.08202,-1.05569 c 0,-0.0582 0.05292,-0.0873 0.153459,-0.0873 0.02117,0 0.05027,0.008 0.08731,0.0238 0.03704,0.0159 0.07673,0.0397 0.119063,0.0741 0.04233,0.082 0.08996,0.18521 0.142875,0.31486 0.05292,0.12964 0.108479,0.2831 0.169333,0.46566 0.06085,0.17198 0.119063,0.33867 0.174625,0.49478 0.05556,0.1561 0.108479,0.29633 0.15875,0.41275 l 0.156104,-1.70921 c 0.0053,-0.0529 0.04233,-0.0794 0.113771,-0.0794 0.02381,0 0.05027,0.003 0.08202,0.0106 l 0.07408,0.0185 c 0.02646,0.0106 0.04233,0.0291 0.05027,0.0556 l -0.105833,1.05833 c -0.02117,0.21167 -0.03704,0.40481 -0.05027,0.57944 -0.01323,0.17462 -0.01852,0.33073 -0.01852,0.4736 v 0.13494 c 0,0.045 0,0.0926 0.0079,0.14288 0,0.0397 -0.01588,0.0741 -0.05027,0.10318 -0.03175,0.0291 -0.06879,0.045 -0.108479,0.045 -0.08202,0 -0.150813,-0.0556 -0.20373,-0.16404 -0.04233,-0.082 -0.08731,-0.18256 -0.137583,-0.30162 -0.05027,-0.11907 -0.103187,-0.25136 -0.15875,-0.39688 -0.05556,-0.14287 -0.113771,-0.29898 -0.174625,-0.46302 -0.06085,-0.16404 -0.121708,-0.33602 -0.185208,-0.51065 l -0.02117,-0.0238 c -0.01852,0 -0.0291,0.0185 -0.0344,0.0556 -0.01058,0.0952 -0.01852,0.1958 -0.02381,0.30428 -0.0053,0.10847 -0.0079,0.22225 -0.01058,0.33602 0,0.11641 0,0.23018 0,0.3466 v 0.32544 c 0,0.10054 0,0.20108 0.0026,0.30162 0.0026,0.10054 0.0079,0.20373 0.01058,0.30956 v 0.0159 c 0,0.0714 -0.02117,0.11906 -0.06615,0.14287 l -0.05821,0.0265 c -0.02117,0 -0.04498,-0.008 -0.07144,-0.0238 l -0.07408,-0.0344 c -0.0344,-0.0106 -0.05556,-0.0423 -0.0635,-0.0952 l -0.0079,-0.12964 z"
         id="path1519"
         style="isolation:isolate;fill:#1c096b;stroke-width:0.264583" />
      <path
         class="cls-69"
         d="m 41.34876,106.20656 c -0.0079,-0.14552 -0.01058,-0.29898 -0.01058,-0.46037 0,-0.27782 0.01588,-0.62707 0.04762,-1.04246 l 0.08202,-1.05569 c 0,-0.0582 0.05292,-0.0873 0.153458,-0.0873 0.02117,0 0.05027,0.008 0.08731,0.0238 0.03704,0.0159 0.07673,0.0397 0.119062,0.0741 0.04233,0.082 0.08996,0.18521 0.142875,0.31486 0.05292,0.12964 0.108479,0.2831 0.169333,0.46566 0.06085,0.17198 0.119063,0.33867 0.174625,0.49478 0.05556,0.1561 0.111125,0.29633 0.15875,0.41275 l 0.156105,-1.70921 c 0.0053,-0.0529 0.04233,-0.0794 0.11377,-0.0794 0.02381,0 0.05027,0.003 0.08202,0.0106 l 0.07408,0.0185 c 0.02646,0.0106 0.04233,0.0291 0.05027,0.0556 l -0.105833,1.05833 c -0.02117,0.21167 -0.03704,0.40481 -0.05027,0.57944 -0.01058,0.17198 -0.01852,0.33073 -0.01852,0.4736 v 0.13494 c 0,0.045 0,0.0926 0.0079,0.14288 0,0.0397 -0.01587,0.0741 -0.05027,0.10318 -0.03175,0.0291 -0.06879,0.045 -0.108479,0.045 -0.08202,0 -0.150813,-0.0556 -0.203729,-0.16404 -0.04233,-0.082 -0.08731,-0.18256 -0.137584,-0.30162 -0.05027,-0.11907 -0.103187,-0.25136 -0.15875,-0.39688 -0.05556,-0.14287 -0.11377,-0.29898 -0.174625,-0.46302 -0.06085,-0.16404 -0.121708,-0.33602 -0.185208,-0.51065 l -0.02117,-0.0238 c -0.01852,0 -0.0291,0.0185 -0.0344,0.0556 -0.01058,0.0952 -0.01852,0.1958 -0.02381,0.30428 -0.0053,0.10847 -0.0079,0.22225 -0.01058,0.33602 0,0.11641 0,0.23018 0,0.3466 v 0.32544 c 0,0.10054 0,0.20108 0.0053,0.30162 0,0.10054 0.0053,0.20373 0.01058,0.30956 v 0.0159 c 0,0.0714 -0.02117,0.11906 -0.06615,0.14287 l -0.05821,0.0265 c -0.02117,0 -0.04498,-0.008 -0.07144,-0.0238 l -0.07408,-0.0344 c -0.0344,-0.0106 -0.05556,-0.0423 -0.0635,-0.0952 l -0.0079,-0.12964 z"
         id="path1521"
         style="isolation:isolate;fill:#1c096b;stroke-width:0.264583" />
      <path
         class="cls-69"
         d="m 43.198198,104.99477 c 0.0053,-0.0238 0.02381,-0.045 0.05821,-0.0635 0.03969,-0.0212 0.06085,-0.0423 0.06615,-0.0635 0,-0.0106 0.0053,-0.045 0.01058,-0.10583 0.0053,-0.0609 0.01058,-0.15082 0.02117,-0.26723 -0.145521,-0.0265 -0.216959,-0.082 -0.216959,-0.16404 0,-0.0767 0.04762,-0.13759 0.137584,-0.17992 l 0.251354,-0.10319 c 0.05027,-0.0265 0.105833,-0.0503 0.164042,-0.0714 0.06085,-0.0212 0.127,-0.0423 0.201083,-0.0635 0.06615,-0.0185 0.129646,-0.0344 0.193146,-0.0503 0.0635,-0.0159 0.127,-0.0318 0.193146,-0.0476 0.0053,0 0.02117,-0.005 0.04762,-0.005 0.07144,0 0.153458,0.0265 0.248708,0.082 0,0.0106 0.0079,0.0291 0.01852,0.0582 0.01058,0.0291 0.01588,0.0503 0.01588,0.0635 l -0.02646,0.0503 c -0.05027,0.0212 -0.111125,0.0423 -0.179916,0.0661 -0.07144,0.0212 -0.153459,0.0476 -0.248709,0.0741 -0.09525,0.0264 -0.17727,0.0503 -0.248708,0.0741 -0.07144,0.0212 -0.132292,0.045 -0.179917,0.0661 -0.01058,0.0318 -0.02117,0.0847 -0.0291,0.1614 -0.0079,0.0767 -0.01588,0.17463 -0.02117,0.29633 0.04233,0.0159 0.08996,0.0238 0.14552,0.0238 0.02117,0 0.04762,0 0.07673,-0.005 0.0291,-0.003 0.06614,-0.008 0.108479,-0.0132 0.04233,-0.005 0.07673,-0.0106 0.108479,-0.0132 0.0291,-0.005 0.05556,-0.005 0.07673,-0.005 0.07408,0 0.137583,0.0159 0.187854,0.0476 0.03704,0.0529 0.05556,0.0873 0.05556,0.10319 l -0.02646,0.0423 -0.01852,0.0159 -0.03704,0.0397 c -0.01588,0.0212 -0.04233,0.0318 -0.07938,0.0318 -0.05556,0.0106 -0.156104,0.0185 -0.304271,0.0238 -0.124354,0.005 -0.22225,0.0212 -0.296333,0.0476 -0.05027,0.18256 -0.07408,0.33602 -0.07408,0.46038 0,0.0714 0.01058,0.13229 0.03175,0.17991 0.10848,0.0767 0.28575,0.11377 0.531813,0.11377 h 0.05292 c 0,0 0.05821,-0.005 0.05821,-0.005 l 0.06615,-0.0291 0.05821,-0.0291 h 0.01058 c 0,0 0.01058,-0.003 0.01058,-0.003 0.0635,0 0.103187,0.0556 0.121708,0.16933 v 0.0159 c 0,0 0.0026,0.0159 0.0026,0.0159 0,0.037 -0.01058,0.0688 -0.0344,0.0952 -0.02117,0.0265 -0.05292,0.0423 -0.08731,0.045 h -0.07144 c 0,0 -0.07144,0.005 -0.07144,0.005 -0.251355,0 -0.478896,-0.0265 -0.685271,-0.0794 -0.07408,-0.0185 -0.140229,-0.0582 -0.201084,-0.12171 -0.06085,-0.0635 -0.09525,-0.13494 -0.103187,-0.21167 -0.0053,-0.0582 -0.01058,-0.11377 -0.01323,-0.16404 -0.0026,-0.0529 -0.0053,-0.10583 -0.0053,-0.15875 0,-0.0529 0,-0.10319 0.0053,-0.15081 0.0053,-0.0476 0.0079,-0.0953 0.01323,-0.14023 -0.06615,-0.0476 -0.0979,-0.09 -0.0979,-0.12965 v -0.0159 z"
         id="path1523"
         style="isolation:isolate;fill:#1c096b;stroke-width:0.264583" />
      <path
         class="cls-69"
         d="m 31.276073,106.58227 c -0.02381,-0.0106 -0.05292,-0.0238 -0.08996,-0.0397 -0.03969,-0.0159 -0.07408,-0.0318 -0.100541,-0.0476 v 0 c 0,0 0,0 0,0 -0.07144,-0.045 -0.127,-0.0873 -0.164042,-0.12965 -0.0344,-0.037 -0.06615,-0.0767 -0.100542,-0.11642 -0.03439,-0.0397 -0.07408,-0.09 -0.119062,-0.15081 -0.04498,-0.0609 -0.09525,-0.12964 -0.145521,-0.20637 v 0 c 0,0 0,-0.005 0,-0.005 -0.171979,-0.33867 -0.259292,-0.66675 -0.259292,-0.98425 0,-0.17198 0.01323,-0.32809 0.03704,-0.47096 0.02381,-0.14023 0.05556,-0.26723 0.0979,-0.37836 0.03969,-0.11112 0.08731,-0.20637 0.137583,-0.29104 0.05027,-0.082 0.103188,-0.15081 0.156104,-0.20637 0.100542,-0.10319 0.185209,-0.17198 0.26723,-0.20109 0.07144,-0.0265 0.142875,-0.045 0.214312,-0.0609 0.04763,-0.0132 0.07144,-0.0317 0.08731,-0.0635 0.01852,-0.0344 0.02646,-0.0741 0.02646,-0.11906 0,-0.0529 -0.01058,-0.0847 -0.01323,-0.0847 v 0 c 0,0 0,0 0,0 v 0 c -0.0635,-0.0582 -0.129646,-0.0847 -0.203729,-0.0847 -0.08467,0 -0.1905,0.0397 -0.312209,0.127 -0.121708,0.0873 -0.256646,0.22754 -0.404812,0.42069 -0.0926,0.12171 -0.179917,0.29104 -0.254,0.50535 -0.07408,0.21167 -0.113771,0.46832 -0.113771,0.7673 0,0.11906 0.0053,0.26193 0.01852,0.43391 0.01058,0.16934 0.04233,0.34132 0.08996,0.51594 v 0 c 0.02381,0.0847 0.06879,0.18785 0.140229,0.30692 0.07144,0.11906 0.15875,0.23548 0.259292,0.34925 0.100542,0.11377 0.211667,0.21695 0.333375,0.30691 0.119062,0.09 0.238125,0.14817 0.359833,0.17992 h 0.01852 c 0,0 0.0079,0.003 0.0079,0.003 l 0.01852,-0.008 0.02911,-0.0318 c 0.02646,-0.0397 0.03969,-0.0847 0.03969,-0.13494 0,-0.045 -0.01588,-0.0741 -0.05292,-0.10054 z"
         id="path1525"
         style="isolation:isolate;fill:#1c096b;stroke-width:0.264583" />
      <path
         class="cls-69"
         d="m 35.292448,106.30975 c 0.0926,-0.12171 0.179916,-0.29104 0.254,-0.50536 0.07408,-0.21166 0.113771,-0.46831 0.113771,-0.76729 0,-0.11906 -0.0053,-0.26193 -0.01852,-0.43391 -0.01058,-0.16934 -0.04233,-0.34132 -0.08996,-0.51594 v 0 c 0,0 0,0 0,0 -0.02117,-0.0847 -0.06879,-0.18786 -0.140229,-0.30692 -0.07144,-0.11906 -0.15875,-0.23548 -0.259291,-0.34925 -0.100542,-0.11377 -0.211667,-0.21696 -0.333375,-0.30691 -0.119063,-0.09 -0.238125,-0.14817 -0.359834,-0.17992 h -0.01852 c 0,0 -0.0079,-0.003 -0.0079,-0.003 l -0.01852,0.008 -0.0291,0.0318 c -0.02646,0.0397 -0.03969,0.0847 -0.03969,0.13494 0,0.045 0.01588,0.0741 0.05292,0.10054 0.02381,0.0106 0.05292,0.0238 0.08996,0.0397 0.03969,0.0159 0.07408,0.0318 0.100542,0.0476 v 0 c 0,0 0,0 0,0 0.07144,0.045 0.127,0.0873 0.164042,0.12965 0.0344,0.0397 0.06615,0.0767 0.100541,0.11641 0.0344,0.0397 0.07408,0.09 0.119063,0.15082 0.04498,0.0609 0.09525,0.12964 0.145521,0.20637 v 0 c 0,0 0,0.005 0,0.005 0.171979,0.33867 0.259291,0.66675 0.259291,0.98425 0,0.17198 -0.01323,0.32809 -0.03704,0.47096 -0.02381,0.14023 -0.05556,0.26723 -0.0979,0.37836 -0.03969,0.11112 -0.08731,0.20637 -0.137583,0.29104 -0.05027,0.082 -0.103188,0.15081 -0.156105,0.20637 -0.100541,0.10319 -0.185208,0.16934 -0.267229,0.20109 -0.07144,0.0265 -0.142875,0.045 -0.214312,0.0609 -0.04763,0.0132 -0.07144,0.0318 -0.08731,0.0635 -0.01852,0.0344 -0.02646,0.0741 -0.02646,0.11906 0,0.0529 0.01058,0.0847 0.01323,0.0847 v 0 c 0,0 0,0 0,0 v 0 c 0.0635,0.0582 0.129646,0.0847 0.203729,0.0847 0.08467,0 0.187854,-0.0397 0.312209,-0.127 0.121708,-0.0873 0.256645,-0.22755 0.404812,-0.42069 z"
         id="path1527"
         style="isolation:isolate;fill:#1c096b;stroke-width:0.264583" />
      <path
         class="cls-69"
         d="m 47.405073,106.07427 v 0.0423 c 0,0 -0.0079,0.0344 -0.0079,0.0344 -0.01323,0.0397 -0.03969,0.0582 -0.07937,0.0582 -0.07673,-0.003 -0.137583,-0.0344 -0.187854,-0.0952 -0.05027,-0.0609 -0.07673,-0.12965 -0.07937,-0.20638 -0.0079,-0.0979 -0.01058,-0.19844 -0.01058,-0.30691 0,-0.17198 0.01058,-0.44715 0.03439,-0.82286 0.01058,-0.15875 0.01852,-0.29898 0.02381,-0.42333 0.0053,-0.12436 0.0079,-0.23284 0.0079,-0.32544 v -0.0741 h -0.05027 c -0.03175,0 -0.06879,0 -0.10848,0.003 -0.03969,0 -0.08731,0.008 -0.134937,0.0159 -0.0291,0.005 -0.05027,0.0106 -0.06615,0.0132 -0.01588,0.005 -0.03704,0.005 -0.06615,0.005 -0.127,0 -0.230187,-0.0344 -0.314854,-0.10319 -0.03175,-0.0661 -0.04762,-0.10054 -0.04762,-0.10583 l 0.02646,-0.0582 c 0.04233,-0.0132 0.08996,-0.0265 0.145521,-0.037 0.05556,-0.0106 0.124354,-0.0212 0.203729,-0.0291 0.219605,-0.0238 0.391584,-0.0661 0.510646,-0.127 0.100542,0.0291 0.203729,0.0423 0.314854,0.0423 0.111125,0 0.22225,-0.0132 0.338667,-0.0423 0.01588,0 0.03969,-0.008 0.07408,-0.0185 0.0344,-0.0106 0.06879,-0.0185 0.105834,-0.0291 0.0635,-0.0185 0.124354,-0.0265 0.185208,-0.0265 h 0.02646 c 0,0 0.02646,0.005 0.02646,0.005 0.03969,0 0.05821,0.0132 0.05821,0.0423 v 0.0159 c 0.07144,0 0.105833,0.0238 0.105833,0.0714 -0.02381,0.0953 -0.06879,0.15081 -0.134937,0.16404 -0.08467,0.0212 -0.1905,0.045 -0.320146,0.0688 -0.129646,0.0238 -0.298979,0.0556 -0.510646,0.0873 -0.02646,0.33073 -0.04498,0.62971 -0.05821,0.89694 -0.01323,0.26723 -0.01852,0.51329 -0.01852,0.73554 0,0.0847 0,0.16669 0,0.24607 0,0.0794 0.0026,0.16139 0.0053,0.24077 v 0.0397 z"
         id="path1529"
         style="isolation:isolate;fill:#1c096b;stroke-width:0.264583" />
      <path
         class="cls-69"
         d="m 47.995093,104.99477 c 0.0053,-0.0238 0.02381,-0.045 0.05821,-0.0635 0.03969,-0.0212 0.06085,-0.0423 0.06615,-0.0635 0,-0.0106 0.0053,-0.045 0.01058,-0.10583 0.0053,-0.0609 0.01058,-0.15082 0.02117,-0.26723 -0.145521,-0.0265 -0.216959,-0.082 -0.216959,-0.16404 0,-0.0767 0.04763,-0.13759 0.137584,-0.17992 l 0.251354,-0.10319 c 0.05027,-0.0265 0.105833,-0.0503 0.164041,-0.0714 0.06086,-0.0212 0.127,-0.0423 0.201084,-0.0635 0.06615,-0.0185 0.129646,-0.0344 0.193146,-0.0503 0.0635,-0.0159 0.127,-0.0318 0.193145,-0.0476 0.0053,0 0.02117,-0.005 0.04762,-0.005 0.07144,0 0.153459,0.0265 0.248709,0.082 0,0.0106 0.0079,0.0291 0.01852,0.0582 0.01058,0.0291 0.01588,0.0503 0.01588,0.0635 l -0.02646,0.0503 c -0.05027,0.0212 -0.111125,0.0423 -0.179916,0.0661 -0.07144,0.0212 -0.153459,0.0476 -0.248709,0.0741 -0.09525,0.0264 -0.177271,0.0503 -0.248708,0.0741 -0.07144,0.0212 -0.132292,0.045 -0.179917,0.0661 -0.01058,0.0318 -0.02117,0.0847 -0.0291,0.1614 -0.0079,0.0767 -0.01588,0.17463 -0.02117,0.29633 0.04233,0.0159 0.08996,0.0238 0.145521,0.0238 0.02117,0 0.04763,0 0.07673,-0.005 0.02911,-0.003 0.06615,-0.008 0.10848,-0.0132 0.04233,-0.005 0.07673,-0.0106 0.108479,-0.0132 0.0291,-0.005 0.05556,-0.005 0.07673,-0.005 0.07408,0 0.137583,0.0159 0.187854,0.0476 0.03704,0.0529 0.05556,0.0873 0.05556,0.10319 l -0.02646,0.0423 -0.01852,0.0159 -0.03704,0.0397 c -0.01588,0.0212 -0.04233,0.0318 -0.07937,0.0318 -0.05556,0.0106 -0.156104,0.0185 -0.304271,0.0238 -0.124354,0.005 -0.22225,0.0212 -0.296333,0.0476 -0.05027,0.18256 -0.07408,0.33602 -0.07408,0.46038 0,0.0714 0.01058,0.13229 0.03175,0.17991 0.108479,0.0767 0.28575,0.11377 0.531813,0.11377 h 0.05292 c 0,0 0.05821,-0.005 0.05821,-0.005 l 0.06615,-0.0291 0.05821,-0.0291 h 0.01058 c 0,0 0.01058,-0.003 0.01058,-0.003 0.0635,0 0.103187,0.0556 0.121708,0.16933 v 0.0159 c 0,0 0.0053,0.0159 0.0053,0.0159 0,0.037 -0.01058,0.0688 -0.0344,0.0952 -0.02381,0.0265 -0.05292,0.0423 -0.08731,0.045 h -0.07144 c 0,0 -0.07144,0.005 -0.07144,0.005 -0.251354,0 -0.481541,-0.0265 -0.685271,-0.0794 -0.07408,-0.0185 -0.140229,-0.0582 -0.201083,-0.12171 -0.06085,-0.0635 -0.09525,-0.13494 -0.103187,-0.21167 -0.0053,-0.0582 -0.01058,-0.11377 -0.01323,-0.16404 -0.0053,-0.0529 -0.0053,-0.10583 -0.0053,-0.15875 0,-0.0529 0,-0.10319 0.0053,-0.15081 0.0026,-0.0476 0.0079,-0.0953 0.01323,-0.14023 -0.06615,-0.0476 -0.0979,-0.09 -0.0979,-0.12965 v -0.0159 z"
         id="path1531"
         style="isolation:isolate;fill:#1c096b;stroke-width:0.264583" />
      <path
         class="cls-69"
         d="m 49.593177,104.99477 c 0.0053,-0.0238 0.02381,-0.045 0.05821,-0.0635 0.03969,-0.0212 0.06085,-0.0423 0.06615,-0.0635 0,-0.0106 0.0053,-0.045 0.01058,-0.10583 0.0053,-0.0609 0.01058,-0.15082 0.02117,-0.26723 -0.145521,-0.0265 -0.216958,-0.082 -0.216958,-0.16404 0,-0.0767 0.04763,-0.13759 0.137583,-0.17992 l 0.251354,-0.10319 c 0.05027,-0.0265 0.105833,-0.0503 0.164042,-0.0714 0.06085,-0.0212 0.127,-0.0423 0.201083,-0.0635 0.06615,-0.0185 0.129646,-0.0344 0.193146,-0.0503 0.0635,-0.0159 0.127,-0.0318 0.193146,-0.0476 0.0053,0 0.02117,-0.005 0.04762,-0.005 0.07144,0 0.153458,0.0265 0.248708,0.082 0,0.0106 0.0079,0.0291 0.01852,0.0582 0.01058,0.0291 0.01588,0.0503 0.01588,0.0635 l -0.02646,0.0503 c -0.05027,0.0212 -0.111125,0.0423 -0.179917,0.0661 -0.07144,0.0212 -0.153458,0.0476 -0.248708,0.0741 -0.09525,0.0264 -0.177271,0.0503 -0.248709,0.0741 -0.07144,0.0212 -0.132291,0.045 -0.179916,0.0661 -0.01058,0.0318 -0.02117,0.0847 -0.02911,0.1614 -0.0079,0.0767 -0.01588,0.17463 -0.02117,0.29633 0.04233,0.0159 0.08996,0.0238 0.145521,0.0238 0.02117,0 0.04763,0 0.07673,-0.005 0.0291,-0.003 0.06615,-0.008 0.108479,-0.0132 0.04233,-0.005 0.07673,-0.0106 0.108479,-0.0132 0.0291,-0.005 0.05556,-0.005 0.07673,-0.005 0.07408,0 0.137584,0.0159 0.187854,0.0476 0.03704,0.0529 0.05556,0.0873 0.05556,0.10319 l -0.02646,0.0423 -0.01852,0.0159 -0.03704,0.0397 c -0.01588,0.0212 -0.04233,0.0318 -0.07937,0.0318 -0.05556,0.0106 -0.156104,0.0185 -0.304271,0.0238 -0.124354,0.005 -0.22225,0.0212 -0.296333,0.0476 -0.05027,0.18256 -0.07408,0.33602 -0.07408,0.46038 0,0.0714 0.01058,0.13229 0.03175,0.17991 0.108479,0.0767 0.28575,0.11377 0.531812,0.11377 h 0.05292 c 0,0 0.05821,-0.005 0.05821,-0.005 l 0.06615,-0.0291 0.05821,-0.0291 h 0.01058 c 0,0 0.01058,-0.003 0.01058,-0.003 0.0635,0 0.103187,0.0556 0.121708,0.16933 v 0.0159 c 0,0 0.0026,0.0159 0.0026,0.0159 0,0.037 -0.01058,0.0688 -0.0344,0.0952 -0.02117,0.0265 -0.05292,0.0423 -0.08731,0.045 h -0.07144 c 0,0 -0.07144,0.005 -0.07144,0.005 -0.251354,0 -0.481542,-0.0265 -0.685271,-0.0794 -0.07408,-0.0185 -0.140229,-0.0582 -0.201083,-0.12171 -0.06086,-0.0635 -0.09525,-0.13494 -0.103188,-0.21167 -0.0053,-0.0582 -0.01058,-0.11377 -0.01323,-0.16404 -0.0053,-0.0529 -0.0053,-0.10583 -0.0053,-0.15875 0,-0.0529 0,-0.10319 0.0053,-0.15081 0.0026,-0.0476 0.0079,-0.0953 0.01323,-0.14023 -0.06615,-0.0476 -0.0979,-0.09 -0.0979,-0.12965 v -0.0159 z"
         id="path1533"
         style="isolation:isolate;fill:#1c096b;stroke-width:0.264583" />
      <path
         class="cls-69"
         d="m 37.168344,103.77769 c -0.592667,0.26723 -1.103313,0.83873 -0.963084,1.53458 0.134938,0.67998 0.759354,0.95779 1.386417,1.01071 0.261937,0.0212 0.259292,-0.38365 0,-0.40746 -0.463021,-0.037 -0.976313,-0.24342 -1.002771,-0.78581 -0.02381,-0.49742 0.375708,-0.81757 0.783167,-1.00277 0.238125,-0.10848 0.03175,-0.45773 -0.206375,-0.3519 z"
         id="path1535"
         style="isolation:isolate;fill:#1c096b;stroke-width:0.264583" />
      <path
         class="cls-69"
         d="m 45.883718,103.96554 c -0.566208,0.23019 -1.11125,0.69321 -1.013354,1.37319 0.0979,0.68262 0.785813,0.92868 1.386417,0.97366 0.248708,0.0185 0.246062,-0.36777 0,-0.38629 -0.420688,-0.0318 -0.98425,-0.18521 -1.010708,-0.70379 -0.02381,-0.44714 0.375708,-0.73289 0.740833,-0.88371 0.227542,-0.0926 0.127,-0.46566 -0.103188,-0.37306 z"
         id="path1537"
         style="isolation:isolate;fill:#1c096b;stroke-width:0.264583" />
      <path
         class="cls-69"
         d="m 48.971406,103.53692 c 0.164042,-0.10319 0.328083,-0.20638 0.494771,-0.30692 0.148166,-0.0926 0.01058,-0.32544 -0.137584,-0.23283 -0.164041,0.10318 -0.328083,0.20637 -0.49477,0.30691 -0.148167,0.0926 -0.01058,0.32544 0.137583,0.23284 z"
         id="path1539"
         style="isolation:isolate;fill:#1c096b;stroke-width:0.264583" />
      <path
         class="cls-69"
         d="m 31.479802,105.76735 c 0.0053,-0.0767 0.01323,-0.15875 0.02117,-0.24871 0.0079,-0.09 0.01323,-0.18785 0.01323,-0.29368 v -0.42863 c 0,-0.17991 0,-0.34396 0.0053,-0.49212 0.0053,-0.14817 0.01588,-0.28311 0.03704,-0.41011 0.02646,-0.14816 0.161396,-0.22489 0.404813,-0.22489 h 0.05556 c 0.142875,0.005 0.264583,0.0767 0.370417,0.21166 0.0979,0.12171 0.145521,0.25665 0.145521,0.41011 0,0.12435 -0.04498,0.24606 -0.137584,0.37041 -0.08202,0.11113 -0.177271,0.19844 -0.288396,0.26723 l -0.05556,0.0371 -0.01852,0.0423 0.01852,0.045 c 0,0 0.03175,0.0291 0.06085,0.0529 l 0.127,0.10584 0.436563,0.4101 c 0.08996,0.0847 0.166687,0.1614 0.232833,0.23548 0.06615,0.0714 0.116417,0.14023 0.153458,0.20638 l 0.01058,0.0344 c 0,0.0609 -0.0635,0.10583 -0.187855,0.13758 -0.140229,-0.10583 -0.312208,-0.26987 -0.518583,-0.49477 -0.119062,-0.127 -0.219604,-0.23283 -0.304271,-0.3175 -0.08467,-0.0847 -0.153458,-0.15345 -0.211666,-0.20372 -0.0053,0.0344 -0.01058,0.0953 -0.01852,0.1852 -0.0079,0.09 -0.01587,0.20638 -0.02646,0.34925 -0.01323,0.21696 -0.03704,0.39159 -0.07144,0.51859 l -0.03969,0.0185 -0.0635,0.0185 h -0.0079 c 0,0 -0.0079,-0.003 -0.0079,-0.003 -0.116416,-0.0291 -0.174625,-0.10848 -0.174625,-0.24077 0,-0.0212 0,-0.045 0.0026,-0.0741 0.0026,-0.0291 0.0053,-0.0556 0.01058,-0.0847 l 0.01852,-0.14287 z m 0.759354,-1.59808 c -0.0079,-0.0556 -0.03175,-0.10583 -0.06879,-0.15081 -0.03704,-0.045 -0.0979,-0.0662 -0.182562,-0.0662 -0.0635,0 -0.103188,0.0185 -0.119063,0.0582 -0.0053,0.037 -0.01058,0.0741 -0.01323,0.11112 -0.0026,0.0371 -0.0053,0.0767 -0.0053,0.11113 0,0.0344 0.0026,0.12171 0.01058,0.26458 0,0.0291 0,0.0556 0,0.0794 v 0.0661 c 0,0 0,0.0635 0,0.0635 v 0.0556 c 0.216958,-0.15875 0.338667,-0.3175 0.367771,-0.46832 l 0.0053,-0.0503 v -0.0423 c 0,0 0,-0.0318 0,-0.0318 z"
         id="path1541"
         style="isolation:isolate;fill:#1c096b;stroke-width:0.264583" />
      <path
         class="cls-69"
         d="m 33.120219,104.99477 c 0.0053,-0.0238 0.02381,-0.045 0.05821,-0.0635 0.03969,-0.0212 0.06085,-0.0423 0.06615,-0.0635 0,-0.0106 0.0079,-0.045 0.01058,-0.10583 0.0053,-0.0609 0.01058,-0.15082 0.01852,-0.26723 -0.145521,-0.0265 -0.216958,-0.082 -0.216958,-0.16404 0,-0.0767 0.04762,-0.13759 0.137583,-0.17992 l 0.251354,-0.10319 c 0.05027,-0.0265 0.105833,-0.0503 0.164042,-0.0714 0.06085,-0.0212 0.127,-0.0423 0.201083,-0.0635 0.06615,-0.0185 0.129646,-0.0344 0.193146,-0.0503 0.0635,-0.0159 0.127,-0.0318 0.193146,-0.0476 0.0053,0 0.02117,-0.005 0.04762,-0.005 0.07144,0 0.153458,0.0265 0.248708,0.082 0,0.0106 0.0079,0.0291 0.01852,0.0582 0.01058,0.0291 0.01588,0.0503 0.01588,0.0635 l -0.02646,0.0503 c -0.05027,0.0212 -0.111125,0.0423 -0.179917,0.0661 -0.07144,0.0212 -0.153458,0.0476 -0.248708,0.0741 -0.09525,0.0264 -0.177271,0.0503 -0.248709,0.0741 -0.07144,0.0212 -0.132291,0.045 -0.179916,0.0661 -0.01058,0.0318 -0.02117,0.0847 -0.02911,0.1614 -0.01058,0.0767 -0.01588,0.17463 -0.02117,0.29633 0.04233,0.0159 0.08996,0.0238 0.145521,0.0238 0.02117,0 0.04762,0 0.07673,-0.005 0.0291,-0.003 0.06615,-0.008 0.108479,-0.0132 0.04233,-0.005 0.07673,-0.0106 0.108479,-0.0132 0.0291,-0.005 0.05556,-0.005 0.07673,-0.005 0.07408,0 0.137584,0.0159 0.187854,0.0476 0.03704,0.0529 0.05556,0.0873 0.05556,0.10319 l -0.02646,0.0423 -0.01852,0.0159 -0.03704,0.0397 c -0.01588,0.0212 -0.04233,0.0318 -0.07937,0.0318 -0.05556,0.0106 -0.156104,0.0185 -0.304271,0.0238 -0.124354,0.005 -0.22225,0.0212 -0.296333,0.0476 -0.05027,0.18256 -0.07408,0.33602 -0.07408,0.46038 0,0.0714 0.01058,0.13229 0.03175,0.17991 0.108479,0.0767 0.28575,0.11377 0.531812,0.11377 h 0.05292 c 0,0 0.05821,-0.005 0.05821,-0.005 l 0.06615,-0.0291 0.05821,-0.0291 h 0.01058 c 0,0 0.01058,-0.003 0.01058,-0.003 0.0635,0 0.103187,0.0556 0.121708,0.16933 v 0.0159 c 0,0 0.0026,0.0159 0.0026,0.0159 0,0.037 -0.01058,0.0688 -0.0344,0.0952 -0.02117,0.0265 -0.05292,0.0423 -0.08731,0.045 h -0.07144 c 0,0 -0.07144,0.005 -0.07144,0.005 -0.251354,0 -0.478896,-0.0265 -0.685271,-0.0794 -0.07408,-0.0185 -0.140229,-0.0582 -0.201083,-0.12171 -0.06085,-0.0635 -0.09525,-0.13494 -0.103188,-0.21167 -0.0053,-0.0582 -0.01058,-0.11377 -0.01323,-0.16404 -0.0026,-0.0529 -0.0053,-0.10583 -0.0053,-0.15875 0,-0.0529 0,-0.10319 0.0053,-0.15081 0.0053,-0.0476 0.0079,-0.0953 0.01323,-0.14023 -0.06615,-0.0476 -0.0979,-0.09 -0.0979,-0.12965 v -0.0159 z"
         id="path1543"
         style="isolation:isolate;fill:#1c096b;stroke-width:0.264583" />
      <path
         class="cls-69"
         d="m 39.102448,105.18527 c -0.03969,0.0926 -0.08731,0.17727 -0.142875,0.254 -0.05556,0.0767 -0.113771,0.14552 -0.179917,0.20108 -0.06615,0.0556 -0.134937,0.10054 -0.209021,0.13229 -0.07408,0.0318 -0.150812,0.0476 -0.230187,0.0476 -0.05556,0 -0.116417,-0.0132 -0.187854,-0.0423 -0.06879,-0.0291 -0.134938,-0.0714 -0.195792,-0.12965 -0.06085,-0.0582 -0.113771,-0.127 -0.156104,-0.21167 -0.04233,-0.082 -0.06615,-0.17991 -0.06615,-0.28839 0,-0.0873 0.01588,-0.18786 0.05027,-0.30163 0.03175,-0.11377 0.07673,-0.22225 0.129646,-0.32543 0.05292,-0.10319 0.116416,-0.18786 0.187854,-0.2593 0.07144,-0.0714 0.142875,-0.10583 0.219604,-0.10583 l 0.04498,0.008 0.03969,0.0185 0.05292,0.0318 c 0.02117,0.0132 0.05027,0.0265 0.08731,0.0423 0.02381,0.0106 0.05027,0.0212 0.08202,0.0344 0.0291,0.0106 0.06614,0.0238 0.108479,0.037 0.07937,0.0265 0.142875,0.0688 0.195791,0.127 0.05292,0.0582 0.09525,0.11906 0.127,0.18785 0.03175,0.0688 0.05292,0.1323 0.06615,0.1958 0.01058,0.0635 0.01852,0.11641 0.01852,0.1561 0,0.0767 -0.01323,0.14023 -0.03969,0.19315 z m -0.314854,-0.24342 c -0.01323,-0.10583 -0.0344,-0.1905 -0.06615,-0.254 -0.0291,-0.0635 -0.07144,-0.0952 -0.124354,-0.0952 -0.01588,0 -0.03704,0.0106 -0.06085,0.0291 -0.02381,0.0185 -0.05027,0.0423 -0.07408,0.0661 -0.02381,0.0238 -0.04763,0.045 -0.07144,0.0662 l -0.04498,0.0291 c -0.02117,0 -0.04498,-0.0106 -0.07408,-0.0318 -0.0291,-0.0212 -0.04763,-0.0318 -0.05821,-0.0318 -0.02646,0 -0.05027,0.0132 -0.06879,0.0423 -0.01852,0.0291 -0.03704,0.0609 -0.05027,0.0979 -0.01323,0.037 -0.02381,0.0794 -0.0291,0.12171 -0.0053,0.0423 -0.01058,0.082 -0.01058,0.11113 0,0.0688 0.01058,0.12964 0.03175,0.1852 0.02117,0.0556 0.04498,0.10319 0.07408,0.14288 0.0291,0.0397 0.05821,0.0688 0.08731,0.09 0.0291,0.0212 0.05292,0.0318 0.06879,0.0318 0.05027,0 0.103188,-0.0185 0.156104,-0.0529 0.05556,-0.0344 0.105834,-0.082 0.150813,-0.13494 0.04498,-0.0556 0.08467,-0.11641 0.113771,-0.17991 0.0291,-0.0661 0.04498,-0.12965 0.04498,-0.18786 v -0.0397 z"
         id="path1545"
         style="isolation:isolate;fill:#1c096b;stroke-width:0.264583" />
      <path
         class="cls-69"
         d="m 39.449052,106.20656 c -0.0079,-0.14552 -0.01058,-0.29898 -0.01058,-0.46037 0,-0.27782 0.01588,-0.62707 0.04763,-1.04246 l 0.08202,-1.05569 c 0,-0.0582 0.05292,-0.0873 0.153459,-0.0873 0.02117,0 0.05027,0.008 0.08731,0.0238 0.03704,0.0159 0.07673,0.0397 0.119063,0.0741 0.04233,0.082 0.08996,0.18521 0.142875,0.31486 0.05292,0.12964 0.108479,0.2831 0.169333,0.46566 0.06085,0.17198 0.119063,0.33867 0.174625,0.49478 0.05556,0.1561 0.108479,0.29633 0.15875,0.41275 l 0.156104,-1.70921 c 0.0053,-0.0529 0.04233,-0.0794 0.113771,-0.0794 0.02381,0 0.05027,0.003 0.08202,0.0106 l 0.07408,0.0185 c 0.02646,0.0106 0.04233,0.0291 0.05027,0.0556 l -0.105833,1.05833 c -0.02117,0.21167 -0.03704,0.40481 -0.05027,0.57944 -0.01323,0.17462 -0.01852,0.33073 -0.01852,0.4736 v 0.13494 c 0,0.045 0,0.0926 0.0079,0.14288 0,0.0397 -0.01588,0.0741 -0.05027,0.10318 -0.03175,0.0291 -0.06879,0.045 -0.108479,0.045 -0.08202,0 -0.150813,-0.0556 -0.20373,-0.16404 -0.04233,-0.082 -0.08731,-0.18256 -0.137583,-0.30162 -0.05027,-0.11907 -0.103187,-0.25136 -0.15875,-0.39688 -0.05556,-0.14287 -0.113771,-0.29898 -0.174625,-0.46302 -0.06085,-0.16404 -0.121708,-0.33602 -0.185208,-0.51065 l -0.02117,-0.0238 c -0.01852,0 -0.0291,0.0185 -0.0344,0.0556 -0.01058,0.0952 -0.01852,0.1958 -0.02381,0.30428 -0.0053,0.10847 -0.0079,0.22225 -0.01058,0.33602 0,0.11641 0,0.23018 0,0.3466 v 0.32544 c 0,0.10054 0,0.20108 0.0053,0.30162 0,0.10054 0.0053,0.20373 0.01058,0.30956 v 0.0159 c 0,0.0714 -0.02117,0.11906 -0.06614,0.14287 l -0.05821,0.0265 c -0.02117,0 -0.04498,-0.008 -0.07144,-0.0238 l -0.07408,-0.0344 c -0.03439,-0.0106 -0.05556,-0.0423 -0.0635,-0.0952 l -0.0079,-0.12964 z"
         id="path1547"
         style="isolation:isolate;fill:#1c096b;stroke-width:0.264583" />
      <path
         class="cls-69"
         d="m 41.34876,106.20656 c -0.0079,-0.14552 -0.01058,-0.29898 -0.01058,-0.46037 0,-0.27782 0.01588,-0.62707 0.04762,-1.04246 l 0.08202,-1.05569 c 0,-0.0582 0.05292,-0.0873 0.153458,-0.0873 0.02117,0 0.05027,0.008 0.08731,0.0238 0.03704,0.0159 0.07673,0.0397 0.119062,0.0741 0.04233,0.082 0.08996,0.18521 0.142875,0.31486 0.05292,0.12964 0.108479,0.2831 0.169333,0.46566 0.06085,0.17198 0.119063,0.33867 0.174625,0.49478 0.05556,0.1561 0.10848,0.29633 0.15875,0.41275 l 0.156105,-1.70921 c 0.0053,-0.0529 0.04233,-0.0794 0.11377,-0.0794 0.02381,0 0.05027,0.003 0.08202,0.0106 l 0.07408,0.0185 c 0.02646,0.0106 0.04233,0.0291 0.05027,0.0556 l -0.105833,1.05833 c -0.02117,0.21167 -0.03704,0.40481 -0.05027,0.57944 -0.01058,0.17198 -0.01852,0.33073 -0.01852,0.4736 v 0.13494 c 0,0.045 0,0.0926 0.0079,0.14288 0,0.0397 -0.01587,0.0741 -0.05027,0.10318 -0.03175,0.0291 -0.06879,0.045 -0.108479,0.045 -0.08202,0 -0.150813,-0.0556 -0.203729,-0.16404 -0.04233,-0.082 -0.08731,-0.18256 -0.137584,-0.30162 -0.05027,-0.11907 -0.103187,-0.25136 -0.15875,-0.39688 -0.05556,-0.14287 -0.11377,-0.29898 -0.174625,-0.46302 -0.06085,-0.16404 -0.121708,-0.33602 -0.185208,-0.51065 l -0.01852,-0.0238 c -0.01852,0 -0.0291,0.0185 -0.0344,0.0556 -0.01058,0.0952 -0.01852,0.1958 -0.02381,0.30428 -0.0053,0.10847 -0.0079,0.22225 -0.01058,0.33602 0,0.11641 0,0.23018 0,0.3466 v 0.32544 c 0,0.10054 0,0.20108 0.0053,0.30162 0,0.10054 0.0053,0.20373 0.01058,0.30956 v 0.0159 c 0,0.0714 -0.02117,0.11906 -0.06615,0.14287 l -0.05821,0.0265 c -0.02117,0 -0.04498,-0.008 -0.07144,-0.0238 l -0.07408,-0.0344 c -0.0344,-0.0106 -0.05556,-0.0423 -0.0635,-0.0952 l -0.0079,-0.12964 z"
         id="path1549"
         style="isolation:isolate;fill:#1c096b;stroke-width:0.264583" />
      <path
         class="cls-69"
         d="m 43.198198,104.99477 c 0.0053,-0.0238 0.02381,-0.045 0.05821,-0.0635 0.03969,-0.0212 0.06085,-0.0423 0.06615,-0.0635 0,-0.0106 0.0079,-0.045 0.01058,-0.10583 0.0053,-0.0609 0.01058,-0.15082 0.02117,-0.26723 -0.145521,-0.0265 -0.216959,-0.082 -0.216959,-0.16404 0.0026,-0.0767 0.04762,-0.13759 0.137584,-0.17992 l 0.251354,-0.10319 c 0.05027,-0.0265 0.105833,-0.0503 0.164042,-0.0714 0.06085,-0.0212 0.127,-0.0423 0.201083,-0.0635 0.06615,-0.0185 0.129646,-0.0344 0.193146,-0.0503 0.0635,-0.0159 0.127,-0.0318 0.193146,-0.0476 0.0053,0 0.02117,-0.005 0.04762,-0.005 0.07144,0 0.153458,0.0265 0.248708,0.082 0,0.0106 0.0079,0.0291 0.01852,0.0582 0.01058,0.0291 0.01588,0.0503 0.01588,0.0635 l -0.02646,0.0503 c -0.05027,0.0212 -0.111125,0.0423 -0.179916,0.0661 -0.07144,0.0212 -0.153459,0.0476 -0.248709,0.0741 -0.09525,0.0264 -0.17727,0.0503 -0.248708,0.0741 -0.07144,0.0212 -0.132292,0.045 -0.179917,0.0661 -0.01058,0.0318 -0.02117,0.0847 -0.0291,0.1614 -0.0079,0.0767 -0.01588,0.17463 -0.02117,0.29633 0.04233,0.0159 0.08996,0.0238 0.14552,0.0238 0.02117,0 0.04762,0 0.07673,-0.005 0.0291,-0.003 0.06614,-0.008 0.108479,-0.0132 0.04233,-0.005 0.07673,-0.0106 0.108479,-0.0132 0.0291,-0.005 0.05556,-0.005 0.07673,-0.005 0.07408,0 0.137583,0.0159 0.187854,0.0476 0.03704,0.0529 0.05556,0.0873 0.05556,0.10319 l -0.02646,0.0423 -0.01852,0.0159 -0.03704,0.0397 c -0.01588,0.0212 -0.04233,0.0318 -0.07938,0.0318 -0.05556,0.0106 -0.156104,0.0185 -0.304271,0.0238 -0.124354,0.005 -0.22225,0.0212 -0.296333,0.0476 -0.05027,0.18256 -0.07408,0.33602 -0.07408,0.46038 0,0.0714 0.01058,0.13229 0.03175,0.17991 0.10848,0.0767 0.28575,0.11377 0.531813,0.11377 h 0.05292 c 0,0 0.05821,-0.005 0.05821,-0.005 l 0.06615,-0.0291 0.05821,-0.0291 h 0.01058 c 0,0 0.01058,-0.003 0.01058,-0.003 0.0635,0 0.103187,0.0556 0.121708,0.16933 v 0.0159 c 0,0 0.0026,0.0159 0.0026,0.0159 0,0.037 -0.01058,0.0688 -0.0344,0.0952 -0.02117,0.0265 -0.05292,0.0423 -0.08731,0.045 h -0.07144 c 0,0 -0.07144,0.005 -0.07144,0.005 -0.251355,0 -0.481542,-0.0265 -0.685271,-0.0794 -0.07408,-0.0185 -0.140229,-0.0582 -0.201084,-0.12171 -0.06085,-0.0635 -0.09525,-0.13494 -0.103187,-0.21167 -0.0053,-0.0582 -0.01058,-0.11377 -0.01323,-0.16404 -0.0026,-0.0529 -0.0053,-0.10583 -0.0053,-0.15875 0,-0.0529 0,-0.10319 0.0053,-0.15081 0.0053,-0.0476 0.0079,-0.0953 0.01323,-0.14023 -0.06615,-0.0476 -0.0979,-0.09 -0.0979,-0.12965 v -0.0159 z"
         id="path1551"
         style="isolation:isolate;fill:#1c096b;stroke-width:0.264583" />
      <path
         class="cls-69"
         d="m 35.292448,106.30975 c 0.0926,-0.12171 0.179916,-0.29104 0.254,-0.50536 0.07408,-0.21166 0.113771,-0.46831 0.113771,-0.76729 0,-0.11906 -0.0053,-0.26193 -0.01852,-0.43391 -0.01058,-0.16934 -0.04233,-0.34132 -0.08996,-0.51594 v 0 c 0,0 0,0 0,0 -0.02381,-0.0847 -0.06879,-0.18786 -0.140229,-0.30692 -0.07144,-0.11906 -0.15875,-0.23548 -0.259291,-0.34925 -0.100542,-0.11377 -0.211667,-0.21696 -0.333375,-0.30691 -0.119063,-0.09 -0.238125,-0.14817 -0.359834,-0.17992 h -0.01852 c 0,0 -0.0079,-0.003 -0.0079,-0.003 l -0.01852,0.008 -0.0291,0.0318 c -0.02646,0.0397 -0.03969,0.0847 -0.03969,0.13494 0,0.045 0.01588,0.0741 0.05292,0.10054 0.02381,0.0106 0.05292,0.0238 0.08996,0.0397 0.03969,0.0159 0.07408,0.0318 0.100542,0.0476 v 0 c 0,0 0,0 0,0 0.07144,0.045 0.127,0.0873 0.164042,0.12965 0.0344,0.0397 0.06615,0.0767 0.100541,0.11641 0.0344,0.0397 0.07408,0.09 0.119063,0.15082 0.04498,0.0609 0.09525,0.12964 0.145521,0.20637 v 0 c 0,0 0,0.005 0,0.005 0.171979,0.33867 0.259291,0.66675 0.259291,0.98425 0,0.17198 -0.01323,0.32809 -0.03704,0.47096 -0.02381,0.14023 -0.05556,0.26723 -0.0979,0.37836 -0.03969,0.11112 -0.08731,0.20637 -0.137583,0.29104 -0.05027,0.082 -0.103188,0.15081 -0.156105,0.20637 -0.100541,0.10319 -0.185208,0.16934 -0.267229,0.20109 -0.07144,0.0265 -0.142875,0.045 -0.214312,0.0609 -0.04763,0.0132 -0.07144,0.0318 -0.08731,0.0635 -0.01852,0.0344 -0.02646,0.0741 -0.02646,0.11906 0,0.0529 0.01058,0.0847 0.01323,0.0847 v 0 c 0,0 0,0 0,0 v 0 c 0.0635,0.0582 0.129646,0.0847 0.203729,0.0847 0.08467,0 0.1905,-0.0397 0.312209,-0.127 0.121708,-0.0873 0.256645,-0.22755 0.404812,-0.42069 z"
         id="path1553"
         style="isolation:isolate;fill:#1c096b;stroke-width:0.264583" />
      <path
         class="cls-69"
         d="m 47.405073,106.07427 v 0.0423 c 0,0 -0.0079,0.0344 -0.0079,0.0344 -0.01323,0.0397 -0.03969,0.0582 -0.07937,0.0582 -0.07673,-0.003 -0.137583,-0.0344 -0.187854,-0.0952 -0.05027,-0.0609 -0.07673,-0.12965 -0.07937,-0.20638 -0.0079,-0.0979 -0.01058,-0.19844 -0.01058,-0.30691 0,-0.17198 0.01058,-0.44715 0.03439,-0.82286 0.01058,-0.15875 0.01852,-0.29898 0.02381,-0.42333 0.0053,-0.12436 0.0079,-0.23284 0.0079,-0.32544 v -0.0741 h -0.05027 c -0.03175,0 -0.06879,0 -0.10848,0.003 -0.03969,0 -0.08467,0.008 -0.134937,0.0159 -0.0291,0.005 -0.05027,0.0106 -0.06615,0.0132 -0.01588,0.005 -0.03704,0.005 -0.06615,0.005 -0.127,0 -0.230187,-0.0344 -0.314854,-0.10319 -0.03175,-0.0661 -0.04762,-0.10054 -0.04762,-0.10583 l 0.02646,-0.0582 c 0.04233,-0.0132 0.08996,-0.0265 0.145521,-0.037 0.05556,-0.0106 0.124354,-0.0212 0.203729,-0.0291 0.219605,-0.0238 0.391584,-0.0661 0.510646,-0.127 0.100542,0.0291 0.203729,0.0423 0.314854,0.0423 0.111125,0 0.22225,-0.0132 0.338667,-0.0423 0.01588,0 0.03969,-0.008 0.07408,-0.0185 0.0344,-0.0106 0.06879,-0.0185 0.105834,-0.0291 0.0635,-0.0185 0.124354,-0.0265 0.185208,-0.0265 h 0.02646 c 0,0 0.02646,0.005 0.02646,0.005 0.03969,0 0.05821,0.0132 0.05821,0.0423 v 0.0159 c 0.07144,0 0.105833,0.0238 0.105833,0.0714 -0.02381,0.0953 -0.06879,0.15081 -0.134937,0.16404 -0.08467,0.0212 -0.1905,0.045 -0.320146,0.0688 -0.129646,0.0238 -0.298979,0.0556 -0.510646,0.0873 -0.02646,0.33073 -0.04498,0.62971 -0.05821,0.89694 -0.01323,0.26723 -0.01852,0.51329 -0.01852,0.73554 0,0.0847 0,0.16669 0,0.24607 0,0.0794 0.0026,0.16139 0.0053,0.24077 v 0.0397 z"
         id="path1555"
         style="isolation:isolate;fill:#1c096b;stroke-width:0.264583" />
      <path
         class="cls-69"
         d="m 47.995093,104.99477 c 0.0053,-0.0238 0.02381,-0.045 0.05821,-0.0635 0.03969,-0.0212 0.06085,-0.0423 0.06615,-0.0635 0,-0.0106 0.0053,-0.045 0.01058,-0.10583 0.0053,-0.0609 0.01058,-0.15082 0.02117,-0.26723 -0.145521,-0.0265 -0.216959,-0.082 -0.216959,-0.16404 0,-0.0767 0.04763,-0.13759 0.137584,-0.17992 l 0.251354,-0.10319 c 0.05027,-0.0265 0.105833,-0.0503 0.164041,-0.0714 0.06086,-0.0212 0.127,-0.0423 0.201084,-0.0635 0.06615,-0.0185 0.129646,-0.0344 0.193146,-0.0503 0.0635,-0.0159 0.127,-0.0318 0.193145,-0.0476 0.0053,0 0.02117,-0.005 0.04762,-0.005 0.07144,0 0.153459,0.0265 0.248709,0.082 0,0.0106 0.01058,0.0291 0.01852,0.0582 0.01058,0.0291 0.01588,0.0503 0.01588,0.0635 l -0.02646,0.0503 c -0.05027,0.0212 -0.111125,0.0423 -0.179916,0.0661 -0.07144,0.0212 -0.153459,0.0476 -0.248709,0.0741 -0.09525,0.0264 -0.177271,0.0503 -0.248708,0.0741 -0.07144,0.0212 -0.132292,0.045 -0.179917,0.0661 -0.01058,0.0318 -0.02117,0.0847 -0.0291,0.1614 -0.0079,0.0767 -0.01588,0.17463 -0.02117,0.29633 0.04233,0.0159 0.08996,0.0238 0.145521,0.0238 0.02117,0 0.04763,0 0.07673,-0.005 0.02911,-0.003 0.06615,-0.008 0.10848,-0.0132 0.04233,-0.005 0.07673,-0.0106 0.108479,-0.0132 0.0291,-0.005 0.05556,-0.005 0.07673,-0.005 0.07408,0 0.137583,0.0159 0.187854,0.0476 0.03704,0.0529 0.05556,0.0873 0.05556,0.10319 l -0.02646,0.0423 -0.01852,0.0159 -0.03704,0.0397 c -0.01588,0.0212 -0.04233,0.0318 -0.07937,0.0318 -0.05556,0.0106 -0.156104,0.0185 -0.304271,0.0238 -0.124354,0.005 -0.22225,0.0212 -0.296333,0.0476 -0.05027,0.18256 -0.07408,0.33602 -0.07408,0.46038 0,0.0714 0.01058,0.13229 0.03175,0.17991 0.108479,0.0767 0.28575,0.11377 0.531813,0.11377 h 0.05292 c 0,0 0.05821,-0.005 0.05821,-0.005 l 0.06615,-0.0291 0.05821,-0.0291 h 0.01058 c 0,0 0.01058,-0.003 0.01058,-0.003 0.0635,0 0.103187,0.0556 0.121708,0.16933 v 0.0159 c 0,0 0.0053,0.0159 0.0053,0.0159 0,0.037 -0.01058,0.0688 -0.0344,0.0952 -0.02381,0.0265 -0.05292,0.0423 -0.08731,0.045 h -0.07144 c 0,0 -0.07144,0.005 -0.07144,0.005 -0.251354,0 -0.481541,-0.0265 -0.685271,-0.0794 -0.07408,-0.0185 -0.140229,-0.0582 -0.201083,-0.12171 -0.06085,-0.0635 -0.09525,-0.13494 -0.103187,-0.21167 -0.0053,-0.0582 -0.01058,-0.11377 -0.01323,-0.16404 -0.0026,-0.0503 -0.0053,-0.10583 -0.0053,-0.15875 0,-0.0529 0,-0.10319 0.0053,-0.15081 0.0026,-0.0476 0.0079,-0.0953 0.01323,-0.14023 -0.06615,-0.0476 -0.0979,-0.09 -0.0979,-0.12965 v -0.0159 z"
         id="path1557"
         style="isolation:isolate;fill:#1c096b;stroke-width:0.264583" />
      <path
         class="cls-69"
         d="m 49.593177,104.99477 c 0.0053,-0.0238 0.02381,-0.045 0.05821,-0.0635 0.03969,-0.0212 0.06085,-0.0423 0.06615,-0.0635 0,-0.0106 0.0053,-0.045 0.01058,-0.10583 0.0053,-0.0609 0.01058,-0.15082 0.02117,-0.26723 -0.145521,-0.0265 -0.216958,-0.082 -0.216958,-0.16404 0.0026,-0.0767 0.04763,-0.13759 0.137583,-0.17992 l 0.251354,-0.10319 c 0.05027,-0.0265 0.105833,-0.0503 0.164042,-0.0714 0.06085,-0.0212 0.127,-0.0423 0.201083,-0.0635 0.06615,-0.0185 0.129646,-0.0344 0.193146,-0.0503 0.0635,-0.0159 0.127,-0.0318 0.193146,-0.0476 0.0053,0 0.02117,-0.005 0.04762,-0.005 0.07144,0 0.153458,0.0265 0.248708,0.082 0,0.0106 0.0079,0.0291 0.01852,0.0582 0.01058,0.0291 0.01588,0.0503 0.01588,0.0635 l -0.02646,0.0503 c -0.05027,0.0212 -0.111125,0.0423 -0.179917,0.0661 -0.07144,0.0212 -0.153458,0.0476 -0.248708,0.0741 -0.09525,0.0264 -0.177271,0.0503 -0.248709,0.0741 -0.07144,0.0212 -0.132291,0.045 -0.179916,0.0661 -0.01058,0.0318 -0.02117,0.0847 -0.02911,0.1614 -0.0079,0.0767 -0.01588,0.17463 -0.02117,0.29633 0.04233,0.0159 0.08996,0.0238 0.145521,0.0238 0.02117,0 0.04763,0 0.07673,-0.005 0.0291,-0.003 0.06615,-0.008 0.108479,-0.0132 0.04233,-0.005 0.07673,-0.0106 0.108479,-0.0132 0.0291,-0.005 0.05556,-0.005 0.07673,-0.005 0.07408,0 0.137584,0.0159 0.187854,0.0476 0.03704,0.0529 0.05556,0.0873 0.05556,0.10319 l -0.02646,0.0423 -0.01852,0.0159 -0.03704,0.0397 c -0.01588,0.0212 -0.04233,0.0318 -0.07937,0.0318 -0.05556,0.0106 -0.156104,0.0185 -0.304271,0.0238 -0.124354,0.005 -0.22225,0.0212 -0.296333,0.0476 -0.05027,0.18256 -0.07408,0.33602 -0.07408,0.46038 0,0.0714 0.01058,0.13229 0.03175,0.17991 0.108479,0.0767 0.28575,0.11377 0.531812,0.11377 h 0.05292 c 0,0 0.05821,-0.005 0.05821,-0.005 l 0.06615,-0.0291 0.05821,-0.0291 h 0.01058 c 0,0 0.01058,-0.003 0.01058,-0.003 0.0635,0 0.103187,0.0556 0.121708,0.16933 v 0.0159 c 0,0 0.0053,0.0159 0.0053,0.0159 0,0.037 -0.01058,0.0688 -0.0344,0.0952 -0.02117,0.0265 -0.05292,0.0423 -0.08731,0.045 h -0.07144 c 0,0 -0.07144,0.005 -0.07144,0.005 -0.251355,0 -0.481542,-0.0265 -0.685271,-0.0794 -0.07408,-0.0185 -0.140229,-0.0582 -0.201084,-0.12171 -0.06085,-0.0635 -0.09525,-0.13494 -0.103187,-0.21167 -0.0053,-0.0582 -0.01058,-0.11377 -0.01323,-0.16404 -0.0053,-0.0529 -0.0053,-0.10583 -0.0053,-0.15875 0,-0.0529 0,-0.10319 0.0053,-0.15081 0.0026,-0.0476 0.0079,-0.0953 0.01323,-0.14023 -0.06615,-0.0476 -0.0979,-0.09 -0.0979,-0.12965 v -0.0159 z"
         id="path1559"
         style="isolation:isolate;fill:#1c096b;stroke-width:0.264583" />
      <path
         class="cls-69"
         d="m 37.168344,103.77769 c -0.592667,0.26723 -1.103313,0.83873 -0.963084,1.53458 0.134938,0.67998 0.759354,0.95779 1.386417,1.01071 0.261937,0.0212 0.259292,-0.38365 0,-0.40746 -0.463021,-0.037 -0.976313,-0.24342 -1.002771,-0.78581 -0.02381,-0.49742 0.375708,-0.81757 0.783167,-1.00277 0.238125,-0.10848 0.03175,-0.45773 -0.206375,-0.3519 z"
         id="path1561"
         style="isolation:isolate;fill:#1c096b;stroke-width:0.264583" />
      <path
         class="cls-69"
         d="m 45.883718,103.96554 c -0.566208,0.23019 -1.11125,0.69321 -1.013354,1.37319 0.0979,0.68262 0.785813,0.92868 1.386417,0.97366 0.248708,0.0185 0.246062,-0.36777 0,-0.38629 -0.420688,-0.0318 -0.98425,-0.18521 -1.010708,-0.70379 -0.02381,-0.44714 0.375708,-0.73289 0.740833,-0.88371 0.227542,-0.0926 0.127,-0.46566 -0.103188,-0.37306 z"
         id="path1563"
         style="isolation:isolate;fill:#1c096b;stroke-width:0.264583" />
      <path
         class="cls-69"
         d="m 48.902614,103.41785 c 0.164042,-0.10318 0.328084,-0.20637 0.494771,-0.30691"
         id="path1565"
         style="isolation:isolate;fill:#1c096b;stroke-width:0.264583" />
      <path
         class="cls-69"
         d="m 52.990427,100.33281 c -0.07673,0.1614 -0.04498,0.0953 -0.22225,0.46038 q -0.179917,0.36512 -0.254,0.41539 c -0.08731,0.0582 -0.211667,-0.0238 -0.224896,-0.16404 -0.01323,-0.14023 0.121708,-0.5715 0.246062,-0.74877 0.124355,-0.17992 0.243417,-0.25135 0.328084,-0.20638 0.08467,0.0423 0.203729,0.0847 0.127,0.24607 z"
         id="path1567"
         style="isolation:isolate;fill:#1c096b;stroke-width:0.264583" />
      <path
         class="cls-69"
         d="m 54.469448,102.46535 c -0.177271,0.008 -0.06085,-0.0926 -0.468313,-0.0794 -0.407458,0.0106 -0.431271,0.0847 -0.529167,0.0661 -0.103187,-0.0185 -0.06085,-0.1561 0.05821,-0.23283 0.119062,-0.0767 0.597958,-0.1614 0.812271,-0.13494 0.214312,0.0265 0.269875,0.0291 0.283104,0.15346 0.01058,0.0953 0.02117,0.21961 -0.156104,0.22754 z"
         id="path1569"
         style="isolation:isolate;fill:#1c096b;stroke-width:0.264583" />
      <path
         class="cls-69"
         d="m 54.104323,100.85404 c 0,0 -0.20373,-0.27781 -0.378355,-0.11642 -0.254,0.23284 -0.661458,0.65088 -0.661458,0.65088 0,0 -0.209021,0.19844 -0.08467,0.30162 0.08996,0.0741 0.05821,0.15082 0.272521,-0.045 0.214313,-0.19579 0.60325,-0.3175 0.785813,-0.39952 0.150812,-0.0688 0.156104,-0.2487 0.06615,-0.38893 z"
         id="path1571"
         style="isolation:isolate;fill:#1c096b;stroke-width:0.264583" />
      <path
         class="cls-69"
         d="m 32.535489,97.726665 c 0.09525,0.150813 0.05556,0.08996 0.275167,0.431271 q 0.22225,0.341312 0.301625,0.381 c 0.0926,0.04762 0.209021,-0.04763 0.206375,-0.187854 -0.0026,-0.140229 -0.187854,-0.552979 -0.333375,-0.714375 -0.142875,-0.164042 -0.272521,-0.219604 -0.351896,-0.166688 -0.07937,0.05292 -0.193146,0.108479 -0.0979,0.259292 z"
         id="path1573"
         style="isolation:isolate;fill:#1c096b;stroke-width:0.264583" />
      <path
         class="cls-69"
         d="m 31.487739,98.372248 c 0,0 0.169334,-0.298979 0.36248,-0.15875 0.277812,0.201084 0.73025,0.568855 0.73025,0.568855 0,0 0.230187,0.174625 0.119062,0.288395 -0.08202,0.08467 -0.03969,0.156105 -0.275167,-0.01323 -0.235479,-0.169333 -0.635,-0.246062 -0.8255,-0.306916 -0.15875,-0.05027 -0.185208,-0.230188 -0.108479,-0.378355 z"
         id="path1575"
         style="isolation:isolate;fill:#1c096b;stroke-width:0.264583" />
    </g>
  </g>
</svg>
