<?xml version="1.0" encoding="UTF-8" standalone="no"?>
<!-- Created with Inkscape (http://www.inkscape.org/) -->

<svg
   width="30.170437mm"
   height="13.520208mm"
   viewBox="0 0 30.170437 13.520208"
   version="1.1"
   id="svg2854"
   inkscape:version="1.2.2 (b0a8486541, 2022-12-01)"
   sodipodi:docname="logo_mrc.svg"
   xmlns:inkscape="http://www.inkscape.org/namespaces/inkscape"
   xmlns:sodipodi="http://sodipodi.sourceforge.net/DTD/sodipodi-0.dtd"
   xmlns="http://www.w3.org/2000/svg"
   xmlns:svg="http://www.w3.org/2000/svg">
  <sodipodi:namedview
     id="namedview2856"
     pagecolor="#ffffff"
     bordercolor="#000000"
     borderopacity="0.25"
     inkscape:showpageshadow="2"
     inkscape:pageopacity="0.0"
     inkscape:pagecheckerboard="0"
     inkscape:deskcolor="#d1d1d1"
     inkscape:document-units="mm"
     showgrid="false"
     inkscape:zoom="0.76702441"
     inkscape:cx="253.57733"
     inkscape:cy="201.42775"
     inkscape:window-width="1706"
     inkscape:window-height="749"
     inkscape:window-x="1970"
     inkscape:window-y="118"
     inkscape:window-maximized="0"
     inkscape:current-layer="layer1" />
  <defs
     id="defs2851" />
  <g
     inkscape:label="Calque 1"
     inkscape:groupmode="layer"
     id="layer1"
     transform="translate(-24.928719,-95.689373)">
    <g
       id="g1577"
       style="isolation:isolate"
       transform="matrix(0.26458333,0,0,0.26458333,16.655198,92.903311)">
      <path
         class="cls-69"
         d="m 107.24,29.3 v 0 c 0,0 0.5,-0.77 1.33,-1.46 0.84,-0.69 2.02,-1.33 3.53,-1.33 h 0.11 c 0.27,0 0.53,0 0.8,0 0.45,0 0.88,0 1.31,0 1.43,0 2.74,0.06 3.98,0.48 1.23,0.42 2.42,1.19 3.64,2.75 1.62,2.07 1.92,3.25 1.91,3.72 0,0.22 -0.05,0.3 -0.06,0.33 v 0 c 0,0 0.22,0.18 0.22,0.18 l -0.15,-0.22 -0.07,0.05 0.22,0.17 -0.15,-0.22 0.43,0.62 0.48,0.58 -0.19,-0.23 0.19,0.23 v 0 c 0,0 -0.19,-0.23 -0.19,-0.23 l 0.19,0.23 c 0,0 1.37,-1.1 3.52,-1.09 1.44,0 3.27,0.47 5.43,2.14 1.27,0.99 2.04,1.9 2.49,2.7 0.45,0.8 0.59,1.48 0.59,2.06 0,0.67 -0.2,1.22 -0.4,1.6 -0.1,0.19 -0.2,0.34 -0.27,0.43 l -0.08,0.1 -0.02,0.02 v 0 c 0,0 0.32,0.3 0.32,0.3 l -0.32,-0.3 v 0 c 0,0 0.32,0.3 0.32,0.3 l -0.32,-0.3 c -0.24,0.25 -0.27,0.63 -0.09,0.92 0.18,0.29 0.54,0.42 0.87,0.31 v 0 c 0,0 0,0 0,0 v 0 c 0,0 0,-0.01 0,-0.01 v 0 c 0,0 0.74,-0.21 1.65,-0.21 0.94,0 2.06,0.21 3.04,1.01 0.97,0.8 1.87,2.23 2.24,4.9 0.05,0.35 0.07,0.68 0.07,0.99 0,1.22 -0.33,2.11 -0.87,2.82 -0.8,1.06 -2.15,1.74 -3.7,2.14 -1.54,0.4 -3.25,0.5 -4.64,0.5 -1.29,0 -2.29,-0.09 -2.75,-0.1 -0.25,0 -0.56,-0.02 -0.91,-0.02 -2.17,0 -6.21,0.25 -11.5,1.48 -2.79,0.65 -7.8,1.11 -12.76,1.39 -4.96,0.28 -9.89,0.4 -12.6,0.4 -0.28,0 -0.53,0 -0.76,0 -0.11,0 -0.22,0 -0.33,0 -4.19,0 -12.66,0.72 -19.17,0.72 -1.25,0 -2.43,-0.03 -3.48,-0.09 -6.67,-0.39 -10.69,-2.34 -14.72,-3.09 -3.18,-0.58 -8.71,-1.22 -12.74,-1.22 -0.98,0 -1.86,0.04 -2.62,0.13 -0.13,0.02 -0.27,0.02 -0.41,0.02 -1.34,0 -3.17,-0.72 -4.6,-2.04 -1.43,-1.32 -2.47,-3.17 -2.47,-5.42 0,-0.73 0.11,-1.51 0.36,-2.34 0.87,-2.84 2.15,-4.29 3.35,-5.07 1.21,-0.78 2.4,-0.9 3.14,-0.9 0.18,0 0.34,0 0.47,0.02 0.17,0 0.59,0.1 1.06,0.25 0.71,0.22 1.56,0.56 2.23,0.83 0.33,0.14 0.62,0.26 0.83,0.35 0.2,0.09 0.32,0.14 0.32,0.14 0.22,0.1 0.48,0.08 0.69,-0.04 0.21,-0.13 0.35,-0.35 0.36,-0.6 v 0 c 0.02,-0.22 0.23,-2.47 1.65,-4.97 1.42,-2.5 4,-5.24 8.89,-6.59 2.72,-0.75 5.86,-1.03 9.12,-1.03 4.37,0 8.97,0.5 13.12,1 4.15,0.5 7.85,1.01 10.5,1.01 0.1,0 0.2,0 0.3,0 0.41,0 0.74,-0.35 0.74,-0.76 0,-0.41 -0.35,-0.74 -0.76,-0.74 -0.09,0 -0.18,0 -0.28,0 -2.47,0 -6.16,-0.5 -10.32,-1 -4.17,-0.51 -8.82,-1.01 -13.3,-1.01 -3.35,0 -6.61,0.28 -9.52,1.08 -5.46,1.49 -8.42,4.72 -9.95,7.56 -1.53,2.84 -1.69,5.28 -1.69,5.35 l 0.75,0.05 0.31,-0.68 c 0,0 -0.89,-0.4 -1.93,-0.81 -0.52,-0.2 -1.08,-0.41 -1.61,-0.58 -0.53,-0.16 -0.99,-0.29 -1.42,-0.32 -0.14,0 -0.33,-0.02 -0.56,-0.02 -0.91,0 -2.42,0.15 -3.95,1.14 -1.53,0.98 -3.04,2.79 -3.98,5.89 -0.29,0.96 -0.43,1.89 -0.43,2.78 0,2.73 1.28,4.98 2.96,6.52 1.69,1.54 3.77,2.43 5.61,2.44 0.2,0 0.4,-0.01 0.59,-0.03 0.67,-0.08 1.51,-0.12 2.45,-0.12 3.87,0 9.4,0.63 12.47,1.19 3.73,0.68 7.97,2.7 14.9,3.11 1.09,0.06 2.3,0.09 3.57,0.09 6.6,0 15.11,-0.72 19.17,-0.72 0.11,0 0.21,0 0.31,0 0.23,0 0.49,0 0.77,0 2.75,0 7.69,-0.11 12.69,-0.4 5,-0.29 10.02,-0.73 13.02,-1.43 5.16,-1.21 9.09,-1.44 11.15,-1.44 0.34,0 0.62,0 0.85,0.02 0.39,0.01 1.47,0.11 2.81,0.11 1.96,0 4.53,-0.18 6.71,-1.12 1.09,-0.47 2.09,-1.14 2.83,-2.11 0.74,-0.97 1.17,-2.22 1.17,-3.72 0,-0.38 -0.03,-0.77 -0.08,-1.19 -0.39,-2.93 -1.45,-4.78 -2.77,-5.87 -1.32,-1.08 -2.83,-1.35 -3.99,-1.35 -1.21,0 -2.07,0.28 -2.12,0.3 l 0.23,0.71 0.55,0.52 c 0,0 0.32,-0.34 0.6,-0.88 0.28,-0.54 0.57,-1.33 0.57,-2.3 0,-0.83 -0.22,-1.79 -0.79,-2.8 -0.57,-1.01 -1.48,-2.06 -2.87,-3.15 -2.38,-1.86 -4.58,-2.46 -6.36,-2.46 -2.74,0 -4.4,1.38 -4.47,1.44 -0.31,0.26 -0.36,0.71 -0.12,1.03 0.24,0.32 0.69,0.39 1.02,0.16 0.07,-0.05 0.24,-0.18 0.39,-0.44 0.15,-0.25 0.27,-0.62 0.27,-1.08 0,-1.02 -0.51,-2.43 -2.23,-4.64 -1.36,-1.75 -2.83,-2.74 -4.33,-3.24 -1.5,-0.51 -3,-0.56 -4.46,-0.56 -0.44,0 -0.88,0 -1.31,0 -0.26,0 -0.51,0 -0.76,0 h -0.14 c -2.02,0 -3.57,0.89 -4.58,1.75 -1.02,0.86 -1.54,1.71 -1.56,1.75 -0.22,0.35 -0.1,0.81 0.25,1.03 0.35,0.22 0.82,0.1 1.03,-0.25 v 0 z"
         id="path1491"
         style="fill:#1c096b" />
      <line
         class="cls-53"
         x1="63.490002"
         y1="30.01"
         x2="72.290001"
         y2="29.75"
         id="line1493"
         style="fill:#89a3d4" />
      <polygon
         class="cls-70"
         points="91.98,10.53 91.97,10.53 "
         id="polygon1495"
         style="fill:#2b4294" />
      <path
         class="cls-70"
         d="m 94.55,18.97 v 0 c 0,0 0,0 0,0 z"
         id="path1497"
         style="fill:#2b4294" />
      <path
         class="cls-39"
         d="m 105.01,24.89 c 1.15,0.08 7.82,-0.21 7.18,1.64 -0.51,1.03 -2.87,0.52 -3.88,0.66 -1.7,-0.02 -3,1.29 -4.62,1.58 -1.19,0.32 -2.7,0.16 -3.4,-0.98 -0.64,-0.91 -1.36,-1.76 -2.19,-2.51 -0.38,-0.2 -0.02,-0.82 0.34,-0.55 0.31,0.32 0.65,0.62 0.95,0.95 0.09,-0.49 0.67,-0.16 1,-0.22 0.25,-0.02 0.46,-0.06 0.67,-0.1 1.31,-0.24 2.63,-0.45 3.96,-0.47 z"
         id="path1499"
         style="fill:#80c5ab" />
      <path
         class="cls-70"
         d="m 97.68,24.98 c -0.06,0.12 -0.19,0.2 -0.33,0.2 l -0.2,-0.09 -0.19,-0.08 c -1.07,-0.58 -2.18,-1.18 -3.19,-1.81 -1.81,-0.92 -3.7,-1.81 -5.74,-2.04 -0.64,-0.08 -1.29,-0.19 -1.94,-0.22 -0.36,0 -0.71,0.11 -1.07,0.14 -0.2,0.02 -0.4,0.01 -0.59,-0.02 -0.22,-0.05 -0.3,-0.24 -0.27,-0.41 v 0 c 0,0 0,0 0,0 v 0 c 0,0 0,0 0,0 0.24,-0.07 0.49,-0.13 0.73,-0.21 v 0 0 0 c 0,0 0,0 0,0 v 0 0 c 0.09,-0.03 0.19,-0.06 0.28,-0.09 l 0.11,-0.02 0.14,-0.02 0.25,-0.02 c 0.13,-0.01 0.27,-0.03 0.4,-0.04 0.55,0 1.1,0.11 1.65,0.17 l 0.16,0.02 v 0 c 0,0 0,0 0,0 v 0 c 0.13,0.02 0.26,0.05 0.38,0.08 0.14,0.04 0.27,0.07 0.41,0.1 0.28,0.07 0.56,0.14 0.84,0.22 l 0.06,0.02 0.21,0.07 v 0 c 0,0 0.18,0.06 0.18,0.06 h -0.02 c 0,0 0,0 0,0 v 0 c 0,0 0,0 0,0 v 0 c 0,0 0,0 0,0 v 0 c 0.46,0.15 0.92,0.3 1.38,0.46 l 0.12,0.04 0.18,0.09 0.26,0.13 0.07,0.04 h -0.01 c 0.15,0.07 0.29,0.14 0.44,0.22 0.17,0.09 0.34,0.19 0.52,0.28 v 0 c 0,0 0,0 0,0 v 0 c 0,0 0,0 0,0 v 0 c 0,0 0,0 0,0 v 0 c 0.13,0.07 0.25,0.14 0.38,0.21 l 0.25,0.14 c 0.13,0.07 0.27,0.13 0.4,0.2 l 0.22,0.11 0.09,0.04 c 0.13,0.06 0.26,0.11 0.39,0.17 l 0.25,0.11 0.11,0.05 0.13,0.05 0.25,0.09 h -0.01 c 0,0 0.08,0.02 0.08,0.02 h 0.02 c 0,0 0,0 0,0 v 0 c 0,0 0,0 0,0 v 0 c 0,0 0,0 0,0 v 0 c 0,0 0,0 0,0 v 0 c 0,0 0,0 0,0 v 0 c 0,0 0,0 0,0 v 0 c 0,0 0,0 0,0 l 0.04,0.02 v 0 c 0,0 0,0 0,0 v 0 c 0,0 0,0 0,0 v 0 c 0,0 0,0 0,0 h 0.04 c 0,0 0,0.02 0,0.02 v 0 c 0,0 0,0 0,0 v 0 c 0,0 0,0 0,0 v 0 c 0,0 0,0 0,0 v 0 c 0,0 0,0 0,0 h 0.03 c 0.24,0.15 0.49,0.28 0.74,0.4 0.37,0.19 0.73,0.4 1.09,0.6 0.13,0.07 0.21,0.21 0.19,0.35 l -0.04,0.12 z"
         id="path1501"
         style="fill:#2b4294" />
      <path
         class="cls-70"
         d="m 97.98,25.13 c -0.08,0.14 -0.18,0.19 -0.3,0.19 v 0 c 0,0 0,0 0,0 v 0 c 0,0 0,0 0,0 v 0 c 0,0 0,0 0,0 v 0 c 0,0 0,0 0,0 -0.1,-0.05 -0.2,-0.09 -0.31,-0.13 v 0 c 0,0 0,0 0,0 v 0 c 0,0 -0.2,-0.09 -0.2,-0.09 l -0.05,-0.02 -0.07,-0.05 c -0.85,-0.45 -1.63,-0.87 -2.46,-1.32 -1.94,-0.98 -3.94,-1.85 -6.05,-2.36 -0.49,-0.12 -0.99,-0.22 -1.49,-0.28 -0.52,-0.08 -1.02,-0.15 -1.53,-0.06 -0.74,0.16 -0.91,-0.29 -0.73,-0.53 l 0.12,-0.04 v 0 c 0,0 0,0 0,0 0.12,-0.04 0.24,-0.07 0.37,-0.11 0.3,-0.01 0.59,-0.08 0.89,-0.07 0.78,0.08 1.52,0.17 2.28,0.35 2.44,0.58 4.77,1.57 6.98,2.76 0.61,0.35 1.24,0.66 1.85,0.99 0.12,0.06 0.22,0.14 0.33,0.21 0.22,0.09 0.43,0.21 0.41,0.44 l -0.03,0.13 z"
         id="path1503"
         style="fill:#2b4294" />
      <polygon
         class="cls-70"
         points="97.36,25.18 97.37,25.18 97.37,25.19 "
         id="polygon1505"
         style="fill:#2b4294" />
      <path
         class="cls-40"
         d="m 105.37,24.78 c -4.94,-0.27 -9.89,-0.23 -14.83,0.19 -4.89,0.42 -9.75,1.46 -14.67,1.55 -1.16,0.02 -2.35,0.02 -3.5,-0.13 -0.76,-0.1 -1.56,-0.49 -2.3,-0.54 -1.02,-0.07 -2,2.75 -1,2.89 0.22,0.03 1.33,-0.11 1.58,-0.12 1.15,-0.03 2.31,0.02 3.45,0.16 4.8,0.59 9.44,2.36 14.15,3.45 4.87,1.13 9.84,1.9 14.81,2.36 4.15,0.39 10.48,1.26 13.05,-3.03 3.33,-5.53 -3.43,-8.54 -7.52,-9.88 -4.53,-1.49 -9.35,-2.21 -14.11,-2.39 -9.85,-0.37 -19.51,1.66 -28.58,5.39 1.05,2.49 2.1,4.99 3.15,7.48 2.59,-1.93 5.19,-3.96 8.12,-5.36 2.9,-1.39 6.25,-1.93 9.46,-2 4.23,-0.1 8.43,0.54 12.61,1.12 4.7,0.65 9.39,1.31 14.09,1.96 2.19,0.3 4.4,-0.53 5.03,-2.86 0.53,-1.91 -0.66,-4.73 -2.86,-5.04 -4.97,-0.69 -9.93,-1.38 -14.9,-2.07 -4.88,-0.68 -9.82,-1.5 -14.76,-1.28 -4.1,0.18 -8.09,0.99 -11.85,2.65 -3.31,1.46 -6.19,3.66 -9.07,5.8 -1.63,1.22 -2.56,3.11 -1.67,5.11 0.74,1.68 2.92,3.16 4.83,2.37 6.52,-2.68 13.06,-4.46 20.11,-4.98 3.8,-0.28 7.69,-0.25 11.46,0.35 1.93,0.31 3.85,0.74 5.72,1.31 1.33,0.4 3.49,0.74 4.38,1.85 -0.35,-0.6 -0.7,-1.2 -1.05,-1.81 V 29.1 c 0.18,-0.69 0.36,-1.38 0.55,-2.07 0.41,-0.79 0.82,-0.31 -0.21,-0.3 -0.49,0 -0.98,0 -1.47,-0.02 -1.76,-0.05 -3.52,-0.22 -5.28,-0.39 -3.1,-0.31 -6.18,-0.8 -9.23,-1.42 -6.49,-1.32 -12.76,-3.71 -19.38,-4.35 -2.97,-0.29 -6.83,-0.43 -9.27,1.57 -2.82,2.31 -2.9,6.52 -0.48,9.18 2.24,2.47 5.71,3.03 8.87,3.31 3.34,0.29 6.69,-0.1 10.01,-0.54 7.52,-0.99 14.97,-1.53 22.56,-1.11 5.27,0.29 5.25,-7.9 0,-8.19 z"
         id="path1507"
         style="fill:#ff5738" />
      <path
         class="cls-69"
         d="m 55.26,51.7 c -0.09,-0.04 -0.2,-0.09 -0.34,-0.15 -0.15,-0.06 -0.28,-0.12 -0.38,-0.18 v 0 c 0,0 0,0 0,0 -0.27,-0.17 -0.48,-0.33 -0.62,-0.49 -0.13,-0.14 -0.25,-0.29 -0.38,-0.44 -0.13,-0.15 -0.28,-0.34 -0.45,-0.57 -0.17,-0.23 -0.36,-0.49 -0.55,-0.78 v 0 c 0,0 0,-0.02 0,-0.02 -0.65,-1.28 -0.98,-2.52 -0.98,-3.72 0,-0.65 0.05,-1.24 0.14,-1.78 0.09,-0.53 0.21,-1.01 0.37,-1.43 0.15,-0.42 0.33,-0.78 0.52,-1.1 0.19,-0.31 0.39,-0.57 0.59,-0.78 v 0 c 0.38,-0.39 0.7,-0.65 1.01,-0.76 0.27,-0.1 0.54,-0.17 0.81,-0.23 0.18,-0.05 0.27,-0.12 0.33,-0.24 0.07,-0.13 0.1,-0.28 0.1,-0.45 0,-0.2 -0.04,-0.32 -0.05,-0.32 v 0 c 0,0 0,0 0,0 v 0 c -0.24,-0.22 -0.49,-0.32 -0.77,-0.32 -0.32,0 -0.71,0.15 -1.18,0.48 -0.46,0.33 -0.97,0.86 -1.53,1.59 -0.35,0.46 -0.68,1.1 -0.96,1.91 -0.28,0.8 -0.43,1.77 -0.43,2.9 0,0.45 0.02,0.99 0.07,1.64 0.04,0.64 0.16,1.29 0.34,1.95 v 0 c 0.09,0.32 0.26,0.71 0.53,1.16 0.27,0.45 0.6,0.89 0.98,1.32 0.38,0.43 0.8,0.82 1.26,1.16 0.45,0.34 0.9,0.56 1.36,0.68 h 0.07 c 0,0 0.03,0.01 0.03,0.01 l 0.07,-0.03 0.11,-0.12 c 0.1,-0.15 0.15,-0.32 0.15,-0.51 0,-0.17 -0.06,-0.28 -0.2,-0.38 z"
         id="path1509"
         style="fill:#1c096b" />
      <path
         class="cls-11"
         d="m 104.48,27.38 c 0,-0.17 0,-0.35 0.01,-0.54 0,-0.19 0.01,-0.41 0.01,-0.68 l -0.03,-0.23 -0.03,-0.23 v -0.22 c 0,0 -0.06,-0.25 -0.06,-0.25 l -0.12,-0.2 c -0.05,-0.05 -0.13,-0.08 -0.22,-0.08 h -0.12 c 0,0 -0.13,0.01 -0.13,0.01 l -0.17,0.18 -0.05,0.25 c 0,0.12 0,0.25 0.01,0.37 0,0.13 0.01,0.25 0.01,0.37 0,0.43 0,0.84 0,1.23 0,0.39 0,0.81 0,1.27 0,0.1 0.05,0.19 0.16,0.26 0.11,0.07 0.19,0.11 0.27,0.11 l 0.21,-0.02 0.23,-0.1 c 0.08,-0.05 0.17,-0.14 0.26,-0.25 0.09,-0.11 0.2,-0.28 0.31,-0.49 0.09,-0.15 0.16,-0.3 0.22,-0.45 0.06,-0.15 0.12,-0.3 0.18,-0.45 0.06,-0.16 0.13,-0.32 0.21,-0.49 0.08,-0.17 0.17,-0.35 0.3,-0.55 0.07,0.09 0.13,0.2 0.17,0.34 0.04,0.14 0.07,0.29 0.1,0.44 0.03,0.15 0.05,0.32 0.08,0.47 0.02,0.16 0.05,0.29 0.09,0.42 0.03,0.1 0.05,0.23 0.07,0.38 0.02,0.15 0.05,0.3 0.09,0.44 0.04,0.14 0.1,0.26 0.17,0.36 0.07,0.1 0.17,0.15 0.3,0.15 0.09,0 0.19,-0.03 0.3,-0.08 0.11,-0.05 0.17,-0.14 0.19,-0.25 -0.09,-0.2 -0.15,-0.42 -0.19,-0.66 -0.04,-0.24 -0.08,-0.48 -0.11,-0.73 -0.03,-0.25 -0.07,-0.49 -0.12,-0.73 -0.05,-0.24 -0.12,-0.46 -0.21,-0.67 -0.04,-0.09 -0.08,-0.19 -0.1,-0.3 -0.02,-0.11 -0.05,-0.21 -0.09,-0.3 -0.03,-0.1 -0.08,-0.19 -0.14,-0.27 -0.06,-0.08 -0.15,-0.14 -0.28,-0.17 -0.14,0 -0.29,0.05 -0.42,0.16 -0.14,0.11 -0.26,0.24 -0.38,0.39 -0.12,0.16 -0.22,0.32 -0.3,0.49 -0.08,0.17 -0.15,0.31 -0.19,0.43 l -0.02,0.06 c -0.06,0.14 -0.12,0.3 -0.18,0.46 -0.06,0.16 -0.14,0.29 -0.24,0.39 V 27.37 Z M 101.9,26.5 c -0.01,0.14 -0.04,0.3 -0.07,0.45 -0.03,0.16 -0.08,0.31 -0.13,0.45 -0.05,0.14 -0.12,0.28 -0.21,0.4 -0.09,0.12 -0.19,0.22 -0.3,0.29 l -0.22,0.09 -0.22,0.04 -0.21,-0.11 c -0.05,-0.07 -0.1,-0.16 -0.12,-0.25 -0.02,-0.09 -0.05,-0.18 -0.06,-0.27 l -0.02,-0.17 c 0,-0.14 0.02,-0.3 0.05,-0.48 0.03,-0.18 0.08,-0.36 0.16,-0.52 0.07,-0.16 0.16,-0.3 0.26,-0.41 0.1,-0.11 0.22,-0.17 0.37,-0.17 0.18,0 0.35,0.05 0.5,0.14 0.15,0.09 0.23,0.25 0.23,0.45 v 0.05 z m -1,2.53 h 0.12 c 0,0 0.11,0.01 0.11,0.01 0.13,0 0.26,-0.04 0.38,-0.11 0.13,-0.08 0.25,-0.17 0.36,-0.28 0.12,-0.11 0.22,-0.22 0.31,-0.35 0.09,-0.12 0.17,-0.23 0.23,-0.33 0.12,-0.18 0.21,-0.37 0.3,-0.56 0.08,-0.19 0.13,-0.4 0.14,-0.62 v -0.44 c 0,0 -0.08,-0.22 -0.08,-0.22 -0.04,-0.09 -0.09,-0.18 -0.13,-0.27 -0.04,-0.09 -0.1,-0.17 -0.18,-0.24 -0.09,-0.08 -0.19,-0.14 -0.3,-0.19 -0.11,-0.05 -0.22,-0.1 -0.33,-0.14 -0.11,-0.04 -0.22,-0.09 -0.33,-0.13 -0.11,-0.04 -0.21,-0.1 -0.31,-0.16 L 101,24.94 c -0.16,0 -0.31,0.05 -0.47,0.15 -0.15,0.1 -0.29,0.22 -0.41,0.35 -0.12,0.13 -0.22,0.27 -0.3,0.41 -0.08,0.14 -0.13,0.25 -0.15,0.33 -0.04,0.19 -0.09,0.39 -0.15,0.61 -0.06,0.22 -0.08,0.41 -0.08,0.57 0,0.32 0.06,0.6 0.19,0.82 0.13,0.22 0.31,0.4 0.55,0.54 0.11,0.06 0.21,0.13 0.31,0.2 0.1,0.07 0.21,0.1 0.33,0.1 h 0.07 z m -2.55,-2.27 c 0,0 -0.07,-0.11 -0.11,-0.2 -0.04,-0.09 -0.09,-0.19 -0.14,-0.29 -0.05,-0.1 -0.09,-0.2 -0.12,-0.3 -0.03,-0.1 -0.05,-0.17 -0.05,-0.22 v -0.26 c 0,-0.14 0.02,-0.29 0.06,-0.43 0.04,-0.14 0.1,-0.27 0.19,-0.38 l 0.11,-0.1 0.06,-0.14 -0.11,-0.2 -0.18,-0.11 H 98 c 0,0 -0.06,-0.01 -0.06,-0.01 -0.19,0 -0.34,0.05 -0.46,0.15 -0.12,0.1 -0.21,0.23 -0.29,0.39 -0.08,0.16 -0.12,0.33 -0.15,0.51 -0.03,0.18 -0.04,0.36 -0.04,0.54 0,0.21 0.04,0.42 0.13,0.62 0.09,0.21 0.19,0.42 0.31,0.66 0.12,0.24 0.24,0.48 0.36,0.74 0.12,0.26 0.22,0.56 0.3,0.88 v 0.11 c 0.01,0.17 -0.04,0.3 -0.13,0.41 -0.09,0.11 -0.2,0.16 -0.32,0.16 l -0.26,-0.13 -0.17,0.07 -0.08,0.12 c 0.01,0.15 0.08,0.29 0.21,0.41 0.13,0.12 0.27,0.18 0.42,0.18 0.17,0 0.34,-0.04 0.49,-0.11 0.15,-0.07 0.28,-0.17 0.39,-0.29 0.11,-0.12 0.19,-0.26 0.25,-0.42 0.06,-0.16 0.09,-0.33 0.09,-0.51 0,-0.35 -0.06,-0.66 -0.18,-0.94 -0.12,-0.28 -0.26,-0.55 -0.4,-0.83 l -0.04,-0.09 z m -2.11,1.91 C 96.23,28.55 96.2,28.37 96.17,28.14 96.14,27.91 96.1,27.65 96.07,27.37 96.03,27.09 96,26.79 95.97,26.48 95.94,26.17 95.93,25.88 95.93,25.6 v -0.23 c 0,0 0.02,-0.22 0.02,-0.22 l -0.14,-0.16 c -0.05,-0.05 -0.13,-0.1 -0.23,-0.12 l -0.22,0.04 -0.21,0.05 c -0.12,0.08 -0.18,0.19 -0.18,0.35 0,0.37 0.02,0.72 0.07,1.05 0.04,0.33 0.06,0.68 0.06,1.05 0,0.12 0.01,0.25 0.04,0.37 0.03,0.12 0.04,0.25 0.04,0.37 0,0.21 0.02,0.38 0.06,0.5 0.04,0.12 0.1,0.22 0.18,0.28 0.08,0.06 0.17,0.11 0.27,0.13 0.1,0.02 0.22,0.03 0.34,0.03 l 0.16,-0.21 0.04,-0.17 v -0.04 z m -1.15,-5.86 -0.03,0.23 0.06,0.11 0.16,0.11 0.22,0.09 0.24,0.04 c 0.12,0 0.22,-0.02 0.29,-0.07 0.07,-0.05 0.1,-0.14 0.1,-0.28 L 96.07,22.86 95.91,22.7 95.7,22.59 95.48,22.55 c -0.09,0 -0.16,0.02 -0.2,0.05 -0.12,0.06 -0.18,0.13 -0.2,0.19 z m -3.86,5.35 c 0,-0.19 0.03,-0.4 0.1,-0.61 0.07,-0.21 0.15,-0.4 0.25,-0.58 0.02,-0.04 0.06,-0.12 0.12,-0.27 0.06,-0.14 0.13,-0.29 0.22,-0.44 0.09,-0.15 0.2,-0.29 0.32,-0.41 0.12,-0.12 0.26,-0.18 0.42,-0.18 l 0.1,0.02 0.1,0.04 -0.04,0.18 -0.1,0.23 -0.12,0.24 -0.1,0.22 c -0.05,0.14 -0.13,0.31 -0.23,0.49 -0.1,0.18 -0.22,0.36 -0.34,0.52 -0.12,0.17 -0.25,0.31 -0.37,0.43 -0.12,0.12 -0.23,0.18 -0.33,0.19 v -0.02 c 0,0 -0.01,-0.02 -0.01,-0.02 v -0.05 z m 2.98,0.4 -0.06,-0.4 C 94.07,27.84 94.02,27.53 93.99,27.23 93.96,26.94 93.92,26.61 93.87,26.25 93.85,26.06 93.82,25.88 93.77,25.71 93.73,25.54 93.64,25.4 93.52,25.3 l -0.21,-0.14 -0.25,-0.12 -0.25,-0.08 -0.22,-0.03 c -0.3,0 -0.59,0.12 -0.86,0.35 -0.27,0.23 -0.51,0.52 -0.71,0.85 -0.21,0.33 -0.37,0.67 -0.49,1.02 -0.12,0.35 -0.18,0.64 -0.18,0.88 0,0.11 0.01,0.23 0.03,0.35 0.02,0.13 0.06,0.24 0.12,0.34 0.06,0.1 0.14,0.19 0.25,0.25 0.11,0.07 0.25,0.1 0.43,0.1 0.22,0 0.43,-0.08 0.65,-0.23 0.22,-0.15 0.41,-0.33 0.6,-0.55 0.18,-0.21 0.33,-0.44 0.45,-0.67 0.12,-0.23 0.19,-0.42 0.21,-0.57 0.04,0.22 0.07,0.46 0.11,0.73 0.04,0.27 0.09,0.53 0.15,0.77 0.06,0.24 0.13,0.44 0.23,0.61 0.09,0.16 0.21,0.24 0.36,0.24 l 0.14,-0.02 0.15,-0.05 0.12,-0.09 0.05,-0.14 -0.03,-0.18 -0.06,-0.18 -0.08,-0.22 z m -4.77,-2.61 c 0,-0.2 -0.01,-0.36 -0.04,-0.47 -0.03,-0.11 -0.07,-0.19 -0.12,-0.24 l -0.18,-0.12 -0.24,-0.1 c -0.19,0.01 -0.37,0.07 -0.51,0.17 -0.15,0.1 -0.28,0.22 -0.39,0.36 -0.11,0.14 -0.21,0.29 -0.29,0.45 -0.08,0.16 -0.16,0.31 -0.22,0.45 l -0.09,0.18 c -0.04,0.08 -0.07,0.16 -0.11,0.25 -0.04,0.09 -0.07,0.18 -0.1,0.26 l -0.07,0.2 c -0.05,-0.21 -0.1,-0.44 -0.16,-0.7 -0.06,-0.26 -0.11,-0.49 -0.18,-0.7 -0.03,-0.12 -0.05,-0.24 -0.07,-0.37 -0.02,-0.13 -0.05,-0.25 -0.09,-0.36 -0.04,-0.11 -0.11,-0.2 -0.19,-0.27 -0.09,-0.07 -0.21,-0.11 -0.37,-0.11 -0.14,0 -0.27,0.06 -0.39,0.18 -0.12,0.12 -0.22,0.23 -0.3,0.34 -0.06,0.08 -0.13,0.17 -0.19,0.28 -0.06,0.11 -0.13,0.22 -0.19,0.34 -0.06,0.12 -0.12,0.24 -0.17,0.35 -0.05,0.12 -0.1,0.22 -0.15,0.31 l -0.02,-0.17 c 0,-0.09 0,-0.18 0.02,-0.28 0.01,-0.1 0.02,-0.19 0.02,-0.27 0,-0.09 0,-0.19 -0.01,-0.3 0,-0.11 -0.03,-0.22 -0.06,-0.31 -0.03,-0.1 -0.08,-0.18 -0.16,-0.24 -0.08,-0.06 -0.17,-0.1 -0.3,-0.1 -0.1,0 -0.19,0.04 -0.28,0.11 -0.09,0.07 -0.13,0.16 -0.13,0.26 l 0.04,0.23 0.04,0.23 v 0.09 c 0,0 0.03,0.1 0.03,0.1 0,0.06 0.01,0.19 0.02,0.36 0,0.18 0.01,0.47 0.01,0.87 v 0.16 c -0.02,0.09 -0.03,0.18 -0.03,0.28 0,0.1 -0.01,0.19 -0.02,0.28 v 0.16 c 0,0 -0.02,0.23 -0.02,0.23 l -0.03,0.22 0.03,0.18 0.09,0.18 0.14,0.15 0.17,0.06 c 0.19,0 0.33,-0.04 0.42,-0.14 0.09,-0.1 0.14,-0.21 0.18,-0.35 0.04,-0.14 0.08,-0.3 0.11,-0.47 0.03,-0.17 0.1,-0.34 0.19,-0.5 0.04,-0.09 0.08,-0.2 0.12,-0.35 0.04,-0.15 0.1,-0.3 0.16,-0.46 0.06,-0.15 0.13,-0.3 0.21,-0.45 0.08,-0.14 0.16,-0.26 0.27,-0.34 0.06,0.09 0.11,0.2 0.16,0.34 0.05,0.14 0.09,0.28 0.13,0.44 0.04,0.16 0.07,0.31 0.1,0.47 0.03,0.16 0.04,0.31 0.06,0.44 0.02,0.13 0.04,0.28 0.06,0.44 0.02,0.16 0.05,0.32 0.09,0.48 0.04,0.15 0.1,0.28 0.17,0.38 0.07,0.1 0.18,0.15 0.32,0.15 0.1,0 0.19,-0.02 0.28,-0.06 0.06,-0.12 0.12,-0.24 0.15,-0.35 0.03,-0.11 0.07,-0.22 0.1,-0.32 0.03,-0.11 0.06,-0.22 0.09,-0.33 0.03,-0.11 0.08,-0.23 0.14,-0.35 0.05,-0.12 0.11,-0.24 0.18,-0.38 0.07,-0.14 0.15,-0.29 0.22,-0.43 0.08,-0.15 0.15,-0.29 0.23,-0.43 0.08,-0.14 0.15,-0.27 0.21,-0.39 0.04,0.12 0.06,0.24 0.07,0.36 0.01,0.12 0.02,0.23 0.03,0.35 0.01,0.12 0.02,0.23 0.04,0.35 0.01,0.12 0.04,0.24 0.09,0.35 0.02,0.07 0.04,0.2 0.05,0.37 0.01,0.18 0.04,0.36 0.08,0.54 0.04,0.18 0.1,0.35 0.18,0.49 0.08,0.14 0.2,0.21 0.35,0.21 0.14,0 0.25,-0.04 0.35,-0.13 0.1,-0.09 0.15,-0.21 0.15,-0.38 0,-0.15 -0.03,-0.3 -0.1,-0.45 -0.07,-0.15 -0.11,-0.3 -0.12,-0.44 -0.04,-0.29 -0.08,-0.56 -0.13,-0.82 -0.05,-0.26 -0.08,-0.53 -0.08,-0.82 v -0.16 z m -12.19,2.21 c 0,-0.19 0.03,-0.4 0.1,-0.61 0.07,-0.21 0.15,-0.4 0.25,-0.58 0.02,-0.04 0.06,-0.12 0.12,-0.27 0.06,-0.14 0.13,-0.29 0.22,-0.44 0.09,-0.15 0.2,-0.29 0.32,-0.41 0.12,-0.12 0.26,-0.18 0.42,-0.18 l 0.1,0.02 0.1,0.04 -0.04,0.18 -0.1,0.23 -0.12,0.24 -0.1,0.22 c -0.05,0.14 -0.13,0.31 -0.23,0.49 -0.1,0.18 -0.22,0.36 -0.34,0.52 -0.12,0.17 -0.25,0.31 -0.37,0.43 -0.12,0.12 -0.23,0.18 -0.33,0.19 v -0.02 c 0,0 -0.01,-0.02 -0.01,-0.02 v -0.05 z m 2.98,0.4 -0.06,-0.4 C 80.09,27.84 80.04,27.53 80.01,27.23 79.98,26.94 79.94,26.61 79.89,26.25 79.87,26.06 79.84,25.88 79.79,25.71 79.75,25.54 79.66,25.4 79.54,25.3 l -0.21,-0.14 -0.25,-0.12 -0.25,-0.08 -0.22,-0.03 c -0.3,0 -0.59,0.12 -0.86,0.35 -0.27,0.23 -0.51,0.52 -0.71,0.85 -0.21,0.33 -0.37,0.67 -0.49,1.02 -0.12,0.35 -0.18,0.64 -0.18,0.88 0,0.11 0.01,0.23 0.03,0.35 0.02,0.13 0.06,0.24 0.12,0.34 0.06,0.1 0.14,0.19 0.25,0.25 0.11,0.07 0.25,0.1 0.43,0.1 0.22,0 0.43,-0.08 0.65,-0.23 0.22,-0.15 0.41,-0.33 0.6,-0.55 0.18,-0.21 0.33,-0.44 0.45,-0.67 0.12,-0.23 0.19,-0.42 0.21,-0.57 0.04,0.22 0.07,0.46 0.11,0.73 0.04,0.27 0.09,0.53 0.15,0.77 0.06,0.24 0.13,0.44 0.23,0.61 0.09,0.16 0.21,0.24 0.36,0.24 l 0.14,-0.02 0.15,-0.05 0.12,-0.09 0.05,-0.14 -0.03,-0.18 -0.06,-0.18 -0.08,-0.22 z m -7.11,0.66 c 0.09,0.13 0.18,0.19 0.28,0.19 l 0.13,-0.03 c 0.19,-0.08 0.39,-0.18 0.6,-0.31 0.21,-0.13 0.44,-0.28 0.69,-0.46 l 1.27,-0.9 0.06,-0.18 -0.06,-0.22 c -0.06,-0.12 -0.17,-0.17 -0.31,-0.17 l -0.2,0.02 c -0.09,0.01 -0.15,0.02 -0.19,0.02 -0.08,0.04 -0.18,0.1 -0.31,0.18 -0.13,0.08 -0.28,0.19 -0.46,0.31 -0.34,0.23 -0.6,0.38 -0.79,0.46 v -0.3 c 0,-0.29 0,-0.63 0.02,-1.02 0.01,-0.39 0.03,-0.83 0.07,-1.33 0.03,-0.45 0.05,-0.86 0.06,-1.22 C 73.99,23.9 74,23.58 74,23.3 c 0,-0.09 0,-0.18 0,-0.26 v -0.23 c -0.05,-0.2 -0.21,-0.3 -0.48,-0.3 -0.14,0 -0.26,0.05 -0.36,0.14 0.01,0.17 0.02,0.33 0.03,0.5 0,0.17 0.01,0.35 0.01,0.54 0,0.54 -0.05,1.41 -0.16,2.61 -0.04,0.5 -0.07,0.95 -0.09,1.35 -0.02,0.4 -0.03,0.76 -0.03,1.07 v 0.24 l 0.21,0.27 z"
         id="path1511"
         style="fill:#ffffff" />
      <path
         class="cls-69"
         d="m 56.03,48.62 c 0.02,-0.29 0.05,-0.6 0.08,-0.94 0.03,-0.34 0.05,-0.71 0.05,-1.11 v -1.62 c 0,-0.68 0,-1.3 0.02,-1.86 0.01,-0.56 0.06,-1.07 0.14,-1.55 0.1,-0.56 0.61,-0.85 1.53,-0.85 h 0.21 c 0.54,0.02 1,0.29 1.4,0.8 0.37,0.46 0.55,0.97 0.55,1.55 0,0.47 -0.17,0.93 -0.52,1.4 -0.31,0.42 -0.67,0.75 -1.09,1.01 l -0.21,0.14 -0.07,0.16 0.07,0.17 c 0,0 0.12,0.11 0.23,0.2 l 0.48,0.4 1.65,1.55 c 0.34,0.32 0.63,0.61 0.88,0.89 0.25,0.27 0.44,0.53 0.58,0.78 l 0.04,0.13 c 0,0.23 -0.24,0.4 -0.71,0.52 -0.53,-0.4 -1.18,-1.02 -1.96,-1.87 -0.45,-0.48 -0.83,-0.88 -1.15,-1.2 -0.32,-0.32 -0.59,-0.58 -0.8,-0.77 -0.02,0.13 -0.04,0.36 -0.07,0.7 -0.03,0.34 -0.06,0.78 -0.1,1.32 -0.05,0.82 -0.14,1.48 -0.27,1.96 l -0.15,0.07 -0.24,0.07 h -0.03 c 0,0 -0.03,-0.01 -0.03,-0.01 -0.44,-0.11 -0.65,-0.41 -0.65,-0.91 0,-0.08 0,-0.17 0.01,-0.28 0.01,-0.11 0.02,-0.21 0.04,-0.32 l 0.07,-0.54 z m 2.87,-6.04 c -0.03,-0.21 -0.12,-0.4 -0.26,-0.57 -0.14,-0.17 -0.37,-0.25 -0.69,-0.25 -0.24,0 -0.39,0.07 -0.45,0.22 -0.02,0.14 -0.04,0.28 -0.05,0.42 -0.01,0.14 -0.02,0.29 -0.02,0.42 0,0.13 0.01,0.46 0.04,1 0,0.11 0,0.21 0,0.3 v 0.25 c 0,0 0,0.24 0,0.24 v 0.21 c 0.82,-0.6 1.28,-1.2 1.39,-1.77 l 0.02,-0.19 V 42.7 c 0,0 0,-0.12 0,-0.12 z"
         id="path1513"
         style="fill:#1c096b" />
      <path
         class="cls-69"
         d="m 62.23,45.7 c 0.02,-0.09 0.09,-0.17 0.22,-0.24 0.15,-0.08 0.23,-0.16 0.25,-0.24 0,-0.04 0.02,-0.17 0.04,-0.4 0.02,-0.23 0.04,-0.57 0.07,-1.01 -0.55,-0.1 -0.82,-0.31 -0.82,-0.62 0,-0.29 0.18,-0.52 0.52,-0.68 l 0.95,-0.39 c 0.19,-0.1 0.4,-0.19 0.62,-0.27 0.23,-0.08 0.48,-0.16 0.76,-0.24 0.25,-0.07 0.49,-0.13 0.73,-0.19 0.24,-0.06 0.48,-0.12 0.73,-0.18 0.02,0 0.08,-0.02 0.18,-0.02 0.27,0 0.58,0.1 0.94,0.31 0,0.04 0.03,0.11 0.07,0.22 0.04,0.11 0.06,0.19 0.06,0.24 l -0.1,0.19 c -0.19,0.08 -0.42,0.16 -0.68,0.25 -0.27,0.08 -0.58,0.18 -0.94,0.28 -0.36,0.1 -0.67,0.19 -0.94,0.28 -0.27,0.08 -0.5,0.17 -0.68,0.25 -0.04,0.12 -0.08,0.32 -0.11,0.61 -0.04,0.29 -0.06,0.66 -0.08,1.12 0.16,0.06 0.34,0.09 0.55,0.09 0.08,0 0.18,0 0.29,-0.02 0.11,-0.01 0.25,-0.03 0.41,-0.05 0.16,-0.02 0.29,-0.04 0.41,-0.05 0.11,-0.02 0.21,-0.02 0.29,-0.02 0.28,0 0.52,0.06 0.71,0.18 0.14,0.2 0.21,0.33 0.21,0.39 l -0.1,0.16 -0.07,0.06 -0.14,0.15 c -0.06,0.08 -0.16,0.12 -0.3,0.12 -0.21,0.04 -0.59,0.07 -1.15,0.09 -0.47,0.02 -0.84,0.08 -1.12,0.18 -0.19,0.69 -0.28,1.27 -0.28,1.74 0,0.27 0.04,0.5 0.12,0.68 0.41,0.29 1.08,0.43 2.01,0.43 h 0.2 c 0,0 0.22,-0.02 0.22,-0.02 l 0.25,-0.11 0.22,-0.11 h 0.04 c 0,0 0.04,-0.01 0.04,-0.01 0.24,0 0.39,0.21 0.46,0.64 v 0.06 c 0,0 0.01,0.06 0.01,0.06 0,0.14 -0.04,0.26 -0.13,0.36 -0.08,0.1 -0.2,0.16 -0.33,0.17 h -0.27 c 0,0 -0.27,0.02 -0.27,0.02 -0.95,0 -1.81,-0.1 -2.59,-0.3 -0.28,-0.07 -0.53,-0.22 -0.76,-0.46 -0.23,-0.24 -0.36,-0.51 -0.39,-0.8 -0.02,-0.22 -0.04,-0.43 -0.05,-0.62 -0.01,-0.2 -0.02,-0.4 -0.02,-0.6 0,-0.2 0,-0.39 0.02,-0.57 0.01,-0.18 0.03,-0.36 0.05,-0.53 -0.25,-0.18 -0.37,-0.34 -0.37,-0.49 v -0.06 z"
         id="path1515"
         style="fill:#1c096b" />
      <path
         class="cls-69"
         d="m 84.84,46.42 c -0.15,0.35 -0.33,0.67 -0.54,0.96 -0.21,0.29 -0.43,0.55 -0.68,0.76 -0.25,0.21 -0.51,0.38 -0.79,0.5 -0.28,0.12 -0.57,0.18 -0.87,0.18 -0.21,0 -0.44,-0.05 -0.71,-0.16 -0.26,-0.11 -0.51,-0.27 -0.74,-0.49 -0.23,-0.22 -0.43,-0.48 -0.6,-0.8 -0.16,-0.31 -0.25,-0.68 -0.25,-1.09 0,-0.33 0.06,-0.71 0.19,-1.14 0.12,-0.43 0.29,-0.84 0.49,-1.23 0.2,-0.39 0.44,-0.71 0.71,-0.98 0.27,-0.27 0.54,-0.4 0.83,-0.4 l 0.17,0.03 0.15,0.07 0.2,0.12 c 0.08,0.05 0.19,0.1 0.33,0.16 0.09,0.04 0.19,0.08 0.31,0.13 0.11,0.04 0.25,0.09 0.41,0.14 0.3,0.1 0.54,0.26 0.74,0.48 0.2,0.22 0.36,0.45 0.48,0.71 0.12,0.26 0.2,0.5 0.25,0.74 0.04,0.24 0.07,0.44 0.07,0.59 0,0.29 -0.05,0.53 -0.15,0.73 z M 83.65,45.5 C 83.6,45.1 83.52,44.78 83.4,44.54 83.29,44.3 83.13,44.18 82.93,44.18 c -0.06,0 -0.14,0.04 -0.23,0.11 -0.09,0.07 -0.19,0.16 -0.28,0.25 -0.09,0.09 -0.18,0.17 -0.27,0.25 l -0.17,0.11 c -0.08,0 -0.17,-0.04 -0.28,-0.12 -0.11,-0.08 -0.18,-0.12 -0.22,-0.12 -0.1,0 -0.19,0.05 -0.26,0.16 -0.07,0.11 -0.14,0.23 -0.19,0.37 -0.05,0.14 -0.09,0.3 -0.11,0.46 -0.02,0.16 -0.04,0.31 -0.04,0.42 0,0.26 0.04,0.49 0.12,0.7 0.08,0.21 0.17,0.39 0.28,0.54 0.11,0.15 0.22,0.26 0.33,0.34 0.11,0.08 0.2,0.12 0.26,0.12 0.19,0 0.39,-0.07 0.59,-0.2 0.21,-0.13 0.4,-0.31 0.57,-0.51 0.17,-0.21 0.32,-0.44 0.43,-0.68 0.11,-0.25 0.17,-0.49 0.17,-0.71 v -0.15 z"
         id="path1517"
         style="fill:#1c096b" />
      <path
         class="cls-69"
         d="m 86.15,50.28 c -0.03,-0.55 -0.04,-1.13 -0.04,-1.74 0,-1.05 0.06,-2.37 0.18,-3.94 l 0.31,-3.99 c 0,-0.22 0.2,-0.33 0.58,-0.33 0.08,0 0.19,0.03 0.33,0.09 0.14,0.06 0.29,0.15 0.45,0.28 0.16,0.31 0.34,0.7 0.54,1.19 0.2,0.49 0.41,1.07 0.64,1.76 0.23,0.65 0.45,1.28 0.66,1.87 0.21,0.59 0.41,1.12 0.6,1.56 l 0.59,-6.46 c 0.02,-0.2 0.16,-0.3 0.43,-0.3 0.09,0 0.19,0.01 0.31,0.04 l 0.28,0.07 c 0.1,0.04 0.16,0.11 0.19,0.21 l -0.4,4 c -0.08,0.8 -0.14,1.53 -0.19,2.19 -0.05,0.66 -0.07,1.25 -0.07,1.79 v 0.51 c 0,0.17 0,0.35 0.03,0.54 0,0.15 -0.06,0.28 -0.19,0.39 -0.12,0.11 -0.26,0.17 -0.41,0.17 -0.31,0 -0.57,-0.21 -0.77,-0.62 -0.16,-0.31 -0.33,-0.69 -0.52,-1.14 -0.19,-0.45 -0.39,-0.95 -0.6,-1.5 -0.21,-0.54 -0.43,-1.13 -0.66,-1.75 -0.23,-0.62 -0.46,-1.27 -0.7,-1.93 l -0.08,-0.09 c -0.07,0 -0.11,0.07 -0.13,0.21 -0.04,0.36 -0.07,0.74 -0.09,1.15 -0.02,0.41 -0.03,0.84 -0.04,1.27 0,0.44 0,0.87 0,1.31 v 1.23 c 0,0.38 0,0.76 0.01,1.14 0.01,0.38 0.03,0.77 0.04,1.17 v 0.06 c 0,0.27 -0.08,0.45 -0.25,0.54 l -0.22,0.1 c -0.08,0 -0.17,-0.03 -0.27,-0.09 L 86.41,51.11 C 86.28,51.07 86.2,50.95 86.17,50.75 l -0.03,-0.49 z"
         id="path1519"
         style="fill:#1c096b" />
      <path
         class="cls-69"
         d="m 93.33,50.28 c -0.03,-0.55 -0.04,-1.13 -0.04,-1.74 0,-1.05 0.06,-2.37 0.18,-3.94 l 0.31,-3.99 c 0,-0.22 0.2,-0.33 0.58,-0.33 0.08,0 0.19,0.03 0.33,0.09 0.14,0.06 0.29,0.15 0.45,0.28 0.16,0.31 0.34,0.7 0.54,1.19 0.2,0.49 0.41,1.07 0.64,1.76 0.23,0.65 0.45,1.28 0.66,1.87 0.21,0.59 0.42,1.12 0.6,1.56 l 0.59,-6.46 c 0.02,-0.2 0.16,-0.3 0.43,-0.3 0.09,0 0.19,0.01 0.31,0.04 l 0.28,0.07 c 0.1,0.04 0.16,0.11 0.19,0.21 l -0.4,4 c -0.08,0.8 -0.14,1.53 -0.19,2.19 -0.04,0.65 -0.07,1.25 -0.07,1.79 v 0.51 c 0,0.17 0,0.35 0.03,0.54 0,0.15 -0.06,0.28 -0.19,0.39 -0.12,0.11 -0.26,0.17 -0.41,0.17 -0.31,0 -0.57,-0.21 -0.77,-0.62 -0.16,-0.31 -0.33,-0.69 -0.52,-1.14 -0.19,-0.45 -0.39,-0.95 -0.6,-1.5 -0.21,-0.54 -0.43,-1.13 -0.66,-1.75 -0.23,-0.62 -0.46,-1.27 -0.7,-1.93 l -0.08,-0.09 c -0.07,0 -0.11,0.07 -0.13,0.21 -0.04,0.36 -0.07,0.74 -0.09,1.15 -0.02,0.41 -0.03,0.84 -0.04,1.27 0,0.44 0,0.87 0,1.31 v 1.23 c 0,0.38 0,0.76 0.02,1.14 0,0.38 0.02,0.77 0.04,1.17 v 0.06 c 0,0.27 -0.08,0.45 -0.25,0.54 l -0.22,0.1 c -0.08,0 -0.17,-0.03 -0.27,-0.09 L 93.6,51.11 c -0.13,-0.04 -0.21,-0.16 -0.24,-0.36 l -0.03,-0.49 z"
         id="path1521"
         style="fill:#1c096b" />
      <path
         class="cls-69"
         d="m 100.32,45.7 c 0.02,-0.09 0.09,-0.17 0.22,-0.24 0.15,-0.08 0.23,-0.16 0.25,-0.24 0,-0.04 0.02,-0.17 0.04,-0.4 0.02,-0.23 0.04,-0.57 0.08,-1.01 -0.55,-0.1 -0.82,-0.31 -0.82,-0.62 0,-0.29 0.18,-0.52 0.52,-0.68 l 0.95,-0.39 c 0.19,-0.1 0.4,-0.19 0.62,-0.27 0.23,-0.08 0.48,-0.16 0.76,-0.24 0.25,-0.07 0.49,-0.13 0.73,-0.19 0.24,-0.06 0.48,-0.12 0.73,-0.18 0.02,0 0.08,-0.02 0.18,-0.02 0.27,0 0.58,0.1 0.94,0.31 0,0.04 0.03,0.11 0.07,0.22 0.04,0.11 0.06,0.19 0.06,0.24 l -0.1,0.19 c -0.19,0.08 -0.42,0.16 -0.68,0.25 -0.27,0.08 -0.58,0.18 -0.94,0.28 -0.36,0.1 -0.67,0.19 -0.94,0.28 -0.27,0.08 -0.5,0.17 -0.68,0.25 -0.04,0.12 -0.08,0.32 -0.11,0.61 -0.03,0.29 -0.06,0.66 -0.08,1.12 0.16,0.06 0.34,0.09 0.55,0.09 0.08,0 0.18,0 0.29,-0.02 0.11,-0.01 0.25,-0.03 0.41,-0.05 0.16,-0.02 0.29,-0.04 0.41,-0.05 0.11,-0.02 0.21,-0.02 0.29,-0.02 0.28,0 0.52,0.06 0.71,0.18 0.14,0.2 0.21,0.33 0.21,0.39 l -0.1,0.16 -0.07,0.06 -0.14,0.15 c -0.06,0.08 -0.16,0.12 -0.3,0.12 -0.21,0.04 -0.59,0.07 -1.15,0.09 -0.47,0.02 -0.84,0.08 -1.12,0.18 -0.19,0.69 -0.28,1.27 -0.28,1.74 0,0.27 0.04,0.5 0.12,0.68 0.41,0.29 1.08,0.43 2.01,0.43 h 0.2 c 0,0 0.22,-0.02 0.22,-0.02 l 0.25,-0.11 0.22,-0.11 h 0.04 c 0,0 0.04,-0.01 0.04,-0.01 0.24,0 0.39,0.21 0.46,0.64 v 0.06 c 0,0 0.01,0.06 0.01,0.06 0,0.14 -0.04,0.26 -0.13,0.36 -0.08,0.1 -0.2,0.16 -0.33,0.17 h -0.27 c 0,0 -0.27,0.02 -0.27,0.02 -0.95,0 -1.81,-0.1 -2.59,-0.3 -0.28,-0.07 -0.53,-0.22 -0.76,-0.46 -0.23,-0.24 -0.36,-0.51 -0.39,-0.8 -0.02,-0.22 -0.04,-0.43 -0.05,-0.62 -0.01,-0.2 -0.02,-0.4 -0.02,-0.6 0,-0.2 0,-0.39 0.02,-0.57 0.02,-0.18 0.03,-0.36 0.05,-0.53 -0.25,-0.18 -0.37,-0.34 -0.37,-0.49 v -0.06 z"
         id="path1523"
         style="fill:#1c096b" />
      <path
         class="cls-69"
         d="m 55.26,51.7 c -0.09,-0.04 -0.2,-0.09 -0.34,-0.15 -0.15,-0.06 -0.28,-0.12 -0.38,-0.18 v 0 c 0,0 0,0 0,0 -0.27,-0.17 -0.48,-0.33 -0.62,-0.49 -0.13,-0.14 -0.25,-0.29 -0.38,-0.44 -0.13,-0.15 -0.28,-0.34 -0.45,-0.57 -0.17,-0.23 -0.36,-0.49 -0.55,-0.78 v 0 c 0,0 0,-0.02 0,-0.02 -0.65,-1.28 -0.98,-2.52 -0.98,-3.72 0,-0.65 0.05,-1.24 0.14,-1.78 0.09,-0.53 0.21,-1.01 0.37,-1.43 0.15,-0.42 0.33,-0.78 0.52,-1.1 0.19,-0.31 0.39,-0.57 0.59,-0.78 0.38,-0.39 0.7,-0.65 1.01,-0.76 0.27,-0.1 0.54,-0.17 0.81,-0.23 0.18,-0.05 0.27,-0.12 0.33,-0.24 0.07,-0.13 0.1,-0.28 0.1,-0.45 0,-0.2 -0.04,-0.32 -0.05,-0.32 v 0 c 0,0 0,0 0,0 v 0 c -0.24,-0.22 -0.49,-0.32 -0.77,-0.32 -0.32,0 -0.72,0.15 -1.18,0.48 -0.46,0.33 -0.97,0.86 -1.53,1.59 -0.35,0.46 -0.68,1.1 -0.96,1.91 -0.28,0.8 -0.43,1.77 -0.43,2.9 0,0.45 0.02,0.99 0.07,1.64 0.04,0.64 0.16,1.29 0.34,1.95 v 0 c 0.09,0.32 0.26,0.71 0.53,1.16 0.27,0.45 0.6,0.89 0.98,1.32 0.38,0.43 0.8,0.82 1.26,1.16 0.45,0.34 0.9,0.56 1.36,0.68 h 0.07 c 0,0 0.03,0.01 0.03,0.01 l 0.07,-0.03 0.11,-0.12 c 0.1,-0.15 0.15,-0.32 0.15,-0.51 0,-0.17 -0.06,-0.28 -0.2,-0.38 z"
         id="path1525"
         style="fill:#1c096b" />
      <path
         class="cls-69"
         d="m 70.44,50.67 c 0.35,-0.46 0.68,-1.1 0.96,-1.91 0.28,-0.8 0.43,-1.77 0.43,-2.9 0,-0.45 -0.02,-0.99 -0.07,-1.64 -0.04,-0.64 -0.16,-1.29 -0.34,-1.95 v 0 c 0,0 0,0 0,0 -0.08,-0.32 -0.26,-0.71 -0.53,-1.16 -0.27,-0.45 -0.6,-0.89 -0.98,-1.32 -0.38,-0.43 -0.8,-0.82 -1.26,-1.16 -0.45,-0.34 -0.9,-0.56 -1.36,-0.68 h -0.07 c 0,0 -0.03,-0.01 -0.03,-0.01 l -0.07,0.03 -0.11,0.12 c -0.1,0.15 -0.15,0.32 -0.15,0.51 0,0.17 0.06,0.28 0.2,0.38 0.09,0.04 0.2,0.09 0.34,0.15 0.15,0.06 0.28,0.12 0.38,0.18 v 0 c 0,0 0,0 0,0 0.27,0.17 0.48,0.33 0.62,0.49 0.13,0.15 0.25,0.29 0.38,0.44 0.13,0.15 0.28,0.34 0.45,0.57 0.17,0.23 0.36,0.49 0.55,0.78 v 0 c 0,0 0,0.02 0,0.02 0.65,1.28 0.98,2.52 0.98,3.72 0,0.65 -0.05,1.24 -0.14,1.78 -0.09,0.53 -0.21,1.01 -0.37,1.43 -0.15,0.42 -0.33,0.78 -0.52,1.1 -0.19,0.31 -0.39,0.57 -0.59,0.78 -0.38,0.39 -0.7,0.64 -1.01,0.76 -0.27,0.1 -0.54,0.17 -0.81,0.23 -0.18,0.05 -0.27,0.12 -0.33,0.24 -0.07,0.13 -0.1,0.28 -0.1,0.45 0,0.2 0.04,0.32 0.05,0.32 v 0 c 0,0 0,0 0,0 v 0 c 0.24,0.22 0.49,0.32 0.77,0.32 0.32,0 0.71,-0.15 1.18,-0.48 0.46,-0.33 0.97,-0.86 1.53,-1.59 z"
         id="path1527"
         style="fill:#1c096b" />
      <path
         class="cls-69"
         d="m 116.22,49.78 v 0.16 c 0,0 -0.03,0.13 -0.03,0.13 -0.05,0.15 -0.15,0.22 -0.3,0.22 -0.29,-0.01 -0.52,-0.13 -0.71,-0.36 -0.19,-0.23 -0.29,-0.49 -0.3,-0.78 -0.03,-0.37 -0.04,-0.75 -0.04,-1.16 0,-0.65 0.04,-1.69 0.13,-3.11 0.04,-0.6 0.07,-1.13 0.09,-1.6 0.02,-0.47 0.03,-0.88 0.03,-1.23 v -0.28 h -0.19 c -0.12,0 -0.26,0 -0.41,0.01 -0.15,0 -0.33,0.03 -0.51,0.06 -0.11,0.02 -0.19,0.04 -0.25,0.05 -0.06,0.02 -0.14,0.02 -0.25,0.02 -0.48,0 -0.87,-0.13 -1.19,-0.39 -0.12,-0.25 -0.18,-0.38 -0.18,-0.4 l 0.1,-0.22 c 0.16,-0.05 0.34,-0.1 0.55,-0.14 0.21,-0.04 0.47,-0.08 0.77,-0.11 0.83,-0.09 1.48,-0.25 1.93,-0.48 0.38,0.11 0.77,0.16 1.19,0.16 0.42,0 0.84,-0.05 1.28,-0.16 0.06,0 0.15,-0.03 0.28,-0.07 0.13,-0.04 0.26,-0.07 0.4,-0.11 0.24,-0.07 0.47,-0.1 0.7,-0.1 h 0.1 c 0,0 0.1,0.02 0.1,0.02 0.15,0 0.22,0.05 0.22,0.16 v 0.06 c 0.27,0 0.4,0.09 0.4,0.27 -0.09,0.36 -0.26,0.57 -0.51,0.62 -0.32,0.08 -0.72,0.17 -1.21,0.26 -0.49,0.09 -1.13,0.21 -1.93,0.33 -0.1,1.25 -0.17,2.38 -0.22,3.39 -0.05,1.01 -0.07,1.94 -0.07,2.78 0,0.32 0,0.63 0,0.93 0,0.3 0.01,0.61 0.02,0.91 v 0.15 z"
         id="path1529"
         style="fill:#1c096b" />
      <path
         class="cls-69"
         d="m 118.45,45.7 c 0.02,-0.09 0.09,-0.17 0.22,-0.24 0.15,-0.08 0.23,-0.16 0.25,-0.24 0,-0.04 0.02,-0.17 0.04,-0.4 0.02,-0.23 0.04,-0.57 0.08,-1.01 -0.55,-0.1 -0.82,-0.31 -0.82,-0.62 0,-0.29 0.18,-0.52 0.52,-0.68 l 0.95,-0.39 c 0.19,-0.1 0.4,-0.19 0.62,-0.27 0.23,-0.08 0.48,-0.16 0.76,-0.24 0.25,-0.07 0.49,-0.13 0.73,-0.19 0.24,-0.06 0.48,-0.12 0.73,-0.18 0.02,0 0.08,-0.02 0.18,-0.02 0.27,0 0.58,0.1 0.94,0.31 0,0.04 0.03,0.11 0.07,0.22 0.04,0.11 0.06,0.19 0.06,0.24 l -0.1,0.19 c -0.19,0.08 -0.42,0.16 -0.68,0.25 -0.27,0.08 -0.58,0.18 -0.94,0.28 -0.36,0.1 -0.67,0.19 -0.94,0.28 -0.27,0.08 -0.5,0.17 -0.68,0.25 -0.04,0.12 -0.08,0.32 -0.11,0.61 -0.03,0.29 -0.06,0.66 -0.08,1.12 0.16,0.06 0.34,0.09 0.55,0.09 0.08,0 0.18,0 0.29,-0.02 0.11,-0.01 0.25,-0.03 0.41,-0.05 0.16,-0.02 0.29,-0.04 0.41,-0.05 0.11,-0.02 0.21,-0.02 0.29,-0.02 0.28,0 0.52,0.06 0.71,0.18 0.14,0.2 0.21,0.33 0.21,0.39 l -0.1,0.16 -0.07,0.06 -0.14,0.15 c -0.06,0.08 -0.16,0.12 -0.3,0.12 -0.21,0.04 -0.59,0.07 -1.15,0.09 -0.47,0.02 -0.84,0.08 -1.12,0.18 -0.19,0.69 -0.28,1.27 -0.28,1.74 0,0.27 0.04,0.5 0.12,0.68 0.41,0.29 1.08,0.43 2.01,0.43 h 0.2 c 0,0 0.22,-0.02 0.22,-0.02 l 0.25,-0.11 0.22,-0.11 h 0.04 c 0,0 0.04,-0.01 0.04,-0.01 0.24,0 0.39,0.21 0.46,0.64 v 0.06 c 0,0 0.02,0.06 0.02,0.06 0,0.14 -0.04,0.26 -0.13,0.36 -0.09,0.1 -0.2,0.16 -0.33,0.17 h -0.27 c 0,0 -0.27,0.02 -0.27,0.02 -0.95,0 -1.82,-0.1 -2.59,-0.3 -0.28,-0.07 -0.53,-0.22 -0.76,-0.46 -0.23,-0.24 -0.36,-0.51 -0.39,-0.8 -0.02,-0.22 -0.04,-0.43 -0.05,-0.62 -0.02,-0.2 -0.02,-0.4 -0.02,-0.6 0,-0.2 0,-0.39 0.02,-0.57 0.01,-0.18 0.03,-0.36 0.05,-0.53 -0.25,-0.18 -0.37,-0.34 -0.37,-0.49 v -0.06 z"
         id="path1531"
         style="fill:#1c096b" />
      <path
         class="cls-69"
         d="m 124.49,45.7 c 0.02,-0.09 0.09,-0.17 0.22,-0.24 0.15,-0.08 0.23,-0.16 0.25,-0.24 0,-0.04 0.02,-0.17 0.04,-0.4 0.02,-0.23 0.04,-0.57 0.08,-1.01 -0.55,-0.1 -0.82,-0.31 -0.82,-0.62 0,-0.29 0.18,-0.52 0.52,-0.68 l 0.95,-0.39 c 0.19,-0.1 0.4,-0.19 0.62,-0.27 0.23,-0.08 0.48,-0.16 0.76,-0.24 0.25,-0.07 0.49,-0.13 0.73,-0.19 0.24,-0.06 0.48,-0.12 0.73,-0.18 0.02,0 0.08,-0.02 0.18,-0.02 0.27,0 0.58,0.1 0.94,0.31 0,0.04 0.03,0.11 0.07,0.22 0.04,0.11 0.06,0.19 0.06,0.24 l -0.1,0.19 c -0.19,0.08 -0.42,0.16 -0.68,0.25 -0.27,0.08 -0.58,0.18 -0.94,0.28 -0.36,0.1 -0.67,0.19 -0.94,0.28 -0.27,0.08 -0.5,0.17 -0.68,0.25 -0.04,0.12 -0.08,0.32 -0.11,0.61 -0.03,0.29 -0.06,0.66 -0.08,1.12 0.16,0.06 0.34,0.09 0.55,0.09 0.08,0 0.18,0 0.29,-0.02 0.11,-0.01 0.25,-0.03 0.41,-0.05 0.16,-0.02 0.29,-0.04 0.41,-0.05 0.11,-0.02 0.21,-0.02 0.29,-0.02 0.28,0 0.52,0.06 0.71,0.18 0.14,0.2 0.21,0.33 0.21,0.39 l -0.1,0.16 -0.07,0.06 -0.14,0.15 c -0.06,0.08 -0.16,0.12 -0.3,0.12 -0.21,0.04 -0.59,0.07 -1.15,0.09 -0.47,0.02 -0.84,0.08 -1.12,0.18 -0.19,0.69 -0.28,1.27 -0.28,1.74 0,0.27 0.04,0.5 0.12,0.68 0.41,0.29 1.08,0.43 2.01,0.43 h 0.2 c 0,0 0.22,-0.02 0.22,-0.02 l 0.25,-0.11 0.22,-0.11 h 0.04 c 0,0 0.04,-0.01 0.04,-0.01 0.24,0 0.39,0.21 0.46,0.64 v 0.06 c 0,0 0.01,0.06 0.01,0.06 0,0.14 -0.04,0.26 -0.13,0.36 -0.08,0.1 -0.2,0.16 -0.33,0.17 h -0.27 c 0,0 -0.27,0.02 -0.27,0.02 -0.95,0 -1.82,-0.1 -2.59,-0.3 -0.28,-0.07 -0.53,-0.22 -0.76,-0.46 -0.23,-0.24 -0.36,-0.51 -0.39,-0.8 -0.02,-0.22 -0.04,-0.43 -0.05,-0.62 -0.02,-0.2 -0.02,-0.4 -0.02,-0.6 0,-0.2 0,-0.39 0.02,-0.57 0.01,-0.18 0.03,-0.36 0.05,-0.53 -0.25,-0.18 -0.37,-0.34 -0.37,-0.49 v -0.06 z"
         id="path1533"
         style="fill:#1c096b" />
      <path
         class="cls-69"
         d="m 77.53,41.1 c -2.24,1.01 -4.17,3.17 -3.64,5.8 0.51,2.57 2.87,3.62 5.24,3.82 0.99,0.08 0.98,-1.45 0,-1.54 -1.75,-0.14 -3.69,-0.92 -3.79,-2.97 -0.09,-1.88 1.42,-3.09 2.96,-3.79 0.9,-0.41 0.12,-1.73 -0.78,-1.33 z"
         id="path1535"
         style="fill:#1c096b" />
      <path
         class="cls-69"
         d="m 110.47,41.81 c -2.14,0.87 -4.2,2.62 -3.83,5.19 0.37,2.58 2.97,3.51 5.24,3.68 0.94,0.07 0.93,-1.39 0,-1.46 -1.59,-0.12 -3.72,-0.7 -3.82,-2.66 -0.09,-1.69 1.42,-2.77 2.8,-3.34 0.86,-0.35 0.48,-1.76 -0.39,-1.41 z"
         id="path1537"
         style="fill:#1c096b" />
      <path
         class="cls-69"
         d="m 122.14,40.19 c 0.62,-0.39 1.24,-0.78 1.87,-1.16 0.56,-0.35 0.04,-1.23 -0.52,-0.88 -0.62,0.39 -1.24,0.78 -1.87,1.16 -0.56,0.35 -0.04,1.23 0.52,0.88 z"
         id="path1539"
         style="fill:#1c096b" />
      <path
         class="cls-69"
         d="m 56.03,48.62 c 0.02,-0.29 0.05,-0.6 0.08,-0.94 0.03,-0.34 0.05,-0.71 0.05,-1.11 v -1.62 c 0,-0.68 0,-1.3 0.02,-1.86 0.02,-0.56 0.06,-1.07 0.14,-1.55 0.1,-0.56 0.61,-0.85 1.53,-0.85 h 0.21 c 0.54,0.02 1,0.29 1.4,0.8 0.37,0.46 0.55,0.97 0.55,1.55 0,0.47 -0.17,0.93 -0.52,1.4 -0.31,0.42 -0.67,0.75 -1.09,1.01 l -0.21,0.14 -0.07,0.16 0.07,0.17 c 0,0 0.12,0.11 0.23,0.2 l 0.48,0.4 1.65,1.55 c 0.34,0.32 0.63,0.61 0.88,0.89 0.25,0.27 0.44,0.53 0.58,0.78 l 0.04,0.13 c 0,0.23 -0.24,0.4 -0.71,0.52 -0.53,-0.4 -1.18,-1.02 -1.96,-1.87 -0.45,-0.48 -0.83,-0.88 -1.15,-1.2 -0.32,-0.32 -0.58,-0.58 -0.8,-0.77 -0.02,0.13 -0.04,0.36 -0.07,0.7 -0.03,0.34 -0.06,0.78 -0.1,1.32 -0.05,0.82 -0.14,1.48 -0.27,1.96 l -0.15,0.07 -0.24,0.07 h -0.03 c 0,0 -0.03,-0.01 -0.03,-0.01 -0.44,-0.11 -0.66,-0.41 -0.66,-0.91 0,-0.08 0,-0.17 0.01,-0.28 0.01,-0.11 0.02,-0.21 0.04,-0.32 L 56,48.61 Z m 2.87,-6.04 c -0.03,-0.21 -0.12,-0.4 -0.26,-0.57 -0.14,-0.17 -0.37,-0.25 -0.69,-0.25 -0.24,0 -0.39,0.07 -0.45,0.22 -0.02,0.14 -0.04,0.28 -0.05,0.42 -0.01,0.14 -0.02,0.29 -0.02,0.42 0,0.13 0.01,0.46 0.04,1 0,0.11 0,0.21 0,0.3 v 0.25 c 0,0 0,0.24 0,0.24 v 0.21 c 0.82,-0.6 1.28,-1.2 1.39,-1.77 l 0.02,-0.19 V 42.7 c 0,0 0,-0.12 0,-0.12 z"
         id="path1541"
         style="fill:#1c096b" />
      <path
         class="cls-69"
         d="m 62.23,45.7 c 0.02,-0.09 0.09,-0.17 0.22,-0.24 0.15,-0.08 0.23,-0.16 0.25,-0.24 0,-0.04 0.03,-0.17 0.04,-0.4 0.02,-0.23 0.04,-0.57 0.07,-1.01 -0.55,-0.1 -0.82,-0.31 -0.82,-0.62 0,-0.29 0.18,-0.52 0.52,-0.68 l 0.95,-0.39 c 0.19,-0.1 0.4,-0.19 0.62,-0.27 0.23,-0.08 0.48,-0.16 0.76,-0.24 0.25,-0.07 0.49,-0.13 0.73,-0.19 0.24,-0.06 0.48,-0.12 0.73,-0.18 0.02,0 0.08,-0.02 0.18,-0.02 0.27,0 0.58,0.1 0.94,0.31 0,0.04 0.03,0.11 0.07,0.22 0.04,0.11 0.06,0.19 0.06,0.24 l -0.1,0.19 c -0.19,0.08 -0.42,0.16 -0.68,0.25 -0.27,0.08 -0.58,0.18 -0.94,0.28 -0.36,0.1 -0.67,0.19 -0.94,0.28 -0.27,0.08 -0.5,0.17 -0.68,0.25 -0.04,0.12 -0.08,0.32 -0.11,0.61 -0.04,0.29 -0.06,0.66 -0.08,1.12 0.16,0.06 0.34,0.09 0.55,0.09 0.08,0 0.18,0 0.29,-0.02 0.11,-0.01 0.25,-0.03 0.41,-0.05 0.16,-0.02 0.29,-0.04 0.41,-0.05 0.11,-0.02 0.21,-0.02 0.29,-0.02 0.28,0 0.52,0.06 0.71,0.18 0.14,0.2 0.21,0.33 0.21,0.39 l -0.1,0.16 -0.07,0.06 -0.14,0.15 c -0.06,0.08 -0.16,0.12 -0.3,0.12 -0.21,0.04 -0.59,0.07 -1.15,0.09 -0.47,0.02 -0.84,0.08 -1.12,0.18 -0.19,0.69 -0.28,1.27 -0.28,1.74 0,0.27 0.04,0.5 0.12,0.68 0.41,0.29 1.08,0.43 2.01,0.43 h 0.2 c 0,0 0.22,-0.02 0.22,-0.02 l 0.25,-0.11 0.22,-0.11 h 0.04 c 0,0 0.04,-0.01 0.04,-0.01 0.24,0 0.39,0.21 0.46,0.64 v 0.06 c 0,0 0.01,0.06 0.01,0.06 0,0.14 -0.04,0.26 -0.13,0.36 -0.08,0.1 -0.2,0.16 -0.33,0.17 h -0.27 c 0,0 -0.27,0.02 -0.27,0.02 -0.95,0 -1.81,-0.1 -2.59,-0.3 -0.28,-0.07 -0.53,-0.22 -0.76,-0.46 -0.23,-0.24 -0.36,-0.51 -0.39,-0.8 -0.02,-0.22 -0.04,-0.43 -0.05,-0.62 -0.01,-0.2 -0.02,-0.4 -0.02,-0.6 0,-0.2 0,-0.39 0.02,-0.57 0.02,-0.18 0.03,-0.36 0.05,-0.53 -0.25,-0.18 -0.37,-0.34 -0.37,-0.49 v -0.06 z"
         id="path1543"
         style="fill:#1c096b" />
      <path
         class="cls-69"
         d="m 84.84,46.42 c -0.15,0.35 -0.33,0.67 -0.54,0.96 -0.21,0.29 -0.43,0.55 -0.68,0.76 -0.25,0.21 -0.51,0.38 -0.79,0.5 -0.28,0.12 -0.57,0.18 -0.87,0.18 -0.21,0 -0.44,-0.05 -0.71,-0.16 -0.26,-0.11 -0.51,-0.27 -0.74,-0.49 -0.23,-0.22 -0.43,-0.48 -0.59,-0.8 -0.16,-0.31 -0.25,-0.68 -0.25,-1.09 0,-0.33 0.06,-0.71 0.19,-1.14 0.12,-0.43 0.29,-0.84 0.49,-1.23 0.2,-0.39 0.44,-0.71 0.71,-0.98 0.27,-0.27 0.54,-0.4 0.83,-0.4 l 0.17,0.03 0.15,0.07 0.2,0.12 c 0.08,0.05 0.19,0.1 0.33,0.16 0.09,0.04 0.19,0.08 0.31,0.13 0.11,0.04 0.25,0.09 0.41,0.14 0.3,0.1 0.54,0.26 0.74,0.48 0.2,0.22 0.36,0.45 0.48,0.71 0.12,0.26 0.2,0.5 0.25,0.74 0.04,0.24 0.07,0.44 0.07,0.59 0,0.29 -0.05,0.53 -0.15,0.73 z M 83.65,45.5 C 83.6,45.1 83.52,44.78 83.4,44.54 83.29,44.3 83.13,44.18 82.93,44.18 c -0.06,0 -0.14,0.04 -0.23,0.11 -0.09,0.07 -0.19,0.16 -0.28,0.25 -0.09,0.09 -0.18,0.17 -0.27,0.25 l -0.17,0.11 c -0.08,0 -0.17,-0.04 -0.28,-0.12 -0.11,-0.08 -0.18,-0.12 -0.22,-0.12 -0.1,0 -0.19,0.05 -0.26,0.16 -0.07,0.11 -0.14,0.23 -0.19,0.37 -0.05,0.14 -0.09,0.3 -0.11,0.46 -0.02,0.16 -0.04,0.31 -0.04,0.42 0,0.26 0.04,0.49 0.12,0.7 0.08,0.21 0.17,0.39 0.28,0.54 0.11,0.15 0.22,0.26 0.33,0.34 0.11,0.08 0.2,0.12 0.26,0.12 0.19,0 0.39,-0.07 0.59,-0.2 0.21,-0.13 0.4,-0.31 0.57,-0.51 0.17,-0.21 0.32,-0.44 0.43,-0.68 0.11,-0.25 0.17,-0.49 0.17,-0.71 v -0.15 z"
         id="path1545"
         style="fill:#1c096b" />
      <path
         class="cls-69"
         d="m 86.15,50.28 c -0.03,-0.55 -0.04,-1.13 -0.04,-1.74 0,-1.05 0.06,-2.37 0.18,-3.94 l 0.31,-3.99 c 0,-0.22 0.2,-0.33 0.58,-0.33 0.08,0 0.19,0.03 0.33,0.09 0.14,0.06 0.29,0.15 0.45,0.28 0.16,0.31 0.34,0.7 0.54,1.19 0.2,0.49 0.41,1.07 0.64,1.76 0.23,0.65 0.45,1.28 0.66,1.87 0.21,0.59 0.41,1.12 0.6,1.56 l 0.59,-6.46 c 0.02,-0.2 0.16,-0.3 0.43,-0.3 0.09,0 0.19,0.01 0.31,0.04 l 0.28,0.07 c 0.1,0.04 0.16,0.11 0.19,0.21 l -0.4,4 c -0.08,0.8 -0.14,1.53 -0.19,2.19 -0.05,0.66 -0.07,1.25 -0.07,1.79 v 0.51 c 0,0.17 0,0.35 0.03,0.54 0,0.15 -0.06,0.28 -0.19,0.39 -0.12,0.11 -0.26,0.17 -0.41,0.17 -0.31,0 -0.57,-0.21 -0.77,-0.62 -0.16,-0.31 -0.33,-0.69 -0.52,-1.14 -0.19,-0.45 -0.39,-0.95 -0.6,-1.5 -0.21,-0.54 -0.43,-1.13 -0.66,-1.75 -0.23,-0.62 -0.46,-1.27 -0.7,-1.93 l -0.08,-0.09 c -0.07,0 -0.11,0.07 -0.13,0.21 -0.04,0.36 -0.07,0.74 -0.09,1.15 -0.02,0.41 -0.03,0.84 -0.04,1.27 0,0.44 0,0.87 0,1.31 v 1.23 c 0,0.38 0,0.76 0.02,1.14 0,0.38 0.02,0.77 0.04,1.17 v 0.06 c 0,0.27 -0.08,0.45 -0.25,0.54 l -0.22,0.1 c -0.08,0 -0.17,-0.03 -0.27,-0.09 l -0.28,-0.13 c -0.13,-0.04 -0.21,-0.16 -0.24,-0.36 l -0.03,-0.49 z"
         id="path1547"
         style="fill:#1c096b" />
      <path
         class="cls-69"
         d="m 93.33,50.28 c -0.03,-0.55 -0.04,-1.13 -0.04,-1.74 0,-1.05 0.06,-2.37 0.18,-3.94 l 0.31,-3.99 c 0,-0.22 0.2,-0.33 0.58,-0.33 0.08,0 0.19,0.03 0.33,0.09 0.14,0.06 0.29,0.15 0.45,0.28 0.16,0.31 0.34,0.7 0.54,1.19 0.2,0.49 0.41,1.07 0.64,1.76 0.23,0.65 0.45,1.28 0.66,1.87 0.21,0.59 0.41,1.12 0.6,1.56 l 0.59,-6.46 c 0.02,-0.2 0.16,-0.3 0.43,-0.3 0.09,0 0.19,0.01 0.31,0.04 l 0.28,0.07 c 0.1,0.04 0.16,0.11 0.19,0.21 l -0.4,4 c -0.08,0.8 -0.14,1.53 -0.19,2.19 -0.04,0.65 -0.07,1.25 -0.07,1.79 v 0.51 c 0,0.17 0,0.35 0.03,0.54 0,0.15 -0.06,0.28 -0.19,0.39 -0.12,0.11 -0.26,0.17 -0.41,0.17 -0.31,0 -0.57,-0.21 -0.77,-0.62 -0.16,-0.31 -0.33,-0.69 -0.52,-1.14 -0.19,-0.45 -0.39,-0.95 -0.6,-1.5 -0.21,-0.54 -0.43,-1.13 -0.66,-1.75 -0.23,-0.62 -0.46,-1.27 -0.7,-1.93 l -0.07,-0.09 c -0.07,0 -0.11,0.07 -0.13,0.21 -0.04,0.36 -0.07,0.74 -0.09,1.15 -0.02,0.41 -0.03,0.84 -0.04,1.27 0,0.44 0,0.87 0,1.31 v 1.23 c 0,0.38 0,0.76 0.02,1.14 0,0.38 0.02,0.77 0.04,1.17 v 0.06 c 0,0.27 -0.08,0.45 -0.25,0.54 l -0.22,0.1 c -0.08,0 -0.17,-0.03 -0.27,-0.09 L 93.61,51.11 C 93.48,51.07 93.4,50.95 93.37,50.75 l -0.03,-0.49 z"
         id="path1549"
         style="fill:#1c096b" />
      <path
         class="cls-69"
         d="m 100.32,45.7 c 0.02,-0.09 0.09,-0.17 0.22,-0.24 0.15,-0.08 0.23,-0.16 0.25,-0.24 0,-0.04 0.03,-0.17 0.04,-0.4 0.02,-0.23 0.04,-0.57 0.08,-1.01 -0.55,-0.1 -0.82,-0.31 -0.82,-0.62 0.01,-0.29 0.18,-0.52 0.52,-0.68 l 0.95,-0.39 c 0.19,-0.1 0.4,-0.19 0.62,-0.27 0.23,-0.08 0.48,-0.16 0.76,-0.24 0.25,-0.07 0.49,-0.13 0.73,-0.19 0.24,-0.06 0.48,-0.12 0.73,-0.18 0.02,0 0.08,-0.02 0.18,-0.02 0.27,0 0.58,0.1 0.94,0.31 0,0.04 0.03,0.11 0.07,0.22 0.04,0.11 0.06,0.19 0.06,0.24 l -0.1,0.19 c -0.19,0.08 -0.42,0.16 -0.68,0.25 -0.27,0.08 -0.58,0.18 -0.94,0.28 -0.36,0.1 -0.67,0.19 -0.94,0.28 -0.27,0.08 -0.5,0.17 -0.68,0.25 -0.04,0.12 -0.08,0.32 -0.11,0.61 -0.03,0.29 -0.06,0.66 -0.08,1.12 0.16,0.06 0.34,0.09 0.55,0.09 0.08,0 0.18,0 0.29,-0.02 0.11,-0.01 0.25,-0.03 0.41,-0.05 0.16,-0.02 0.29,-0.04 0.41,-0.05 0.11,-0.02 0.21,-0.02 0.29,-0.02 0.28,0 0.52,0.06 0.71,0.18 0.14,0.2 0.21,0.33 0.21,0.39 l -0.1,0.16 -0.07,0.06 -0.14,0.15 c -0.06,0.08 -0.16,0.12 -0.3,0.12 -0.21,0.04 -0.59,0.07 -1.15,0.09 -0.47,0.02 -0.84,0.08 -1.12,0.18 -0.19,0.69 -0.28,1.27 -0.28,1.74 0,0.27 0.04,0.5 0.12,0.68 0.41,0.29 1.08,0.43 2.01,0.43 h 0.2 c 0,0 0.22,-0.02 0.22,-0.02 l 0.25,-0.11 0.22,-0.11 h 0.04 c 0,0 0.04,-0.01 0.04,-0.01 0.24,0 0.39,0.21 0.46,0.64 v 0.06 c 0,0 0.01,0.06 0.01,0.06 0,0.14 -0.04,0.26 -0.13,0.36 -0.08,0.1 -0.2,0.16 -0.33,0.17 h -0.27 c 0,0 -0.27,0.02 -0.27,0.02 -0.95,0 -1.82,-0.1 -2.59,-0.3 -0.28,-0.07 -0.53,-0.22 -0.76,-0.46 -0.23,-0.24 -0.36,-0.51 -0.39,-0.8 -0.02,-0.22 -0.04,-0.43 -0.05,-0.62 -0.01,-0.2 -0.02,-0.4 -0.02,-0.6 0,-0.2 0,-0.39 0.02,-0.57 0.02,-0.18 0.03,-0.36 0.05,-0.53 -0.25,-0.18 -0.37,-0.34 -0.37,-0.49 v -0.06 z"
         id="path1551"
         style="fill:#1c096b" />
      <path
         class="cls-69"
         d="m 70.44,50.67 c 0.35,-0.46 0.68,-1.1 0.96,-1.91 0.28,-0.8 0.43,-1.77 0.43,-2.9 0,-0.45 -0.02,-0.99 -0.07,-1.64 -0.04,-0.64 -0.16,-1.29 -0.34,-1.95 v 0 c 0,0 0,0 0,0 -0.09,-0.32 -0.26,-0.71 -0.53,-1.16 -0.27,-0.45 -0.6,-0.89 -0.98,-1.32 -0.38,-0.43 -0.8,-0.82 -1.26,-1.16 -0.45,-0.34 -0.9,-0.56 -1.36,-0.68 h -0.07 c 0,0 -0.03,-0.01 -0.03,-0.01 l -0.07,0.03 -0.11,0.12 c -0.1,0.15 -0.15,0.32 -0.15,0.51 0,0.17 0.06,0.28 0.2,0.38 0.09,0.04 0.2,0.09 0.34,0.15 0.15,0.06 0.28,0.12 0.38,0.18 v 0 c 0,0 0,0 0,0 0.27,0.17 0.48,0.33 0.62,0.49 0.13,0.15 0.25,0.29 0.38,0.44 0.13,0.15 0.28,0.34 0.45,0.57 0.17,0.23 0.36,0.49 0.55,0.78 v 0 c 0,0 0,0.02 0,0.02 0.65,1.28 0.98,2.52 0.98,3.72 0,0.65 -0.05,1.24 -0.14,1.78 -0.09,0.53 -0.21,1.01 -0.37,1.43 -0.15,0.42 -0.33,0.78 -0.52,1.1 -0.19,0.31 -0.39,0.57 -0.59,0.78 -0.38,0.39 -0.7,0.64 -1.01,0.76 -0.27,0.1 -0.54,0.17 -0.81,0.23 -0.18,0.05 -0.27,0.12 -0.33,0.24 -0.07,0.13 -0.1,0.28 -0.1,0.45 0,0.2 0.04,0.32 0.05,0.32 v 0 c 0,0 0,0 0,0 v 0 c 0.24,0.22 0.49,0.32 0.77,0.32 0.32,0 0.72,-0.15 1.18,-0.48 0.46,-0.33 0.97,-0.86 1.53,-1.59 z"
         id="path1553"
         style="fill:#1c096b" />
      <path
         class="cls-69"
         d="m 116.22,49.78 v 0.16 c 0,0 -0.03,0.13 -0.03,0.13 -0.05,0.15 -0.15,0.22 -0.3,0.22 -0.29,-0.01 -0.52,-0.13 -0.71,-0.36 -0.19,-0.23 -0.29,-0.49 -0.3,-0.78 -0.03,-0.37 -0.04,-0.75 -0.04,-1.16 0,-0.65 0.04,-1.69 0.13,-3.11 0.04,-0.6 0.07,-1.13 0.09,-1.6 0.02,-0.47 0.03,-0.88 0.03,-1.23 v -0.28 h -0.19 c -0.12,0 -0.26,0 -0.41,0.01 -0.15,0 -0.32,0.03 -0.51,0.06 -0.11,0.02 -0.19,0.04 -0.25,0.05 -0.06,0.02 -0.14,0.02 -0.25,0.02 -0.48,0 -0.87,-0.13 -1.19,-0.39 -0.12,-0.25 -0.18,-0.38 -0.18,-0.4 l 0.1,-0.22 c 0.16,-0.05 0.34,-0.1 0.55,-0.14 0.21,-0.04 0.47,-0.08 0.77,-0.11 0.83,-0.09 1.48,-0.25 1.93,-0.48 0.38,0.11 0.77,0.16 1.19,0.16 0.42,0 0.84,-0.05 1.28,-0.16 0.06,0 0.15,-0.03 0.28,-0.07 0.13,-0.04 0.26,-0.07 0.4,-0.11 0.24,-0.07 0.47,-0.1 0.7,-0.1 h 0.1 c 0,0 0.1,0.02 0.1,0.02 0.15,0 0.22,0.05 0.22,0.16 v 0.06 c 0.27,0 0.4,0.09 0.4,0.27 -0.09,0.36 -0.26,0.57 -0.51,0.62 -0.32,0.08 -0.72,0.17 -1.21,0.26 -0.49,0.09 -1.13,0.21 -1.93,0.33 -0.1,1.25 -0.17,2.38 -0.22,3.39 -0.05,1.01 -0.07,1.94 -0.07,2.78 0,0.32 0,0.63 0,0.93 0,0.3 0.01,0.61 0.02,0.91 v 0.15 z"
         id="path1555"
         style="fill:#1c096b" />
      <path
         class="cls-69"
         d="m 118.45,45.7 c 0.02,-0.09 0.09,-0.17 0.22,-0.24 0.15,-0.08 0.23,-0.16 0.25,-0.24 0,-0.04 0.02,-0.17 0.04,-0.4 0.02,-0.23 0.04,-0.57 0.08,-1.01 -0.55,-0.1 -0.82,-0.31 -0.82,-0.62 0,-0.29 0.18,-0.52 0.52,-0.68 l 0.95,-0.39 c 0.19,-0.1 0.4,-0.19 0.62,-0.27 0.23,-0.08 0.48,-0.16 0.76,-0.24 0.25,-0.07 0.49,-0.13 0.73,-0.19 0.24,-0.06 0.48,-0.12 0.73,-0.18 0.02,0 0.08,-0.02 0.18,-0.02 0.27,0 0.58,0.1 0.94,0.31 0,0.04 0.04,0.11 0.07,0.22 0.04,0.11 0.06,0.19 0.06,0.24 l -0.1,0.19 c -0.19,0.08 -0.42,0.16 -0.68,0.25 -0.27,0.08 -0.58,0.18 -0.94,0.28 -0.36,0.1 -0.67,0.19 -0.94,0.28 -0.27,0.08 -0.5,0.17 -0.68,0.25 -0.04,0.12 -0.08,0.32 -0.11,0.61 -0.03,0.29 -0.06,0.66 -0.08,1.12 0.16,0.06 0.34,0.09 0.55,0.09 0.08,0 0.18,0 0.29,-0.02 0.11,-0.01 0.25,-0.03 0.41,-0.05 0.16,-0.02 0.29,-0.04 0.41,-0.05 0.11,-0.02 0.21,-0.02 0.29,-0.02 0.28,0 0.52,0.06 0.71,0.18 0.14,0.2 0.21,0.33 0.21,0.39 l -0.1,0.16 -0.07,0.06 -0.14,0.15 c -0.06,0.08 -0.16,0.12 -0.3,0.12 -0.21,0.04 -0.59,0.07 -1.15,0.09 -0.47,0.02 -0.84,0.08 -1.12,0.18 -0.19,0.69 -0.28,1.27 -0.28,1.74 0,0.27 0.04,0.5 0.12,0.68 0.41,0.29 1.08,0.43 2.01,0.43 h 0.2 c 0,0 0.22,-0.02 0.22,-0.02 l 0.25,-0.11 0.22,-0.11 h 0.04 c 0,0 0.04,-0.01 0.04,-0.01 0.24,0 0.39,0.21 0.46,0.64 v 0.06 c 0,0 0.02,0.06 0.02,0.06 0,0.14 -0.04,0.26 -0.13,0.36 -0.09,0.1 -0.2,0.16 -0.33,0.17 h -0.27 c 0,0 -0.27,0.02 -0.27,0.02 -0.95,0 -1.82,-0.1 -2.59,-0.3 -0.28,-0.07 -0.53,-0.22 -0.76,-0.46 -0.23,-0.24 -0.36,-0.51 -0.39,-0.8 -0.02,-0.22 -0.04,-0.43 -0.05,-0.62 -0.01,-0.19 -0.02,-0.4 -0.02,-0.6 0,-0.2 0,-0.39 0.02,-0.57 0.01,-0.18 0.03,-0.36 0.05,-0.53 -0.25,-0.18 -0.37,-0.34 -0.37,-0.49 v -0.06 z"
         id="path1557"
         style="fill:#1c096b" />
      <path
         class="cls-69"
         d="m 124.49,45.7 c 0.02,-0.09 0.09,-0.17 0.22,-0.24 0.15,-0.08 0.23,-0.16 0.25,-0.24 0,-0.04 0.02,-0.17 0.04,-0.4 0.02,-0.23 0.04,-0.57 0.08,-1.01 -0.55,-0.1 -0.82,-0.31 -0.82,-0.62 0.01,-0.29 0.18,-0.52 0.52,-0.68 l 0.95,-0.39 c 0.19,-0.1 0.4,-0.19 0.62,-0.27 0.23,-0.08 0.48,-0.16 0.76,-0.24 0.25,-0.07 0.49,-0.13 0.73,-0.19 0.24,-0.06 0.48,-0.12 0.73,-0.18 0.02,0 0.08,-0.02 0.18,-0.02 0.27,0 0.58,0.1 0.94,0.31 0,0.04 0.03,0.11 0.07,0.22 0.04,0.11 0.06,0.19 0.06,0.24 l -0.1,0.19 c -0.19,0.08 -0.42,0.16 -0.68,0.25 -0.27,0.08 -0.58,0.18 -0.94,0.28 -0.36,0.1 -0.67,0.19 -0.94,0.28 -0.27,0.08 -0.5,0.17 -0.68,0.25 -0.04,0.12 -0.08,0.32 -0.11,0.61 -0.03,0.29 -0.06,0.66 -0.08,1.12 0.16,0.06 0.34,0.09 0.55,0.09 0.08,0 0.18,0 0.29,-0.02 0.11,-0.01 0.25,-0.03 0.41,-0.05 0.16,-0.02 0.29,-0.04 0.41,-0.05 0.11,-0.02 0.21,-0.02 0.29,-0.02 0.28,0 0.52,0.06 0.71,0.18 0.14,0.2 0.21,0.33 0.21,0.39 l -0.1,0.16 -0.07,0.06 -0.14,0.15 c -0.06,0.08 -0.16,0.12 -0.3,0.12 -0.21,0.04 -0.59,0.07 -1.15,0.09 -0.47,0.02 -0.84,0.08 -1.12,0.18 -0.19,0.69 -0.28,1.27 -0.28,1.74 0,0.27 0.04,0.5 0.12,0.68 0.41,0.29 1.08,0.43 2.01,0.43 h 0.2 c 0,0 0.22,-0.02 0.22,-0.02 l 0.25,-0.11 0.22,-0.11 h 0.04 c 0,0 0.04,-0.01 0.04,-0.01 0.24,0 0.39,0.21 0.46,0.64 v 0.06 c 0,0 0.02,0.06 0.02,0.06 0,0.14 -0.04,0.26 -0.13,0.36 -0.08,0.1 -0.2,0.16 -0.33,0.17 h -0.27 c 0,0 -0.27,0.02 -0.27,0.02 -0.95,0 -1.82,-0.1 -2.59,-0.3 -0.28,-0.07 -0.53,-0.22 -0.76,-0.46 -0.23,-0.24 -0.36,-0.51 -0.39,-0.8 -0.02,-0.22 -0.04,-0.43 -0.05,-0.62 -0.02,-0.2 -0.02,-0.4 -0.02,-0.6 0,-0.2 0,-0.39 0.02,-0.57 0.01,-0.18 0.03,-0.36 0.05,-0.53 -0.25,-0.18 -0.37,-0.34 -0.37,-0.49 v -0.06 z"
         id="path1559"
         style="fill:#1c096b" />
      <path
         class="cls-69"
         d="m 77.53,41.1 c -2.24,1.01 -4.17,3.17 -3.64,5.8 0.51,2.57 2.87,3.62 5.24,3.82 0.99,0.08 0.98,-1.45 0,-1.54 -1.75,-0.14 -3.69,-0.92 -3.79,-2.97 -0.09,-1.88 1.42,-3.09 2.96,-3.79 0.9,-0.41 0.12,-1.73 -0.78,-1.33 z"
         id="path1561"
         style="fill:#1c096b" />
      <path
         class="cls-69"
         d="m 110.47,41.81 c -2.14,0.87 -4.2,2.62 -3.83,5.19 0.37,2.58 2.97,3.51 5.24,3.68 0.94,0.07 0.93,-1.39 0,-1.46 -1.59,-0.12 -3.72,-0.7 -3.82,-2.66 -0.09,-1.69 1.42,-2.77 2.8,-3.34 0.86,-0.35 0.48,-1.76 -0.39,-1.41 z"
         id="path1563"
         style="fill:#1c096b" />
      <path
         class="cls-69"
         d="m 121.88,39.74 c 0.62,-0.39 1.24,-0.78 1.87,-1.16"
         id="path1565"
         style="fill:#1c096b" />
      <path
         class="cls-69"
         d="m 137.33,28.08 c -0.29,0.61 -0.17,0.36 -0.84,1.74 q -0.68,1.38 -0.96,1.57 c -0.33,0.22 -0.8,-0.09 -0.85,-0.62 -0.05,-0.53 0.46,-2.16 0.93,-2.83 0.47,-0.68 0.92,-0.95 1.24,-0.78 0.32,0.16 0.77,0.32 0.48,0.93 z"
         id="path1567"
         style="fill:#1c096b" />
      <path
         class="cls-69"
         d="m 142.92,36.14 c -0.67,0.03 -0.23,-0.35 -1.77,-0.3 -1.54,0.04 -1.63,0.32 -2,0.25 -0.39,-0.07 -0.23,-0.59 0.22,-0.88 0.45,-0.29 2.26,-0.61 3.07,-0.51 0.81,0.1 1.02,0.11 1.07,0.58 0.04,0.36 0.08,0.83 -0.59,0.86 z"
         id="path1569"
         style="fill:#1c096b" />
      <path
         class="cls-69"
         d="m 141.54,30.05 c 0,0 -0.77,-1.05 -1.43,-0.44 -0.96,0.88 -2.5,2.46 -2.5,2.46 0,0 -0.79,0.75 -0.32,1.14 0.34,0.28 0.22,0.57 1.03,-0.17 0.81,-0.74 2.28,-1.2 2.97,-1.51 0.57,-0.26 0.59,-0.94 0.25,-1.47 z"
         id="path1571"
         style="fill:#1c096b" />
      <path
         class="cls-69"
         d="m 60.02,18.23 c 0.36,0.57 0.21,0.34 1.04,1.63 q 0.84,1.29 1.14,1.44 c 0.35,0.18 0.79,-0.18 0.78,-0.71 -0.01,-0.53 -0.71,-2.09 -1.26,-2.7 -0.54,-0.62 -1.03,-0.83 -1.33,-0.63 -0.3,0.2 -0.73,0.41 -0.37,0.98 z"
         id="path1573"
         style="fill:#1c096b" />
      <path
         class="cls-69"
         d="m 56.06,20.67 c 0,0 0.64,-1.13 1.37,-0.6 1.05,0.76 2.76,2.15 2.76,2.15 0,0 0.87,0.66 0.45,1.09 -0.31,0.32 -0.15,0.59 -1.04,-0.05 -0.89,-0.64 -2.4,-0.93 -3.12,-1.16 -0.6,-0.19 -0.7,-0.87 -0.41,-1.43 z"
         id="path1575"
         style="fill:#1c096b" />
    </g>
  </g>
</svg>
