<?xml version="1.0" encoding="UTF-8" standalone="no"?>
<!-- Created with Inkscape (http://www.inkscape.org/) -->

<svg
   width="8.8476667mm"
   height="8.1603947mm"
   viewBox="0 0 8.8476667 8.1603947"
   version="1.1"
   id="svg3614"
   inkscape:version="1.2.2 (b0a8486541, 2022-12-01)"
   sodipodi:docname="picto_cart.svg"
   xmlns:inkscape="http://www.inkscape.org/namespaces/inkscape"
   xmlns:sodipodi="http://sodipodi.sourceforge.net/DTD/sodipodi-0.dtd"
   xmlns="http://www.w3.org/2000/svg"
   xmlns:svg="http://www.w3.org/2000/svg">
  <sodipodi:namedview
     id="namedview3616"
     pagecolor="#ffffff"
     bordercolor="#000000"
     borderopacity="0.25"
     inkscape:showpageshadow="2"
     inkscape:pageopacity="0.0"
     inkscape:pagecheckerboard="0"
     inkscape:deskcolor="#d1d1d1"
     inkscape:document-units="mm"
     showgrid="false"
     inkscape:zoom="0.76702441"
     inkscape:cx="3.2593487"
     inkscape:cy="98.43233"
     inkscape:window-width="1706"
     inkscape:window-height="749"
     inkscape:window-x="1970"
     inkscape:window-y="118"
     inkscape:window-maximized="0"
     inkscape:current-layer="layer1" />
  <defs
     id="defs3611" />
  <g
     inkscape:label="Calque 1"
     inkscape:groupmode="layer"
     id="layer1"
     transform="translate(-91.126689,-122.86057)">
    <g
       id="g1603"
       style="isolation:isolate"
       transform="matrix(0.26458333,0,0,0.26458333,-92.097267,117.13299)">
      <path
         class="cls-76"
         d="m 724.68,32.93 h -6.43 l -4.68,-10.42 c -0.31,-0.72 -1.22,-1.07 -1.93,-0.73 0,0 -0.91,0.42 -0.91,0.42 -0.73,0.33 -1.05,1.2 -0.72,1.93 l 3.95,8.8 h -9.47 l 3.95,-8.8 c 0.33,-0.73 0,-1.6 -0.72,-1.93 l -0.91,-0.42 c -0.71,-0.34 -1.62,0 -1.93,0.73 0,0 -4.68,10.42 -4.68,10.42 h -6.43 c -0.7,0 -1.27,0.57 -1.27,1.27 v 2.05 c 0.02,0.9 0.79,1.37 1.63,1.27 0,0 2.48,13.16 2.48,13.16 0.2,1.05 1.11,1.81 2.16,1.81 h 20.9 c 1.05,0 1.96,-0.76 2.16,-1.8 l 2.48,-13.16 h 0.36 c 0.7,0 1.27,-0.57 1.27,-1.27 v -2.05 c 0,-0.7 -0.57,-1.27 -1.27,-1.27 z m -13.57,-9.29 c -0.06,-0.14 0,-0.3 0.13,-0.36 l 0.91,-0.42 c 0.16,-0.05 0.24,-0.02 0.34,0.13 0,0 4.46,9.93 4.46,9.93 h -1.67 l -4.17,-9.29 z m -5.13,-0.65 c 0.09,-0.15 0.17,-0.18 0.34,-0.13 0,0 0.91,0.42 0.91,0.42 0.13,0.06 0.19,0.22 0.13,0.36 l -4.17,9.29 h -1.67 L 705.98,23 v 0 z m 14.68,27.46 c -0.09,0.48 -0.51,0.83 -0.99,0.83 h -20.9 c -0.48,0 -0.9,-0.35 -0.99,-0.83 l -2.44,-12.93 h 27.75 l -2.44,12.93 z m 4.09,-14.21 c 0,0 -0.04,0.08 -0.08,0.08 h -30.9 c 0,0 -0.08,-0.04 -0.08,-0.08 v -2.05 c 0,0 0.04,-0.08 0.08,-0.08 4.46,0 26,0 30.9,0 0.04,0 0.08,0.04 0.08,0.08 z"
         id="path1579"
         style="fill:#fb3e2b" />
      <path
         class="cls-76"
         d="m 699.46,43.38 c 0.33,0 0.6,-0.27 0.6,-0.6 v -3.36 c 0,-0.33 -0.27,-0.6 -0.6,-0.6 -0.33,0 -0.6,0.27 -0.6,0.6 v 3.36 c 0,0.33 0.27,0.6 0.6,0.6 z"
         id="path1581"
         style="fill:#fb3e2b" />
      <path
         class="cls-76"
         d="m 703.36,43.38 c 0.33,0 0.6,-0.27 0.6,-0.6 v -3.36 c 0,-0.33 -0.27,-0.6 -0.6,-0.6 -0.33,0 -0.6,0.27 -0.6,0.6 v 3.36 c 0,0.33 0.27,0.6 0.6,0.6 z"
         id="path1583"
         style="fill:#fb3e2b" />
      <path
         class="cls-76"
         d="m 707.27,43.38 c 0.33,0 0.6,-0.27 0.6,-0.6 v -3.36 c 0,-0.33 -0.27,-0.6 -0.6,-0.6 -0.33,0 -0.6,0.27 -0.6,0.6 v 3.36 c 0,0.33 0.27,0.6 0.6,0.6 z"
         id="path1585"
         style="fill:#fb3e2b" />
      <path
         class="cls-76"
         d="m 711.18,43.38 c 0.33,0 0.6,-0.27 0.6,-0.6 v -3.36 c 0,-0.33 -0.27,-0.6 -0.6,-0.6 -0.33,0 -0.6,0.27 -0.6,0.6 v 3.36 c 0,0.33 0.27,0.6 0.6,0.6 z"
         id="path1587"
         style="fill:#fb3e2b" />
      <path
         class="cls-76"
         d="m 715.09,43.38 c 0.33,0 0.6,-0.27 0.6,-0.6 v -3.36 c 0,-0.33 -0.27,-0.6 -0.6,-0.6 -0.33,0 -0.6,0.27 -0.6,0.6 v 3.36 c 0,0.33 0.27,0.6 0.6,0.6 z"
         id="path1589"
         style="fill:#fb3e2b" />
      <path
         class="cls-76"
         d="m 719,43.38 c 0.33,0 0.6,-0.27 0.6,-0.6 v -3.36 c 0,-0.33 -0.27,-0.6 -0.6,-0.6 -0.33,0 -0.6,0.27 -0.6,0.6 v 3.36 c 0,0.33 0.27,0.6 0.6,0.6 z"
         id="path1591"
         style="fill:#fb3e2b" />
      <path
         class="cls-76"
         d="m 701.41,49.98 c 0.33,0 0.6,-0.27 0.6,-0.6 v -3.36 c 0,-0.33 -0.27,-0.6 -0.6,-0.6 -0.33,0 -0.6,0.27 -0.6,0.6 v 3.36 c 0,0.33 0.27,0.6 0.6,0.6 z"
         id="path1593"
         style="fill:#fb3e2b" />
      <path
         class="cls-76"
         d="m 705.32,49.98 c 0.33,0 0.6,-0.27 0.6,-0.6 v -3.36 c 0,-0.33 -0.27,-0.6 -0.6,-0.6 -0.33,0 -0.6,0.27 -0.6,0.6 v 3.36 c 0,0.33 0.27,0.6 0.6,0.6 z"
         id="path1595"
         style="fill:#fb3e2b" />
      <path
         class="cls-76"
         d="m 709.23,49.98 c 0.33,0 0.6,-0.27 0.6,-0.6 v -3.36 c 0,-0.33 -0.27,-0.6 -0.6,-0.6 -0.33,0 -0.6,0.27 -0.6,0.6 v 3.36 c 0,0.33 0.27,0.6 0.6,0.6 z"
         id="path1597"
         style="fill:#fb3e2b" />
      <path
         class="cls-76"
         d="m 713.14,49.98 c 0.33,0 0.6,-0.27 0.6,-0.6 v -3.36 c 0,-0.33 -0.27,-0.6 -0.6,-0.6 -0.33,0 -0.6,0.27 -0.6,0.6 v 3.36 c 0,0.33 0.27,0.6 0.6,0.6 z"
         id="path1599"
         style="fill:#fb3e2b" />
      <path
         class="cls-76"
         d="m 717.04,49.98 c 0.33,0 0.6,-0.27 0.6,-0.6 v -3.36 c 0,-0.33 -0.27,-0.6 -0.6,-0.6 -0.33,0 -0.6,0.27 -0.6,0.6 v 3.36 c 0,0.33 0.27,0.6 0.6,0.6 z"
         id="path1601"
         style="fill:#fb3e2b" />
    </g>
  </g>
</svg>
