<?xml version="1.0" encoding="UTF-8" standalone="no"?>
<!-- Created with Inkscape (http://www.inkscape.org/) -->

<svg
   width="10.683875mm"
   height="8.9773121mm"
   viewBox="0 0 10.683875 8.9773121"
   version="1.1"
   id="svg4313"
   xmlns="http://www.w3.org/2000/svg"
   xmlns:svg="http://www.w3.org/2000/svg">
  <defs
     id="defs4310" />
  <g
     id="layer1"
     transform="translate(-83.654578,-98.995664)">
    <g
       id="g3428"
       transform="matrix(0.26458333,0,0,0.26458333,71.642495,93.330935)">
		<path
   class="st111"
   d="M 65.75,54.59 H 54.86 V 40.43 L 67.62,29.11 80.38,40.43 V 54.59 H 65.75"
   id="path3404"
   style="fill:none;stroke:#fb3e2b;stroke-width:1.5;stroke-linecap:round;stroke-linejoin:round;stroke-miterlimit:10" />

		<rect
   x="70.720001"
   y="43.290001"
   class="st111"
   width="4.9299998"
   height="4.9299998"
   id="rect3406"
   style="fill:none;stroke:#fb3e2b;stroke-width:1.5;stroke-linecap:round;stroke-linejoin:round;stroke-miterlimit:10" />

		<circle
   class="st111"
   cx="81.860001"
   cy="26.049999"
   r="3.1700001"
   id="circle3408"
   style="fill:none;stroke:#fb3e2b;stroke-width:1.5;stroke-linecap:round;stroke-linejoin:round;stroke-miterlimit:10" />

		<path
   class="st111"
   d="m 58.35,54.59 v -9.04 c 0,-2.03 1.66,-3.7 3.7,-3.7 v 0 c 2.03,0 3.7,1.66 3.7,3.7 v 9.04"
   id="path3410"
   style="fill:none;stroke:#fb3e2b;stroke-width:1.5;stroke-linecap:round;stroke-linejoin:round;stroke-miterlimit:10" />

		<line
   class="st111"
   x1="59.650002"
   y1="36.189999"
   x2="53.77"
   y2="29.110001"
   id="line3412"
   style="fill:none;stroke:#fb3e2b;stroke-width:1.5;stroke-linecap:round;stroke-linejoin:round;stroke-miterlimit:10" />

		<line
   class="st111"
   x1="57.32"
   y1="28.620001"
   x2="56.709999"
   y2="31.969999"
   id="line3414"
   style="fill:none;stroke:#fb3e2b;stroke-width:1.5;stroke-linecap:round;stroke-linejoin:round;stroke-miterlimit:10" />

		<line
   class="st111"
   x1="58.049999"
   y1="34.259998"
   x2="52.77"
   y2="34.52"
   id="line3416"
   style="fill:none;stroke:#fb3e2b;stroke-width:1.5;stroke-linecap:round;stroke-linejoin:round;stroke-miterlimit:10" />

		<path
   class="st111"
   d="m 49.65,26.77 c 0.3,-2.6 2.41,-4.61 4.98,-4.61 2.05,0 3.81,1.28 4.59,3.12"
   id="path3418"
   style="fill:none;stroke:#fb3e2b;stroke-width:1.5;stroke-linecap:round;stroke-linejoin:round;stroke-miterlimit:10" />

		<path
   class="st111"
   d="m 49.11,36.55 c -1.74,-0.82 -2.96,-2.65 -2.96,-4.78 0,-2.34 1.47,-4.33 3.5,-5"
   id="path3420"
   style="fill:none;stroke:#fb3e2b;stroke-width:1.5;stroke-linecap:round;stroke-linejoin:round;stroke-miterlimit:10" />

		<path
   class="st111"
   d="m 54.86,43.62 c -0.35,0.08 -0.72,0.13 -1.09,0.13 -2.77,0 -5.01,-2.35 -5.01,-5.25 0,-0.69 0.13,-1.34 0.36,-1.95"
   id="path3422"
   style="fill:none;stroke:#fb3e2b;stroke-width:1.5;stroke-linecap:round;stroke-linejoin:round;stroke-miterlimit:10" />

		<path
   class="st111"
   d="m 59.22,25.28 c 3.17,0.18 5.74,2.72 6.05,5.92"
   id="path3424"
   style="fill:none;stroke:#fb3e2b;stroke-width:1.5;stroke-linecap:round;stroke-linejoin:round;stroke-miterlimit:10" />

		<path
   class="st111"
   d="m 73.18,34.04 v -2.26 c 0,-0.82 0.67,-1.49 1.49,-1.49 v 0 c 0.82,0 1.49,0.67 1.49,1.49 v 4.89"
   id="path3426"
   style="fill:none;stroke:#fb3e2b;stroke-width:1.5;stroke-linecap:round;stroke-linejoin:round;stroke-miterlimit:10" />

	</g>
  </g>
</svg>
