<?xml version="1.0" encoding="UTF-8" standalone="no"?>
<svg
   id="Layer_2"
   viewBox="0 0 35.18 33.21"
   version="1.1"
   sodipodi:docname="Picto_List_Bleu.svg"
   inkscape:version="1.2.2 (b0a8486541, 2022-12-01)"
   xmlns:inkscape="http://www.inkscape.org/namespaces/inkscape"
   xmlns:sodipodi="http://sodipodi.sourceforge.net/DTD/sodipodi-0.dtd"
   xmlns="http://www.w3.org/2000/svg"
   xmlns:svg="http://www.w3.org/2000/svg">
  <sodipodi:namedview
     id="namedview30"
     pagecolor="#ffffff"
     bordercolor="#000000"
     borderopacity="0.25"
     inkscape:showpageshadow="2"
     inkscape:pageopacity="0.0"
     inkscape:pagecheckerboard="0"
     inkscape:deskcolor="#d1d1d1"
     showgrid="false"
     inkscape:zoom="11.542773"
     inkscape:cx="14.857782"
     inkscape:cy="9.7463581"
     inkscape:window-width="1920"
     inkscape:window-height="1011"
     inkscape:window-x="1920"
     inkscape:window-y="32"
     inkscape:window-maximized="1"
     inkscape:current-layer="Layer_2" />
  <defs
     id="defs4">
    <style
       id="style2">.cls-1{fill:#1c096b;}.cls-2{fill:none;stroke:#fb3e2b;stroke-linecap:round;stroke-linejoin:round;stroke-width:1.5px;}</style>
  </defs>
  <g
     id="g24">
    <line
       class="cls-2"
       x1="8.9200001"
       y1="0.75"
       x2="31.5"
       y2="0.75"
       id="line6" />
    <g
       id="g20">
      <line
         class="cls-2"
         x1="11.83"
         y1="8.0799999"
         x2="24"
         y2="8.0799999"
         id="line8" />
      <line
         class="cls-2"
         x1="12.67"
         y1="13.85"
         x2="26"
         y2="13.85"
         id="line10" />
      <line
         class="cls-2"
         x1="12.91"
         y1="19.68"
         x2="26.66"
         y2="19.68"
         id="line12" />
      <line
         class="cls-2"
         x1="11.17"
         y1="25.98"
         x2="24.92"
         y2="25.98"
         id="line14" />
      <path
         class="cls-2"
         d="M 34.25,5.77 C 34.4,5.14 35.12,1.4 32.11,0.76 25.71,0.57 28.75,9.05 30.54,13.2 c 1.07,2.48 1.57,4.79 -0.66,10.16 -1.84,4.43 0.56,7.92 0.76,9.11 H 7.19 c 0,0 -2.94,-4.13 0.16,-9.41 2.9,-4.95 0.83,-7.98 0.16,-11.37 C 6.17,4.91 8.92,0.76 8.92,0.76"
         id="path16" />
      <line
         class="cls-2"
         x1="34.25"
         y1="5.77"
         x2="28.290001"
         y2="5.8699999"
         id="line18" />
    </g>
    <line
       class="cls-2"
       x1="34.25"
       y1="5.77"
       x2="28.290001"
       y2="5.8699999"
       id="line22" />
  </g>
  <g
     id="g1089"
     transform="translate(0,7.0673946)">
    <circle
       class="cls-1"
       cx="6.1563897"
       cy="9.5426054"
       r="6.3299999"
       id="circle26" />
    <g
       id="g1083"
       transform="translate(-2.5482454,21.556311)"
       style="stroke:#ffffff;stroke-opacity:1">
      <path
         style="fill:#eeeeee;stroke:#ffffff;stroke-width:1.01441;stroke-miterlimit:3.5;stroke-dasharray:none;stroke-opacity:1"
         d="m 8.7046347,-15.252138 v 6.476865"
         id="path484" />
      <path
         style="fill:#eeeeee;stroke:#ffffff;stroke-width:1.01441;stroke-miterlimit:3.5;stroke-dasharray:none;stroke-opacity:1"
         d="M 11.943067,-12.013706 H 5.4662029"
         id="path484-3" />
    </g>
  </g>
</svg>
