<?xml version="1.0" encoding="UTF-8" standalone="no"?>
<!-- Generator: Adobe Illustrator 22.1.0, SVG Export Plug-In . SVG Version: 6.00 Build 0)  -->

<svg
   version="1.1"
   x="0px"
   y="0px"
   viewBox="0 0 280.80078 22.126952"
   xml:space="preserve"
   id="svg55"
   width="280.80078"
   height="22.126953"
   xmlns="http://www.w3.org/2000/svg"
   xmlns:svg="http://www.w3.org/2000/svg"><defs
   id="defs59"><linearGradient
     id="SVGID_1_"
     gradientUnits="userSpaceOnUse"
     x1="144.5771"
     y1="294.21469"
     x2="284.0834"
     y2="15.2026"
     gradientTransform="translate(-51.999327,-31.400594)">
		<stop
   offset="0.63749999"
   style="stop-color:#eeeeee;stop-opacity:1;"
   id="stop7" />
		<stop
   offset="1"
   style="stop-color:#E8E9E9"
   id="stop9" />
	</linearGradient></defs>
<style
   type="text/css"
   id="style2">
	.st0{opacity:0.42;}
	.st1{fill:url(#SVGID_1_);}
	.st2{opacity:0.49;fill:none;stroke:#1C096B;stroke-width:0.25;stroke-linecap:round;stroke-linejoin:round;stroke-miterlimit:10;}
	.st3{fill:none;stroke:#1C096B;stroke-width:0.5;stroke-linecap:round;stroke-linejoin:round;stroke-miterlimit:10;}
</style>
<g
   id="Calque_4"
   transform="translate(-51.664062,-29.931641)">
</g>
<path
   id="path12"
   style="fill:#eeeeee;fill-opacity:1"
   class="st1"
   d="m 134.10156,0 0.0996,1.699218 c 0.3,0.2 0.79922,1.600392 1.19922,2.900391 0.3,0.799999 0.49961,1.39961 0.59961,1.599609 0.5,0.8 0.70156,1.699611 0.60156,2.59961 C 136.40156,10.498826 135.00077,11.8 133.30077,12 c -1.1,0.1 -2.10039,-0.200392 -2.90039,-0.900391 -0.8,-0.699999 -1.29883,-1.700782 -1.29883,-2.800781 0,-1.199999 0.60001,-2.300001 1.5,-3 0.1,-0.1 -0.10078,-0.998829 -0.30078,-1.798828 -0.2,-0.899999 -0.40078,-1.700001 -0.30078,-2 l -0.39844,-1.400391 h -16.80078 l -1,5.5 c 1,0.899999 1.39961,2.200001 1.09961,3.5 -0.3,1.399999 -1.40039,2.600391 -2.90039,2.900391 -1.1,0.199999 -2.29922,-7.82e-4 -3.19922,-0.800782 -0.9,-0.699999 -1.40039,-1.800391 -1.40039,-2.90039 0,-1.399999 0.8,-2.698829 2,-3.298828 L 107.20116,0.099609 H 89.999988 l -1.29883,5.599609 c 0.9,0.899999 1.3,2.200002 1,3.5 -0.3,1.399999 -1.40078,2.500782 -2.80078,2.800782 -1.1,0.199999 -2.29922,-0.0012 -3.19922,-0.701172 -0.89999,-0.7 -1.40039,-1.800392 -1.40039,-2.900391 0,-1.299999 0.70079,-2.499219 1.80078,-3.199219 l 1.89844,-5 h -20.59961 l -0.5,5.5 c 1,0.899999 1.39961,2.200002 1.09961,3.5 -0.3,1.399999 -1.39844,2.600391 -2.89844,2.900391 -1.09999,0.2 -2.30117,-7.82e-4 -3.20117,-0.800781 -0.9,-0.7 -1.40039,-1.800392 -1.40039,-2.900391 0,-1.099999 0.50078,-2.098438 1.30078,-2.898437 L 58.999998,0.099609 H 43 l -2,5.298828 c 1,0.799999 1.600391,2.100002 1.400391,3.5 C 42.200391,10.498436 40.801561,11.9 39.101563,12 38.001564,12.1 37.001172,11.799608 36.201172,11.099609 35.401173,10.39961 34.900391,9.398827 34.900391,8.298828 c 0,-0.999999 0.39961,-1.89961 1.099609,-2.59961 L 34.900391,0.099609 H 16.800782 L 17.5,5.298828 c 1.199999,0.899999 1.700391,2.400782 1.400391,3.800781 -0.3,1.399999 -1.500392,2.598828 -2.900391,2.798828 -1.099998,0.2 -2.29961,-0.09883 -3.099609,-0.798828 C 12.000392,10.599609 11.500001,9.599999 11.5,8.5 c 0,-0.899999 0.300782,-1.700782 0.800782,-2.300782 l -2.5,-5.90039 H 0 V 22.126953 H 280.80078 V 0.199218 H 269.90039 L 269.20117,1.298828 268.30078,5.5 c 0.4,0.299999 1,1.798438 1,2.898437 0,1.099999 -0.50039,2.200391 -1.40039,2.900391 -0.9,0.699999 -1.99922,1.000781 -3.19922,0.800781 -1.39999,-0.3 -2.60039,-1.400392 -2.90039,-2.900391 -0.2,-1.099999 7.9e-4,-2.299219 0.80078,-3.199218 0.7,-0.899999 1.79844,-1.400391 2.89844,-1.400391 0.1,-0.2 0.30039,-2.200001 0.40039,-3.5 l -0.40039,-1 h -18.19922 l -0.19922,5.099609 c 1.3,0.899999 1.9,2.400393 1.5,3.900391 -0.29999,1.399999 -1.40078,2.498828 -2.80078,2.798828 -1.1,0.2 -2.29922,7.81e-4 -3.19922,-0.699219 -0.89999,-0.699999 -1.40039,-1.800391 -1.40039,-2.90039 0,-1.399999 0.7004,-2.598829 1.90039,-3.298828 L 242.90039,0.099609 H 225.20117 L 227,5.199218 c 1.3,0.899999 1.9,2.400393 1.5,3.900391 -0.3,1.399999 -1.39883,2.498828 -2.79883,2.798828 -1.09999,0.2 -2.30117,7.81e-4 -3.20117,-0.699219 -0.9,-0.699999 -1.39844,-1.800391 -1.39844,-2.90039 C 221.10156,6.898829 221.8,5.699999 223,5 l -2.19922,-4.900391 h -14.69922 l -0.20117,5.099609 c 1.3,0.899999 1.9,2.400393 1.5,3.900391 -0.3,1.399999 -1.39883,2.498828 -2.79883,2.798828 -1.09999,0.2 -2.30117,7.81e-4 -3.20117,-0.699219 C 200.50039,10.499219 200,9.398827 200,8.298828 200,6.898829 200.70039,5.699999 201.90039,5 L 201.70117,0.099609 H 178.5 l 0.90039,4.5 c 0.5,-0.1 1,-0.1 1.5,0 1.4,0.3 2.60039,1.39883 2.90039,2.798828 0.3,1.199999 -3.9e-4,2.500392 -0.90039,3.400391 -0.8,0.899999 -1.99883,1.301172 -3.29883,1.201172 -1.59999,-0.2 -2.90117,-1.500002 -3.20117,-3 -0.1,-0.7 -0.10039,-1.300392 0.0996,-1.900391 L 175.99999,2.5 174.30077,0.099609 h -14.69922 l -0.5,5.5 c 0.9,0.899999 1.29961,2.200001 1.09961,3.5 -0.3,1.399999 -1.40078,2.498828 -2.80078,2.798828 -1.1,0.2 -2.29922,0.0012 -3.19922,-0.798828 -0.89999,-0.699999 -1.40039,-1.800392 -1.40039,-2.900391 0,-1.099999 0.50079,-2.100782 1.30078,-2.800781 L 154.20115,0 Z" />

<g
   id="textes"
   transform="translate(-51.664062,-29.931641)">
	<g
   id="g52">
		<line
   class="st3"
   x1="605.70001"
   y1="162.7"
   x2="613.29999"
   y2="162.7"
   id="line38" />
		<g
   id="g44">
			<path
   class="st3"
   d="m 614,164.3 c 0,-0.2 0,-1.5 -0.7,-1.7 -2.1,-0.1 -1.1,2.7 -0.5,4.1 0.4,0.8 0.5,1.6 -0.2,3.4 -0.6,1.5 0.2,2.6 0.3,3 h -7.8 c 0,0 -1,-1.4 0.1,-3.1 1,-1.6 0.3,-2.6 0.1,-3.8 -0.4,-2.2 0.5,-3.6 0.5,-3.6"
   id="path40" />
			<line
   class="st3"
   x1="614"
   y1="164.3"
   x2="612.09998"
   y2="164.39999"
   id="line42" />
		</g>
		<g
   id="g50">
			<path
   class="st3"
   d="m 614,164.3 c 0,-0.2 0,-1.5 -0.7,-1.7 -2.1,-0.1 -1.1,2.7 -0.5,4.1 0.4,0.8 0.5,1.6 -0.2,3.4 -0.6,1.5 0.2,2.6 0.3,3 h -7.8 c 0,0 -1,-1.4 0.1,-3.1 1,-1.6 0.3,-2.6 0.1,-3.8 -0.4,-2.2 0.5,-3.6 0.5,-3.6"
   id="path46" />
			<line
   class="st3"
   x1="614"
   y1="164.3"
   x2="612.09998"
   y2="164.39999"
   id="line48" />
		</g>
	</g>
</g>
</svg>
