<?xml version="1.0" encoding="utf-8"?>
<!-- Generator: Adobe Illustrator 27.9.0, SVG Export Plug-In . SVG Version: 6.00 Build 0)  -->
<svg version="1.1" id="Calque_1" xmlns="http://www.w3.org/2000/svg" xmlns:xlink="http://www.w3.org/1999/xlink" x="0px" y="0px"
	 viewBox="0 0 46 46" style="enable-background:new 0 0 46 46;" xml:space="preserve">
<style type="text/css">
	.st0{fill:#1C096B;}
</style>
<g>
	<path class="st0" d="M28.3,17.5c-0.2-0.1-0.4,0-0.5,0.2l-4.7,10.8l-4.8-10.8c-0.1-0.2-0.3-0.3-0.5-0.2c-0.2,0.1-0.3,0.3-0.2,0.5
		l5.2,11.6c0.1,0.1,0.2,0.2,0.3,0.2c0.2,0,0.3-0.1,0.3-0.2L28.5,18C28.5,17.8,28.5,17.6,28.3,17.5z"/>
	<path class="st0" d="M23,9C15.3,9,9,15.3,9,23c0,7.7,6.3,14,14,14c7.7,0,14-6.3,14-14C37,15.3,30.7,9,23,9z M23,36.3
		c-7.3,0-13.3-5.9-13.3-13.3S15.7,9.7,23,9.7c7.3,0,13.3,5.9,13.3,13.3S30.3,36.3,23,36.3z"/>
</g>
</svg>
