<!-- Generator: Adobe Illustrator 22.1.0, SVG Export Plug-In . SVG Version: 6.00 Build 0)  -->
<svg version="1.1" xmlns="http://www.w3.org/2000/svg" xmlns:xlink="http://www.w3.org/1999/xlink" x="0px" y="0px"
	 viewBox="0 0 841.9 512.5" style="enable-background:new 0 0 841.9 512.5;" xml:space="preserve">
<style type="text/css">
	.st0{display:none;}
	.st1{display:inline;fill:#E81818;}
	.st2{display:inline;fill:#17ADA9;}
	.st3{fill:#47847A;}
	.st4{fill:#3AC1BA;}
	.st5{fill:none;stroke:#8CCAAE;stroke-width:3;stroke-linecap:round;stroke-miterlimit:10;}
	.st6{fill:#C0D8D5;}
	.st7{fill:#A7EAFC;}
	.st8{display:none;fill:#FF5738;}
	.st9{display:none;fill:#A7EAFC;}
	.st10{fill:none;stroke:#FFFFFF;stroke-width:3;stroke-linecap:round;stroke-linejoin:round;stroke-miterlimit:10;}
	.st11{fill:#FF5738;}
	.st12{fill:none;stroke:#C1362F;stroke-miterlimit:10;}
	.st13{fill:#C1362F;}
	.st14{fill:#992926;}
	.st15{fill:#B6D1D3;}
	.st16{fill:#7C8D8E;}
	.st17{fill:#FF8C7D;}
	.st18{fill:#8CCAAE;}
	.st19{fill:#76A59A;}
	.st20{fill:none;stroke:#17ADA9;stroke-width:2;stroke-linecap:round;stroke-linejoin:round;stroke-miterlimit:10;}
	.st21{fill:none;stroke:#FF5738;stroke-width:3;stroke-linecap:round;stroke-linejoin:round;stroke-miterlimit:10;}
	.st22{fill:#FFFFFF;}
	.st23{fill:#649990;}
	.st24{fill:#AFC6C3;}
	.st25{opacity:0.75;}
	.st26{fill:none;}
	.st27{font-family:'ArialMT';}
	.st28{font-size:12px;}
	.st29{font-family:'OpenSans-Bold';}
	.st30{font-size:13px;}
	.st31{letter-spacing:53;}
	.st32{fill:#17ADA9;}
	.st33{fill:#001BD2;}
	.st34{fill:#001EBB;}
	.st35{fill:none;stroke:#FFFFFF;stroke-width:2;stroke-miterlimit:10;}
	.st36{fill:none;stroke:#47847A;stroke-width:1.5;stroke-linecap:round;stroke-linejoin:round;stroke-miterlimit:10;}
	.st37{fill:#2B4294;}
	.st38{display:none;fill:#1C096B;}
	.st39{fill:#80C5AB;}
	.st40{fill:#1C096B;}
	.st41{fill:#F7CECB;}
	.st42{fill:#DD8D78;}
	.st43{fill:#FFFFFF;stroke:#8CCAAE;stroke-width:5;stroke-miterlimit:10;}
	.st44{fill:none;stroke:#C0D8D5;stroke-width:3;stroke-linecap:round;stroke-linejoin:round;stroke-miterlimit:10;}
	.st45{opacity:0.42;fill:#FFFFFF;enable-background:new    ;}
	.st46{fill:none;stroke:#C0D8D5;stroke-width:3;stroke-miterlimit:10;}
	.st47{fill:none;stroke:#001BD2;stroke-width:0.75;stroke-linecap:round;stroke-linejoin:round;stroke-miterlimit:10;}
	.st48{opacity:0.45;fill:#8CCAAE;enable-background:new    ;}
	.st49{fill:#F7D5D0;}
	.st50{fill:none;stroke:#8CCAAE;stroke-width:1.5;stroke-linecap:round;stroke-linejoin:round;stroke-miterlimit:10;}
	.st51{opacity:0.31;}
	.st52{fill:#417269;}
	.st53{fill:#759690;}
	.st54{display:inline;}
	.st55{fill:#006633;}
	.st56{display:inline;opacity:0.75;}
	.st57{fill:none;stroke:#3D776C;stroke-width:1.5;stroke-linecap:round;stroke-linejoin:round;stroke-miterlimit:10;}
	.st58{letter-spacing:55;}
</style>
<g id="Calque_2">
</g>
<g id="Calque_1">
	<g id="Calque_3" class="st0">
		<rect x="-76.4" y="-49.6" class="st1" width="988.5" height="622.5"/>
	</g>
	<g id="Layer_1">
		<g id="bkg" class="st0">
			<rect y="0" class="st2" width="841.9" height="512.5"/>
		</g>
		<g id="Entree">
			<g id="Exterieur">
				<path class="st3" d="M507,302.3c0,0,15-2.3,23.4,11.1c5.2,8.4,11.7,16.5,32.8,25.4s40,6.4,48.1,23.5c7.5,15.9,5,12.4,30.8,24.4
					c14.6,6.9,12.8,24,12.8,24H507"/>
			</g>
			<g id="Bricks">
				<rect x="301" y="49.2" class="st4" width="55.4" height="22.5"/>
				<rect x="497.6" y="24.3" class="st4" width="55.4" height="22.5"/>
				<rect x="444.6" y="73.1" class="st4" width="55.4" height="22.5"/>
				<rect x="415.2" y="49.4" class="st4" width="55.4" height="22.5"/>
				<line class="st5" x1="586.1" y1="23.1" x2="241.8" y2="23.1"/>
				<line class="st5" x1="586.1" y1="48.1" x2="241.8" y2="48.1"/>
				<line class="st5" x1="259.3" y1="72.5" x2="570.6" y2="72.5"/>
				<line class="st5" x1="547.9" y1="97.2" x2="282" y2="97.2"/>
				<line class="st5" x1="326.5" y1="96.2" x2="326.5" y2="72.5"/>
				<line class="st5" x1="300" y1="72.5" x2="300" y2="48.9"/>
				<line class="st5" x1="357.4" y1="71.7" x2="357.4" y2="48.1"/>
				<line class="st5" x1="468.9" y1="72.5" x2="468.9" y2="48.9"/>
				<line class="st5" x1="525.3" y1="71.7" x2="525.3" y2="48.1"/>
				<line class="st5" x1="414.4" y1="71.7" x2="414.4" y2="48.1"/>
				<line class="st5" x1="273.9" y1="48.1" x2="273.9" y2="24.5"/>
				<line class="st5" x1="330.3" y1="47.3" x2="330.3" y2="23.7"/>
				<line class="st5" x1="441.8" y1="48.1" x2="441.8" y2="24.5"/>
				<line class="st5" x1="498.2" y1="47.3" x2="498.2" y2="23.7"/>
				<line class="st5" x1="387.2" y1="47.3" x2="387.2" y2="23.7"/>
				<line class="st5" x1="552.2" y1="47.7" x2="552.2" y2="24.1"/>
				<line class="st5" x1="498.7" y1="96" x2="498.7" y2="72.4"/>
			</g>
			<g id="nuages">
				<path class="st6" d="M120.8,143.7c0,0,12.3-17.2,28.9-3.7c6.2,5,17.3,0.7,24.6,3.7c6.2,2.6,8.4,9.1,6.4,14.2
					c-1.7,4.3-9,7.7-19.4,6s-13.6-4.8-16.5-5.2c-17.6-2.3-11.8,9.5-27.3,7.5c-9.4-1.2-11.9-8.3-21.5-9.2c-6.5-0.6,0-9.8,7.6-9.3
					C110,148.2,116.8,148.3,120.8,143.7z"/>
				<path class="st7" d="M761.3,64.4c0,0-11-15.4-26-3.4c-5.6,4.5-15.5,0.6-22,3.4c-5.6,2.4-7.6,8.1-5.7,12.8
					c1.5,3.8,8,6.9,17.4,5.4s12.2-4.3,14.8-4.6c15.8-2.1,10.6,8.6,24.5,6.8c8.5-1.1,10.7-7.4,19.3-8.3c5.8-0.6,0-8.7-6.8-8.4
					C771,68.4,764.9,68.5,761.3,64.4z"/>
				<path class="st8" d="M311.4,99.1c0,0-6.6,1.2-19.2,0.3c-12.6-0.9-17.8-11.4-31.5-8.5c-12.3,2.6-21.1-0.3-26-9.8
					c-4.2-8.1-2.8-14.6,1.3-20.5c5.3-7.9,16.1-7.6,19.7-8.8c3.6-1.3,10.1-5.3,13.5-9.7c0,0,7.5-13.7,30.6-5.6
					c9.4,3.3,10.6-11.1,27.9-10.1c14.1,0.8,12,13.4,21.1,14.1c4.5,0.4,22.3,5.3,27.8,19.5c0,0,6.8,8.5-9.4,20.8"/>
				<path class="st9" d="M384.4,116.2c7,0.8,20.5,0.7,27.7-1.8c13.3-4.6,25.1-3.5,47-1.7s40.2-21.4,5.9-27.5
					c-13.3-2.3-21.5,1-40.1-12.4c-14.6-10.5-23.2-26-53.6-20.5c-27.1,4.9-26.8,23.4-43.2,29.6c-14.4,5.4-27.7,5.3-34.5,14.1
					c-4.9,6.4-8.5,17.2,10.2,21.2s25.5-3,37.8-5.6c12.2-2.5,20.6-0.6,33.7,2.7"/>
				<path class="st10" d="M358.1,95.9c0,0,13.7-3.2,22.7-22.1"/>
			</g>
			<g id="boiteauxlettres">
				<g>
					<g>
						<g>
							<g>
								<polyline class="st11" points="228.9,214.2 228.9,302.5 288.1,302.5 288.1,214.2 								"/>
							</g>
						</g>
					</g>
					<g>
						<path class="st12" d="M286.1,216.6V301H231v-84.4H286.1z"/>
					</g>
					<g>
						<path class="st13" d="M279.6,296.4h-42.2v-42.2h42.2V296.4z M238.4,295.4h40.2v-40.2h-40.2L238.4,295.4L238.4,295.4z"/>
					</g>
					<g>
						<path class="st13" d="M279.6,243.8h-42.2v-12h42.2V243.8z M238.4,242.8h40.2v-10h-40.2L238.4,242.8L238.4,242.8z"/>
					</g>
					<g>
						<path class="st14" d="M275.5,239.5h-33.9c-1,0-1.7-0.8-1.7-1.7l0,0c0-1,0.8-1.7,1.7-1.7h33.9c1,0,1.7,0.8,1.7,1.7l0,0
							C277.2,238.7,276.4,239.5,275.5,239.5z"/>
					</g>
					<g>
						<circle class="st14" cx="258.5" cy="266.7" r="4.5"/>
					</g>
					<g>
						<ellipse class="st15" cx="258.5" cy="265.8" rx="4.5" ry="4.5"/>
					</g>
					<g>
						<path class="st16" d="M258.5,269.7c-2.2,0-4-1.8-4-4s1.8-4,4-4s4,1.8,4,4C262.5,267.9,260.7,269.7,258.5,269.7z M258.5,261.9
							c-2.1,0-3.8,1.7-3.8,3.8s1.7,3.8,3.8,3.8s3.8-1.7,3.8-3.8S260.6,261.9,258.5,261.9z"/>
					</g>
					<g>
						<path class="st16" d="M259.7,265.6c0.2-0.3,0.4-0.6,0.5-0.9c0.2-0.6,0-1.3-0.4-1.7c-0.3-0.3-0.8-0.6-1.2-0.5
							c-0.4,0-0.9,0.2-1.2,0.5c-0.4,0.4-0.6,1.1-0.4,1.7c0.1,0.3,0.3,0.6,0.5,0.9c0,0.1,0.1,0.1,0.1,0.2s0,0.1,0,0.2
							c-0.1,0.7-0.3,1.5-0.4,2.2c0.5,0.1,1,0.2,1.5,0.2s1-0.1,1.5-0.2c-0.1-0.7-0.3-1.5-0.4-2.2c0-0.1,0-0.1,0-0.2
							C259.6,265.7,259.6,265.7,259.7,265.6z"/>
					</g>
					<g>
						<g>
							<rect x="245.9" y="277.4" class="st17" width="25.2" height="8.9"/>
						</g>
					</g>
					<g>
						<g>
							<g>
								<path class="st13" d="M256.8,229.1c0-1.2-0.6-2.4-1.3-3.3c-0.8-1-1.9-1.6-3.1-2.1c-1.2-0.5-2.5-0.7-3.8-0.8
									s-2.6,0.1-3.7,0.7c-1,0.5-1.7,1.5-2,2.5c-0.3,1.1,0.1,2.3,1,3.1c1,0.8,2.4,1.2,3.6,0.8c1.1-0.4,2-1.4,2.1-2.6
									c0.1-0.6-0.1-1.3-0.5-1.8c-0.4-0.4-0.9-0.7-1.5-0.7s-1.1,0.2-1.5,0.7c-0.3,0.4-0.4,0.9-0.2,1.4c0.1,0.3,0.3,0.5,0.5,0.6
									c0.5,0.3,0.9-0.5,0.4-0.7c0,0-0.1-0.1-0.1,0c0,0-0.1-0.1,0,0l-0.1-0.1v-0.1c0,0.1,0,0,0-0.1v-0.1c0,0.1,0-0.1,0-0.1v-0.1
									c0-0.1,0.1-0.2,0.1-0.2l0,0c0.1-0.1,0,0,0.1-0.1c0.2-0.1,0.3-0.1,0.5-0.1c0.4,0,0.8,0.2,1,0.5c0.3,0.3,0.4,0.8,0.3,1.2
									c-0.1,0.9-0.9,1.6-1.7,1.8c-1,0.3-2-0.1-2.7-0.8c-0.7-0.6-0.8-1.5-0.5-2.3s0.9-1.5,1.7-1.9c0.9-0.5,2-0.5,3-0.5
									c1.1,0.1,2.2,0.3,3.2,0.6c1.9,0.6,3.7,2,4.1,4c0,0.2,0.1,0.5,0.1,0.7C256,229.7,256.8,229.7,256.8,229.1L256.8,229.1z"/>
							</g>
						</g>
						<g>
							<g>
								<path class="st13" d="M254,224.4c-0.8-0.2-1.1-1-1.2-1.8c0-0.7,0.1-1.6,0.8-1.8c0.4-0.1,0.8-0.1,1.2-0.1s0.7,0.1,1,0.3
									c0.2,0.2,0.4,0.5,0.4,0.8s-0.1,0.6-0.4,0.7c-0.2,0.2-0.6,0.3-0.8,0.1c-0.1,0-0.3-0.2-0.3-0.3c0,0,0,0,0-0.1l0,0
									c0,0-0.1,0,0,0c0.5,0.2,0.7-0.6,0.2-0.8c-0.7-0.2-1.3,0.5-1.1,1.1c0.1,0.6,0.7,0.9,1.3,0.9c0.5,0,1-0.2,1.4-0.6
									c0.4-0.4,0.5-1,0.4-1.5s-0.4-1-0.9-1.3c-0.5-0.4-1.2-0.4-1.8-0.3c-0.6,0-1.2,0.1-1.7,0.6c-0.4,0.4-0.6,1-0.7,1.5
									c-0.2,1.3,0.4,2.8,1.7,3.2C254.3,225.4,254.5,224.6,254,224.4L254,224.4z"/>
							</g>
						</g>
					</g>
					<g>
						<g>
							<g>
								<path class="st13" d="M261.2,229.1c0.1-2.1,1.7-3.7,3.5-4.4c1-0.4,2.1-0.7,3.1-0.8s2.1-0.2,3.2,0.1c0.9,0.3,1.7,0.8,2.1,1.6
									c0.4,0.7,0.6,1.6,0.2,2.3c-0.5,0.9-1.5,1.4-2.5,1.4c-0.9,0-1.8-0.5-2.2-1.3c-0.4-0.8-0.2-1.9,0.6-2.3c0.3-0.1,0.7-0.2,1,0
									c0,0,0,0,0.1,0.1l0.1,0.1c0,0,0.1,0.1,0.1,0.2v0.1v0.1v0.1v0.1v0.1c0-0.1,0,0,0,0.1l0,0l0,0l0,0c0,0,0,0-0.1,0
									c-0.5,0.3,0,1,0.4,0.7c0.5-0.3,0.6-0.8,0.5-1.3s-0.5-1-1-1.2s-1.1-0.1-1.7,0.1c-0.5,0.3-0.9,0.8-1.1,1.4
									c-0.3,1.2,0.3,2.4,1.3,3.1c1.1,0.7,2.4,0.7,3.5,0.1c1.1-0.5,1.9-1.6,1.9-2.8c0-1.1-0.6-2.2-1.4-2.9c-1-0.8-2.2-1.1-3.5-1.2
									c-1.3,0-2.6,0.2-3.8,0.5c-1.2,0.3-2.4,0.9-3.4,1.8c-0.9,0.8-1.6,1.8-1.8,3c-0.1,0.3-0.1,0.6-0.1,0.9
									C260.3,229.7,261.2,229.7,261.2,229.1L261.2,229.1z"/>
							</g>
						</g>
						<g>
							<g>
								<path class="st13" d="M263.3,225.2c1.2-0.4,1.8-1.6,1.8-2.8c0-0.5-0.1-1.1-0.4-1.6s-0.9-0.8-1.5-0.9
									c-0.6-0.1-1.3-0.1-1.9,0.1c-0.5,0.2-0.9,0.6-1.1,1.1s-0.2,1.1,0.1,1.5c0.2,0.4,0.7,0.8,1.2,0.9c0.6,0.1,1.3-0.1,1.6-0.7
									c0.2-0.3,0.2-0.7-0.1-1c-0.2-0.3-0.6-0.5-0.9-0.4c-0.5,0.2-0.3,0.9,0.2,0.8c0.1,0,0,0,0,0l0.1,0.1c0,0.1-0.1,0.2-0.2,0.3
									c-0.2,0.2-0.5,0.1-0.8,0c-0.6-0.3-0.7-1-0.3-1.5c0.2-0.3,0.5-0.4,0.8-0.5c0.4-0.1,0.9,0,1.3,0c0.4,0.1,0.7,0.2,0.9,0.5
									c0.2,0.3,0.2,0.7,0.2,1c0,0.8-0.3,1.8-1.2,2.1C262.6,224.6,262.8,225.4,263.3,225.2L263.3,225.2z"/>
							</g>
						</g>
					</g>
				</g>
			</g>
			<g id="sol">
				<g>
					<polygon class="st3" points="685.3,435.1 634,437.3 634,416.8 685.3,416.5 					"/>
					<path class="st3" d="M123.9,429.2c26-13.6,140.5-23.8,277.9-23.8c156.5,0,283.4,13.3,283.4,29.6c0,16.4-126.9,29.6-283.4,29.6
						s-283.4-11.1-283.4-27.4"/>
					<rect x="118.4" y="416.8" class="st3" width="51.8" height="20.4"/>
					<path class="st6" d="M118.4,416.8c23.6-15.3,146.1-29.6,283.4-29.6c156.5,0,283.4,13.3,283.4,29.6
						c0,16.4-126.9,29.6-283.4,29.6S118.4,433.2,118.4,416.8"/>
				</g>
				<g>
					<path class="st6" d="M492.4,403.9H336.3L301.9,463c0,0,73,3.5,117.5,2.7c56.6-1,107.9-4.2,107.9-4.2L492.4,403.9z"/>
				</g>
				<g>
					<polygon class="st18" points="469.2,408.9 357.8,408.9 347.8,437.6 479.3,437.6 					"/>
					<polygon class="st13" points="462.7,412.4 363,412.4 357.2,432.4 468.7,432.4 					"/>
					<rect x="347.8" y="437.6" class="st3" width="131.5" height="2.4"/>
				</g>
				<polyline class="st19" points="492.4,403.9 527.3,443.4 527.3,461.6 492.4,403.9 				"/>
				<polyline class="st19" points="336.3,403.9 301.5,444.5 301.9,463.1 336.3,403.9 				"/>
				<path class="st20" d="M518.1,414.2c-0.5,3-0.7,6.3,0.2,8.7"/>
				<path class="st20" d="M524.2,418.6c-0.5,3-0.7,6.3,0.2,8.7"/>
				<path class="st20" d="M533.2,418.6c-2.6,1.7-5,3.9-6.1,6.2"/>
				<path class="st20" d="M534.2,423c-1.9,2.4-3.7,5.2-4,7.7"/>
				<path class="st20" d="M620.7,417.2c-0.2-3.1-0.7-6.3-2.2-8.4"/>
				<path class="st20" d="M624.2,408.6c-0.5,3-0.7,6.3,0.2,8.7"/>
				<path class="st20" d="M630.2,407.8c-1.8,2.5-3.3,5.4-3.4,8"/>
				<path class="st20" d="M571.9,422.1c-1.4,2.7-2.6,5.8-2.4,8.4"/>
				<g>
					<line class="st21" x1="454.4" y1="410.9" x2="452.8" y2="416"/>
					<line class="st21" x1="461.6" y1="420.8" x2="461.5" y2="426.1"/>
					<line class="st21" x1="462.7" y1="412.4" x2="461.4" y2="417.5"/>
					<line class="st21" x1="465.8" y1="416.4" x2="463.6" y2="421.5"/>
					<line class="st21" x1="466.1" y1="422.4" x2="464.7" y2="427.6"/>
					<line class="st21" x1="461" y1="425.2" x2="462.1" y2="430.7"/>
					<line class="st21" x1="448.5" y1="413.2" x2="449.2" y2="419.5"/>
					<line class="st21" x1="457.8" y1="412.7" x2="457.8" y2="419"/>
					<line class="st21" x1="452.4" y1="419.3" x2="453.5" y2="424.5"/>
					<line class="st21" x1="459.7" y1="426.2" x2="457" y2="430.7"/>
					<line class="st21" x1="468.2" y1="426.2" x2="465.3" y2="430.6"/>
					<line class="st21" x1="457.8" y1="421.5" x2="455.6" y2="426.6"/>
					<line class="st21" x1="451.3" y1="425" x2="453.7" y2="430.9"/>
					<line class="st21" x1="443.9" y1="410.9" x2="445.5" y2="416"/>
					<line class="st21" x1="436.9" y1="420.1" x2="434.5" y2="424.8"/>
					<line class="st21" x1="435.5" y1="412.4" x2="436.9" y2="417.5"/>
					<line class="st21" x1="431.1" y1="412.8" x2="433.4" y2="417.9"/>
					<line class="st21" x1="431.3" y1="420" x2="433.6" y2="424.9"/>
					<line class="st21" x1="436.3" y1="425.2" x2="435.1" y2="430.7"/>
					<line class="st21" x1="449.4" y1="424.2" x2="448.8" y2="430.5"/>
					<line class="st21" x1="440.5" y1="412.7" x2="440.5" y2="419"/>
					<line class="st21" x1="445.9" y1="419.3" x2="444.8" y2="424.5"/>
					<line class="st21" x1="438.6" y1="426.2" x2="441.3" y2="430.7"/>
					<line class="st21" x1="430.9" y1="425.9" x2="432.2" y2="431"/>
					<line class="st21" x1="440.5" y1="421.5" x2="442.7" y2="426.6"/>
					<line class="st21" x1="447" y1="425" x2="444.6" y2="430.9"/>
					<line class="st21" x1="372.4" y1="410.9" x2="374" y2="416"/>
					<line class="st21" x1="365.1" y1="420.8" x2="365.2" y2="426.1"/>
					<line class="st21" x1="364" y1="412.4" x2="365.4" y2="417.5"/>
					<line class="st21" x1="360.9" y1="416.4" x2="363.2" y2="421.5"/>
					<line class="st21" x1="360.7" y1="422.4" x2="362.1" y2="427.6"/>
					<line class="st21" x1="365.7" y1="425.2" x2="364.6" y2="430.7"/>
					<line class="st21" x1="378.2" y1="413.2" x2="377.6" y2="419.5"/>
					<line class="st21" x1="368.9" y1="412.7" x2="368.9" y2="419"/>
					<line class="st21" x1="374.4" y1="419.3" x2="373.3" y2="424.5"/>
					<line class="st21" x1="391.8" y1="412.4" x2="389.9" y2="417.4"/>
					<line class="st21" x1="367" y1="426.2" x2="369.8" y2="430.7"/>
					<line class="st21" x1="358.6" y1="426.2" x2="361.5" y2="430.6"/>
					<line class="st21" x1="368.9" y1="421.5" x2="371.2" y2="426.6"/>
					<line class="st21" x1="375.4" y1="425" x2="373.1" y2="430.9"/>
					<line class="st21" x1="382.9" y1="410.9" x2="381.2" y2="416"/>
					<line class="st21" x1="377.3" y1="424.2" x2="378" y2="430.5"/>
					<line class="st21" x1="386.3" y1="412.7" x2="386.3" y2="419"/>
					<line class="st21" x1="389.7" y1="424.5" x2="391.4" y2="430.6"/>
					<line class="st21" x1="380.9" y1="419.3" x2="381.9" y2="424.5"/>
					<line class="st21" x1="388.2" y1="426.2" x2="385.5" y2="430.7"/>
					<line class="st21" x1="386.3" y1="421.5" x2="384" y2="426.6"/>
					<line class="st21" x1="379.8" y1="425" x2="382.1" y2="430.9"/>
					<line class="st21" x1="418.4" y1="410.9" x2="416.8" y2="416"/>
					<line class="st21" x1="425.6" y1="420.8" x2="425.5" y2="426.1"/>
					<line class="st21" x1="426.7" y1="412.4" x2="425.4" y2="417.5"/>
					<line class="st21" x1="429.8" y1="416.4" x2="427.6" y2="421.5"/>
					<line class="st21" x1="427.6" y1="425.2" x2="428.7" y2="430.7"/>
					<line class="st21" x1="412.5" y1="413.2" x2="413.2" y2="419.5"/>
					<line class="st21" x1="421.8" y1="412.7" x2="421.8" y2="419"/>
					<line class="st21" x1="416.4" y1="419.3" x2="417.5" y2="424.5"/>
					<line class="st21" x1="424.5" y1="426.2" x2="421.8" y2="430.7"/>
					<line class="st21" x1="421.8" y1="421.5" x2="419.6" y2="426.6"/>
					<line class="st21" x1="415.3" y1="425" x2="417.7" y2="430.9"/>
					<line class="st21" x1="407.9" y1="410.9" x2="409.5" y2="416"/>
					<line class="st21" x1="400.9" y1="420.1" x2="398.5" y2="424.8"/>
					<line class="st21" x1="399.5" y1="412.4" x2="400.9" y2="417.5"/>
					<line class="st21" x1="395.1" y1="412.8" x2="397.4" y2="417.9"/>
					<line class="st21" x1="393.4" y1="419.2" x2="392.7" y2="424.5"/>
					<line class="st21" x1="395.3" y1="419.5" x2="397.6" y2="424.3"/>
					<line class="st21" x1="400.3" y1="425.2" x2="399.1" y2="430.7"/>
					<line class="st21" x1="413.4" y1="424.2" x2="412.8" y2="430.5"/>
					<line class="st21" x1="404.5" y1="412.7" x2="404.5" y2="419"/>
					<line class="st21" x1="409.9" y1="419.3" x2="408.8" y2="424.5"/>
					<line class="st21" x1="402.6" y1="426.2" x2="405.3" y2="430.7"/>
					<line class="st21" x1="394.9" y1="425.9" x2="396.2" y2="431"/>
					<line class="st21" x1="388.9" y1="415.9" x2="390.2" y2="421"/>
					<line class="st21" x1="404.5" y1="421.5" x2="406.7" y2="426.6"/>
					<line class="st21" x1="411" y1="425" x2="408.6" y2="430.9"/>
				</g>
				<path class="st20" d="M193.6,429.8c-0.2-3.1-0.7-6.3-2.2-8.4"/>
				<path class="st20" d="M197.1,421.2c-0.5,3-0.7,6.3,0.2,8.7"/>
				<path class="st20" d="M203.1,420.4c-1.8,2.5-3.3,5.4-3.4,8"/>
				<path class="st20" d="M286.9,422.1c-1.4,2.7-2.6,5.8-2.4,8.4"/>
				<path class="st20" d="M280.3,420.2c0,0,1.6,6.4,1.8,8.7"/>
				<path class="st20" d="M667.9,412.1c-1.4,2.7-2.6,5.8-2.4,8.4"/>
				<path class="st20" d="M661.3,410.2c0,0,1.6,6.4,1.8,8.7"/>
			</g>
			<g id="btn"
        style="cursor: pointer;" (mouseenter)="activate('door')">
				<g>
					<g>
						<circle class="st22" cx="565.8" cy="170.5" r="37.4"/>
						<g>
							<path class="st23" d="M570.6,143.2c9.1,0,17.4,3.7,23.4,9.6c-5.9-9.4-16.3-15.6-28.2-15.6c-18.4,0-33.3,14.9-33.3,33.3
								c0,9.3,3.8,17.7,9.9,23.7c-3.2-5.1-5.1-11.2-5.1-17.7C537.3,158.1,552.2,143.2,570.6,143.2z"/>
							<path class="st24" d="M599.1,170.5c0-6.5-1.9-12.6-5.1-17.7c-6-5.9-14.3-9.6-23.4-9.6c-18.4,0-33.3,14.9-33.3,33.3
								c0,6.5,1.9,12.6,5.1,17.7c6,5.9,14.3,9.6,23.4,9.6C584.2,203.9,599.1,188.9,599.1,170.5z"/>
						</g>
					</g>
					<circle class="st23" cx="568.4" cy="174.5" r="27"/>
					<g>
						<g>
							<circle class="st22" cx="565.4" cy="169.5" r="28.6"/>
						</g>
						<g class="st25">
							<circle class="st22" cx="565.4" cy="169.5" r="28.6"/>
						</g>
					</g>
				</g>
				<g>
					<path id="SVGID_x5F_00000111894704804326907130000007699659638301505672_x5F_" class="st26" d="M613.3,182.6
						c-7.1,26.5-33.6,42.3-59.1,35.5c-25.6-6.9-40.5-33.9-33.4-60.3c7.1-26.5,33.6-42.3,59.1-35.5
						C605.5,129.2,620.4,156.2,613.3,182.6z"/>
					<text transform="matrix(0.9997 2.468530e-02 -2.468530e-02 0.9997 567.3776 120.6955)" class="st27 st28"> </text>
					<text transform="matrix(0.9953 9.695889e-02 -9.695889e-02 0.9953 570.7117 120.7768)" class="st22 st29 st30 st31"> </text>
					<text transform="matrix(0.2418 0.9703 -0.9703 0.2418 613.1733 155.5094)" class="st22 st29 st30 st31"> </text>
					<text transform="matrix(1 0 0 1 0 -1.464844e-05)" class="st27 st28"> </text>
				</g>
				<g>
					<path class="st18" d="M595.9,394.4c-1.1-2.6-5.8-12.8-6.9-19.2c-1.1-6.4-4.6-11.6-4.7-14.8c-0.1-3.2,5.2-5.1,6.5-11.7
						c1.4-6.6-2.2-17,5.8-17c7.3,0,2.9,12.1,4.5,15s6,6.5,2.6,10.7s-1.6,9.2,1.5,13.6s-5.7,9.8-4.8,15.8s-0.8,13.9-0.8,13.9
						L595.9,394.4z"/>
					<g>
						<g>
							<path class="st32" d="M597.4,381.7c-0.3,0-0.5-0.2-0.5-0.5c-0.4-3.9-1.6-6.9-2.6-9.3c-0.8-1.9-1.4-3.5-1.5-5.1
								c-0.1-1.9,1-3.3,2-4.8c0.9-1.3,1.9-2.7,2.2-4.4c0.5-3.7-2.9-12-2.9-12.1c-0.1-0.3,0-0.6,0.3-0.7s0.6,0,0.7,0.3
								c0.1,0.4,3.5,8.6,3,12.6c-0.3,2-1.4,3.6-2.3,4.9c-1,1.4-1.9,2.6-1.8,4.1c0.1,1.4,0.6,2.8,1.4,4.7c1,2.5,2.2,5.5,2.6,9.6
								C597.9,381.4,597.7,381.6,597.4,381.7L597.4,381.7z"/>
						</g>
					</g>
					<path class="st6" d="M587.1,392.4c-1.3-0.6-1.7-7.5-4-8.5s-4-4.3-4.8-7.6c-0.8-3.4-7.6-4.8-8.9-8.4c-1.3-3.6,2.6-6.2,2.3-9.6
						s0.6-10.8,2.6-13c2.1-2.2,5.9,6.9,7.8,8.4c1.9,1.6,1.8,4.4,0.8,7.3c-1,2.8,0.4,7.5,7.1,10.1
						C596.8,373.6,601.2,398.7,587.1,392.4z"/>
					<g>
						<path class="st32" d="M588.1,380.5c-0.2,0-0.4-0.1-0.5-0.4c-1.3-4.1-3.4-5.6-5.8-7.5c-1.2-1-2.5-1.9-3.8-3.3
							c-3.8-4.2-2-11.4-1.9-11.7c0.1-0.3,0.3-0.4,0.6-0.4c0.3,0.1,0.4,0.4,0.4,0.6c0,0.1-1.7,7,1.7,10.8c1.2,1.3,2.4,2.3,3.6,3.2
							c2.4,1.9,4.8,3.6,6.2,8c0.1,0.3-0.1,0.6-0.3,0.7C588.2,380.5,588.2,380.5,588.1,380.5z"/>
					</g>
					<path class="st6" d="M599.7,393.2c0.3-1,0.7-5.5,3.1-6.6c2.4-1,4.8-1.7,6.7-4.8c1.9-3.1,0-7.9,2.1-11.2
						c2.1-3.3,6.7-0.2,9.2-3.5c2.4-3.3-2.9-9-1-11.4s4.2-8.3,1.9-9.8c-5.5-3.6-9.8,3.8-11.7,7.9s-5.7,6.6-6.6,9.8s-3.6,5-4.3,8.3
						s0.3,8.3-0.9,11.9C596.9,387.5,599.7,393.2,599.7,393.2z"/>
					<path class="st33" d="M609.7,385.9l-0.9,21.7v1.4c-0.1,1.6-1.3,2.8-2.9,2.8h-21.7c-1.6,0-2.9-1.2-2.9-2.8l-0.7-17.8l-0.2-5.3
						L609.7,385.9L609.7,385.9z"/>
					<path class="st34" d="M608.8,407.7v1.4c-0.1,1.6-1.3,2.8-2.9,2.8h-21.7c-1.6,0-2.9-1.2-2.9-2.8l-0.7-17.8
						c1.5,7.3,4.7,15.8,11.7,16.2C599.4,407.9,605.3,407.9,608.8,407.7z"/>
					<g>
						<path class="st32" d="M604.5,381.1L604.5,381.1c-0.3,0-0.5-0.3-0.5-0.6c0.7-9,3.8-13.8,7-17.7c2.5-3,4-8.7,4-8.8
							c0.1-0.3,0.4-0.4,0.6-0.4c0.3,0.1,0.4,0.4,0.4,0.6c-0.1,0.2-1.6,6-4.2,9.2c-3.2,3.8-6.2,8.5-6.8,17.1
							C605,380.9,604.8,381.1,604.5,381.1z"/>
					</g>
				</g>
				<path class="st35" d="M565.4,188.5c-10.4,0-18.9-8.5-18.9-18.9s8.5-18.9,18.9-18.9s18.9,8.5,18.9,18.9
					C584.3,180,575.9,188.5,565.4,188.5z"/>
				<path class="st36" d="M565.4,192.7c-12.7,0-23.1-10.4-23.1-23.1c0-12.7,10.4-23.1,23.1-23.1c12.7,0,23.1,10.4,23.1,23.1
					S578.2,192.7,565.4,192.7z"/>
				<g>
					<path class="st36" d="M562.1,180.1h13.3v-4.4l-0.3-0.2c-1.5-1.1-2.3-2.8-2.3-4.6v-3.1c0-4-3.3-7.3-7.3-7.3s-7.3,3.3-7.3,7.3
						v3.1c0,1.8-0.9,3.6-2.3,4.6l-0.3,0.2v4.4h7"/>
					<path class="st36" d="M559.4,157.4c-3.7,1.7-6.1,5.3-6.1,9.4"/>
					<path class="st36" d="M577.6,166.8c0-4.1-2.4-7.8-6.1-9.4"/>
					<line class="st36" x1="575.4" y1="175.7" x2="555.5" y2="175.7"/>
					<path class="st36" d="M568.8,180.1c-0.1,1.7-1.6,3.1-3.3,3.1c-1.8,0-3.2-1.4-3.3-3.1"/>
				</g>
			</g>
			<g id="Layer_12">
				<g>
					<path class="st22" d="M111.1,26.2c0,0,1.8-2.9,5.1-2.8s6.4-0.5,9.3,3.2c2.9,3.7,1.6,4.6,1.6,4.6s3.7-3.1,8.9,0.9
						s2.2,7.2,2.2,7.2s6.1-2,7.1,5.7s-9.9,6.5-11.4,6.5s-5.5,0-11,1.3s-19.4,1.7-23.7,1.6c-4.3,0-14.6,0.9-20.8,0.6
						s-9.9-2.2-13.4-2.8s-10.4-1.4-13.7-1s-9-3.7-7.2-9.7s5.9-5.9,7-5.9c1.1,0.1,4.2,1.5,4.2,1.5s0.5-8.4,10-11s23.8,1,30,0.9"/>
					<path class="st37" d="M97.9,9.6L97.9,9.6L97.9,9.6z"/>
					<path class="st37" d="M100.2,17.2L100.2,17.2L100.2,17.2z"/>
					<path class="st37" d="M102.8,22.9L102.8,22.9L102.8,22.9z"/>
					<g>
						<path class="st22" d="M138.8,25.5c-0.3,0.5-0.1,0.3-0.8,1.6c-0.6,1.2-0.6,1.2-0.9,1.4c-0.3,0.2-0.7-0.1-0.8-0.6
							c0-0.5,0.4-1.9,0.8-2.6c0.4-0.6,0.8-0.9,1.1-0.7C138.7,24.8,139.1,24.9,138.8,25.5z"/>
						<path class="st22" d="M143.9,32.7c-0.6,0-0.2-0.3-1.6-0.3c-1.4,0-1.5,0.3-1.8,0.2c-0.4-0.1-0.2-0.5,0.2-0.8s2-0.6,2.8-0.5
							c0.7,0.1,0.9,0.1,1,0.5C144.4,32.3,144.5,32.7,143.9,32.7z"/>
						<path class="st22" d="M142.6,27.2c0,0-0.7-0.9-1.3-0.4c-0.9,0.8-2.3,2.2-2.3,2.2s-0.7,0.7-0.3,1c0.3,0.3,0.2,0.5,0.9-0.2
							s2.1-1.1,2.7-1.4C142.9,28.3,142.9,27.7,142.6,27.2z"/>
					</g>
					<g>
						<g>
							<path class="st22" d="M69.1,16.6c0.3,0.5,0.2,0.3,0.9,1.5c0.8,1.2,0.8,1.2,1,1.3c0.3,0.2,0.7-0.2,0.7-0.6
								c0-0.5-0.6-1.9-1.1-2.4c-0.5-0.6-0.9-0.7-1.2-0.6C69.1,15.9,68.7,16.1,69.1,16.6z"/>
							<path class="st22" d="M65.5,18.8c0,0,0.6-1,1.2-0.5c0.9,0.7,2.5,1.9,2.5,1.9s0.8,0.6,0.4,1c-0.3,0.3-0.1,0.5-0.9,0
								c-0.8-0.6-2.2-0.8-2.8-1C65.3,19.9,65.2,19.3,65.5,18.8z"/>
						</g>
					</g>
				</g>

					<g id="svg2854" xmlns:inkscape="http://www.inkscape.org/namespaces/inkscape" xmlns:sodipodi="http://sodipodi.sourceforge.net/DTD/sodipodi-0.dtd" xmlns:svg="http://www.w3.org/2000/svg">

					<g id="g1577" transform="matrix(0.26458333,0,0,0.26458333,16.655198,92.903311)">
						<path id="path1491" class="st38" d="M358.9-252.4L358.9-252.4c0,0,1.7-2.7,4.6-5.1c2.9-2.5,6.8-4.7,12-4.7h0.4
							c1,0,1.8,0,2.8,0c1.6,0,3,0,4.4,0c4.9,0,9.3,0.2,13.5,1.7s8.3,4.2,12.3,9.7c5.5,7.4,6.5,11.5,6.5,13.1c0,0.7-0.1,1.1-0.2,1.1
							l0,0l0.7,0.6l-0.5-0.7l-0.2,0.1l0.7,0.6l-0.5-0.7l1.4,2.2l1.7,2l-0.6-0.9l0.6,0.9l0,0l-0.6-0.9l0.6,0.9c0,0,4.7-3.9,12-3.9
							c4.9,0,11.1,1.6,18.5,7.6c4.3,3.5,6.9,6.7,8.5,9.6s2,5.2,2,7.2c0,2.4-0.7,4.4-1.3,5.6c-0.4,0.6-0.7,1.2-1,1.5l-0.2,0.4
							l-0.1,0.1l0,0l1.1,1.1l-1.1-1.1l0,0l1.1,1.1l-1.1-1.1c-0.8,0.9-1,2.2-0.4,3.2s1.8,1.5,3,1.1l0,0l0,0l0,0l0,0l0,0
							c0,0,2.5-0.7,5.6-0.7c3.2,0,6.9,0.7,10.3,3.6c3.2,2.9,6.3,7.9,7.5,17.3c0.1,1.2,0.2,2.4,0.2,3.5c0,4.4-1.1,7.5-3,10
							c-2.8,3.7-7.3,6.1-12.6,7.6c-5.3,1.4-11,1.7-15.8,1.7c-4.4,0-7.8-0.4-9.3-0.4c-0.8,0-1.9-0.1-3.1-0.1
							c-7.4,0-21.1,0.9-39.1,5.2c-9.5,2.2-26.5,3.9-43.4,4.9s-33.5,1.4-42.8,1.4c-1,0-1.8,0-2.6,0c-0.4,0-0.7,0-1.1,0
							c-14.3,0-43,2.5-65.1,2.5c-4.2,0-8.3-0.1-11.9-0.4c-22.6-1.4-36.3-8.2-50-11c-10.8-2-29.6-4.4-43.3-4.4
							c-3.4,0-6.3,0.1-8.9,0.5c-0.5,0.1-1,0.1-1.4,0.1c-4.6,0-10.8-2.5-15.6-7.2c-4.9-4.6-8.4-11.2-8.4-19.2c0-2.6,0.4-5.4,1.2-8.2
							c3-10.1,7.3-15.2,11.4-18c4.1-2.7,8.1-3.2,10.7-3.2c0.6,0,1.2,0,1.6,0.1c0.6,0,2,0.4,3.6,0.9c2.4,0.7,5.3,2,7.5,3
							c1.1,0.5,2.2,0.9,2.9,1.2c0.7,0.4,1.1,0.5,1.1,0.5c0.7,0.4,1.7,0.2,2.4-0.1c0.7-0.5,1.2-1.2,1.2-2.1l0,0
							c0.1-0.7,0.8-8.7,5.6-17.6c4.8-8.9,13.5-18.6,30.2-23.3c9.2-2.6,19.9-3.6,31-3.6c14.9,0,30.4,1.7,44.6,3.5
							c14.1,1.7,26.7,3.6,35.7,3.6c0.4,0,0.7,0,1.1,0c1.4,0,2.5-1.2,2.5-2.7c0-1.5-1.2-2.6-2.6-2.6c-0.4,0-0.6,0-1,0
							c-8.4,0-21-1.7-35.1-3.5c-14.1-1.7-30-3.6-45.2-3.6c-11.4,0-22.4,1-32.3,3.9c-18.6,5.2-28.6,16.7-33.8,26.7
							c-5.2,10.1-5.8,18.7-5.8,19l2.5,0.1l1.1-2.4c0,0-3-1.4-6.6-2.9c-1.8-0.7-3.7-1.5-5.5-2c-1.8-0.6-3.4-1-4.8-1.1
							c-0.5,0-1.1-0.1-1.9-0.1c-3.1,0-8.3,0.5-13.4,4c-5.2,3.5-10.3,9.8-13.5,20.8c-1,3.4-1.4,6.7-1.4,9.8c0,9.6,4.3,17.6,10.1,23.1
							c5.8,5.5,12.8,8.6,19,8.6c0.7,0,1.3,0,2-0.1c2.3-0.2,5.2-0.4,8.3-0.4c13.2,0,31.9,2.2,42.3,4.2c12.7,2.4,27.1,9.6,50.6,11
							c3.7,0.2,7.8,0.4,12.1,0.4c22.4,0,51.3-2.5,65.1-2.5c0.4,0,0.7,0,1.1,0c0.8,0,1.7,0,2.6,0c9.3,0,26.1-0.4,43.1-1.4
							s34-2.6,44.2-5.1c17.5-4.2,30.9-5.1,37.9-5.1c1.2,0,2.2,0,2.9,0.1c1.3,0,5,0.4,9.6,0.4c6.7,0,15.3-0.6,22.8-4
							c3.7-1.6,7.1-4,9.6-7.5c2.5-3.5,4-7.9,4-13.1c0-1.4-0.1-2.7-0.2-4.2c-1.3-10.3-4.9-16.8-9.5-20.7c-4.4-3.9-9.6-4.7-13.5-4.7
							c-4.1,0-7.1,1-7.2,1.1l0.8,2.5l1.9,1.9c0,0,1.1-1.2,2-3.1c1-1.9,1.9-4.7,1.9-8.1c0-3-0.7-6.4-2.6-9.8c-1.9-3.6-5-7.2-9.7-11.1
							c-8-6.6-15.6-8.7-21.6-8.7c-9.3,0-15,4.9-15.2,5.1c-1.1,0.9-1.2,2.5-0.4,3.6c0.8,1.1,2.4,1.4,3.5,0.6c0.2-0.1,0.8-0.6,1.3-1.5
							s1-2.2,1-3.9c0-3.6-1.7-8.6-7.5-16.5c-4.7-6.2-9.6-9.7-14.7-11.5c-5.2-1.7-10.2-2-15.1-2c-1.4,0-3,0-4.4,0c-0.8,0-1.7,0-2.6,0
							h-0.5c-6.8,0-12.1,3.1-15.6,6.2c-3.5,3-5.3,6-5.3,6.2c-0.7,1.2-0.4,2.9,0.8,3.6C356.8-250.7,358.3-251.2,358.9-252.4
							L358.9-252.4L358.9-252.4z"/>
						<line id="line1493" class="st26" x1="210.4" y1="-249.9" x2="240.2" y2="-250.8"/>
						<path id="path1499" class="st39" d="M351.4-268c4,0.2,26.6-0.7,24.4,5.7c-1.7,3.6-9.7,1.9-13.2,2.4
							c-5.8-0.1-10.2,4.6-15.7,5.6c-4.1,1.1-9.2,0.6-11.5-3.5c-2.2-3.2-4.7-6.2-7.4-8.9c-1.3-0.7-0.1-2.9,1.2-2
							c1.1,1.1,2.2,2.2,3.2,3.4c0.4-1.7,2.3-0.6,3.4-0.7c0.8-0.1,1.6-0.2,2.3-0.4C342.4-267.1,346.9-267.9,351.4-268L351.4-268z"/>
						<path id="path1501" class="st37" d="M326.5-267.6c-0.2,0.4-0.6,0.7-1.1,0.7l-0.7-0.4l-0.6-0.2c-3.6-2-7.4-4.1-10.8-6.4
							c-6.1-3.2-12.6-6.4-19.5-7.2c-2.2-0.2-4.4-0.6-6.6-0.7c-1.2,0-2.4,0.4-3.6,0.5c-0.7,0.1-1.3,0-2-0.1s-1.1-0.9-1-1.5l0,0l0,0
							l0,0l0,0c0.8-0.2,1.7-0.5,2.5-0.7l0,0l0,0l0,0l0,0l0,0l0,0c0.4-0.1,0.6-0.2,1-0.4l0.4-0.1l0.5-0.1l0.8-0.1
							c0.5,0,1-0.1,1.3-0.1c1.9,0,3.7,0.4,5.6,0.6l0.6,0.1l0,0l0,0l0,0c0.5,0.1,0.8,0.1,1.3,0.2s1,0.2,1.4,0.4
							c1,0.2,1.9,0.5,2.9,0.7l0.2,0.1l0.7,0.2l0,0l0.6,0.2h-0.1l0,0l0,0l0,0l0,0l0,0l0,0c1.6,0.5,3.1,1.1,4.7,1.6l0.4,0.1l0.6,0.4
							l0.8,0.5l0.2,0.1l0,0c0.5,0.2,1,0.5,1.4,0.7c0.6,0.4,1.2,0.6,1.8,1l0,0l0,0l0,0l0,0l0,0l0,0l0,0c0.5,0.2,0.8,0.5,1.3,0.7
							l0.8,0.5c0.5,0.2,1,0.5,1.3,0.7l0.7,0.4l0.4,0.1c0.5,0.2,0.8,0.4,1.3,0.6l0.8,0.4l0.4,0.1l0.5,0.1l0.8,0.4l0,0l0.2,0.1h0.1
							l0,0l0,0l0,0l0,0l0,0l0,0l0,0l0,0l0,0l0,0l0,0l0,0l0,0l0.1,0.1l0,0l0,0l0,0l0,0l0,0l0,0h0.1v0.1l0,0l0,0l0,0l0,0l0,0l0,0l0,0
							l0,0h0.1c0.8,0.5,1.7,1,2.5,1.4c1.2,0.6,2.5,1.4,3.7,2.1c0.5,0.2,0.7,0.7,0.6,1.2l-0.1,0.4L326.5-267.6z"/>
						<path id="path1503" class="st37" d="M327.5-267.1c-0.2,0.5-0.6,0.6-1.1,0.6l0,0l0,0l0,0l0,0l0,0l0,0l0,0l0,0
							c-0.4-0.1-0.7-0.4-1.1-0.5l0,0l0,0l0,0l-0.7-0.4l-0.1-0.1l-0.2-0.1c-2.9-1.6-5.5-3.1-8.4-4.6c-6.6-3.5-13.4-6.5-20.5-8.4
							c-1.7-0.4-3.4-0.7-5-1c-1.8-0.2-3.5-0.5-5.2-0.2c-2.5,0.6-3.1-1-2.5-1.9l0.4-0.1l0,0l0,0c0.4-0.1,0.8-0.2,1.2-0.4
							c1.1,0,2-0.2,3-0.2c2.6,0.2,5.2,0.6,7.8,1.2c8.3,2,16.2,5.6,23.7,9.7c2,1.2,4.2,2.4,6.2,3.5c0.4,0.2,0.7,0.5,1.1,0.7
							c0.7,0.4,1.4,0.7,1.4,1.5L327.5-267.1L327.5-267.1z"/>
						<path class="st11" d="M238.4-283.9c0,0-30.4-4.1-32.3,20.8c0,0-4.6,27.9,37.7,29.5c0,0,12.2,1.1,26.4-1.2
							c14.1-2.5,38.2-4.2,38.2-4.2s59.7,13.8,75.2,0.9c15.6-13,7.4-21.8,7.4-21.8s15.5-15.6-5.6-25.7
							C364.3-295.7,260.4-307,238.4-283.9z"/>
						<path id="path1509" class="st40" d="M182.5-173.3c-0.4-0.1-0.7-0.4-1.2-0.5c-0.5-0.2-1-0.4-1.3-0.6l0,0l0,0
							c-1-0.6-1.7-1.1-2.2-1.7c-0.5-0.5-0.8-1-1.3-1.5s-1-1.2-1.6-2c-0.6-0.9-1.2-1.7-1.9-2.7l0,0v-0.1c-2.2-4.5-3.4-8.9-3.4-13.1
							c0-2.2,0.1-4.4,0.5-6.2c0.4-1.9,0.7-3.6,1.2-5.1s1.1-2.7,1.8-3.9c0.6-1.1,1.3-2,2-2.7l0,0c1.3-1.4,2.4-2.2,3.5-2.7
							c1-0.4,1.8-0.6,2.8-0.9c0.6-0.1,1-0.4,1.1-0.9c0.2-0.5,0.4-1,0.4-1.6c0-0.7-0.1-1.1-0.1-1.1l0,0l0,0l0,0
							c-0.8-0.7-1.7-1.1-2.6-1.1c-1.1,0-2.4,0.5-4,1.7c-1.6,1.1-3.2,3-5.2,5.6c-1.2,1.6-2.3,3.9-3.2,6.7c-1,2.9-1.4,6.2-1.4,10.2
							c0,1.6,0.1,3.5,0.2,5.7c0.1,2.2,0.6,4.6,1.2,6.9l0,0c0.4,1.1,0.8,2.5,1.8,4.1c1,1.6,2,3.1,3.4,4.6c1.3,1.5,2.8,2.9,4.3,4.1
							c1.6,1.2,3.1,2,4.7,2.4h0.2h0.1l0.2-0.1l0.4-0.4c0.4-0.5,0.5-1.1,0.5-1.7C183.2-172.5,182.9-172.9,182.5-173.3L182.5-173.3z"
							/>
						<path id="path1511" class="st22" d="M349.6-259.2c0-0.6,0-1.2,0-1.9s0-1.5,0-2.4l-0.1-0.9l-0.1-0.9v-0.7l-0.2-0.9l-0.4-0.7
							c-0.1-0.1-0.5-0.2-0.7-0.2h-0.4h-0.5l-0.6,0.6l-0.1,0.9c0,0.4,0,0.9,0,1.2c0,0.5,0,0.9,0,1.2c0,1.5,0,3,0,4.4s0,2.9,0,4.5
							c0,0.4,0.1,0.6,0.6,0.9c0.4,0.2,0.6,0.4,1,0.4l0.7-0.1l0.8-0.4c0.2-0.1,0.6-0.5,0.8-0.9c0.4-0.4,0.7-1,1.1-1.7
							c0.4-0.5,0.6-1.1,0.7-1.6c0.2-0.5,0.4-1.1,0.6-1.6c0.2-0.6,0.5-1.1,0.7-1.7s0.6-1.2,1.1-2c0.2,0.4,0.5,0.7,0.6,1.2
							s0.2,1,0.4,1.5c0.1,0.5,0.1,1.1,0.2,1.6c0.1,0.6,0.1,1,0.4,1.5c0.1,0.4,0.1,0.9,0.2,1.4s0.1,1.1,0.4,1.5
							c0.1,0.5,0.4,0.9,0.6,1.2c0.2,0.4,0.6,0.5,1.1,0.5c0.4,0,0.6-0.1,1.1-0.2s0.6-0.5,0.6-0.9c-0.4-0.7-0.5-1.5-0.6-2.4
							s-0.2-1.7-0.4-2.6c-0.1-0.9-0.2-1.7-0.4-2.6s-0.4-1.6-0.7-2.4c-0.1-0.4-0.2-0.6-0.4-1.1c-0.1-0.4-0.1-0.7-0.4-1.1
							c-0.1-0.4-0.2-0.6-0.5-1c-0.2-0.2-0.5-0.5-1-0.6c-0.5,0-1,0.1-1.4,0.6c-0.5,0.4-0.8,0.9-1.3,1.4c-0.4,0.6-0.7,1.1-1.1,1.7
							c-0.2,0.6-0.5,1.1-0.6,1.5l-0.1,0.2c-0.2,0.5-0.4,1.1-0.6,1.6c-0.2,0.6-0.5,1-0.8,1.4v-0.1L349.6-259.2z M340.8-262.3
							c0,0.5-0.1,1.1-0.2,1.6c-0.1,0.6-0.2,1.1-0.5,1.6c-0.1,0.5-0.4,1-0.7,1.4c-0.4,0.4-0.6,0.7-1.1,1l-0.7,0.4l-0.7,0.1l-0.7-0.4
							c-0.1-0.2-0.4-0.6-0.4-0.9c-0.1-0.4-0.1-0.6-0.2-1l-0.1-0.6c0-0.5,0.1-1.1,0.1-1.7c0.1-0.6,0.2-1.2,0.6-1.9
							c0.2-0.6,0.6-1.1,0.8-1.5c0.2-0.4,0.7-0.6,1.2-0.6c0.6,0,1.2,0.1,1.7,0.5s0.8,0.9,0.8,1.6L340.8-262.3L340.8-262.3z
							 M337.4-253.3h0.4h0.4c0.5,0,0.8-0.1,1.3-0.4c0.5-0.2,0.8-0.6,1.2-1s0.7-0.7,1.1-1.2c0.4-0.4,0.6-0.9,0.8-1.1
							c0.4-0.6,0.7-1.2,1.1-2c0.2-0.6,0.5-1.4,0.5-2.2v-1.5l-0.2-0.7c-0.1-0.4-0.4-0.6-0.5-1s-0.4-0.6-0.6-0.9
							c-0.4-0.2-0.6-0.5-1.1-0.6c-0.4-0.1-0.7-0.4-1.1-0.5c-0.4-0.1-0.7-0.4-1.1-0.5s-0.7-0.4-1.1-0.6l-0.6-0.2
							c-0.6,0-1.1,0.1-1.6,0.5s-1,0.7-1.4,1.2s-0.7,1-1.1,1.5c-0.2,0.5-0.5,0.9-0.5,1.1c-0.1,0.6-0.4,1.4-0.5,2.1
							c-0.2,0.7-0.2,1.5-0.2,2c0,1.1,0.2,2.1,0.6,2.9c0.5,0.7,1.1,1.4,1.9,1.9c0.4,0.2,0.7,0.5,1.1,0.7s0.7,0.4,1.1,0.4L337.4-253.3
							L337.4-253.3z M328.7-261.4c0,0-0.2-0.4-0.4-0.7s-0.4-0.6-0.5-1s-0.4-0.7-0.4-1.1c-0.1-0.4-0.1-0.6-0.1-0.7v-0.9
							c0-0.5,0.1-1,0.2-1.5s0.4-1,0.6-1.4l0.4-0.4l0.2-0.5l-0.4-0.7l-0.6-0.4h-0.2h-0.2c-0.6,0-1.2,0.1-1.6,0.5s-0.7,0.9-1,1.4
							c-0.2,0.6-0.4,1.1-0.5,1.7s-0.1,1.2-0.1,1.9c0,0.7,0.1,1.5,0.5,2.2s0.6,1.5,1.1,2.4c0.4,0.9,0.8,1.7,1.2,2.6
							c0.4,0.9,0.7,2,1.1,3.1v0.4c0,0.6-0.1,1.1-0.5,1.5s-0.7,0.6-1.1,0.6l-0.8-0.5l-0.6,0.2l-0.2,0.4c0,0.5,0.2,1,0.7,1.5
							c0.5,0.4,1,0.6,1.4,0.6c0.6,0,1.2-0.1,1.7-0.4c0.5-0.2,1-0.6,1.3-1c0.4-0.4,0.6-0.9,0.8-1.5c0.2-0.6,0.4-1.1,0.4-1.7
							c0-1.2-0.2-2.4-0.6-3.4s-0.8-2-1.3-3L328.7-261.4L328.7-261.4z M321.5-254.6c0-0.4-0.1-1.1-0.2-1.9c-0.1-0.7-0.2-1.7-0.4-2.7
							s-0.2-2-0.4-3.1c-0.1-1.1-0.1-2.1-0.1-3.1v-0.9l0.1-0.7l-0.5-0.6c-0.1-0.1-0.5-0.4-0.8-0.4l-0.7,0.1l-0.7,0.1
							c-0.4,0.2-0.6,0.6-0.6,1.2c0,1.2,0.1,2.5,0.2,3.7c0.1,1.1,0.2,2.4,0.2,3.7c0,0.4,0,0.9,0.1,1.2c0.1,0.4,0.1,0.9,0.1,1.2
							c0,0.7,0.1,1.4,0.2,1.7c0.1,0.4,0.4,0.7,0.6,1c0.2,0.2,0.6,0.4,1,0.5s0.7,0.1,1.2,0.1l0.6-0.7l0.1-0.6l0,0L321.5-254.6
							L321.5-254.6z M317.7-275.4l-0.1,0.9l0.2,0.4l0.6,0.4l0.7,0.4l0.7,0.1c0.4,0,0.7-0.1,1-0.2c0.2-0.1,0.4-0.5,0.4-1L321-275
							l-0.6-0.6l-0.7-0.4l-0.7-0.1c-0.4,0-0.6,0.1-0.7,0.1C318-275.9,317.7-275.6,317.7-275.4L317.7-275.4z M304.5-256.4
							c0-0.6,0.1-1.4,0.4-2.1c0.2-0.7,0.5-1.4,0.8-2c0.1-0.1,0.2-0.4,0.4-1c0.2-0.5,0.5-1,0.7-1.5c0.4-0.5,0.7-1,1.1-1.5
							c0.4-0.4,0.8-0.6,1.4-0.6l0.4,0.1l0.4,0.1l-0.1,0.6l-0.4,0.9l-0.4,0.9l-0.4,0.7c-0.1,0.5-0.5,1.1-0.8,1.7
							c-0.4,0.6-0.7,1.2-1.2,1.9c-0.4,0.6-0.8,1.1-1.2,1.5c-0.4,0.4-0.8,0.6-1.1,0.6v-0.1L304.5-256.4L304.5-256.4L304.5-256.4z
							 M314.7-255.1l-0.2-1.4c-0.2-1.1-0.5-2.2-0.6-3.2s-0.2-2.2-0.4-3.5c-0.1-0.6-0.1-1.2-0.4-1.9c-0.1-0.6-0.5-1.1-0.8-1.5
							l-0.7-0.5l-0.8-0.4l-0.8-0.2l-0.7-0.1c-1.1,0-2,0.4-2.9,1.2c-1,0.9-1.7,1.9-2.4,3c-0.7,1.1-1.2,2.4-1.7,3.6
							c-0.4,1.2-0.6,2.2-0.6,3.1c0,0.4,0,0.9,0.1,1.2c0.1,0.5,0.2,0.9,0.4,1.2c0.2,0.4,0.5,0.6,0.8,0.9c0.4,0.2,0.8,0.4,1.4,0.4
							c0.7,0,1.4-0.2,2.2-0.9c0.7-0.5,1.4-1.1,2-2c0.6-0.7,1.1-1.5,1.6-2.4c0.4-0.9,0.6-1.5,0.7-2c0.1,0.7,0.2,1.6,0.4,2.6
							c0.1,1,0.4,1.9,0.5,2.7c0.2,0.9,0.5,1.5,0.8,2.1c0.4,0.6,0.7,0.9,1.2,0.9l0.5-0.1l0.5-0.1l0.4-0.4l0.1-0.5l-0.1-0.6l-0.2-0.6
							l-0.2-0.7L314.7-255.1z M298.5-264.3c0-0.7,0-1.2-0.1-1.6s-0.2-0.6-0.4-0.9l-0.6-0.4l-0.8-0.4c-0.6,0-1.2,0.2-1.7,0.6
							s-1,0.7-1.3,1.2s-0.7,1-1,1.6s-0.6,1.1-0.7,1.6l-0.4,0.6c-0.1,0.2-0.2,0.6-0.4,0.9c-0.1,0.2-0.2,0.6-0.4,0.9l-0.2,0.7
							c-0.1-0.7-0.4-1.5-0.6-2.5c-0.2-0.9-0.4-1.7-0.6-2.5c-0.1-0.4-0.1-0.9-0.2-1.2c-0.1-0.5-0.1-0.9-0.4-1.2
							c-0.1-0.4-0.4-0.7-0.6-1c-0.4-0.2-0.7-0.4-1.2-0.4s-1,0.2-1.3,0.6s-0.7,0.9-1.1,1.2c-0.2,0.2-0.5,0.6-0.6,1
							c-0.2,0.4-0.5,0.7-0.6,1.2c-0.2,0.4-0.4,0.9-0.6,1.2c-0.1,0.4-0.4,0.7-0.5,1.1l-0.1-0.6c0-0.4,0-0.6,0.1-1
							c0-0.4,0.1-0.6,0.1-1s0-0.6,0-1.1c0-0.4-0.1-0.7-0.2-1.1s-0.2-0.6-0.6-0.9c-0.2-0.2-0.6-0.4-1.1-0.4c-0.4,0-0.6,0.1-1,0.4
							c-0.4,0.2-0.5,0.6-0.5,0.9l0.1,0.9l0.1,0.9v0.2l0.1,0.4c0,0.2,0,0.6,0.1,1.2c0,0.6,0,1.6,0,3.1v0.6c-0.1,0.4-0.1,0.6-0.1,1
							s0,0.6-0.1,1v0.6L279-256l-0.1,0.7l0.1,0.6l0.4,0.6l0.5,0.5l0.6,0.2c0.6,0,1.1-0.1,1.4-0.5c0.4-0.4,0.5-0.7,0.6-1.2
							s0.2-1.1,0.4-1.6c0.1-0.5,0.4-1.2,0.6-1.7c0.1-0.4,0.2-0.7,0.4-1.2c0.1-0.5,0.4-1.1,0.6-1.6s0.5-1.1,0.7-1.6s0.6-0.9,1-1.2
							c0.2,0.4,0.4,0.7,0.6,1.2c0.1,0.5,0.4,1,0.5,1.5c0.1,0.6,0.2,1.1,0.4,1.6c0.1,0.6,0.1,1.1,0.2,1.5c0.1,0.5,0.1,1,0.2,1.5
							s0.1,1.1,0.4,1.7c0.1,0.5,0.4,1,0.6,1.4s0.6,0.5,1.1,0.5c0.4,0,0.6-0.1,1-0.2c0.2-0.4,0.4-0.9,0.5-1.2
							c0.1-0.4,0.2-0.7,0.4-1.1s0.2-0.7,0.4-1.1s0.2-0.9,0.5-1.2c0.1-0.4,0.4-0.9,0.6-1.4s0.5-1,0.7-1.5s0.5-1,0.8-1.5
							c0.2-0.5,0.5-1,0.7-1.4c0.1,0.4,0.2,0.9,0.2,1.2s0.1,0.9,0.1,1.2s0.1,0.9,0.1,1.2s0.1,0.9,0.4,1.2c0.1,0.2,0.1,0.7,0.1,1.2
							c0,0.6,0.1,1.2,0.2,1.9c0.1,0.6,0.4,1.2,0.6,1.7s0.7,0.7,1.2,0.7s0.8-0.1,1.2-0.5c0.4-0.4,0.5-0.7,0.5-1.4
							c0-0.5-0.1-1.1-0.4-1.6c-0.2-0.5-0.4-1.1-0.4-1.5c-0.1-1-0.2-2-0.5-2.9c-0.1-0.9-0.2-1.9-0.2-2.9v-0.6h-0.4L298.5-264.3
							L298.5-264.3z M257.1-256.4c0-0.6,0.1-1.4,0.4-2.1c0.2-0.7,0.5-1.4,0.8-2c0.1-0.1,0.2-0.4,0.4-1c0.2-0.5,0.5-1,0.7-1.5
							c0.4-0.5,0.7-1,1.1-1.5c0.4-0.4,0.8-0.6,1.4-0.6l0.4,0.1l0.4,0.1l-0.1,0.6l-0.4,0.9l-0.4,0.9l-0.4,0.7
							c-0.1,0.5-0.5,1.1-0.8,1.7c-0.4,0.6-0.7,1.2-1.2,1.9c-0.4,0.6-0.8,1.1-1.2,1.5c-0.4,0.4-0.8,0.6-1.1,0.6v-0.1L257.1-256.4
							L257.1-256.4L257.1-256.4z M267.3-255.1l-0.2-1.4c-0.2-1.1-0.5-2.2-0.6-3.2s-0.2-2.2-0.4-3.5c-0.1-0.6-0.1-1.2-0.4-1.9
							c-0.1-0.6-0.5-1.1-0.8-1.5l-0.7-0.5l-0.8-0.4l-0.8-0.2l-0.7-0.1c-1.1,0-2,0.4-2.9,1.2c-1,0.9-1.7,1.9-2.4,3
							c-0.7,1.1-1.2,2.4-1.7,3.6c-0.4,1.2-0.6,2.2-0.6,3.1c0,0.4,0,0.9,0.1,1.2c0.1,0.5,0.2,0.9,0.4,1.2c0.2,0.4,0.5,0.6,0.8,0.9
							c0.4,0.2,0.8,0.4,1.4,0.4c0.7,0,1.4-0.2,2.2-0.9c0.7-0.5,1.4-1.1,2-2c0.6-0.7,1.1-1.5,1.6-2.4c0.4-0.9,0.6-1.5,0.7-2
							c0.1,0.7,0.2,1.6,0.4,2.6c0.1,1,0.4,1.9,0.5,2.7c0.2,0.9,0.5,1.5,0.8,2.1c0.4,0.6,0.7,0.9,1.2,0.9l0.5-0.1l0.5-0.1l0.4-0.4
							l0.1-0.5l-0.1-0.6l-0.2-0.6l-0.2-0.7L267.3-255.1z M243.1-252.7c0.4,0.5,0.6,0.6,1,0.6l0.5-0.1c0.6-0.2,1.3-0.6,2-1.1
							c0.7-0.5,1.4-1,2.4-1.6l4.3-3.2l0.2-0.6l-0.2-0.7c-0.2-0.4-0.6-0.6-1.1-0.6l-0.7,0.1c-0.4,0-0.5,0.1-0.6,0.1
							c-0.2,0.1-0.6,0.4-1.1,0.6s-1,0.6-1.6,1.1c-1.2,0.9-2,1.4-2.6,1.6v-1.1c0-1,0-2.2,0.1-3.6c0-1.4,0.1-3,0.2-4.7
							c0.1-1.6,0.1-3,0.2-4.4c0-1.2,0.1-2.4,0.1-3.4c0-0.4,0-0.6,0-0.9v-0.9c-0.1-0.7-0.7-1.1-1.7-1.1c-0.5,0-0.8,0.1-1.2,0.5
							c0,0.6,0.1,1.1,0.1,1.7s0,1.2,0,1.9c0,1.9-0.1,5-0.6,9.2c-0.1,1.7-0.2,3.4-0.4,4.7c-0.1,1.4-0.1,2.7-0.1,3.7v0.9L243.1-252.7
							L243.1-252.7z"/>
						<path id="path1513" class="st40" d="M185.1-184.1c0.1-1,0.1-2.1,0.2-3.4c0.1-1.2,0.1-2.5,0.1-3.9v-5.7c0-2.4,0-4.6,0.1-6.6
							c0-2,0.2-3.7,0.5-5.5c0.4-2,2-3,5.2-3h0.7c1.8,0.1,3.4,1,4.8,2.9c1.2,1.6,1.9,3.4,1.9,5.5c0,1.6-0.6,3.2-1.8,5
							c-1.1,1.5-2.3,2.6-3.7,3.6l-0.7,0.5l-0.2,0.6l0.2,0.6c0,0,0.4,0.4,0.8,0.7l1.7,1.4l5.6,5.5c1.2,1.1,2.2,2.1,3,3.1
							s1.4,1.9,1.9,2.7l0.1,0.5c0,0.9-0.8,1.4-2.4,1.9c-1.8-1.4-4-3.6-6.7-6.6c-1.6-1.7-2.9-3.1-4-4.2s-2-2-2.8-2.7
							c-0.1,0.5-0.1,1.2-0.2,2.5c-0.1,1.2-0.2,2.7-0.4,4.6c-0.1,2.9-0.5,5.2-1,7l-0.5,0.2l-0.8,0.2l0,0h-0.1
							c-1.4-0.4-2.2-1.5-2.2-3.2c0-0.2,0-0.6,0-1s0.1-0.7,0.1-1.1L185.1-184.1L185.1-184.1z M194.8-205.4c-0.1-0.7-0.4-1.4-0.8-2
							c-0.4-0.6-1.2-0.9-2.4-0.9c-0.8,0-1.3,0.2-1.6,0.7c-0.1,0.5-0.1,1-0.1,1.5s-0.1,1-0.1,1.5s0,1.6,0.1,3.5c0,0.4,0,0.7,0,1.1
							v0.9v0.9v0.7c2.8-2.1,4.3-4.2,4.7-6.2l0.1-0.6v-0.6L194.8-205.4L194.8-205.4z"/>
						<path id="path1515" class="st40" d="M206.1-194.5c0.1-0.4,0.4-0.6,0.7-0.9c0.5-0.2,0.8-0.6,0.8-0.9c0-0.1,0.1-0.6,0.1-1.4
							c0.1-0.9,0.1-2,0.2-3.6c-1.9-0.4-2.8-1.1-2.8-2.2c0-1,0.6-1.9,1.8-2.4l3.2-1.4c0.6-0.4,1.3-0.6,2.2-1c0.8-0.2,1.7-0.6,2.6-0.9
							c0.8-0.2,1.7-0.5,2.5-0.6c0.8-0.2,1.7-0.4,2.5-0.6c0.1,0,0.2-0.1,0.6-0.1c1,0,1.9,0.4,3.2,1.1c0,0.1,0.1,0.4,0.2,0.7
							c0.1,0.4,0.2,0.6,0.2,0.9l-0.4,0.6c-0.6,0.2-1.4,0.6-2.3,0.9c-1,0.2-1.9,0.6-3.2,1c-1.2,0.4-2.3,0.6-3.2,1
							c-1,0.2-1.7,0.6-2.3,0.9c-0.1,0.4-0.2,1.1-0.4,2.1s-0.2,2.4-0.2,4c0.6,0.2,1.2,0.4,1.9,0.4c0.2,0,0.6,0,1-0.1
							c0.4,0,0.8-0.1,1.4-0.1c0.6-0.1,1-0.1,1.4-0.1c0.4-0.1,0.7-0.1,1-0.1c1,0,1.8,0.2,2.4,0.6c0.5,0.7,0.7,1.1,0.7,1.4l-0.4,0.6
							l-0.2,0.2l-0.5,0.5c-0.2,0.2-0.6,0.4-1.1,0.4c-0.7,0.1-2,0.2-4,0.4c-1.6,0.1-2.9,0.2-3.8,0.6c-0.6,2.5-1,4.5-1,6.1
							c0,1,0.1,1.7,0.4,2.4c1.4,1,3.7,1.5,6.8,1.5h0.7l0.7-0.1l0.8-0.4l0.7-0.4h0.1h0.1c0.8,0,1.3,0.7,1.6,2.2v0.2v0.2
							c0,0.5-0.1,0.9-0.5,1.2c-0.2,0.4-0.7,0.6-1.1,0.6h-1l-1,0.1c-3.2,0-6.1-0.4-8.7-1.1c-1-0.2-1.8-0.7-2.6-1.6
							c-0.8-0.9-1.2-1.7-1.3-2.9c-0.1-0.7-0.1-1.5-0.1-2.2c0-0.7-0.1-1.4-0.1-2.1c0-0.7,0-1.4,0.1-2c0-0.6,0.1-1.2,0.1-1.9
							c-0.8-0.6-1.2-1.2-1.2-1.7v-0.2L206.1-194.5z"/>
						<path id="path1517" class="st40" d="M282.9-191.8c-0.5,1.2-1.1,2.4-1.8,3.4c-0.7,1-1.4,2-2.3,2.7c-0.8,0.7-1.7,1.4-2.6,1.7
							c-1,0.4-1.9,0.6-3,0.6c-0.7,0-1.4-0.1-2.4-0.6c-0.8-0.4-1.7-1-2.5-1.7s-1.4-1.7-2-2.9c-0.6-1.1-0.8-2.4-0.8-3.9
							c0-1.1,0.2-2.5,0.6-4s1-3,1.7-4.4c0.7-1.4,1.4-2.5,2.4-3.5s1.8-1.4,2.9-1.4l0.6,0.1l0.5,0.2l0.7,0.4c0.2,0.1,0.6,0.4,1.1,0.6
							c0.4,0.1,0.6,0.2,1.1,0.5c0.4,0.1,0.8,0.4,1.4,0.5c1.1,0.4,1.8,0.9,2.5,1.7c0.7,0.7,1.2,1.6,1.7,2.5c0.4,0.9,0.7,1.7,0.8,2.6
							c0.1,0.9,0.2,1.5,0.2,2.1C283.3-193.5,283.2-192.6,282.9-191.8L282.9-191.8z M278.8-195.1c-0.1-1.4-0.5-2.5-0.8-3.4
							s-1-1.2-1.6-1.2c-0.2,0-0.5,0.1-0.8,0.4c-0.4,0.2-0.6,0.6-1,0.9c-0.4,0.2-0.6,0.6-1,0.9l-0.5,0.4c-0.2,0-0.6-0.1-1-0.4
							c-0.4-0.2-0.6-0.4-0.7-0.4c-0.4,0-0.6,0.1-0.8,0.6c-0.2,0.5-0.5,0.9-0.6,1.2c-0.1,0.4-0.4,1.1-0.4,1.6
							c-0.1,0.6-0.1,1.1-0.1,1.5c0,0.9,0.1,1.7,0.4,2.5c0.2,0.7,0.6,1.4,1,1.9s0.7,0.9,1.1,1.2c0.4,0.4,0.7,0.4,0.8,0.4
							c0.6,0,1.3-0.2,2-0.7s1.3-1.1,1.9-1.7c0.6-0.7,1.1-1.5,1.4-2.4c0.4-0.9,0.6-1.7,0.6-2.5v-0.8H278.8z"/>
						<path id="path1519" class="st40" d="M287.3-178.3c-0.1-2-0.1-4-0.1-6.1c0-3.7,0.2-8.4,0.6-14l1.1-14.1c0-0.7,0.7-1.1,1.9-1.1
							c0.2,0,0.6,0.1,1.1,0.4s1,0.5,1.6,1c0.6,1.1,1.2,2.5,1.8,4.2c0.7,1.7,1.4,3.7,2.2,6.2c0.8,2.2,1.6,4.5,2.3,6.6
							c0.7,2.1,1.4,4,2,5.5l2-22.8c0.1-0.7,0.6-1.1,1.4-1.1c0.4,0,0.6,0,1.1,0.1l1,0.2c0.4,0.1,0.6,0.4,0.6,0.7l-1.3,14.1
							c-0.2,2.9-0.5,5.4-0.6,7.7c-0.1,2.4-0.2,4.4-0.2,6.4v1.7c0,0.6,0,1.2,0.1,1.9c0,0.5-0.2,1-0.6,1.4s-0.8,0.6-1.4,0.6
							c-1.1,0-1.9-0.7-2.6-2.2c-0.6-1.1-1.1-2.5-1.8-4c-0.6-1.6-1.3-3.4-2-5.4c-0.7-1.9-1.4-4-2.3-6.2s-1.6-4.5-2.4-6.9l-0.2-0.4
							c-0.2,0-0.4,0.2-0.5,0.7c-0.1,1.2-0.2,2.6-0.4,4.1c-0.1,1.5-0.1,3-0.1,4.5s0,3.1,0,4.6v4.4c0,1.4,0,2.7,0,4s0.1,2.7,0.1,4.1
							v0.2c0,1-0.2,1.6-0.8,1.9l-0.7,0.4c-0.2,0-0.6-0.1-1-0.4l-1-0.5c-0.5-0.1-0.7-0.6-0.8-1.2L287.3-178.3L287.3-178.3z"/>
						<path id="path1521" class="st40" d="M311.7-178.3c-0.1-2-0.1-4-0.1-6.1c0-3.7,0.2-8.4,0.6-14l1.1-14.1c0-0.7,0.7-1.1,1.9-1.1
							c0.2,0,0.6,0.1,1.1,0.4s1,0.5,1.6,1c0.6,1.1,1.2,2.5,1.8,4.2c0.7,1.7,1.4,3.7,2.2,6.2c0.8,2.2,1.6,4.5,2.3,6.6
							c0.7,2.1,1.4,4,2,5.5l2-22.8c0.1-0.7,0.6-1.1,1.4-1.1c0.4,0,0.6,0,1.1,0.1l1,0.2c0.4,0.1,0.6,0.4,0.6,0.7l-1.3,14.1
							c-0.2,2.9-0.5,5.4-0.6,7.7c-0.1,2.2-0.2,4.4-0.2,6.4v1.7c0,0.6,0,1.2,0.1,1.9c0,0.5-0.2,1-0.6,1.4s-0.8,0.6-1.4,0.6
							c-1.1,0-1.9-0.7-2.6-2.2c-0.6-1.1-1.1-2.5-1.8-4c-0.6-1.6-1.3-3.4-2-5.4c-0.7-1.9-1.4-4-2.3-6.2s-1.6-4.5-2.4-6.9l-0.2-0.4
							c-0.2,0-0.4,0.2-0.5,0.7c-0.1,1.2-0.2,2.6-0.4,4.1c-0.1,1.5-0.1,3-0.1,4.5s0,3.1,0,4.6v4.4c0,1.4,0,2.7,0.1,4
							c0,1.4,0.1,2.7,0.1,4.1v0.2c0,1-0.2,1.6-0.8,1.9l-0.7,0.4c-0.2,0-0.6-0.1-1-0.4l-1-0.5c-0.5-0.1-0.7-0.6-0.8-1.2v-1.2
							C311.9-178.3,311.7-178.3,311.7-178.3z"/>
						<path id="path1523" class="st40" d="M335.4-194.5c0.1-0.4,0.4-0.6,0.7-0.9c0.5-0.2,0.8-0.6,0.8-0.9c0-0.1,0.1-0.6,0.1-1.4
							c0.1-0.9,0.1-2,0.2-3.6c-1.9-0.4-2.8-1.1-2.8-2.2c0-1,0.6-1.9,1.8-2.4l3.2-1.4c0.6-0.4,1.3-0.6,2.2-1c0.8-0.2,1.7-0.6,2.6-0.9
							c0.8-0.2,1.7-0.5,2.5-0.6c0.8-0.2,1.7-0.4,2.5-0.6c0.1,0,0.2-0.1,0.6-0.1c1,0,1.9,0.4,3.2,1.1c0,0.1,0.1,0.4,0.2,0.7
							c0.1,0.4,0.2,0.6,0.2,0.9l-0.4,0.6c-0.6,0.2-1.4,0.6-2.3,0.9c-1,0.2-1.9,0.6-3.2,1c-1.2,0.4-2.3,0.6-3.2,1
							c-1,0.2-1.7,0.6-2.3,0.9c-0.1,0.4-0.2,1.1-0.4,2.1s-0.2,2.4-0.2,4c0.6,0.2,1.2,0.4,1.9,0.4c0.2,0,0.6,0,1-0.1
							c0.4,0,0.8-0.1,1.4-0.1s1-0.1,1.4-0.1c0.4-0.1,0.7-0.1,1-0.1c1,0,1.8,0.2,2.4,0.6c0.5,0.7,0.7,1.1,0.7,1.4l-0.4,0.6l-0.2,0.2
							l-0.5,0.5c-0.2,0.2-0.6,0.4-1.1,0.4c-0.7,0.1-2,0.2-4,0.4c-1.6,0.1-2.9,0.2-3.8,0.6c-0.6,2.5-1,4.5-1,6.1c0,1,0.1,1.7,0.4,2.4
							c1.4,1,3.7,1.5,6.8,1.5h0.7l0.7-0.1l0.8-0.4l0.7-0.4h0.1h0.1c0.8,0,1.3,0.7,1.6,2.2v0.2v0.2c0,0.5-0.1,0.9-0.5,1.2
							c-0.2,0.4-0.7,0.6-1.1,0.6h-1l-1,0.1c-3.2,0-6.1-0.4-8.7-1.1c-1-0.2-1.8-0.7-2.6-1.6c-0.8-0.9-1.2-1.7-1.3-2.9
							c-0.1-0.7-0.1-1.5-0.1-2.2c0-0.7-0.1-1.4-0.1-2.1c0-0.7,0-1.4,0.1-2s0.1-1.2,0.1-1.9c-0.8-0.6-1.2-1.2-1.2-1.7L335.4-194.5
							L335.4-194.5z"/>
						<path id="path1525" class="st40" d="M182.5-173.3c-0.4-0.1-0.7-0.4-1.2-0.5c-0.5-0.2-1-0.4-1.3-0.6l0,0l0,0
							c-1-0.6-1.7-1.1-2.2-1.7c-0.5-0.5-0.8-1-1.3-1.5s-1-1.2-1.6-2c-0.6-0.9-1.2-1.7-1.9-2.7l0,0v-0.1c-2.2-4.5-3.4-8.9-3.4-13.1
							c0-2.2,0.1-4.4,0.5-6.2c0.4-1.9,0.7-3.6,1.2-5.1s1.1-2.7,1.8-3.9c0.6-1.1,1.3-2,2-2.7c1.3-1.4,2.4-2.2,3.5-2.7
							c1-0.4,1.8-0.6,2.8-0.9c0.6-0.1,1-0.4,1.1-0.9c0.2-0.5,0.4-1,0.4-1.6c0-0.7-0.1-1.1-0.1-1.1l0,0l0,0l0,0
							c-0.8-0.7-1.7-1.1-2.6-1.1c-1.1,0-2.4,0.5-4,1.7c-1.6,1.1-3.2,3-5.2,5.6c-1.2,1.6-2.3,3.9-3.2,6.7c-1,2.9-1.4,6.2-1.4,10.2
							c0,1.6,0.1,3.5,0.2,5.7c0.1,2.2,0.6,4.6,1.2,6.9l0,0c0.4,1.1,0.8,2.5,1.8,4.1c1,1.6,2,3.1,3.4,4.6c1.3,1.5,2.8,2.9,4.3,4.1
							c1.6,1.2,3.1,2,4.7,2.4h0.2h0.1l0.2-0.1l0.4-0.4c0.4-0.5,0.5-1.1,0.5-1.7C183.2-172.5,182.9-172.9,182.5-173.3L182.5-173.3z"
							/>
						<path id="path1527" class="st40" d="M234-176.9c1.2-1.6,2.3-3.9,3.2-6.7c1-2.9,1.4-6.2,1.4-10.2c0-1.6-0.1-3.5-0.2-5.7
							c-0.1-2.2-0.6-4.6-1.2-6.9l0,0l0,0c-0.2-1.1-0.8-2.5-1.8-4.1s-2-3.1-3.4-4.6c-1.3-1.5-2.8-2.9-4.3-4.1c-1.6-1.2-3.1-2-4.7-2.4
							h-0.2h-0.1l-0.2,0.1l-0.4,0.4c-0.4,0.5-0.5,1.1-0.5,1.7c0,0.6,0.2,1,0.7,1.4c0.4,0.1,0.7,0.4,1.2,0.5c0.5,0.2,1,0.4,1.3,0.6
							l0,0l0,0c1,0.6,1.7,1.1,2.2,1.7c0.5,0.5,0.8,1,1.3,1.5s1,1.2,1.6,2c0.6,0.9,1.2,1.7,1.9,2.7l0,0v0.1c2.2,4.5,3.4,8.9,3.4,13.1
							c0,2.2-0.1,4.4-0.5,6.2c-0.4,1.9-0.7,3.6-1.2,5.1c-0.5,1.5-1.1,2.7-1.8,3.9c-0.6,1.1-1.3,2-2,2.7c-1.3,1.4-2.4,2.2-3.5,2.7
							c-1,0.4-1.8,0.6-2.8,0.9c-0.6,0.1-1,0.4-1.1,0.9c-0.2,0.5-0.4,1-0.4,1.6c0,0.7,0.1,1.1,0.1,1.1l0,0l0,0l0,0
							c0.8,0.7,1.7,1.1,2.6,1.1c1.1,0,2.4-0.5,4-1.7C230.3-172.4,232.1-174.3,234-176.9L234-176.9z"/>
						<path id="path1529" class="st40" d="M389.5-180v0.6l-0.1,0.5c-0.1,0.5-0.5,0.7-1.1,0.7c-1,0-1.8-0.5-2.4-1.2
							c-0.6-0.9-1-1.7-1.1-2.7c-0.1-1.2-0.1-2.6-0.1-4.1c0-2.2,0.1-6,0.5-11c0.1-2.1,0.2-4,0.4-5.6c0.1-1.6,0.1-3.1,0.1-4.4v-1H385
							c-0.4,0-0.8,0-1.4,0c-0.5,0-1.1,0.1-1.7,0.2c-0.4,0.1-0.6,0.1-0.8,0.1c-0.2,0.1-0.5,0.1-0.8,0.1c-1.7,0-3-0.5-4.1-1.4
							c-0.4-0.9-0.6-1.4-0.6-1.4l0.4-0.7c0.6-0.1,1.2-0.4,1.9-0.5c0.7-0.1,1.6-0.2,2.6-0.4c2.9-0.4,5-0.9,6.6-1.7
							c1.3,0.4,2.6,0.6,4.1,0.6c1.4,0,2.9-0.1,4.3-0.6c0.2,0,0.5-0.1,1-0.2c0.5-0.1,0.8-0.2,1.3-0.4c0.8-0.2,1.6-0.4,2.4-0.4h0.4
							l0.4,0.1c0.5,0,0.7,0.1,0.7,0.6v0.2c1,0,1.3,0.4,1.3,1c-0.4,1.2-0.8,2-1.7,2.2c-1.1,0.2-2.4,0.6-4.1,0.9
							c-1.7,0.2-3.8,0.7-6.6,1.1c-0.4,4.4-0.6,8.4-0.7,12c-0.1,3.6-0.2,6.9-0.2,9.8c0,1.1,0,2.2,0,3.2s0,2.1,0.1,3.2L389.5-180
							L389.5-180z"/>
						<path id="path1531" class="st40" d="M397-194.5c0.1-0.4,0.4-0.6,0.7-0.9c0.5-0.2,0.8-0.6,0.8-0.9c0-0.1,0.1-0.6,0.1-1.4
							c0.1-0.9,0.1-2,0.2-3.6c-1.9-0.4-2.8-1.1-2.8-2.2c0-1,0.6-1.9,1.8-2.4l3.2-1.4c0.6-0.4,1.3-0.6,2.2-1c0.8-0.2,1.7-0.6,2.6-0.9
							c0.8-0.2,1.7-0.5,2.5-0.6c0.8-0.2,1.7-0.4,2.5-0.6c0.1,0,0.2-0.1,0.6-0.1c1,0,1.9,0.4,3.2,1.1c0,0.1,0.1,0.4,0.2,0.7
							s0.2,0.6,0.2,0.9l-0.4,0.6c-0.6,0.2-1.4,0.6-2.3,0.9c-1,0.2-1.9,0.6-3.2,1c-1.2,0.4-2.3,0.6-3.2,1c-1,0.2-1.7,0.6-2.3,0.9
							c-0.1,0.4-0.2,1.1-0.4,2.1c-0.1,1-0.2,2.4-0.2,4c0.6,0.2,1.2,0.4,1.9,0.4c0.2,0,0.6,0,1-0.1c0.4,0,0.8-0.1,1.4-0.1
							c0.6-0.1,1-0.1,1.4-0.1c0.4-0.1,0.7-0.1,1-0.1c1,0,1.8,0.2,2.4,0.6c0.5,0.7,0.7,1.1,0.7,1.4l-0.4,0.6l-0.2,0.2l-0.5,0.5
							c-0.2,0.2-0.6,0.4-1.1,0.4c-0.7,0.1-2,0.2-4,0.4c-1.6,0.1-2.9,0.2-3.8,0.6c-0.6,2.5-1,4.5-1,6.1c0,1,0.1,1.7,0.4,2.4
							c1.4,1,3.7,1.5,6.8,1.5h0.7l0.7-0.1l0.8-0.4l0.7-0.4h0.1h0.1c0.8,0,1.3,0.7,1.6,2.2v0.2l0.1,0.2c0,0.5-0.1,0.9-0.5,1.2
							c-0.4,0.4-0.7,0.6-1.1,0.6h-1l-1,0.1c-3.2,0-6.2-0.4-8.7-1.1c-1-0.2-1.8-0.7-2.6-1.6c-0.8-0.9-1.2-1.7-1.3-2.9
							c-0.1-0.7-0.1-1.5-0.1-2.2c-0.1-0.7-0.1-1.4-0.1-2.1c0-0.7,0-1.4,0.1-2c0-0.6,0.1-1.2,0.1-1.9c-0.8-0.6-1.2-1.2-1.2-1.7
							L397-194.5L397-194.5z"/>
						<path id="path1533" class="st40" d="M417.5-194.5c0.1-0.4,0.4-0.6,0.7-0.9c0.5-0.2,0.8-0.6,0.8-0.9c0-0.1,0.1-0.6,0.1-1.4
							c0.1-0.9,0.1-2,0.2-3.6c-1.9-0.4-2.8-1.1-2.8-2.2c0-1,0.6-1.9,1.8-2.4l3.2-1.4c0.6-0.4,1.3-0.6,2.2-1c0.8-0.2,1.7-0.6,2.6-0.9
							c0.8-0.2,1.7-0.5,2.5-0.6c0.8-0.2,1.7-0.4,2.5-0.6c0.1,0,0.2-0.1,0.6-0.1c1,0,1.9,0.4,3.2,1.1c0,0.1,0.1,0.4,0.2,0.7
							c0.1,0.4,0.2,0.6,0.2,0.9l-0.4,0.6c-0.6,0.2-1.4,0.6-2.3,0.9c-1,0.2-1.9,0.6-3.2,1c-1.2,0.4-2.3,0.6-3.2,1
							c-1,0.2-1.7,0.6-2.3,0.9c-0.1,0.4-0.2,1.1-0.4,2.1c-0.1,1-0.2,2.4-0.2,4c0.6,0.2,1.2,0.4,1.9,0.4c0.2,0,0.6,0,1-0.1
							c0.4,0,0.8-0.1,1.4-0.1s1-0.1,1.4-0.1c0.4-0.1,0.7-0.1,1-0.1c1,0,1.8,0.2,2.4,0.6c0.5,0.7,0.7,1.1,0.7,1.4l-0.4,0.6l-0.2,0.2
							l-0.5,0.5c-0.2,0.2-0.6,0.4-1.1,0.4c-0.7,0.1-2,0.2-4,0.4c-1.6,0.1-2.9,0.2-3.8,0.6c-0.6,2.5-1,4.5-1,6.1c0,1,0.1,1.7,0.4,2.4
							c1.4,1,3.7,1.5,6.8,1.5h0.7l0.7-0.1l0.8-0.4l0.7-0.4h0.1h0.1c0.8,0,1.3,0.7,1.6,2.2v0.2v0.2c0,0.5-0.1,0.9-0.5,1.2
							c-0.2,0.4-0.7,0.6-1.1,0.6h-1l-1,0.1c-3.2,0-6.2-0.4-8.7-1.1c-1-0.2-1.8-0.7-2.6-1.6c-0.8-0.9-1.2-1.7-1.3-2.9
							c-0.1-0.7-0.1-1.5-0.1-2.2c-0.1-0.7-0.1-1.4-0.1-2.1c0-0.7,0-1.4,0.1-2c0-0.6,0.1-1.2,0.1-1.9c-0.8-0.6-1.2-1.2-1.2-1.7
							L417.5-194.5L417.5-194.5z"/>
						<path id="path1535" class="st40" d="M258-210.7c-7.5,3.6-14.1,11.2-12.3,20.4c1.7,9.1,9.7,12.8,17.9,13.5
							c3.4,0.2,3.4-5.1,0-5.5c-6-0.5-12.6-3.2-12.8-10.5c-0.4-6.6,4.8-11,10.1-13.3C263.7-207.4,261-212.2,258-210.7L258-210.7z"/>
						<path id="path1537" class="st40" d="M370-208.2c-7.3,3.1-14.3,9.2-13.1,18.3c1.2,9.1,10.1,12.3,17.9,13c3.2,0.2,3.1-4.9,0-5.1
							c-5.4-0.4-12.6-2.5-12.9-9.4c-0.4-6,4.8-9.8,9.5-11.8C374.1-204.4,372.8-209.4,370-208.2z"/>
						<path id="path1539" class="st40" d="M409.6-213.9c2.2-1.4,4.2-2.7,6.3-4.1c1.9-1.2,0.1-4.4-1.8-3.1c-2.2,1.4-4.2,2.7-6.3,4.1
							C405.9-215.8,407.7-212.7,409.6-213.9z"/>
						<path id="path1541" class="st40" d="M185.1-184.1c0.1-1,0.1-2.1,0.2-3.4c0.1-1.2,0.1-2.5,0.1-3.9v-5.7c0-2.4,0-4.6,0.1-6.6
							s0.2-3.7,0.5-5.5c0.4-2,2-3,5.2-3h0.7c1.8,0.1,3.4,1,4.8,2.9c1.2,1.6,1.9,3.4,1.9,5.5c0,1.6-0.6,3.2-1.8,5
							c-1.1,1.5-2.3,2.6-3.7,3.6l-0.7,0.5l-0.2,0.6l0.2,0.6c0,0,0.4,0.4,0.8,0.7l1.7,1.4l5.6,5.5c1.2,1.1,2.2,2.1,3,3.1
							s1.4,1.9,1.9,2.7l0.1,0.5c0,0.9-0.8,1.4-2.4,1.9c-1.8-1.4-4-3.6-6.7-6.6c-1.6-1.7-2.9-3.1-4-4.2s-1.9-2-2.8-2.7
							c-0.1,0.5-0.1,1.2-0.2,2.5c-0.1,1.2-0.2,2.7-0.4,4.6c-0.1,2.9-0.5,5.2-1,7l-0.5,0.2l-0.8,0.2l0,0h-0.1
							c-1.4-0.4-2.3-1.5-2.3-3.2c0-0.2,0-0.6,0-1s0.1-0.7,0.1-1.1L185.1-184.1L185.1-184.1z M194.8-205.4c-0.1-0.7-0.4-1.4-0.8-2
							c-0.4-0.6-1.2-0.9-2.4-0.9c-0.8,0-1.3,0.2-1.6,0.7c-0.1,0.5-0.1,1-0.1,1.5s-0.1,1-0.1,1.5s0,1.6,0.1,3.5c0,0.4,0,0.7,0,1.1
							v0.9v0.9v0.7c2.8-2.1,4.3-4.2,4.7-6.2l0.1-0.6v-0.6L194.8-205.4L194.8-205.4z"/>
						<path id="path1543" class="st40" d="M206.1-194.5c0.1-0.4,0.4-0.6,0.7-0.9c0.5-0.2,0.8-0.6,0.8-0.9c0-0.1,0.1-0.6,0.1-1.4
							c0.1-0.9,0.1-2,0.2-3.6c-1.9-0.4-2.8-1.1-2.8-2.2c0-1,0.6-1.9,1.8-2.4l3.2-1.4c0.6-0.4,1.3-0.6,2.2-1c0.8-0.2,1.7-0.6,2.6-0.9
							c0.8-0.2,1.7-0.5,2.5-0.6c0.8-0.2,1.7-0.4,2.5-0.6c0.1,0,0.2-0.1,0.6-0.1c1,0,1.9,0.4,3.2,1.1c0,0.1,0.1,0.4,0.2,0.7
							c0.1,0.4,0.2,0.6,0.2,0.9l-0.4,0.6c-0.6,0.2-1.4,0.6-2.3,0.9c-1,0.2-1.9,0.6-3.2,1c-1.2,0.4-2.3,0.6-3.2,1
							c-1,0.2-1.7,0.6-2.3,0.9c-0.1,0.4-0.2,1.1-0.4,2.1s-0.2,2.4-0.2,4c0.6,0.2,1.2,0.4,1.9,0.4c0.2,0,0.6,0,1-0.1
							c0.4,0,0.8-0.1,1.4-0.1c0.6-0.1,1-0.1,1.4-0.1c0.4-0.1,0.7-0.1,1-0.1c1,0,1.8,0.2,2.4,0.6c0.5,0.7,0.7,1.1,0.7,1.4l-0.4,0.6
							l-0.2,0.2l-0.5,0.5c-0.2,0.2-0.6,0.4-1.1,0.4c-0.7,0.1-2,0.2-4,0.4c-1.6,0.1-2.9,0.2-3.8,0.6c-0.6,2.5-1,4.5-1,6.1
							c0,1,0.1,1.7,0.4,2.4c1.4,1,3.7,1.5,6.8,1.5h0.7l0.7-0.1l0.8-0.4l0.7-0.4h0.1h0.1c0.8,0,1.3,0.7,1.6,2.2v0.2v0.2
							c0,0.5-0.1,0.9-0.5,1.2c-0.2,0.4-0.7,0.6-1.1,0.6h-1l-1,0.1c-3.2,0-6.1-0.4-8.7-1.1c-1-0.2-1.8-0.7-2.6-1.6
							c-0.8-0.9-1.2-1.7-1.3-2.9c-0.1-0.7-0.1-1.5-0.1-2.2c0-0.7-0.1-1.4-0.1-2.1c0-0.7,0-1.4,0.1-2s0.1-1.2,0.1-1.9
							c-0.8-0.6-1.2-1.2-1.2-1.7v-0.2L206.1-194.5z"/>
						<path id="path1545" class="st40" d="M282.9-191.8c-0.5,1.2-1.1,2.4-1.8,3.4c-0.7,1-1.4,2-2.3,2.7c-0.8,0.7-1.7,1.4-2.6,1.7
							c-1,0.4-1.9,0.6-3,0.6c-0.7,0-1.4-0.1-2.4-0.6c-0.8-0.4-1.7-1-2.5-1.7s-1.4-1.7-2-2.9c-0.6-1.1-0.8-2.4-0.8-3.9
							c0-1.1,0.2-2.5,0.6-4s1-3,1.7-4.4c0.7-1.4,1.4-2.5,2.4-3.5s1.8-1.4,2.9-1.4l0.6,0.1l0.5,0.2l0.7,0.4c0.2,0.1,0.6,0.4,1.1,0.6
							c0.4,0.1,0.6,0.2,1.1,0.5c0.4,0.1,0.8,0.4,1.4,0.5c1.1,0.4,1.8,0.9,2.5,1.7c0.7,0.7,1.2,1.6,1.7,2.5c0.4,0.9,0.7,1.7,0.8,2.6
							c0.1,0.9,0.2,1.5,0.2,2.1C283.4-193.5,283.2-192.6,282.9-191.8L282.9-191.8z M278.8-195.1c-0.1-1.4-0.5-2.5-0.8-3.4
							s-1-1.2-1.6-1.2c-0.2,0-0.5,0.1-0.8,0.4c-0.4,0.2-0.6,0.6-1,0.9c-0.4,0.2-0.6,0.6-1,0.9l-0.5,0.4c-0.2,0-0.6-0.1-1-0.4
							c-0.4-0.2-0.6-0.4-0.7-0.4c-0.4,0-0.6,0.1-0.8,0.6c-0.2,0.5-0.5,0.9-0.6,1.2c-0.1,0.4-0.4,1.1-0.4,1.6
							c-0.1,0.6-0.1,1.1-0.1,1.5c0,0.9,0.1,1.7,0.4,2.5c0.2,0.7,0.6,1.4,1,1.9s0.7,0.9,1.1,1.2c0.4,0.4,0.7,0.4,0.8,0.4
							c0.6,0,1.3-0.2,2-0.7s1.3-1.1,1.9-1.7c0.6-0.7,1.1-1.5,1.4-2.4c0.4-0.9,0.6-1.7,0.6-2.5v-0.8H278.8z"/>
						<path id="path1547" class="st40" d="M287.3-178.3c-0.1-2-0.1-4-0.1-6.1c0-3.7,0.2-8.4,0.6-14l1.1-14.1c0-0.7,0.7-1.1,1.9-1.1
							c0.2,0,0.6,0.1,1.1,0.4s1,0.5,1.6,1c0.6,1.1,1.2,2.5,1.8,4.2c0.7,1.7,1.4,3.7,2.2,6.2c0.8,2.2,1.6,4.5,2.3,6.6
							c0.7,2.1,1.4,4,2,5.5l2-22.8c0.1-0.7,0.6-1.1,1.4-1.1c0.4,0,0.6,0,1.1,0.1l1,0.2c0.4,0.1,0.6,0.4,0.6,0.7l-1.3,14.1
							c-0.2,2.9-0.5,5.4-0.6,7.7c-0.1,2.4-0.2,4.4-0.2,6.4v1.7c0,0.6,0,1.2,0.1,1.9c0,0.5-0.2,1-0.6,1.4s-0.8,0.6-1.4,0.6
							c-1.1,0-1.9-0.7-2.6-2.2c-0.6-1.1-1.1-2.5-1.8-4c-0.6-1.6-1.3-3.4-2-5.4c-0.7-1.9-1.4-4-2.3-6.2s-1.6-4.5-2.4-6.9l-0.2-0.4
							c-0.2,0-0.4,0.2-0.5,0.7c-0.1,1.2-0.2,2.6-0.4,4.1c-0.1,1.5-0.1,3-0.1,4.5s0,3.1,0,4.6v4.4c0,1.4,0,2.7,0.1,4
							c0,1.4,0.1,2.7,0.1,4.1v0.2c0,1-0.2,1.6-0.8,1.9l-0.7,0.4c-0.2,0-0.6-0.1-1-0.4l-1-0.5c-0.5-0.1-0.7-0.6-0.8-1.2v-1.2
							C287.5-178.3,287.3-178.3,287.3-178.3z"/>
						<path id="path1549" class="st40" d="M311.7-178.3c-0.1-2-0.1-4-0.1-6.1c0-3.7,0.2-8.4,0.6-14l1.1-14.1c0-0.7,0.7-1.1,1.9-1.1
							c0.2,0,0.6,0.1,1.1,0.4s1,0.5,1.6,1c0.6,1.1,1.2,2.5,1.8,4.2c0.7,1.7,1.4,3.7,2.2,6.2c0.8,2.2,1.6,4.5,2.3,6.6
							c0.7,2.1,1.4,4,2,5.5l2-22.8c0.1-0.7,0.6-1.1,1.4-1.1c0.4,0,0.6,0,1.1,0.1l1,0.2c0.4,0.1,0.6,0.4,0.6,0.7l-1.3,14.1
							c-0.2,2.9-0.5,5.4-0.6,7.7c-0.1,2.2-0.2,4.4-0.2,6.4v1.7c0,0.6,0,1.2,0.1,1.9c0,0.5-0.2,1-0.6,1.4s-0.8,0.6-1.4,0.6
							c-1.1,0-1.9-0.7-2.6-2.2c-0.6-1.1-1.1-2.5-1.8-4c-0.6-1.6-1.3-3.4-2-5.4c-0.7-1.9-1.4-4-2.3-6.2s-1.6-4.5-2.4-6.9l-0.2-0.4
							c-0.2,0-0.4,0.2-0.5,0.7c-0.1,1.2-0.2,2.6-0.4,4.1c-0.1,1.5-0.1,3-0.1,4.5s0,3.1,0,4.6v4.4c0,1.4,0,2.7,0.1,4
							c0,1.4,0.1,2.7,0.1,4.1v0.2c0,1-0.2,1.6-0.8,1.9l-0.7,0.4c-0.2,0-0.6-0.1-1-0.4l-1-0.5c-0.5-0.1-0.7-0.6-0.8-1.2v-1.2
							C311.9-178.3,311.7-178.3,311.7-178.3z"/>
						<path id="path1551" class="st40" d="M335.4-194.5c0.1-0.4,0.4-0.6,0.7-0.9c0.5-0.2,0.8-0.6,0.8-0.9c0-0.1,0.1-0.6,0.1-1.4
							c0.1-0.9,0.1-2,0.2-3.6c-1.9-0.4-2.8-1.1-2.8-2.2c0-1,0.6-1.9,1.8-2.4l3.2-1.4c0.6-0.4,1.3-0.6,2.2-1c0.8-0.2,1.7-0.6,2.6-0.9
							c0.8-0.2,1.7-0.5,2.5-0.6c0.8-0.2,1.7-0.4,2.5-0.6c0.1,0,0.2-0.1,0.6-0.1c1,0,1.9,0.4,3.2,1.1c0,0.1,0.1,0.4,0.2,0.7
							c0.1,0.4,0.2,0.6,0.2,0.9l-0.4,0.6c-0.6,0.2-1.4,0.6-2.3,0.9c-1,0.2-1.9,0.6-3.2,1c-1.2,0.4-2.3,0.6-3.2,1
							c-1,0.2-1.7,0.6-2.3,0.9c-0.1,0.4-0.2,1.1-0.4,2.1s-0.2,2.4-0.2,4c0.6,0.2,1.2,0.4,1.9,0.4c0.2,0,0.6,0,1-0.1
							c0.4,0,0.8-0.1,1.4-0.1s1-0.1,1.4-0.1c0.4-0.1,0.7-0.1,1-0.1c1,0,1.8,0.2,2.4,0.6c0.5,0.7,0.7,1.1,0.7,1.4l-0.4,0.6l-0.2,0.2
							l-0.5,0.5c-0.2,0.2-0.6,0.4-1.1,0.4c-0.7,0.1-2,0.2-4,0.4c-1.6,0.1-2.9,0.2-3.8,0.6c-0.6,2.5-1,4.5-1,6.1c0,1,0.1,1.7,0.4,2.4
							c1.4,1,3.7,1.5,6.8,1.5h0.7l0.7-0.1l0.8-0.4l0.7-0.4h0.1h0.1c0.8,0,1.3,0.7,1.6,2.2v0.2v0.2c0,0.5-0.1,0.9-0.5,1.2
							c-0.2,0.4-0.7,0.6-1.1,0.6h-1l-1,0.1c-3.2,0-6.2-0.4-8.7-1.1c-1-0.2-1.8-0.7-2.6-1.6c-0.8-0.9-1.2-1.7-1.3-2.9
							c-0.1-0.7-0.1-1.5-0.1-2.2c0-0.7-0.1-1.4-0.1-2.1c0-0.7,0-1.4,0.1-2s0.1-1.2,0.1-1.9c-0.8-0.6-1.2-1.2-1.2-1.7L335.4-194.5
							L335.4-194.5z"/>
						<path id="path1553" class="st40" d="M234-176.9c1.2-1.6,2.3-3.9,3.2-6.7c1-2.9,1.4-6.2,1.4-10.2c0-1.6-0.1-3.5-0.2-5.7
							c-0.1-2.2-0.6-4.6-1.2-6.9l0,0l0,0c-0.4-1.1-0.8-2.5-1.8-4.1s-2-3.1-3.4-4.6c-1.3-1.5-2.8-2.9-4.3-4.1c-1.6-1.2-3.1-2-4.7-2.4
							h-0.2h-0.1l-0.2,0.1l-0.4,0.4c-0.4,0.5-0.5,1.1-0.5,1.7c0,0.6,0.2,1,0.7,1.4c0.4,0.1,0.7,0.4,1.2,0.5c0.5,0.2,1,0.4,1.3,0.6
							l0,0l0,0c1,0.6,1.7,1.1,2.2,1.7c0.5,0.5,0.8,1,1.3,1.5s1,1.2,1.6,2c0.6,0.9,1.2,1.7,1.9,2.7l0,0v0.1c2.2,4.5,3.4,8.9,3.4,13.1
							c0,2.2-0.1,4.4-0.5,6.2c-0.4,1.9-0.7,3.6-1.2,5.1c-0.5,1.5-1.1,2.7-1.8,3.9c-0.6,1.1-1.3,2-2,2.7c-1.3,1.4-2.4,2.2-3.5,2.7
							c-1,0.4-1.8,0.6-2.8,0.9c-0.6,0.1-1,0.4-1.1,0.9c-0.2,0.5-0.4,1-0.4,1.6c0,0.7,0.1,1.1,0.1,1.1l0,0l0,0l0,0
							c0.8,0.7,1.7,1.1,2.6,1.1c1.1,0,2.4-0.5,4-1.7C230.3-172.4,232.1-174.3,234-176.9L234-176.9z"/>
						<path id="path1555" class="st40" d="M389.5-180v0.6l-0.1,0.5c-0.1,0.5-0.5,0.7-1.1,0.7c-1,0-1.8-0.5-2.4-1.2
							c-0.6-0.9-1-1.7-1.1-2.7c-0.1-1.2-0.1-2.6-0.1-4.1c0-2.2,0.1-6,0.5-11c0.1-2.1,0.2-4,0.4-5.6c0.1-1.6,0.1-3.1,0.1-4.4v-1H385
							c-0.4,0-0.8,0-1.4,0c-0.5,0-1.1,0.1-1.7,0.2c-0.4,0.1-0.6,0.1-0.8,0.1c-0.2,0.1-0.5,0.1-0.8,0.1c-1.7,0-3-0.5-4.1-1.4
							c-0.4-0.9-0.6-1.4-0.6-1.4l0.4-0.7c0.6-0.1,1.2-0.4,1.9-0.5c0.7-0.1,1.6-0.2,2.6-0.4c2.9-0.4,5-0.9,6.6-1.7
							c1.3,0.4,2.6,0.6,4.1,0.6c1.4,0,2.9-0.1,4.3-0.6c0.2,0,0.5-0.1,1-0.2c0.5-0.1,0.8-0.2,1.3-0.4c0.8-0.2,1.6-0.4,2.4-0.4h0.4
							l0.4,0.1c0.5,0,0.7,0.1,0.7,0.6v0.2c1,0,1.3,0.4,1.3,1c-0.4,1.2-0.8,2-1.7,2.2c-1.1,0.2-2.4,0.6-4.1,0.9
							c-1.7,0.2-3.8,0.7-6.6,1.1c-0.4,4.4-0.6,8.4-0.7,12c-0.1,3.6-0.2,6.9-0.2,9.8c0,1.1,0,2.2,0,3.2s0,2.1,0.1,3.2L389.5-180
							L389.5-180z"/>
						<path id="path1557" class="st40" d="M397-194.5c0.1-0.4,0.4-0.6,0.7-0.9c0.5-0.2,0.8-0.6,0.8-0.9c0-0.1,0.1-0.6,0.1-1.4
							c0.1-0.9,0.1-2,0.2-3.6c-1.9-0.4-2.8-1.1-2.8-2.2c0-1,0.6-1.9,1.8-2.4l3.2-1.4c0.6-0.4,1.3-0.6,2.2-1c0.8-0.2,1.7-0.6,2.6-0.9
							c0.8-0.2,1.7-0.5,2.5-0.6c0.8-0.2,1.7-0.4,2.5-0.6c0.1,0,0.2-0.1,0.6-0.1c1,0,1.9,0.4,3.2,1.1c0,0.1,0.1,0.4,0.2,0.7
							c0.1,0.4,0.2,0.6,0.2,0.9l-0.4,0.6c-0.6,0.2-1.4,0.6-2.3,0.9c-1,0.2-1.9,0.6-3.2,1c-1.2,0.4-2.3,0.6-3.2,1
							c-1,0.2-1.7,0.6-2.3,0.9c-0.1,0.4-0.2,1.1-0.4,2.1c-0.1,1-0.2,2.4-0.2,4c0.6,0.2,1.2,0.4,1.9,0.4c0.2,0,0.6,0,1-0.1
							c0.4,0,0.8-0.1,1.4-0.1c0.6-0.1,1-0.1,1.4-0.1c0.4-0.1,0.7-0.1,1-0.1c1,0,1.8,0.2,2.4,0.6c0.5,0.7,0.7,1.1,0.7,1.4l-0.4,0.6
							l-0.2,0.2l-0.5,0.5c-0.2,0.2-0.6,0.4-1.1,0.4c-0.7,0.1-2,0.2-4,0.4c-1.6,0.1-2.9,0.2-3.8,0.6c-0.6,2.5-1,4.5-1,6.1
							c0,1,0.1,1.7,0.4,2.4c1.4,1,3.7,1.5,6.8,1.5h0.7l0.7-0.1l0.8-0.4l0.7-0.4h0.1h0.1c0.8,0,1.3,0.7,1.6,2.2v0.2l0.1,0.2
							c0,0.5-0.1,0.9-0.5,1.2c-0.4,0.4-0.7,0.6-1.1,0.6h-1l-1,0.1c-3.2,0-6.2-0.4-8.7-1.1c-1-0.2-1.8-0.7-2.6-1.6
							c-0.8-0.9-1.2-1.7-1.3-2.9c-0.1-0.7-0.1-1.5-0.1-2.2c0-0.7-0.1-1.4-0.1-2.1c0-0.7,0-1.4,0.1-2c0-0.6,0.1-1.2,0.1-1.9
							c-0.8-0.6-1.2-1.2-1.2-1.7L397-194.5L397-194.5z"/>
						<path id="path1559" class="st40" d="M417.5-194.5c0.1-0.4,0.4-0.6,0.7-0.9c0.5-0.2,0.8-0.6,0.8-0.9c0-0.1,0.1-0.6,0.1-1.4
							c0.1-0.9,0.1-2,0.2-3.6c-1.9-0.4-2.8-1.1-2.8-2.2c0-1,0.6-1.9,1.8-2.4l3.2-1.4c0.6-0.4,1.3-0.6,2.2-1c0.8-0.2,1.7-0.6,2.6-0.9
							c0.8-0.2,1.7-0.5,2.5-0.6c0.8-0.2,1.7-0.4,2.5-0.6c0.1,0,0.2-0.1,0.6-0.1c1,0,1.9,0.4,3.2,1.1c0,0.1,0.1,0.4,0.2,0.7
							c0.1,0.4,0.2,0.6,0.2,0.9l-0.4,0.6c-0.6,0.2-1.4,0.6-2.3,0.9c-1,0.2-1.9,0.6-3.2,1c-1.2,0.4-2.3,0.6-3.2,1
							c-1,0.2-1.7,0.6-2.3,0.9c-0.1,0.4-0.2,1.1-0.4,2.1c-0.1,1-0.2,2.4-0.2,4c0.6,0.2,1.2,0.4,1.9,0.4c0.2,0,0.6,0,1-0.1
							c0.4,0,0.8-0.1,1.4-0.1s1-0.1,1.4-0.1c0.4-0.1,0.7-0.1,1-0.1c1,0,1.8,0.2,2.4,0.6c0.5,0.7,0.7,1.1,0.7,1.4l-0.4,0.6l-0.2,0.2
							l-0.5,0.5c-0.2,0.2-0.6,0.4-1.1,0.4c-0.7,0.1-2,0.2-4,0.4c-1.6,0.1-2.9,0.2-3.8,0.6c-0.6,2.5-1,4.5-1,6.1c0,1,0.1,1.7,0.4,2.4
							c1.4,1,3.7,1.5,6.8,1.5h0.7l0.7-0.1l0.8-0.4l0.7-0.4h0.1h0.1c0.8,0,1.3,0.7,1.6,2.2v0.2l0.1,0.2c0,0.5-0.1,0.9-0.5,1.2
							c-0.2,0.4-0.7,0.6-1.1,0.6h-1l-1,0.1c-3.2,0-6.2-0.4-8.7-1.1c-1-0.2-1.8-0.7-2.6-1.6c-0.8-0.9-1.2-1.7-1.3-2.9
							c-0.1-0.7-0.1-1.5-0.1-2.2c-0.1-0.7-0.1-1.4-0.1-2.1c0-0.7,0-1.4,0.1-2c0-0.6,0.1-1.2,0.1-1.9c-0.8-0.6-1.2-1.2-1.2-1.7
							L417.5-194.5L417.5-194.5z"/>
						<path id="path1561" class="st40" d="M258-210.7c-7.5,3.6-14.1,11.2-12.3,20.4c1.7,9.1,9.7,12.8,17.9,13.5
							c3.4,0.2,3.4-5.1,0-5.5c-6-0.5-12.6-3.2-12.8-10.5c-0.4-6.6,4.8-11,10.1-13.3C263.7-207.4,261-212.2,258-210.7L258-210.7z"/>
						<path id="path1563" class="st40" d="M370-208.2c-7.3,3.1-14.3,9.2-13.1,18.3c1.2,9.1,10.1,12.3,17.9,13c3.2,0.2,3.1-4.9,0-5.1
							c-5.4-0.4-12.6-2.5-12.9-9.4c-0.4-6,4.8-9.8,9.5-11.8C374.1-204.4,372.8-209.4,370-208.2z"/>
						<path id="path1565" class="st40" d="M408.6-215.5c2.2-1.4,4.2-2.7,6.3-4.1"/>
					</g>
				</g>
			</g>
			<g id="main">
				<path class="st3" d="M799.3,342.3c0,0-83.7,25.1-47-20.3c32.1-39.7,37.9-37,37.9-37l33.8,25"/>
				<g>
					<path class="st41" d="M667,235.5c0,0-25.5,7.8-25,10.6c0.5,2.7,1.7,8.3,9.6,9.3c7.9,1.1,19.5-1.1,19.5-1.1L658.4,268
						c0,0,3.1,6,11.5,5.8c8.4-0.1,15.2-3.4,15.2-3.4l30.5,4.6L667,235.5z"/>
					<path class="st42" d="M808.7,313.2c-7.6-8.4-40-33-45.4-43c-6.7-12.4-10.3-22.7-18.3-28.9c-7.9-6.1-20-14.7-29.1-18.7
						c-7.4-6.4-18.4-5.9-22.3-0.2c-8.4-2.7-14.6-3.7-20-0.8c-4.7-1.8-7.3-2.7-10-3.4c-12.7-3.1-39.3-15.5-47.7-19.8
						c-4.2-2.1-6.9-2.9-8.9-1c-1.1,1-2.2,2.3-2.5,5.3c-0.5,3.8,1.4,7.8,6.9,12.2c2.7,2.2,10.9,6.2,14.6,7.5c4.8,6,21.3,18,27.1,17.6
						c7.2,7.3,21.4,19.3,31,18.9c3.7,5.6,8.8,12.4,13.1,17.2c-3.4,0.5-11.1,0.6-18.5-2.9c-8-3.8-15.6-11.2-16.7-12.2
						c-2.3-4-12-9.5-15.6-10.4c-7.5-1.8-9.2,1.7-12.8,5.9c-0.8,0.9-1.9,3.2-0.6,4.2c5.6,4.6,8.6,5.6,13.8,11.1
						c2.1,2.8,4.3,6.7,6.7,10.6s7.6,8.3,21.3,19.6c18.4,15.1,29.2,21.2,57.2,20.8c3.2,5.2,18.8,14.6,23.7,18.1
						C759,343.2,816.6,354.2,808.7,313.2z"/>
					<path class="st22" d="M633.7,261.1c0,0,3.9-7.8,9-6.8s7.6,5,7.6,5l-6.7,9.5L633.7,261.1z"/>
					<path class="st22" d="M612.4,196.7c-4.4-1.5-7.2,4-3.8,7.7s7.4,4.7,7.4,4.7l7.4-7.1C623.4,202,614.4,197.4,612.4,196.7z"/>
				</g>
				<path class="st7" d="M868,330.3L790.2,285c0,0,5.1,45.3-45.2,60.7l116.7,108.9"/>
			</g>
			<g id="porte">
				<path class="st43" d="M414.6,61.5c-52,0-94.4,41.2-94.4,91.7V395h188.7V153.3C508.9,102.7,466.6,61.5,414.6,61.5z"/>
				<path class="st22" d="M440.9,79.7c-8.2-2.9-17.1-4.4-26.3-4.4c-43.2,0-78.4,34.2-78.4,76.3v229.8h7.5H493V151.5
					C493,118.4,471.2,90.2,440.9,79.7z"/>
				<path class="st44" d="M337.8,381.6h153.5V151.5c0-41.1-34.4-74.6-76.7-74.6s-76.7,33.5-76.7,74.6L337.8,381.6L337.8,381.6z"/>
				<g>
					<path class="st44" d="M401.5,242.7h-45.2v-77.2h45.2V242.7z"/>
				</g>
				<g>
					<path class="st44" d="M472.3,242.7H427v-77.2h45.2L472.3,242.7L472.3,242.7z"/>
				</g>
				<g>
					<g>
						<path class="st44" d="M401.5,314.6h-45.2v-44.9h45.2V314.6z"/>
					</g>
					<g>
						<path class="st44" d="M472.3,314.6H427v-44.9h45.2L472.3,314.6L472.3,314.6z"/>
					</g>
					<g>
						<path class="st44" d="M401.5,367.6h-45.2v-44.9h45.2V367.6z"/>
					</g>
					<g>
						<path class="st44" d="M472.3,367.6H427v-44.9h45.2L472.3,367.6L472.3,367.6z"/>
					</g>
				</g>
				<g>
					<g>
						<path class="st11" d="M471.2,148.9c0-24.1-15.9-44.7-38-52.4c-6-2.1-12.5-3.2-19.2-3.2c-31.5,0-57.2,25-57.2,55.6H471.2z"/>
					</g>
				</g>
				<ellipse class="st3" cx="479.9" cy="256" rx="6.3" ry="6.1"/>
				<path class="st45" d="M425.4,94.4c-3.7-0.7-7.5-1.1-11.5-1.1c-4.1,0-8.2,0.4-12.1,1.3L376.3,149h23.2L425.4,94.4z"/>
				<path class="st45" d="M449.2,105.2c-1.6-1.2-3.3-2.4-5-3.5l-22.1,47.2h6.5L449.2,105.2z"/>
				<g>
					<g>
						<path class="st46" d="M471.2,148.9c0-24.1-15.9-44.7-38-52.4c-6-2.1-12.5-3.2-19.2-3.2c-31.5,0-57.2,25-57.2,55.6H471.2z"/>
					</g>
				</g>
			</g>
			<g id="plantes">
				<g>
					<g>
						<path class="st22" d="M260.5,408.9c1-0.1,3.2-0.4,4.5-0.6c10.3-1.6,18.7-5.1,32.8-0.9c14.8,4.4,13.2-14.9,12.8-19.2
							c-0.6-5.9-6.7-14.3-15.3-16.4c-14.3-3.5-28.3,6.8-34.8,6.9c-4,0.1-11.9-0.3-17.5,1.8c0,0-1.4-4.3-2.2-5.7s-2.8-4.3-2.8-4.3
							s-3.6,3.7-4.3,4.9c-0.7,1.3-2.1,5-2.1,5l-11.1,4.2c0,0-5.3-1.8-9.6-1.3s-4.3,0.5-4.3,0.5s1.7,4.1,4.4,7.1c2.7,2.9,4,4.8,4,4.8
							v2.3c0,0-2.3,2.5-3,4.1c-0.8,1.7-2.1,4.6-2.2,6.1c-0.1,1.5-0.7,2.4,1.5,2.4s6.2-0.6,6.9-0.5s2.6,0.7,3.7,0.9
							c1.2,0.1,4.1,0,4.1,0l0.8-2.9c0,0,3.1,1.7,4.2,1.2c1-0.4,0.4,1.6,2,1.6s6.9-1,8.9-0.9C244.2,410.2,255.1,410.9,260.5,408.9"/>
					</g>
					<g>
						<path class="st47" d="M219,403.9c-0.3-0.4-0.6-0.7-1-0.9c-2.4-1-0.4-2-2.1-3.7c-1.4-1.5-0.7-3.4-0.7-3.4
							c-2.4-4.6-7.6-6.6-8.4-11.8c5-1.5,9.6-1.2,13.7,0.4c4.4-1.4,11.1-4.2,11.1-4.2c1.5-6.3,6.4-9.9,6.4-9.9c2.3,3.6,4,5.2,5.4,12
							c3,1,3.6,2.6,3.5,3.6c-0.2,2.2,2.2,1.9,1.3,4.4c-0.4,1.1,1.9,0.8,0.2,2.7c-0.5,0.5,1.4,1.9,0.7,2.4c-2,1.7,0.1,4.6-2,5.4
							c-2.1,0.9-4.9,3-6.7,4"/>
						<path class="st47" d="M231.2,409.3c-1.3,0.4-2.8-0.9-4.2-1.2"/>
					</g>
					<g>
						<path class="st47" d="M216.1,403.3c7.1,2.1,13.1,2.3,10.1,7.6c-4.2,0.6-6.1-0.7-7.9-0.9c-1.8-0.2-8,1.6-8.6-0.4
							C209.2,407.6,212.8,402.5,216.1,403.3z"/>
					</g>
					<g>
						<path class="st47" d="M241.1,382.7c-2.5-1.4-4.3-0.7-4.6-1.1c-0.8-3.2,1.5-5.7,1.5-5.7c0.9,1.8,0.3,3.7,1.4,4.9
							C240.6,381.9,241.1,382.7,241.1,382.7z"/>
					</g>
					<g>
						<path class="st47" d="M215.9,392.6c-0.3-3.1,1.6-4.6,1-5.3c-0.6-0.7-3.4-1.6-5.5-1.4c1.4,1.3,2.1,1.8,2.4,3.4
							C214.2,391.2,215.9,392.6,215.9,392.6z"/>
					</g>
					<g>
						<path class="st47" d="M225.5,399.9c2.8,0.9,3.9-0.3,4-1.9"/>
					</g>
					<g>
						<path class="st47" d="M239.1,393.3c-1,2.8-2.6,2.9-3.9,2.1"/>
					</g>
					<g>
						<path class="st47" d="M235.2,401.2c-2-0.1-2.8-0.7-0.9-1.8C235.8,398.5,236.3,399.3,235.2,401.2z"/>
					</g>
					<path class="st47" d="M283.7,385.1c0,0.3-24.7,0.6-18.4,18"/>
					<path class="st47" d="M306.2,396.8c0,0,1.2,4.3-2.8,5.6c-3.9,1.3-10.1-3.6-24.4-1.7s-16.6,4.1-20.9,2.8c-3-0.9-4.1,1.4-3.6,3.2
						"/>
					<path class="st47" d="M248,403.5c-6.6,1.9-19.7,2.4-16.9,5.8c2.9,3.4,5.7,0.3,10.9,0.7c5.2,0.4,15.2,1,18.4-1.2"/>
					<path class="st47" d="M237.2,388.3c0,0-2.6-1.1-4.9-0.4"/>
					<path class="st47" d="M221.7,395.4c0,0,0.9-2.7,3-4"/>
					<path class="st47" d="M215.1,397.9c-0.7,0.8-1.4,1.7-2.2,2.7c-1,1.4-2.9,6-3,7.5"/>
					<path class="st47" d="M238.9,401.5c0,0.2-0.4,1-1.4,1.4s-2.4-1.4-2.4-1.4s0.7,1.7,0.4,2.2c-0.4,0.8-2.3,1.1-2.7,0.9"/>
				</g>
				<g>
					<path class="st48" d="M543.4,357.6l-0.4-0.5c0.1,0.3,0.2,0.5,0.2,0.5H543.4z"/>
					<ellipse class="st49" cx="544.2" cy="381.6" rx="14.6" ry="1.2"/>
					<g>
						<g>
							<g>
								<g>
									<path class="st18" d="M552.2,376c-1,0-2.1-0.3-2.8-1l0,0l0,0c-0.4-0.3-0.7-0.7-0.9-1.1c-0.7,0-0.4-2.8-0.3-3.3
										c1.4-6.6,9.2-11.4,15.7-11.4c5,0.3,4.6,5.7,2.1,8.7C562.6,372,557.6,375.4,552.2,376z"/>
									<path class="st18" d="M530.3,367.8c-3,0-5.8-1.4-8.4-2.9l-0.1-0.1l0,0c0,0-0.1,0-0.1-0.1l0,0c-0.1,0-0.1-0.1-0.2-0.1l0,0
										c0,0-0.1,0-0.1-0.1l0,0h-0.1l0,0l0,0l0,0l0,0l0,0c-1.1-0.7-2.2-1.5-3.1-2.5l0,0c-4.1-4.2-2.8-9.2,3.2-9.9l0,0h0.1
										c0.2,0,0.4,0,0.6-0.1l0,0c3.9-0.2,7.9,1,11.2,3c2.1,1.2,3.6,3,4.1,5.4c0.4,2,0.7,5.6-1.6,6.3l0,0
										C534.1,367.5,532.2,367.8,530.3,367.8z"/>
									<path class="st18" d="M568.6,312.9c-2.5-2.8-7.5-0.4-10.3,1c-5.1,3-8.4,7.3-9.6,13.1c-0.3,1.4-0.5,2.8-0.5,4.2
										c0,1.2,0.1,2.4,0.3,3.6l0,0c0,0.3,0,0.6,0.1,0.9c0,0.1,0.1,0.1,0.2,0.1c0.3-0.1,0.1-0.7,0.1-0.9c0.2,0.2,0.4,0.4,0.6,0.6
										c0.6,0.4,1.5,0.5,2.2,0.5c1.9-0.1,3.6-1.4,5.1-2.5c2-1.3,3.9-2.9,5.5-4.7C565.1,325.5,571.8,317.1,568.6,312.9z M548.8,334
										C548.8,334,548.7,333.9,548.8,334c-0.1-0.1-0.1-0.1-0.1-0.1S548.7,333.9,548.8,334z"/>
									<g>
										<path class="st18" d="M571.4,345.5c-0.8-4.9-7.2-3.1-10.5-2.1c-4.9,1.5-9.2,5.1-11.2,9.8c-0.6,1.7-1.2,3.9-0.1,5.5
											c0.1,0.2,0.4,0.1,0.4-0.1c3.8,2.8,9.1-1.6,12.6-3.4c2.2-1.3,4.6-2.3,6.5-4.1C570.5,349.7,571.6,347.6,571.4,345.5z"/>
										<path class="st18" d="M538.3,322.1c-0.6-3.7-3-6.5-5.8-8.8c-1.1-0.9-2.4-2-3.8-2.5l0,0c-3.1-1.3-6.9-1.5-10.1-0.3
											c-2.8,1.2-4.5,4-2.2,6.6c3,3.4,7.9,4.1,11.5,6.5c2.8,1.7,7.2,6,9.9,1.9c0.1,0,0.2-0.1,0.2-0.2c0.2-0.5,0.3-1.1,0.3-1.6
											c0-0.3,0.1-0.6,0-0.9C538.4,322.6,538.3,322.3,538.3,322.1z"/>
										<path class="st18" d="M568.5,298c-3.6-0.3-7.2,2.2-10.1,4.2c-1.1,0.8-2.2,1.7-3.3,2.7l0,0l0,0l0,0l0,0l0,0
											c-0.1,0.1-0.2,0.1-0.2,0.2l-0.1,0.1l0,0l0,0c0,0,0,0-0.1,0.1c-3,2.9-5.8,6.3-7.2,10.2c-0.1,0.1-0.1,0.3-0.1,0.4
											c-0.7,1.1-0.9,2.4-1.3,3.6c-0.1,0.2-0.2,0.5-0.2,0.7c0,0.1,0,0.3,0.2,0.3l0,0c0.1,0,0.3,0,0.3-0.2
											c0.3-0.9,0.7-1.8,1.1-2.7c0,0,0-0.1,0.1-0.1l0,0c0.6-1.4,1.4-2.7,2.5-3.7c1.4-1.4,3.2-2,5-2.7c3.1-1.4,6.5-2.6,9.4-4.6
											c1.1-0.8,2.2-1.7,3.3-2.6l0,0l0,0c0,0,0,0,0.1,0C569.4,302.6,571.3,299.1,568.5,298z"/>
										<path class="st18" d="M564.5,306.6L564.5,306.6L564.5,306.6z"/>
										<path class="st18" d="M562.9,307.6C562.9,307.6,562.8,307.6,562.9,307.6C562.8,307.6,562.9,307.6,562.9,307.6z"/>
										<path class="st18" d="M550.2,285.1c-2.4,3.5-4.4,7.4-5.7,11.4c-0.3,1.4-0.5,2.8-0.5,4.2c0.1,2.5,0.7,4.9,2.3,6.9
											c0.1,0.1,0.2,0.3,0.3,0.4l0.1,0.1c0.2,0.2,0.4,0.3,0.6,0.4c0.5,0.1-0.1-0.6-0.2-0.7c0.1,0,0.2-0.1,0.2-0.2
											c0.2,0.1,0.4,0.2,0.5,0.3c1.6,0.6,3.3-0.7,4.4-1.7c4.5-4,6.6-9.9,8-15.6C563.9,279.7,557.2,275.7,550.2,285.1z
											 M546.8,307.2C546.7,307.2,546.7,307.2,546.8,307.2C546.7,307.2,546.7,307.2,546.8,307.2
											C546.7,307.2,546.7,307.2,546.8,307.2L546.8,307.2z"/>
									</g>
									<path class="st22" d="M544.5,383.2c-1-0.1-0.2-2.7-0.3-3.4c0.2-1.9,0.4-3.9,0.6-5.8c0.5-5.6,0-11.2,0-16.7
										c0.2,0.1,0.1-0.2,0.1-0.3c0.1,0,0.1-0.2,0.1-0.4c-0.1-1.5-0.1-3.1-0.1-4.6c-0.1-3.8,0.2-7.6,0.3-11.4l0,0
										c0.1-2.5,0.2-5,0.3-7.5c0.4,0,0.2-0.7,0.3-0.9c0.1-1.9,0.1-3.9,0-5.8l0,0c0.5-10.6,0.6-21.3,3.6-31.5l0,0
										c1.7-5.2,3.8-12.2,9.4-14.4c0.2,0,0.5-0.2,0.6,0.1c0,0.1-0.1,0.2-0.2,0.1c-0.2,0-0.3,0.1-0.5,0.1l0,0l0,0l0,0l0,0l0,0
										c-1.7,0.7-3,2-3.9,3.5l0,0c-1.9,2.9-3,6.3-4,9.6c-2.4,7.9-3.1,16.3-3.4,24.6c-0.3,7.1-0.6,14.3-0.8,21.4v-0.1
										c-0.3,8.8-0.6,17.5-0.2,26.3c0.3,4.4-0.2,8.8-0.7,13.2c-0.2,1.2-0.2,2.4-0.5,3.6C545,383,544.8,383.2,544.5,383.2z"/>
									<path class="st22" d="M544.7,382.3c-0.3-0.2-0.3-0.7-0.1-1c0,0,0,0,0,0.1c1.1-2.3,1.9-4.8,3.3-6.9c0,0,0,0,0,0.1
										c0.1-0.1,0.1-0.2,0.2-0.3l0,0c0,0,0,0,0-0.1l0,0c3.5-6,9.3-10.7,16.1-12.3c0.4,0,2.1-0.6,2.1-0.2c0,0.1-0.1,0.1-0.2,0.1
										l0,0H566l0,0c-0.3,0-0.5,0.1-0.8,0.2l0,0c-8.2,2.1-14.2,8.1-17.7,15.7l0,0c0,0,0,0,0,0.1l0,0c-0.5,1-0.9,2.1-1.3,3.1
										C546.1,381.5,545.7,382.8,544.7,382.3z"/>
									<path class="st22" d="M545.8,384c-0.3,0-0.6,0-0.8,0c-0.3,0-0.6,0-1,0c-0.3-0.4-0.2-1.1,0-1.6c0-0.1,0-0.1,0.1-0.2
										c0.1-0.4,0.1-1.1,0.5-1.4c0.1-0.1,0.2-0.1,0.4-0.1c0-0.2,0.2-0.4,0.3-0.4s0.2,0,0.3,0s0.2,0.1,0.3,0.1
										c0.2,0.1,0.2,0.3,0.2,0.6c0,0.2,0,0.5,0,0.8v0.1C546,382.5,546,383.4,545.8,384z"/>
									<path class="st22" d="M546.1,384h-0.3c-0.3,0-0.6,0-0.8,0c0-0.1-0.1-0.1-0.1-0.2c0-0.2-0.1-0.4-0.1-0.6
										c0-0.3-0.1-0.6-0.1-0.8c0-0.3-0.1-0.5-0.1-0.8c0-0.2-0.1-0.5-0.1-0.7c-0.1-0.5-0.1-1-0.2-1.4v-0.1
										c-0.2-0.9-0.4-1.9-0.6-2.8c-0.5-1.9-1.1-3.8-2-5.5l0,0c0,0,0,0,0-0.1s-0.1-0.2-0.1-0.2c-1.1-2-2.4-3.8-4-5.4
										c-3.1-3.2-7-5.6-11.1-7c-3.1-1-6.3-1.6-9.5-1.7c-0.5-0.3,1.5-0.2,1.8-0.2c6.9,0.3,13.9,3.2,19.1,8c3.3,3,5.8,6.8,7.1,11.2
										c0.1,0.3,0.2,0.7,0.3,1c0,0.2,0.1,0.4,0.1,0.6c0.2,0.8,0.3,1.6,0.5,2.4l0,0c0.1,0.3,0.1,0.7,0.2,1c0.1,0.5,0.1,1,0.2,1.4
										v0.1c0.1,0.6,0.1,1.1,0.2,1.7C546.2,383.7,546.2,383.8,546.1,384z"/>
									<path class="st22" d="M545.1,374.9c-0.2,0-0.3-0.2-0.3-0.4c0-0.8,0.1-1.7,0.2-2.5c0.4-6.9,2.6-13.1,7-18.4l0,0
										c4.2-5,10.5-10.2,17.4-10.1l0,0c0.3,0,0.7,0.1,1,0.1c0.1,0,0.2,0.1,0.1,0.2c0,0.1-0.1,0.1-0.2,0.1
										c-1.6,0.3-3.3,0.7-4.9,1.3c0,0,0,0,0.1,0c-8.9,3.4-15.6,11.5-18.4,20.5c-0.9,2.9-1.4,6-1.6,9
										C545.5,374.8,545.3,375,545.1,374.9z"/>
									<path class="st22" d="M545,355.6c-0.7-9.4,1.5-18.8,6.6-26.8c0,0,0,0,0,0.1c0.1-0.2,0.3-0.5,0.4-0.7l0,0c0,0,0,0,0-0.1
										c0,0,0,0,0,0.1c1-1.5,2-3,3.2-4.3l0,0c0,0,0,0,0.1-0.1l0,0c0,0,0,0,0-0.1l0,0c0.1-0.1,0.1-0.2,0.2-0.2l0,0l0,0l0,0
										c0,0,0,0,0.1-0.1l0,0c0-0.1,0.1-0.1,0.1-0.2l0,0c2.9-3.3,6.1-7,10.2-8.7c0.2,0,0.2,0.3,0,0.3c-1.3,0.8-2.5,1.8-3.6,2.8l0,0
										C550.4,328.9,546.4,339.8,545,355.6C545,355.7,545,355.7,545,355.6z"/>
									<path class="st18" d="M546.5,340.2c-0.1-2.6-0.4-5.3-0.7-7.9c0.1-1.3,0.1-2.6,0.1-3.9c0.6,3.4,0.9,6.8,1.1,10.2
										c0,0.5,0.1,1,0.1,1.6c0,0.1-0.1,0.3-0.3,0.3C546.6,340.4,546.5,340.3,546.5,340.2z"/>
									<path class="st18" d="M543.8,322.3c0-1.2-0.1-2.4-0.1-3.7c0.1,0.3,0.2,0.7,0.3,1c0,0.2,0,0.4,0,0.6l0,0l0,0l0,0
										c0,0.5,0,1-0.1,1.6l0,0c0,0,0,0,0,0.1l0,0l0,0l0,0l0,0l0,0l0,0l0,0l0,0l0,0l0,0l0,0l0,0l0,0l0,0l0,0l0,0l0,0l0,0l0,0l0,0
										l0,0c0,0.2,0,0.3,0,0.5C543.8,322.4,543.8,322.4,543.8,322.3z"/>
									<path class="st18" d="M543.4,320.5c-0.1-0.4-0.2-0.7-0.3-1.1c0.1-0.8,0.1-1.6,0.2-2.4c0,0.1,0.1,0.2,0.1,0.3
										c0,1.1,0.1,2.3,0.1,3.4C543.4,320.6,543.4,320.6,543.4,320.5z"/>
									<path class="st18" d="M542.6,317.7c-0.2-0.7-0.4-1.5-0.7-2.2c0-0.2-0.1-1.7-0.4-1.3c-0.1-0.4-0.2-0.7-0.4-1.1
										c0-0.8,0.1-1.6,0.2-2.5c0.6,1.8,1.2,3.7,1.7,5.6c-0.1,0.8-0.1,1.6-0.2,2.4C542.8,318.3,542.7,318,542.6,317.7z"/>
									<path class="st18" d="M540.9,312.5c-1.4-4.1-3.2-8-5.6-11.6c-0.7-1-1.3-2-2.1-2.8c-0.2-0.2,0.2-0.5,0.3-0.2
										c3.8,3.3,6.1,7.8,7.7,12.5c-0.1,0.8-0.1,1.6-0.2,2.4C541,312.7,541,312.6,540.9,312.5z"/>
									<path class="st22" d="M546.3,341.1c-0.8-2.7-1.8-5.3-3.1-7.7l0,0c-1.9-3.6-4.8-6.6-7.7-9.5c-4.9-4.7-10.9-8.2-17.2-10.6
										c-0.1,0-0.2-0.2,0-0.2l0,0l0,0c2.6,0.4,5.1,1.2,7.4,2.4l0,0c2.6,1.3,5.1,2.9,7.4,4.8c0,0,0,0-0.1,0
										c2.4,1.9,4.5,4.1,6.6,6.3c0,0,0,0,0-0.1c2.1,2.3,3.9,4.9,5.2,7.8c0.9,2.1,1.7,4.3,2.3,6.6
										C547.2,341.4,546.4,341.6,546.3,341.1z"/>
									<path class="st22" d="M546.6,318.4c0.3-1.4,1-2.6,1.7-3.8l0,0l0,0l0,0c1.6-2.6,3.8-4.7,6-6.7l0,0c1.4-1.3,2.9-2.4,4.4-3.5
										l0,0l0,0l0,0c0.1-0.1,0.3-0.2,0.4-0.3l0,0c2.5-1.9,5.3-3.2,8.1-4.5c0.1,0,0.1,0.1,0.1,0.1c-1.1,0.5-2.3,1.1-3.4,1.7l0,0
										l0,0l0,0c-6.3,3.5-11.7,8.6-15.7,14.7l0,0l0,0l0,0c-0.1,0.1-0.1,0.2-0.2,0.3l0,0c-0.4,0.7-0.9,1.5-1.3,2.2
										C546.8,318.6,546.6,318.6,546.6,318.4z"/>
									<path class="st18" d="M546.8,308.6c0-0.2-0.1-0.4-0.1-0.6c-0.4-2.6-1.2-5.2-2.6-7.2c-1.2-1.8-2.8-3.1-4.8-3.9
										c-2.3-1-4.6-0.5-6.2,0.9c-1,0.9-1.7,2.1-2,3.5c-0.5,2.3,0.4,4.7,1.3,6.8c2.2,3.8,6.4,13.2,10.9,13.9h0.1c0.1,0,0.3,0,0.4,0
										c0,0,0,0,0.1,0h0.1c1-0.3,1.3-1.7,1.5-2.7c0.3-0.6,0.5-1.2,0.7-1.8c0.2-0.7,0.3-1.3,0.4-2C547,313.4,547.1,311,546.8,308.6
										z"/>
									<path class="st18" d="M542.4,354.5c-2.3-0.2-3.6-2.4-4.6-4.3c-0.7-1.3-1.5-2.5-2.2-3.7c-2-3.5-7.7-11.5-4.1-15.1
										c1.8-2.6,5.9-0.6,8.1,0.5c2.5,1.3,4.4,3.5,5.7,5.9l0,0l0,0l0,0c0,0,0,0.1,0.1,0.1l0,0C548,342.1,549.9,354.7,542.4,354.5z"
										/>
									<path class="st22" d="M545.6,365.6c-1.8-8.3-3.9-16.7-8-24.1l0,0c0,0,0,0,0-0.1l0,0c-1.6-3-3.6-5.8-6-8.2l0,0l0,0l0,0l0,0
										c-0.1-0.2,0.2-0.1,0.3,0c2.5,1.9,4.5,4.5,6.2,7.1c4.9,7.7,7.2,16.7,8.3,25.7c-0.2,0.4-0.3,0.7-0.5,1
										C545.8,366.6,545.7,366.1,545.6,365.6z"/>
									<path class="st22" d="M546.1,337.7c0-0.6-0.1-1.2-0.1-1.8l0,0c-0.4-4.1-1.3-8.2-2.2-12.2l0,0l0,0l0,0c0,0,0,0,0-0.1l0,0
										c0-0.1,0-0.1,0-0.2l0,0c0-0.1,0-0.1,0-0.2l0,0l0,0l0,0l0,0l0,0c-2-9-5.9-17.4-10.5-25.3l0,0c0,0,0-0.1-0.1-0.1
										s-0.1-0.1,0-0.2s0.3,0.1,0.4,0.1c2.1,2.4,3.4,5.5,4.9,8.3c2.4,4.6,4.2,9.5,5.4,14.5c1.1,5.1,2.2,10.2,2.6,15.3
										c0,0.5,0.1,1,0.1,1.6c0,0.1-0.2,0.2-0.2,0.2S546.1,337.8,546.1,337.7z"/>
								</g>
							</g>
						</g>
					</g>
					<path class="st11" d="M544.2,382.9c-7.7,0-14-0.5-14.6-1.1h-0.1l4.3,26c0,1.6,4.7,2.9,10.5,2.9s10.5-1.3,10.5-2.9l3.9-26.1
						C558.8,382.3,552.3,382.9,544.2,382.9z"/>
				</g>
				<g>
					<ellipse class="st3" cx="202.8" cy="373.1" rx="17.1" ry="16.8"/>
					<path class="st3" d="M202.9,357.4c0-0.1,0-0.1,0-0.2c-0.2-0.8-1.4-1.5-2-2c-1.1-0.9-2.4-1.7-3.8-2.3c-2.4-1-5-1.3-7.5-0.8
						c-0.5,0.1-1.1,0.2-1.5,0.5s-0.8,0.8-0.8,1.3c0,0.7,0.6,1.3,1.2,1.7c3.3,2.3,7.5,3.4,11.6,2.9
						C200.8,358.5,202.9,358.3,202.9,357.4z"/>
					<path class="st3" d="M194.3,362.5c1.2-0.8,2.6-1.8,2.9-3.2c0.3-1.4-1.8-1.4-2.7-1.4c-3.4,0.2-6.7,1.4-9.4,3.4
						c-1,0.7-1.9,1.6-2.1,2.8c-0.1,0.5,0,1.1,0.4,1.5s1.1,0.4,1.7,0.4C188.3,365.7,191.5,364.3,194.3,362.5z"/>
					<path class="st3" d="M205.5,353.9c1.5-1.1,3.3-1.9,5.1-2.1c0.6-0.1,1.3-0.1,1.8,0.4c0.3,0.3,0.4,0.8,0.4,1.3
						c-0.1,0.5-0.3,0.9-0.5,1.3c-1.8,2.7-5,4-8.3,4.3c-1.1,0.1-3.3-0.5-2.2-1.9C202.8,355.9,204.2,354.8,205.5,353.9z"/>
					<path class="st3" d="M183,369.1c-1,1.2-1.8,2.5-1.9,4c0,0.4,0.1,0.9,0.4,1.1c0.4,0.3,1,0,1.4-0.2c2.6-1.6,4.8-3.7,6.5-6.2
						c0.5-0.7,1-1.9,0.9-2.8s-0.8-1.5-1.6-0.9c-0.9,0.6-1.7,1.5-2.7,2.1C185,367,183.9,368,183,369.1z"/>
					<path class="st3" d="M207.1,360.6c-0.7-0.4-1-0.8-0.8-1.6c0.1-0.5,0.5-0.9,0.9-1.3c0.9-0.6,2.1-0.8,3.1-1.2
						c2.2-0.7,4.5-0.9,6.8-0.7c0.7,0.1,1.5,0.2,2.1,0.6c0.7,0.4,1.2,1,1.3,1.7s-0.3,1.4-0.8,1.9s-1.2,0.8-1.9,1
						C214.4,362.3,210.3,362.4,207.1,360.6z"/>
					<path class="st3" d="M189.4,371.3c-0.1-1.2-0.7-2.1-1.9-1.3c-0.8,0.5-1.2,1.4-1.6,2.2c-0.7,1.3-1.2,2.8-1.5,4.2
						c-0.3,1.5-0.4,3.2,0.3,4.6c0.3,0.7,1,1.4,1.7,1.2c0.7-0.1,1-0.9,1.2-1.5C188.7,377.6,189.8,374.5,189.4,371.3z"/>
					<path class="st3" d="M213.5,365.2c-0.7-1-1-2.2,0.1-3c1.2-0.8,2.1-0.6,3.5-0.4c1.7,0.2,3.5,0.6,5,1.3c0.6,0.3,1.1,0.6,1.5,1.1
						s0.6,1.1,0.5,1.7c-0.2,0.7-0.8,1.2-1.4,1.6c-1.5,0.8-3.4,1.1-5.1,0.7C215.9,367.8,214.4,366.7,213.5,365.2z"/>
					<path class="st3" d="M224.1,375.3c0.1,0.5,0.2,1,0.1,1.6c-0.1,0.5-0.5,1-1,1.1c-0.6,0.1-1.1-0.3-1.5-0.6
						c-1.5-1.3-2.6-2.9-3.3-4.7c-0.3-0.9-0.7-1.7-0.8-2.6c-0.1-0.8,0.2-2.1,1.3-1.8c0.6,0.2,1.3,1,1.7,1.4c0.5,0.5,1,1.1,1.5,1.7
						C223,372.4,223.7,373.8,224.1,375.3z"/>
					<path class="st3" d="M220.6,381.3c-0.1,0.4-0.2,0.7-0.5,1s-0.6,0.5-1,0.4s-0.7-0.3-0.9-0.7s-0.2-0.7-0.3-1.1
						c-0.2-1.2-0.4-2.5-0.5-3.7c0-0.7-0.3-2.4,0.4-2.9c1.7-1.1,2.8,2.4,2.9,3.4C220.9,379,220.9,380.2,220.6,381.3z"/>
				</g>
				<path class="st49" d="M220.4,384.8c0,0.8,0,1.5,0,2.3c0,1.3-0.1,2.7-0.2,4c-0.9,12.1-5.1,21.6-18.2,22.1
					c-13.2-0.6-17.3-10-18.2-22.1c-0.1-1.3-0.2-2.7-0.2-4c0-0.8,0-1.5,0-2.3H220.4z"/>
				<g>
					<g>
						<path class="st3" d="M159.3,270.3c0.1-6.7,0.4-13.7,3.3-19.8c4.3,15.1,4.3,30.9,4.2,46.6c0,5.3,0,10.6-0.1,16c0,1.3,0,2.7,0,4
							c0,3.1-0.2,6.3-1.1,9.3c-1-1.6-1.3-3.3-1.6-5.1c-0.3-1.7-0.9-3.4-1.2-5.2c-0.8-4-1-8-1.5-12c-0.7-5.3-1.2-10.5-1.5-15.8
							C159.4,282.3,159.2,276.3,159.3,270.3z"/>
						<path class="st3" d="M176.8,271.7c-0.3,9.7-1.4,19.3-3.2,28.8c-0.9,4.7-1.9,9.4-3.1,14c-0.6,2.2-1,4.7-1.9,6.8
							c-0.3,0.6-0.7,1.1-1.1,1.7c-0.2,0.3-1.6,2.1-1.6,2.3c-0.2-2.1-0.8-4-0.9-6.1c-0.1-2.4-0.1-4.8-0.1-7.2
							c0.1-4.9,0.6-9.8,1.6-14.7C168.3,288.3,171.7,279.5,176.8,271.7z"/>
						<path class="st3" d="M164.6,326.3c-6.3-17-10.8-34.7-13.3-52.6c1.9,2.6,3.2,5,4.2,8c4.3,13.2,7.7,26.7,10.1,40.3
							C165.9,323.8,164.9,324.6,164.6,326.3z"/>
						<path class="st3" d="M185.4,287.5c-2.6,7.9-5.7,15.7-9.3,23.3c-1.8,3.7-3.6,7.4-5.6,11.1c-0.4,0.8-1.1,3.2-2.6,2.5
							c-0.9-0.5-0.7-2.2-0.6-3c0.3-6.6,2.2-13.1,5.4-18.9c1.6-2.8,3.5-5.7,5.5-8.2c1.1-1.3,2.3-2.6,3.6-3.8
							C182.5,289.8,185.1,288.3,185.4,287.5z"/>
						<path class="st3" d="M165.7,325.4c-3.6-10.6-9.8-19.8-17.6-27.9c1.2,10.4,6.9,20.2,15.3,26.7
							C164.1,324.8,164.7,325.4,165.7,325.4z"/>
						<polygon class="st49" points="184.2,320.4 183.7,323.5 182.8,328.3 178.2,353 153.8,353 149.3,328.3 148.4,323.5 147.8,320.4
													"/>
					</g>
					<g>
						<rect x="142.2" y="353" class="st33" width="47.1" height="4.2"/>
						<rect x="149.3" y="382.5" class="st33" width="32.9" height="3"/>
						<path class="st33" d="M152.8,355.2c0.2,0.1,0.4,0.1,0.6,0.2l0.2,0.1c0.1,0,0.1,0.1,0.2,0.1c0.3,0.1,0.4,0.2,0.5,0.3
							c0.2,0.2,0.1,0.3,0.1,0.5l-0.1,1l-0.2,2l-0.3,4l-0.7,7.9c-0.5,5.3-1,10.5-1.5,15.8s-1.1,10.5-1.7,15.8
							c-0.7,5.3-1.3,10.5-2.1,15.8c-0.1,0.7-0.7,1.1-1.4,1c-0.6-0.1-1.1-0.6-1.1-1.2c0-5.3,0.2-10.6,0.4-15.9s0.4-10.6,0.7-15.9
							s0.6-10.6,1-15.9l0.6-7.9l0.3-4l0.1-2l0.1-1c0-0.2,0-0.3,0.2-0.5c0.1-0.1,0.3-0.1,0.6-0.2c0.1,0,0.1,0,0.2,0h0.2
							c0.2,0,0.4-0.1,0.6-0.1C151.2,354.9,152,355,152.8,355.2z"/>
						<path class="st33" d="M178.8,355.2c-0.2,0.1-0.4,0.1-0.6,0.2l-0.2,0.1c-0.1,0-0.1,0.1-0.2,0.1c-0.3,0.1-0.4,0.2-0.5,0.3
							c-0.2,0.2-0.1,0.3-0.1,0.5l0.1,1l0.2,2l0.3,4l0.7,7.9c0.5,5.3,1,10.5,1.5,15.8s1.1,10.5,1.7,15.8c0.7,5.3,1.3,10.5,2.1,15.8
							c0.1,0.7,0.7,1.1,1.4,1c0.6-0.1,1.1-0.6,1.1-1.2c0-5.3-0.2-10.6-0.4-15.9s-0.4-10.6-0.7-15.9s-0.6-10.6-1-15.9l-0.6-7.9
							l-0.3-4l-0.1-2l-0.1-1c0-0.2,0-0.3-0.2-0.5c-0.1-0.1-0.3-0.1-0.6-0.2c-0.1,0-0.1,0-0.2,0h-0.2c-0.2,0-0.4-0.1-0.6-0.1
							C180.4,354.9,179.6,355,178.8,355.2z"/>
					</g>
				</g>
				<g>
					<g>
						<path class="st6" d="M188.8,367.1c-0.2,0-0.4,0-0.5,0c-1.1,0-1.8-0.4-2.1-1c-0.5-1,0.2-2.2,1.2-2.8c1.1-0.7,2.4-1.2,3.9-1.4
							c-0.1,0-0.2-0.1-0.3-0.1c-0.9-0.4-1.6-1.3-1.3-2.2c0.2-0.6,0.8-0.8,1.2-0.9c2.3-0.7,4.9-0.4,7,0.8c0.2,0.1,0.3,0.4,0.2,0.7
							c-0.1,0.2-0.4,0.3-0.7,0.2c-1.9-1.1-4.2-1.3-6.2-0.7c-0.4,0.1-0.6,0.2-0.6,0.4c-0.1,0.3,0.3,0.7,0.8,0.9
							c0.9,0.4,1.8,0.8,2.8,1c0.6,0,1.1,0.1,1.7,0.2c0.3,0,0.4,0.3,0.4,0.5c0,0.3-0.2,0.4-0.5,0.4c-0.6,0-1.2-0.1-1.8-0.2
							c-2.6-0.2-4.7,0.2-6.2,1.3c-0.6,0.4-1.1,1.1-0.9,1.6c0.2,0.3,0.6,0.5,1.3,0.5c1.9,0.1,3.7-0.3,5.4-1.1c0.2-0.1,0.5,0,0.6,0.2
							s0,0.5-0.2,0.6C192.4,366.7,190.6,367.1,188.8,367.1z"/>
					</g>
					<g>
						<path class="st6" d="M191.6,377.1L191.6,377.1c-0.5,0-0.9-0.2-1.1-0.6c-0.3-0.5-0.3-1,0.1-1.7c1.2-2.3,3.6-3.9,6.2-4.2
							c0.3,0,0.5,0.2,0.5,0.4c0,0.3-0.2,0.5-0.4,0.5c-2.3,0.3-4.4,1.7-5.5,3.7c-0.2,0.4-0.2,0.6-0.2,0.8c0.1,0.1,0.2,0.1,0.3,0.1
							l0,0c0.2,0,0.4-0.1,0.7-0.2c1.3-0.5,2.6-1.2,3.8-2c0.2-0.1,0.5-0.1,0.7,0.1c0.1,0.2,0.1,0.5-0.1,0.7c-1.3,0.8-2.6,1.5-4,2.1
							C192.2,377,191.9,377.1,191.6,377.1z"/>
					</g>
					<g>
						<path class="st6" d="M207,381c-0.1,0-0.1,0-0.2,0c-0.8-0.1-1.3-0.9-1.3-1.6s0.3-1.3,0.5-1.7c0.1-0.2,0.4-0.3,0.6-0.2
							c0.2,0.1,0.3,0.4,0.2,0.6c-0.2,0.4-0.4,0.9-0.4,1.3c0,0.3,0.2,0.7,0.5,0.7s0.7-0.3,0.8-0.6c1.1-1.4,1.5-3.2,1.2-4.9
							c-0.1-0.3,0.1-0.5,0.4-0.6c0.3-0.1,0.5,0.1,0.6,0.3c0.3,1.2,0.7,2.4,1.1,3.5c0.1,0.3,0.3,0.6,0.5,0.7s0.5-0.1,0.6-0.3
							c0.2-0.2,0.2-0.6,0.2-1.1c-0.1-2.3-1.5-4.5-2.7-6.3c-0.1-0.2-0.1-0.5,0.1-0.7c0.2-0.1,0.5-0.1,0.7,0.1
							c1.3,1.9,2.8,4.2,2.9,6.8c0,0.4,0,1.1-0.4,1.6c-0.4,0.6-1.2,0.9-1.8,0.7c-0.6-0.2-0.9-0.9-1-1.3c-0.1-0.3-0.2-0.6-0.3-0.8
							c-0.2,1-0.7,1.9-1.3,2.7C207.9,380.9,207.4,381,207,381z"/>
					</g>
					<g>
						<path class="st6" d="M202.7,361.9h-0.1c-0.3-0.1-0.4-0.3-0.4-0.6c0.3-1.4,1.1-2.7,2.2-3.7c1.1-0.9,2.5-1.5,4-1.6
							c0.9-0.1,1.6,0.3,1.7,0.9c0.2,0.7-0.3,1.2-0.5,1.4c-0.7,0.9-1.6,1.6-2.7,2.2c-0.2,0.1-0.5,0-0.7-0.2c-0.1-0.2,0-0.5,0.2-0.7
							c0.9-0.5,1.7-1.2,2.4-2c0.3-0.3,0.3-0.5,0.3-0.6s-0.4-0.2-0.8-0.2c-1.3,0.1-2.5,0.6-3.4,1.4c-1,0.8-1.6,1.9-1.9,3.2
							C203.1,361.7,202.9,361.9,202.7,361.9z"/>
					</g>
					<g>
						<path class="st6" d="M215.7,367.4c-1,0-2-0.2-3-0.4c-0.3-0.1-0.4-0.3-0.3-0.6c0.1-0.3,0.3-0.4,0.6-0.3
							c1.1,0.3,2.3,0.5,3.5,0.4c0.4,0,0.5-0.1,0.5-0.2s0-0.2-0.1-0.3c-0.1-0.2-0.3-0.3-0.5-0.4c-1.7-1-4-1.1-6.4-0.4
							c-0.3,0.1-0.5-0.1-0.6-0.3c-0.1-0.3,0.1-0.5,0.3-0.6c2.6-0.8,5.2-0.6,7.2,0.5c0.3,0.2,0.6,0.4,0.8,0.7
							c0.3,0.4,0.3,0.9,0.1,1.3c-0.3,0.5-0.9,0.6-1.3,0.6C216.2,367.4,215.9,367.4,215.7,367.4z"/>
					</g>
				</g>
			</g>
			<g id="lampe">
				<polyline class="st50" points="290.9,134.8 275.2,134.8 275.2,145 				"/>
				<circle class="st18" cx="290.9" cy="134.8" r="2.5"/>
				<path class="st18" d="M280,147.6h-10.2c-1.7,0-3.2-1.4-3.2-3.2l0,0c0-1.7,1.4-3.2,3.2-3.2H280c1.7,0,3.2,1.4,3.2,3.2l0,0
					C283.2,146.2,281.7,147.6,280,147.6z"/>
				<g>
					<path class="st3" d="M255.2,166.8v-7c0-8.9,7.3-16.2,16.2-16.2h7c8.9,0,16.2,7.3,16.2,16.2v7"/>
					<ellipse class="st22" cx="274.9" cy="166.9" rx="19.7" ry="1.7"/>
				</g>
				<g class="st51">
					<path class="st22" d="M250,460.8c18.5,1.1,38,1.9,51.6,2.3h0.3l34.4-59.1l-41.7-237.2h-39.4l-46.7,272l0.1,18.9
						C218,458.5,231.8,459.6,250,460.8z"/>
				</g>
			</g>
		</g>
		<g id="Bouton_x5F_Roll_x5F_On"
    style="cursor: pointer;"
    [attr.display]="isActive('door') ? 'inline' : 'none'"
    (mouseleave)="release('door')"
    (click)="goToMap()"
    >
			<g>
				<g>
					<circle class="st22" cx="565.8" cy="170.7" r="37.4"/>
					<g>
						<path class="st52" d="M570.6,143.3c9.1,0,17.4,3.7,23.4,9.6c-5.9-9.4-16.3-15.6-28.2-15.6c-18.4,0-33.3,14.9-33.3,33.3
							c0,9.3,3.8,17.7,9.9,23.7c-3.2-5.1-5.1-11.2-5.1-17.7C537.3,158.2,552.2,143.3,570.6,143.3z"/>
						<path class="st53" d="M599.1,170.7c0-6.5-1.9-12.6-5.1-17.7c-6-5.9-14.3-9.6-23.4-9.6c-18.4,0-33.3,14.9-33.3,33.3
							c0,6.5,1.9,12.6,5.1,17.7c6,5.9,14.3,9.6,23.4,9.6C584.2,204,599.1,189.1,599.1,170.7z"/>
					</g>
				</g>
				<circle class="st52" cx="568.4" cy="174.7" r="27"/>
				<circle class="st24" cx="565.4" cy="169.7" r="28.6"/>
				<g class="st0">
					<g class="st54">
						<circle class="st55" cx="565.4" cy="169.7" r="28.6"/>
					</g>
					<g class="st56">
						<circle class="st22" cx="565.4" cy="169.7" r="28.6"/>
					</g>
				</g>
			</g>
			<path class="st57" d="M565.4,192.8c-12.7,0-23.1-10.4-23.1-23.1c0-12.7,10.4-23.1,23.1-23.1c12.7,0,23.1,10.4,23.1,23.1
				C588.5,182.5,578.2,192.8,565.4,192.8z"/>
			<g>
				<path class="st57" d="M562.1,180.2h13.3v-4.4l-0.3-0.2c-1.5-1.1-2.3-2.8-2.3-4.6v-3.1c0-4-3.3-7.3-7.3-7.3s-7.3,3.3-7.3,7.3v3.1
					c0,1.8-0.9,3.6-2.3,4.6l-0.3,0.2v4.4h7"/>
				<path class="st57" d="M559.4,157.6c-3.7,1.7-6.1,5.3-6.1,9.4"/>
				<path class="st57" d="M577.6,167c0-4.1-2.4-7.8-6.1-9.4"/>
				<line class="st57" x1="575.4" y1="175.8" x2="555.5" y2="175.8"/>
				<path class="st57" d="M568.8,180.2c-0.1,1.7-1.6,3.1-3.3,3.1c-1.8,0-3.2-1.4-3.3-3.1"/>
			</g>
		</g>
	</g>
	<g id="Calque_2_1_">
	</g>
	<g id="Calque_4">
		<g>
			<path id="SVGID_x5F_1_x5F_" class="st26" d="M613.6,184.1c-7.1,26.5-33.6,42.3-59.1,35.5c-25.6-6.9-40.5-33.9-33.4-60.3
				c7.1-26.5,33.6-42.3,59.1-35.5C605.7,130.7,620.7,157.7,613.6,184.1z"/>
			<text transform="matrix(1 0 0 1 0 -1.464844e-05)" class="st27 st28">  </text>
			<text transform="matrix(1 0 0 1 567.6563 122.1955)" class="st27 st28"> </text>
			<text transform="matrix(1 0 0 1 570.9909 122.2757)" class="st22 st29 st30 st58"> </text>
			<text transform="matrix(1 0 0 1 613.4523 157.0191)" class="st22 st29 st30 st58"> </text>
			<text transform="matrix(1 0 0 1 0 -1.464844e-05)" class="st27 st28"> </text>
		</g>
	</g>
</g>
<g id="Calque_3_1_">
	<g>
		<g>
			<path class="st22" d="M536.3,129.2c0.6,0.6,0.8,1.3,0.7,2.1c-0.1,0.8-0.6,1.5-1.4,2.2c-0.7,0.7-1.5,1.1-2.3,1.3l-1.2-1.4
				c0.7-0.2,1.2-0.4,1.6-0.6c0.4-0.2,0.7-0.4,1-0.7c0.3-0.3,0.5-0.6,0.6-0.8c0.1-0.3,0-0.5-0.2-0.8c-0.1-0.1-0.3-0.2-0.4-0.3
				c-0.2,0-0.4,0-0.6,0c-0.2,0-0.7,0.1-1.3,0.3c-0.6,0.2-1.1,0.3-1.5,0.3c-0.4,0-0.7-0.1-1.1-0.2c-0.3-0.1-0.7-0.4-1-0.7
				c-0.5-0.6-0.8-1.3-0.7-2s0.5-1.4,1.2-2.1c0.4-0.3,0.7-0.6,1.1-0.8c0.4-0.2,0.8-0.4,1.3-0.6l0.6,1.6c-0.5,0.2-0.9,0.3-1.2,0.5
				c-0.3,0.2-0.6,0.3-0.8,0.5c-0.3,0.2-0.4,0.5-0.5,0.8c0,0.3,0,0.5,0.2,0.7c0.1,0.1,0.2,0.2,0.4,0.3c0.1,0,0.3,0,0.5,0
				c0.2,0,0.7-0.1,1.4-0.3c0.9-0.3,1.6-0.4,2.2-0.3C535.5,128.5,535.9,128.8,536.3,129.2z"/>
			<path class="st22" d="M543.1,123.5c0.6,1,0.9,1.9,0.7,2.8c-0.2,0.9-0.7,1.6-1.6,2.2c-0.6,0.4-1.2,0.6-1.8,0.6
				c-0.6,0-1.2-0.1-1.7-0.4c-0.5-0.3-1-0.8-1.4-1.4c-0.6-1-0.9-1.9-0.7-2.8c0.2-0.9,0.7-1.6,1.6-2.2c0.6-0.4,1.2-0.6,1.8-0.6
				c0.6,0,1.2,0.1,1.7,0.4C542.2,122.4,542.6,122.9,543.1,123.5z M538.9,126.2c0.4,0.6,0.8,1,1.2,1.2c0.4,0.2,0.8,0.1,1.2-0.2
				c0.4-0.3,0.6-0.6,0.6-1.1s-0.2-0.9-0.6-1.5c-0.4-0.6-0.8-1-1.1-1.1c-0.4-0.2-0.8-0.1-1.2,0.2c-0.4,0.3-0.6,0.6-0.7,1
				S538.6,125.6,538.9,126.2z"/>
			<path class="st22" d="M552.7,123.1l-1.8,0.7l-1.6-3.8c-0.2-0.5-0.4-0.8-0.7-1c-0.3-0.2-0.6-0.2-0.9,0c-0.5,0.2-0.8,0.5-0.9,1
				c-0.1,0.4,0,1,0.4,1.8l1.3,3.1l-1.8,0.7l-2.7-6.5l1.4-0.6l0.6,0.7l0.1,0c0.1-0.4,0.2-0.8,0.5-1.1c0.3-0.3,0.6-0.6,1.1-0.7
				c0.8-0.3,1.4-0.4,2-0.1c0.6,0.2,1,0.8,1.3,1.5L552.7,123.1z"/>
			<path class="st22" d="M561.3,121.1l-1.9,0.4l-0.9-4.1c-0.1-0.5-0.3-0.9-0.5-1.1c-0.2-0.2-0.5-0.3-0.9-0.2c-0.5,0.1-0.9,0.4-1,0.8
				c-0.2,0.4-0.2,1,0,1.8l0.7,3.3l-1.9,0.4l-1.5-6.9l1.4-0.3l0.4,0.8l0.1,0c0.1-0.4,0.4-0.7,0.7-0.9c0.3-0.2,0.7-0.4,1.2-0.5
				c0.8-0.2,1.5-0.1,2,0.3c0.5,0.3,0.9,0.9,1,1.8L561.3,121.1z"/>
			<path class="st22" d="M566.9,120.9c-1.1,0-2-0.3-2.7-0.9c-0.7-0.6-1-1.5-1-2.6c0-1.2,0.2-2.1,0.8-2.8c0.6-0.7,1.4-1,2.4-1
				c1,0,1.8,0.2,2.4,0.8c0.6,0.6,0.9,1.3,0.9,2.3l0,0.9l-4.6,0.1c0,0.5,0.2,1,0.5,1.3c0.3,0.3,0.7,0.4,1.3,0.4
				c0.4,0,0.8-0.1,1.2-0.2c0.4-0.1,0.8-0.3,1.2-0.5l0,1.5c-0.3,0.2-0.7,0.3-1.1,0.4S567.4,120.8,566.9,120.9z M566.4,114.9
				c-0.4,0-0.7,0.2-1,0.4s-0.3,0.6-0.4,1.1l2.7-0.1c0-0.5-0.2-0.8-0.4-1.1C567.1,115,566.8,114.9,566.4,114.9z"/>
			<path class="st22" d="M576.6,121.5l-5.5-0.7l0.1-1.1l3.8-4l-3.1-0.4l0.2-1.5l5.2,0.7l-0.2,1.2l-3.7,3.9l3.3,0.4L576.6,121.5z"/>
			<path class="st22" d="M585.6,124.4c-0.8-0.3-1.3-0.8-1.5-1.6l-0.1,0c-0.2,0.6-0.2,0.9-0.3,1l-1.1,2.7l-1.8-0.7l3.7-9.5l1.5,0.6
				l-0.1,1l0.1,0c0.7-0.5,1.4-0.6,2.3-0.2c0.8,0.3,1.3,0.8,1.5,1.6c0.2,0.8,0.1,1.7-0.3,2.8c-0.3,0.7-0.6,1.3-1,1.7
				c-0.4,0.4-0.9,0.7-1.3,0.8C586.7,124.6,586.2,124.6,585.6,124.4z M587.2,118.8c-0.4-0.2-0.8-0.2-1.1,0c-0.3,0.2-0.6,0.6-0.9,1.2
				l-0.1,0.2c-0.3,0.7-0.4,1.3-0.3,1.6c0.1,0.4,0.4,0.7,0.8,0.9c0.8,0.3,1.5-0.2,2-1.5c0.3-0.6,0.3-1.2,0.3-1.6
				C587.9,119.2,587.7,118.9,587.2,118.8z"/>
			<path class="st22" d="M597.2,126.5c-0.6,1-1.3,1.6-2.2,1.8c-0.9,0.2-1.8,0.1-2.7-0.5c-0.6-0.4-1-0.8-1.3-1.3
				c-0.3-0.5-0.4-1.1-0.3-1.7c0.1-0.6,0.3-1.2,0.7-1.9c0.6-1,1.3-1.6,2.2-1.8c0.9-0.2,1.7-0.1,2.7,0.5c0.6,0.4,1,0.8,1.3,1.3
				c0.3,0.5,0.4,1.1,0.3,1.7C597.9,125.3,597.6,125.9,597.2,126.5z M593.1,123.9c-0.4,0.6-0.6,1.1-0.5,1.5c0,0.4,0.2,0.8,0.7,1.1
				c0.4,0.3,0.8,0.3,1.2,0.1c0.4-0.2,0.8-0.6,1.1-1.2c0.4-0.6,0.6-1.1,0.5-1.5c0-0.4-0.2-0.8-0.7-1c-0.4-0.3-0.8-0.3-1.2-0.1
				C593.8,123,593.5,123.3,593.1,123.9z"/>
			<path class="st22" d="M600.6,134.1l0.4-0.8l-0.1-0.1c-0.4,0.1-0.8,0.1-1.2,0c-0.4-0.1-0.8-0.4-1.1-0.7c-0.6-0.6-0.9-1.1-0.9-1.8
				c0-0.6,0.3-1.2,0.8-1.8l3.1-3.4l1.4,1.3l-2.8,3.1c-0.3,0.4-0.5,0.7-0.6,1c0,0.3,0.1,0.6,0.4,0.9c0.4,0.4,0.8,0.5,1.2,0.4
				c0.4-0.1,0.9-0.5,1.5-1.1l2.3-2.5l1.4,1.3l-4.8,5.2L600.6,134.1z"/>
			<path class="st22" d="M611.4,135.6c0.2,0.2,0.3,0.4,0.4,0.5l-1.5,1c-0.1-0.1-0.2-0.3-0.3-0.5c-0.4-0.5-0.8-0.8-1.3-0.8
				c-0.5-0.1-0.9,0.1-1.4,0.4l-2.8,2.2l-1.2-1.5l5.6-4.4l0.9,1.1l-0.8,1l0.1,0.1c0.4-0.1,0.9,0,1.3,0.1
				C610.8,135,611.1,135.2,611.4,135.6z"/>
			<path class="st22" d="M610.3,148.3c-0.5-1-0.6-2-0.3-2.8s1-1.5,2-2c1.1-0.5,2-0.6,2.9-0.4c0.8,0.3,1.5,0.9,1.9,1.8
				c0.4,0.9,0.5,1.7,0.2,2.5c-0.3,0.7-0.9,1.3-1.8,1.8l-0.8,0.4l-2-4.1c-0.5,0.3-0.8,0.6-1,1c-0.1,0.4-0.1,0.9,0.1,1.4
				c0.2,0.4,0.4,0.7,0.6,1c0.2,0.3,0.5,0.6,0.9,0.9l-1.4,0.6c-0.3-0.2-0.6-0.5-0.8-0.8C610.8,149.2,610.6,148.8,610.3,148.3z
				 M615.6,145.5c-0.2-0.4-0.4-0.6-0.8-0.7c-0.3-0.1-0.7-0.1-1.2,0.1l1.2,2.4c0.4-0.2,0.7-0.5,0.8-0.8
				C615.8,146.2,615.8,145.8,615.6,145.5z"/>
			<path class="st22" d="M614.1,158.9l-0.5-1.9l4-1.1c0.5-0.1,0.8-0.3,1-0.6c0.2-0.2,0.2-0.6,0.1-0.9c-0.1-0.5-0.4-0.8-0.8-1
				c-0.4-0.1-1-0.1-1.8,0.1l-3.2,0.9l-0.5-1.9l6.8-1.9l0.4,1.4l-0.8,0.5l0,0.1c0.4,0.1,0.7,0.3,1,0.6s0.5,0.7,0.6,1.2
				c0.2,0.8,0.2,1.5-0.1,2s-0.9,0.9-1.7,1.1L614.1,158.9z"/>
			<path class="st22" d="M616.3,164c0,0.3,0.2,0.7,0.4,1.2l-1.4,0.2c-0.3-0.5-0.5-1-0.5-1.7c-0.1-0.8,0-1.3,0.4-1.7
				c0.3-0.4,0.9-0.6,1.7-0.7l3.4-0.4l-0.1-0.9l0.8-0.1l0.8,1l1.6,0.4l0.2,1.2l-1.5,0.2l0.2,2l-1.4,0.2l-0.2-2l-3.4,0.4
				c-0.3,0-0.5,0.1-0.6,0.3C616.3,163.6,616.2,163.8,616.3,164z"/>
			<path class="st22" d="M622.3,171.2c0,0.3,0,0.5-0.1,0.7l-1.8-0.1c0-0.2,0.1-0.3,0.1-0.6c0-0.6-0.2-1.1-0.5-1.4
				c-0.3-0.3-0.8-0.5-1.3-0.5l-3.6,0l0-1.9l7.1,0l0,1.5L621,169v0.1c0.4,0.2,0.7,0.5,1,0.9C622.2,170.4,622.3,170.8,622.3,171.2z"/>
			<path class="st22" d="M614.4,176.8c0.2-1.1,0.6-2,1.3-2.5c0.7-0.5,1.6-0.7,2.8-0.6c1.2,0.2,2,0.6,2.6,1.3
				c0.6,0.7,0.8,1.5,0.6,2.6c-0.1,1-0.5,1.7-1.2,2.2c-0.6,0.5-1.5,0.6-2.5,0.5l-0.9-0.1l0.6-4.5c-0.5-0.1-1,0-1.3,0.3
				c-0.3,0.3-0.6,0.7-0.6,1.2c-0.1,0.4-0.1,0.8,0,1.2c0,0.4,0.1,0.8,0.3,1.2l-1.5-0.2c-0.1-0.4-0.2-0.7-0.2-1.1
				C614.3,177.8,614.4,177.3,614.4,176.8z M620.4,177.3c0.1-0.4,0-0.7-0.3-1c-0.2-0.3-0.6-0.4-1-0.5l-0.4,2.7c0.5,0.1,0.9,0,1.1-0.2
				C620.2,178,620.3,177.7,620.4,177.3z"/>
			<path class="st22" d="M619.5,187.3c-0.1,0.3-0.2,0.5-0.2,0.6l-1.7-0.6c0.1-0.1,0.2-0.3,0.2-0.5c0.2-0.6,0.1-1.1-0.1-1.5
				c-0.2-0.4-0.6-0.7-1.1-0.9l-3.5-1l0.5-1.9l6.8,1.9l-0.4,1.4l-1.2-0.1l0,0.1c0.3,0.3,0.5,0.7,0.7,1.1
				C619.6,186.5,619.7,186.9,619.5,187.3z"/>
		</g>
	</g>
</g>
</svg>
